<svg width="172" height="54" viewBox="0 0 172 54" fill="none" xmlns="http://www.w3.org/2000/svg">
<path d="M0 8.61476C0 4.24825 3.53976 0.708496 7.90627 0.708496H163.396C167.763 0.708496 171.302 4.24825 171.302 8.61477V45.5107C171.302 49.8772 167.763 53.417 163.396 53.417H7.90626C3.53975 53.417 0 49.8772 0 45.5107V8.61476Z" fill="white"/>
<path fill-rule="evenodd" clip-rule="evenodd" d="M34.3047 27.4733C34.3335 25.2378 35.5055 23.173 37.41 22.0021C36.203 20.2784 34.254 19.2247 32.1508 19.1589C29.938 18.9266 27.7928 20.483 26.6653 20.483C25.5159 20.483 23.7798 19.1819 21.9103 19.2204C19.4506 19.2999 17.213 20.6645 16.0163 22.815C13.4678 27.2272 15.3687 33.7117 17.81 37.2783C19.0313 39.0247 20.4588 40.9755 22.3266 40.9063C24.1543 40.8305 24.837 39.7408 27.0432 39.7408C29.229 39.7408 29.8694 40.9063 31.7751 40.8623C33.7364 40.8305 34.972 39.1081 36.1506 37.3452C37.0281 36.1008 37.7034 34.7255 38.1514 33.2701C35.822 32.2849 34.3074 30.0025 34.3047 27.4733Z" fill="black"/>
<path fill-rule="evenodd" clip-rule="evenodd" d="M30.7052 16.8133C31.7746 15.5295 32.3014 13.8795 32.1738 12.2136C30.5401 12.3852 29.031 13.166 27.9472 14.4005C26.8769 15.6185 26.3348 17.2119 26.4401 18.8299C28.0957 18.8469 29.6677 18.1036 30.7052 16.8133Z" fill="black"/>
<path d="M54.7601 18.0071V11.4369H56.6576C57.1795 11.4369 57.6183 11.5121 57.974 11.6623C58.3298 11.8046 58.6184 12.0181 58.8398 12.3027C59.0691 12.5794 59.2311 12.9194 59.326 13.3226C59.4288 13.7179 59.4802 14.1686 59.4802 14.6746C59.4802 15.1964 59.4248 15.6431 59.3142 16.0147C59.2114 16.3784 59.077 16.6828 58.9109 16.9279C58.7449 17.1729 58.5552 17.3667 58.3417 17.509C58.1361 17.6513 57.9266 17.762 57.7131 17.841C57.4997 17.9122 57.2981 17.9596 57.1083 17.9833C56.9186 17.9992 56.7604 18.0071 56.6339 18.0071H54.7601ZM53.6335 10.4882V18.9558H56.5391C57.2427 18.9558 57.8515 18.857 58.3654 18.6593C58.8793 18.4617 59.3023 18.177 59.6344 17.8054C59.9664 17.4259 60.2115 16.9634 60.3696 16.4179C60.5278 15.8645 60.6068 15.232 60.6068 14.5204C60.6068 13.1605 60.255 12.1485 59.5513 11.4844C58.8477 10.8203 57.8436 10.4882 56.5391 10.4882H53.6335ZM62.7902 15.8961C62.7902 15.5245 62.8376 15.1964 62.9325 14.9118C63.0353 14.6192 63.1736 14.3741 63.3476 14.1765C63.5215 13.9788 63.7231 13.8286 63.9524 13.7258C64.1896 13.623 64.4386 13.5716 64.6995 13.5716C64.9604 13.5716 65.2055 13.623 65.4348 13.7258C65.672 13.8286 65.8776 13.9788 66.0515 14.1765C66.2254 14.3741 66.3598 14.6192 66.4547 14.9118C66.5575 15.1964 66.6089 15.5245 66.6089 15.8961C66.6089 16.2677 66.5575 16.5997 66.4547 16.8923C66.3598 17.1769 66.2254 17.418 66.0515 17.6157C65.8776 17.8054 65.672 17.9517 65.4348 18.0545C65.2055 18.1573 64.9604 18.2087 64.6995 18.2087C64.4386 18.2087 64.1896 18.1573 63.9524 18.0545C63.7231 17.9517 63.5215 17.8054 63.3476 17.6157C63.1736 17.418 63.0353 17.1769 62.9325 16.8923C62.8376 16.5997 62.7902 16.2677 62.7902 15.8961ZM61.7228 15.8961C61.7228 16.3467 61.7861 16.7658 61.9126 17.1532C62.0391 17.5406 62.2288 17.8806 62.4818 18.1731C62.7348 18.4577 63.0471 18.683 63.4187 18.8491C63.7903 19.0072 64.2172 19.0863 64.6995 19.0863C65.1897 19.0863 65.6167 19.0072 65.9803 18.8491C66.3519 18.683 66.6642 18.4577 66.9172 18.1731C67.1702 17.8806 67.36 17.5406 67.4865 17.1532C67.613 16.7658 67.6762 16.3467 67.6762 15.8961C67.6762 15.4454 67.613 15.0264 67.4865 14.639C67.36 14.2437 67.1702 13.9037 66.9172 13.6191C66.6642 13.3265 66.3519 13.0973 65.9803 12.9312C65.6167 12.7652 65.1897 12.6822 64.6995 12.6822C64.2172 12.6822 63.7903 12.7652 63.4187 12.9312C63.0471 13.0973 62.7348 13.3265 62.4818 13.6191C62.2288 13.9037 62.0391 14.2437 61.9126 14.639C61.7861 15.0264 61.7228 15.4454 61.7228 15.8961ZM75.174 18.9558L77.1308 12.8245H76.0871L74.7115 17.841H74.6877L73.4069 12.8245H72.304L71.0706 17.841H71.0469L69.6594 12.8245H68.5446L70.5132 18.9558H71.6043L72.8377 14.0816H72.8614L74.1066 18.9558H75.174ZM78.3264 12.8245V18.9558H79.3344V15.4929C79.3344 15.2161 79.37 14.9631 79.4411 14.7339C79.5202 14.4967 79.6348 14.2911 79.7851 14.1172C79.9353 13.9432 80.1211 13.8088 80.3425 13.714C80.5717 13.6191 80.8405 13.5716 81.1489 13.5716C81.5363 13.5716 81.8407 13.6823 82.0621 13.9037C82.2834 14.1251 82.3941 14.4255 82.3941 14.805V18.9558H83.4022V14.9236C83.4022 14.5915 83.3666 14.2911 83.2954 14.0223C83.2322 13.7456 83.1176 13.5084 82.9515 13.3107C82.7855 13.1131 82.5681 12.9589 82.2993 12.8482C82.0304 12.7375 81.6944 12.6822 81.2912 12.6822C80.382 12.6822 79.7179 13.0538 79.2988 13.797H79.2751V12.8245H78.3264ZM85.2127 10.4882V18.9558H86.2207V10.4882H85.2127ZM88.7548 15.8961C88.7548 15.5245 88.8023 15.1964 88.8972 14.9118C88.9999 14.6192 89.1383 14.3741 89.3122 14.1765C89.4862 13.9788 89.6878 13.8286 89.9171 13.7258C90.1543 13.623 90.4033 13.5716 90.6642 13.5716C90.9251 13.5716 91.1702 13.623 91.3995 13.7258C91.6367 13.8286 91.8422 13.9788 92.0162 14.1765C92.1901 14.3741 92.3245 14.6192 92.4194 14.9118C92.5222 15.1964 92.5736 15.5245 92.5736 15.8961C92.5736 16.2677 92.5222 16.5997 92.4194 16.8923C92.3245 17.1769 92.1901 17.418 92.0162 17.6157C91.8422 17.8054 91.6367 17.9517 91.3995 18.0545C91.1702 18.1573 90.9251 18.2087 90.6642 18.2087C90.4033 18.2087 90.1543 18.1573 89.9171 18.0545C89.6878 17.9517 89.4862 17.8054 89.3122 17.6157C89.1383 17.418 88.9999 17.1769 88.8972 16.8923C88.8023 16.5997 88.7548 16.2677 88.7548 15.8961ZM87.6875 15.8961C87.6875 16.3467 87.7507 16.7658 87.8772 17.1532C88.0037 17.5406 88.1935 17.8806 88.4465 18.1731C88.6995 18.4577 89.0118 18.683 89.3834 18.8491C89.755 19.0072 90.1819 19.0863 90.6642 19.0863C91.1544 19.0863 91.5813 19.0072 91.945 18.8491C92.3166 18.683 92.6289 18.4577 92.8819 18.1731C93.1349 17.8806 93.3247 17.5406 93.4512 17.1532C93.5777 16.7658 93.6409 16.3467 93.6409 15.8961C93.6409 15.4454 93.5777 15.0264 93.4512 14.639C93.3247 14.2437 93.1349 13.9037 92.8819 13.6191C92.6289 13.3265 92.3166 13.0973 91.945 12.9312C91.5813 12.7652 91.1544 12.6822 90.6642 12.6822C90.1819 12.6822 89.755 12.7652 89.3834 12.9312C89.0118 13.0973 88.6995 13.3265 88.4465 13.6191C88.1935 13.9037 88.0037 14.2437 87.8772 14.639C87.7507 15.0264 87.6875 15.4454 87.6875 15.8961ZM100.498 18.9321C100.324 19.0349 100.083 19.0863 99.7748 19.0863C99.5139 19.0863 99.3044 19.0151 99.1463 18.8728C98.9961 18.7226 98.9209 18.4814 98.9209 18.1494C98.6442 18.4814 98.3201 18.7226 97.9485 18.8728C97.5848 19.0151 97.1895 19.0863 96.7625 19.0863C96.4858 19.0863 96.221 19.0546 95.968 18.9914C95.7229 18.9281 95.5094 18.8293 95.3275 18.6949C95.1457 18.5605 94.9994 18.3866 94.8888 18.1731C94.786 17.9517 94.7346 17.6869 94.7346 17.3785C94.7346 17.0306 94.7939 16.746 94.9125 16.5246C95.0311 16.3033 95.1852 16.1254 95.375 15.991C95.5726 15.8486 95.794 15.7419 96.0391 15.6708C96.2921 15.5996 96.5491 15.5403 96.81 15.4929C97.0867 15.4375 97.3476 15.398 97.5927 15.3743C97.8457 15.3426 98.0671 15.3031 98.2568 15.2557C98.4466 15.2003 98.5968 15.1252 98.7075 15.0303C98.8182 14.9276 98.8735 14.7813 98.8735 14.5915C98.8735 14.3702 98.83 14.1923 98.7431 14.0579C98.664 13.9235 98.5573 13.8207 98.4229 13.7495C98.2964 13.6784 98.1501 13.6309 97.9841 13.6072C97.8259 13.5835 97.6678 13.5716 97.5097 13.5716C97.0827 13.5716 96.727 13.6547 96.4423 13.8207C96.1577 13.9788 96.0035 14.2832 95.9798 14.7339H94.9718C94.9876 14.3544 95.0666 14.0342 95.209 13.7733C95.3513 13.5123 95.541 13.3028 95.7782 13.1447C96.0154 12.9787 96.2842 12.8601 96.5846 12.7889C96.893 12.7178 97.2211 12.6822 97.569 12.6822C97.8457 12.6822 98.1185 12.702 98.3873 12.7415C98.664 12.781 98.913 12.864 99.1344 12.9905C99.3558 13.1091 99.5337 13.2791 99.6681 13.5005C99.8025 13.7219 99.8697 14.0104 99.8697 14.3662V17.5208C99.8697 17.758 99.8816 17.9319 99.9053 18.0426C99.9369 18.1533 100.032 18.2087 100.19 18.2087C100.277 18.2087 100.38 18.1889 100.498 18.1494V18.9321ZM98.8617 15.7893C98.7352 15.8842 98.5691 15.9554 98.3636 16.0028C98.158 16.0424 97.9406 16.0779 97.7113 16.1096C97.4899 16.1333 97.2646 16.1649 97.0353 16.2044C96.806 16.2361 96.6005 16.2914 96.4186 16.3705C96.2368 16.4495 96.0866 16.5642 95.968 16.7144C95.8573 16.8567 95.8019 17.0544 95.8019 17.3074C95.8019 17.4734 95.8336 17.6157 95.8968 17.7343C95.968 17.845 96.0549 17.9359 96.1577 18.0071C96.2684 18.0782 96.3949 18.1296 96.5372 18.1612C96.6795 18.1929 96.8297 18.2087 96.9879 18.2087C97.3199 18.2087 97.6046 18.1652 97.8417 18.0782C98.0789 17.9833 98.2726 17.8687 98.4229 17.7343C98.5731 17.592 98.6838 17.4418 98.7549 17.2836C98.8261 17.1176 98.8617 16.9634 98.8617 16.8211V15.7893ZM102.409 15.9435C102.409 15.6431 102.441 15.3506 102.504 15.0659C102.567 14.7813 102.67 14.5283 102.812 14.3069C102.954 14.0855 103.144 13.9077 103.381 13.7733C103.619 13.6388 103.907 13.5716 104.247 13.5716C104.595 13.5716 104.891 13.6388 105.137 13.7733C105.382 13.8998 105.579 14.0697 105.73 14.2832C105.888 14.4967 106.002 14.7457 106.073 15.0303C106.145 15.3071 106.18 15.5956 106.18 15.8961C106.18 16.1807 106.145 16.4614 106.073 16.7381C106.01 17.0148 105.903 17.2639 105.753 17.4852C105.603 17.6987 105.409 17.8727 105.172 18.0071C104.935 18.1415 104.646 18.2087 104.306 18.2087C103.982 18.2087 103.698 18.1454 103.453 18.0189C103.215 17.8924 103.018 17.7224 102.86 17.509C102.709 17.2955 102.595 17.0544 102.516 16.7855C102.444 16.5088 102.409 16.2281 102.409 15.9435ZM107.153 18.9558V10.4882H106.145V13.6428H106.121C106.01 13.461 105.872 13.3107 105.706 13.1921C105.548 13.0656 105.378 12.9668 105.196 12.8957C105.014 12.8166 104.832 12.7612 104.65 12.7296C104.468 12.698 104.299 12.6822 104.14 12.6822C103.674 12.6822 103.263 12.7692 102.907 12.9431C102.559 13.1091 102.267 13.3384 102.029 13.6309C101.8 13.9156 101.626 14.2516 101.508 14.639C101.397 15.0264 101.342 15.4375 101.342 15.8724C101.342 16.3072 101.401 16.7183 101.519 17.1057C101.638 17.4932 101.812 17.8331 102.041 18.1257C102.278 18.4182 102.571 18.6514 102.919 18.8254C103.275 18.9993 103.69 19.0863 104.164 19.0863C104.591 19.0863 104.982 19.0112 105.338 18.8609C105.694 18.7107 105.955 18.4656 106.121 18.1257H106.145V18.9558H107.153ZM113.214 15.8961C113.214 15.5245 113.261 15.1964 113.356 14.9118C113.459 14.6192 113.597 14.3741 113.771 14.1765C113.945 13.9788 114.147 13.8286 114.376 13.7258C114.613 13.623 114.862 13.5716 115.123 13.5716C115.384 13.5716 115.629 13.623 115.859 13.7258C116.096 13.8286 116.301 13.9788 116.475 14.1765C116.649 14.3741 116.784 14.6192 116.878 14.9118C116.981 15.1964 117.033 15.5245 117.033 15.8961C117.033 16.2677 116.981 16.5997 116.878 16.8923C116.784 17.1769 116.649 17.418 116.475 17.6157C116.301 17.8054 116.096 17.9517 115.859 18.0545C115.629 18.1573 115.384 18.2087 115.123 18.2087C114.862 18.2087 114.613 18.1573 114.376 18.0545C114.147 17.9517 113.945 17.8054 113.771 17.6157C113.597 17.418 113.459 17.1769 113.356 16.8923C113.261 16.5997 113.214 16.2677 113.214 15.8961ZM112.147 15.8961C112.147 16.3467 112.21 16.7658 112.336 17.1532C112.463 17.5406 112.653 17.8806 112.906 18.1731C113.159 18.4577 113.471 18.683 113.842 18.8491C114.214 19.0072 114.641 19.0863 115.123 19.0863C115.613 19.0863 116.04 19.0072 116.404 18.8491C116.776 18.683 117.088 18.4577 117.341 18.1731C117.594 17.8806 117.784 17.5406 117.91 17.1532C118.037 16.7658 118.1 16.3467 118.1 15.8961C118.1 15.4454 118.037 15.0264 117.91 14.639C117.784 14.2437 117.594 13.9037 117.341 13.6191C117.088 13.3265 116.776 13.0973 116.404 12.9312C116.04 12.7652 115.613 12.6822 115.123 12.6822C114.641 12.6822 114.214 12.7652 113.842 12.9312C113.471 13.0973 113.159 13.3265 112.906 13.6191C112.653 13.9037 112.463 14.2437 112.336 14.639C112.21 15.0264 112.147 15.4454 112.147 15.8961ZM119.526 12.8245V18.9558H120.534V15.4929C120.534 15.2161 120.569 14.9631 120.641 14.7339C120.72 14.4967 120.834 14.2911 120.984 14.1172C121.135 13.9432 121.32 13.8088 121.542 13.714C121.771 13.6191 122.04 13.5716 122.348 13.5716C122.736 13.5716 123.04 13.6823 123.261 13.9037C123.483 14.1251 123.594 14.4255 123.594 14.805V18.9558H124.602V14.9236C124.602 14.5915 124.566 14.2911 124.495 14.0223C124.432 13.7456 124.317 13.5084 124.151 13.3107C123.985 13.1131 123.767 12.9589 123.499 12.8482C123.23 12.7375 122.894 12.6822 122.491 12.6822C121.581 12.6822 120.917 13.0538 120.498 13.797H120.474V12.8245H119.526ZM131.29 12.8245V10.9863H130.282V12.8245H129.238V13.714H130.282V17.6157C130.282 17.9003 130.31 18.1296 130.365 18.3035C130.42 18.4775 130.503 18.6119 130.614 18.7068C130.733 18.8016 130.883 18.8688 131.065 18.9084C131.255 18.94 131.48 18.9558 131.741 18.9558H132.512V18.0664H132.049C131.891 18.0664 131.761 18.0624 131.658 18.0545C131.563 18.0387 131.488 18.011 131.432 17.9715C131.377 17.9319 131.338 17.8766 131.314 17.8054C131.298 17.7343 131.29 17.6394 131.29 17.5208V13.714H132.512V12.8245H131.29ZM133.869 10.4882V18.9558H134.877V15.4929C134.877 15.2161 134.912 14.9631 134.983 14.7339C135.063 14.4967 135.177 14.2911 135.327 14.1172C135.478 13.9432 135.663 13.8088 135.885 13.714C136.114 13.6191 136.383 13.5716 136.691 13.5716C137.079 13.5716 137.383 13.6823 137.604 13.9037C137.826 14.1251 137.936 14.4255 137.936 14.805V18.9558H138.944V14.9236C138.944 14.5915 138.909 14.2911 138.838 14.0223C138.775 13.7456 138.66 13.5084 138.494 13.3107C138.328 13.1131 138.11 12.9589 137.842 12.8482C137.573 12.7375 137.237 12.6822 136.834 12.6822C136.652 12.6822 136.462 12.702 136.264 12.7415C136.075 12.781 135.889 12.8443 135.707 12.9312C135.533 13.0103 135.375 13.117 135.232 13.2514C135.09 13.3779 134.979 13.5361 134.9 13.7258H134.877V10.4882H133.869ZM144.953 15.3031H141.431C141.447 15.0659 141.498 14.8446 141.585 14.639C141.672 14.4255 141.791 14.2397 141.941 14.0816C142.091 13.9235 142.269 13.8009 142.475 13.714C142.688 13.6191 142.925 13.5716 143.186 13.5716C143.439 13.5716 143.668 13.6191 143.874 13.714C144.087 13.8009 144.269 13.9235 144.42 14.0816C144.578 14.2318 144.7 14.4137 144.787 14.6271C144.882 14.8406 144.937 15.0659 144.953 15.3031ZM145.926 17.0109H144.93C144.843 17.4141 144.661 17.7145 144.384 17.9122C144.115 18.1098 143.767 18.2087 143.34 18.2087C143.008 18.2087 142.72 18.1533 142.475 18.0426C142.23 17.9319 142.028 17.7857 141.87 17.6038C141.712 17.4141 141.597 17.2006 141.526 16.9634C141.455 16.7183 141.423 16.4614 141.431 16.1926H146.021C146.036 15.821 146.001 15.4296 145.914 15.0185C145.835 14.6074 145.685 14.2279 145.463 13.88C145.25 13.5321 144.961 13.2475 144.597 13.0261C144.242 12.7968 143.791 12.6822 143.245 12.6822C142.826 12.6822 142.439 12.7612 142.083 12.9194C141.735 13.0775 141.431 13.2989 141.17 13.5835C140.917 13.8681 140.719 14.2041 140.577 14.5915C140.435 14.979 140.364 15.4059 140.364 15.8724C140.379 16.3388 140.447 16.7697 140.565 17.165C140.692 17.5604 140.878 17.9003 141.123 18.1849C141.368 18.4696 141.668 18.691 142.024 18.8491C142.388 19.0072 142.815 19.0863 143.305 19.0863C144.001 19.0863 144.578 18.9123 145.036 18.5645C145.495 18.2166 145.791 17.6987 145.926 17.0109Z" fill="black"/>
<path d="M75.3528 29.3131C78.3806 29.3131 80.3766 31.7066 80.3766 35.4037C80.3766 39.111 78.3923 41.4929 75.3978 41.4929C73.85 41.5739 72.3921 40.7632 71.6441 39.4057H71.5875V45.3148H69.1386V29.4379H71.509V31.4222H71.5541C72.3352 30.0732 73.7947 29.2629 75.3528 29.3131ZM88.4835 29.3131C91.5115 29.3131 93.5073 31.7066 93.5073 35.4037C93.5073 39.111 91.523 41.4929 88.5286 41.4929C86.9808 41.5739 85.5229 40.7632 84.7749 39.4057H84.7183V45.3148H82.2694V29.4379H84.6398V31.4222H84.6848C85.466 30.0732 86.9255 29.2629 88.4835 29.3131ZM106.064 24.7319C109.522 24.7319 111.892 26.6712 111.972 29.4945H109.5C109.352 27.8615 108.002 26.8758 106.029 26.8758C104.057 26.8758 102.707 27.8731 102.707 29.3246C102.707 30.4815 103.569 31.1622 105.678 31.6833L107.481 32.126C110.838 32.92 112.233 34.2686 112.233 36.6621C112.233 39.7234 109.795 41.6408 105.916 41.6408C102.287 41.6408 99.8372 39.7685 99.6789 36.8088L102.186 36.8089C102.367 38.4316 103.944 39.497 106.098 39.497C108.162 39.497 109.647 38.4315 109.647 36.9684C109.647 35.6983 108.751 34.9378 106.63 34.4166L104.51 33.9057C101.505 33.18 100.11 31.7747 100.11 29.4945C100.11 26.6712 102.57 24.7319 106.064 24.7319ZM126.759 29.2912C130.218 29.2912 132.418 31.6499 132.418 35.4037C132.418 39.1676 130.23 41.5161 126.759 41.5161C123.29 41.5161 121.101 39.1676 121.101 35.4037C121.101 31.65 123.312 29.2912 126.759 29.2912ZM146.589 29.2912C149.89 29.2912 151.965 31.5586 151.965 35.1759V36.0149H143.539V36.1629C143.461 37.0511 143.767 37.9302 144.381 38.5768C144.995 39.2233 145.858 39.5749 146.749 39.5421C147.937 39.6534 149.057 38.971 149.504 37.8641L151.829 37.8641C151.5 40.0298 149.39 41.5161 146.692 41.5161C143.221 41.5161 141.067 39.1908 141.067 35.4603C141.067 31.7182 143.233 29.2912 146.589 29.2912ZM117.518 26.6146V29.4379H119.787V31.3772H117.518V37.9542C117.518 38.9759 117.973 39.452 118.97 39.452C119.239 39.4473 119.508 39.4284 119.775 39.3954V41.323C119.327 41.4068 118.871 41.4447 118.415 41.4363C116 41.4363 115.058 40.5291 115.058 38.2153V31.3772H113.323V29.4379H115.058V26.6146H117.518ZM61.7098 25.0048L67.6177 41.3681H64.9307L63.4342 36.9453H57.1969L55.6991 41.3681H53.0572L58.965 25.0048H61.7098ZM139.699 29.3131C139.982 29.3121 140.263 29.3428 140.538 29.4045V31.695C140.182 31.5861 139.81 31.5362 139.438 31.547C138.718 31.5178 138.021 31.8047 137.531 32.3324C137.04 32.8602 136.805 33.5759 136.886 34.2918V41.3681H134.437V29.4379H136.773V31.4685H136.83C137.155 30.1613 138.353 29.2617 139.699 29.3131ZM126.759 31.309C124.775 31.309 123.596 32.8403 123.596 35.4037C123.596 37.9889 124.775 39.4971 126.759 39.4971C128.743 39.4971 129.923 37.9889 129.923 35.4037C129.923 32.8287 128.743 31.309 126.759 31.309ZM74.7068 31.4003C72.8357 31.4003 71.5772 33.0217 71.5772 35.4037C71.5772 37.8075 72.8357 39.4173 74.7068 39.4173C76.6113 39.4173 77.8595 37.8409 77.8595 35.4037C77.8595 32.9883 76.6113 31.4003 74.7068 31.4003ZM87.8376 31.4003C85.9665 31.4003 84.708 33.0217 84.708 35.4037C84.708 37.8075 85.9665 39.4173 87.8376 39.4173C89.7421 39.4173 90.9903 37.8409 90.9903 35.4037C90.9903 32.9883 89.7421 31.4003 87.8376 31.4003ZM60.3497 27.7264H60.2815L57.8429 34.9044H62.787L60.3497 27.7264ZM146.589 31.2755C145.784 31.2707 145.01 31.5878 144.439 32.1564C143.868 32.725 143.549 33.498 143.551 34.3034H149.515C149.56 33.5053 149.269 32.7249 148.714 32.1501C148.158 31.5753 147.388 31.2583 146.589 31.2755Z" fill="black"/>
</svg>
