<svg width="379" height="320" viewBox="0 0 379 320" fill="none" xmlns="http://www.w3.org/2000/svg">
<g clip-path="url(#clip0_50_700)">
<rect width="379" height="320" fill="white"/>
<g filter="url(#filter0_d_50_700)">
<path d="M190.024 23.1861H173.531C172.446 23.2103 171.414 23.6644 170.663 24.4487C169.912 25.233 169.503 26.2833 169.526 27.3688V30.331C169.539 30.8679 169.445 31.4019 169.251 31.9025C169.056 32.4031 168.765 32.8604 168.394 33.2483C168.022 33.6362 167.578 33.9471 167.086 34.1631C166.595 34.3791 166.065 34.496 165.528 34.5071H133.412C132.332 34.4778 131.306 34.0223 130.56 33.24C129.813 32.4577 129.406 31.4121 129.428 30.331V27.3292C129.44 26.792 129.346 26.2577 129.152 25.7567C128.958 25.2557 128.667 24.798 128.295 24.4095C127.924 24.0211 127.48 23.7096 126.988 23.4929C126.496 23.2762 125.967 23.1585 125.43 23.1465H105.215C101.783 23.1517 98.4938 24.5183 96.0683 26.9462C93.6428 29.3742 92.2796 32.6652 92.2779 36.0971L92.2383 244.046C92.2366 245.748 92.5702 247.434 93.2202 249.007C93.8702 250.58 94.8237 252.01 96.0264 253.214C97.2291 254.419 98.6573 255.375 100.229 256.027C101.802 256.679 103.487 257.016 105.189 257.016L190.005 257.063C193.441 257.056 196.733 255.685 199.159 253.252C201.585 250.818 202.946 247.522 202.942 244.086L202.982 36.1367C202.98 32.7014 201.614 29.4073 199.184 26.9788C196.755 24.5503 193.46 23.1861 190.024 23.1861Z" fill="white"/>
<path d="M190.024 23.1863H190.466C190.908 23.1895 191.349 23.2226 191.786 23.2853C193.508 23.4914 195.167 24.0651 196.648 24.9676C197.751 25.6093 198.747 26.417 199.604 27.3625C200.655 28.4924 201.491 29.8048 202.071 31.2351C202.75 32.9105 203.082 34.7059 203.048 36.513C203.048 38.4329 203.048 40.4714 203.048 42.6288C203.048 59.9007 203.048 84.8915 203.087 115.774C203.127 146.656 203.087 183.43 203.087 224.261V243.69C203.114 245.027 202.947 246.36 202.592 247.648C202.231 248.944 201.672 250.177 200.936 251.303C200.183 252.427 199.272 253.435 198.232 254.299C196.104 256.028 193.487 257.045 190.75 257.208C188.032 257.287 185.327 257.208 182.602 257.241H166.109H132.225H114.894H106.132C103.138 257.413 100.17 256.595 97.6877 254.912C95.221 253.195 93.4093 250.693 92.5483 247.813C92.1425 246.388 91.96 244.908 92.0073 243.426V239.059C92.0073 233.24 92.0073 227.461 92.0073 221.721C92.0073 210.241 92.0073 198.942 92.0073 187.824C92.0073 165.604 92.0073 144.169 92.0073 123.75C92.0073 103.331 92.0073 83.9283 92.0403 65.7657C92.0403 56.6878 92.0403 47.9287 92.0403 39.4884V36.3019C92.0403 35.7807 92.0865 35.2463 92.1195 34.7251C92.1812 34.2064 92.2693 33.6911 92.3834 33.1814C92.8681 31.1587 93.8218 29.2784 95.1675 27.6923C96.4567 26.1624 98.0769 24.9456 99.9057 24.1341C101.734 23.3226 103.724 22.9376 105.723 23.0082H117.025H125.12C126.034 22.9582 126.939 23.2135 127.692 23.7339C128.426 24.2471 128.982 24.9757 129.282 25.8187C129.526 26.6486 129.616 27.5163 129.546 28.3785V29.6716C129.536 30.0832 129.549 30.4951 129.586 30.9053C129.688 31.6982 130.021 32.4437 130.543 33.0494C131.058 33.6577 131.75 34.091 132.522 34.2897C132.907 34.3771 133.301 34.4148 133.696 34.4019H139.568H156.662H164.202C164.796 34.4019 165.403 34.4019 165.964 34.4019C166.529 34.3355 167.072 34.1439 167.554 33.8411C168.017 33.545 168.417 33.1589 168.728 32.7056C169.04 32.2523 169.258 31.741 169.368 31.2021C169.454 30.6968 169.487 30.1838 169.467 29.6716V28.1278C169.446 27.621 169.468 27.1134 169.533 26.6104C169.62 26.1252 169.785 25.6573 170.021 25.2249C170.48 24.3903 171.218 23.7434 172.106 23.3975C172.938 23.1316 173.816 23.0373 174.686 23.1204H183.091H188.263H190.024H188.263H183.091H174.679C173.827 23.0419 172.967 23.1362 172.152 23.3975C171.306 23.7449 170.607 24.3743 170.173 25.1788C169.943 25.6005 169.785 26.0575 169.704 26.5312C169.639 27.0253 169.617 27.5242 169.639 28.0222C169.639 28.5302 169.639 29.0448 169.639 29.5726C169.662 30.1092 169.626 30.6468 169.533 31.1758C169.417 31.7296 169.191 32.2547 168.869 32.7203C168.548 33.1859 168.136 33.5826 167.659 33.8873C167.16 34.2013 166.596 34.3997 166.01 34.4678C165.41 34.5206 164.829 34.4678 164.229 34.4678H133.703C133.292 34.4807 132.882 34.4408 132.482 34.3491C131.663 34.1384 130.929 33.6772 130.384 33.0296C129.827 32.3853 129.472 31.5916 129.362 30.7469C129.32 30.3261 129.305 29.903 129.315 29.4802V28.3851C129.389 27.5476 129.304 26.7038 129.065 25.8979C128.782 25.0972 128.256 24.4051 127.561 23.9187C126.849 23.437 125.997 23.205 125.139 23.2589H105.743C103.801 23.2008 101.87 23.5655 100.083 24.3277C98.269 25.1354 96.6611 26.3419 95.3786 27.8573C94.0902 29.4183 93.1863 31.26 92.7396 33.2341C92.6077 33.7289 92.5681 34.2435 92.4823 34.7515C92.3966 35.2595 92.4164 35.7741 92.4098 36.2953V39.4357C92.4098 47.8671 92.4098 56.6262 92.4098 65.713C92.4098 83.8755 92.4098 103.278 92.4098 123.697C92.4098 144.116 92.4098 165.551 92.4098 187.771V221.655C92.4098 227.395 92.4098 233.174 92.4098 238.993V243.36C92.3629 244.806 92.5409 246.251 92.9376 247.642C93.7727 250.441 95.5335 252.874 97.9318 254.543C100.341 256.183 103.222 256.988 106.132 256.832H132.218H166.102H182.596C185.314 256.832 188.045 256.878 190.717 256.799C193.383 256.644 195.933 255.657 198.007 253.975C199.021 253.134 199.91 252.152 200.646 251.059C201.363 249.964 201.906 248.764 202.256 247.503C202.603 246.247 202.767 244.947 202.744 243.644V239.685C202.744 234.452 202.744 229.284 202.744 224.182C202.744 183.351 202.784 146.583 202.803 115.695C202.823 84.8057 202.856 59.8215 202.876 42.5496C202.876 40.3857 202.876 38.3537 202.876 36.4339C202.912 34.6483 202.589 32.8736 201.926 31.2153C201.352 29.7957 200.527 28.4907 199.492 27.3625C197.463 25.1335 194.718 23.6842 191.733 23.2655C191.296 23.1967 190.856 23.1548 190.414 23.1402L190.024 23.1863Z" fill="#F9F9F9"/>
<path d="M130.602 75.1935L131.618 73.9664C131.824 74.2929 132.106 74.564 132.441 74.7561C132.775 74.9482 133.152 75.0553 133.538 75.0681C134.534 75.0681 135.042 74.4744 135.042 73.2869V68.2926H131.605V66.7885H136.836V73.2143C136.836 75.4904 135.708 76.6053 133.584 76.6053C133.011 76.6224 132.442 76.5034 131.923 76.2579C131.405 76.0125 130.952 75.6477 130.602 75.1935Z" fill="#263238"/>
<path d="M145.354 72.1319V76.4532H143.737V75.5559C143.465 75.902 143.111 76.1744 142.706 76.3484C142.302 76.5224 141.86 76.5924 141.422 76.5521C139.733 76.5521 138.67 75.6285 138.67 74.342C138.67 73.0555 139.502 72.1517 141.738 72.1517H143.638V72.0395C143.638 71.0301 143.031 70.4364 141.804 70.4364C140.998 70.4277 140.212 70.6851 139.568 71.1687L138.908 69.9152C139.822 69.286 140.913 68.9669 142.022 69.0047C144.126 69.0047 145.354 70.0075 145.354 72.1319ZM143.625 74.1507V73.293H141.844C140.676 73.293 140.359 73.735 140.359 74.276C140.359 74.817 140.881 75.2986 141.765 75.2986C142.156 75.3251 142.545 75.2286 142.879 75.0228C143.212 74.817 143.473 74.5121 143.625 74.1507Z" fill="#263238"/>
<path d="M154.821 72.2307V76.453H153.092V72.455C153.092 71.1355 152.433 70.5088 151.344 70.5088C150.11 70.5088 149.286 71.2543 149.286 72.7255V76.453H147.557V69.0837H149.2V70.0338C149.521 69.6859 149.916 69.4133 150.355 69.2354C150.794 69.0575 151.267 68.9787 151.74 69.0046C153.508 69.0046 154.821 70.0074 154.821 72.2307Z" fill="#263238"/>
<path d="M163.985 73.3193H158.199C158.309 73.8567 158.613 74.3346 159.054 74.661C159.495 74.9873 160.041 75.1392 160.587 75.0874C160.954 75.0995 161.32 75.0347 161.661 74.8973C162.002 74.7598 162.31 74.5527 162.566 74.2891L163.49 75.3513C163.116 75.7586 162.656 76.0776 162.144 76.2853C161.632 76.493 161.079 76.5841 160.528 76.552C158.054 76.552 156.457 74.9621 156.457 72.7718C156.442 72.2696 156.531 71.7698 156.717 71.3034C156.904 70.837 157.184 70.414 157.541 70.0607C157.898 69.7073 158.324 69.4312 158.793 69.2496C159.261 69.0679 159.762 68.9845 160.264 69.0047C160.765 68.9853 161.265 69.0712 161.731 69.2568C162.198 69.4423 162.62 69.7234 162.971 70.082C163.322 70.4405 163.594 70.8686 163.77 71.3387C163.946 71.8087 164.021 72.3104 163.991 72.8113C164.011 72.9499 163.998 73.1544 163.985 73.3193ZM158.186 72.178H162.368C162.321 71.667 162.078 71.1942 161.689 70.8594C161.3 70.5246 160.796 70.354 160.283 70.3835C159.772 70.365 159.273 70.5392 158.885 70.8716C158.496 71.204 158.246 71.6703 158.186 72.178Z" fill="#263238"/>
<path d="M139.403 83.7239C139.403 82.3319 140.135 81.5006 141.151 81.5006C142.167 81.5006 142.899 82.3319 142.899 83.7239C142.899 85.116 142.161 85.9472 141.151 85.9472C140.142 85.9472 139.403 85.0896 139.403 83.7239ZM142.438 83.7239C142.438 82.5562 141.91 81.9096 141.151 81.9096C140.393 81.9096 139.832 82.5694 139.832 83.7239C139.832 84.8785 140.353 85.5382 141.151 85.5382C141.949 85.5382 142.418 84.8917 142.418 83.7239H142.438Z" fill="#263238"/>
<path d="M147.26 84.7591H146.376V85.9136H145.921V84.7591H143.454V84.4292L145.776 81.5264H146.271L144.034 84.3566H145.934V83.3406H146.376V84.3566H147.247L147.26 84.7591Z" fill="#263238"/>
<path d="M147.696 82.9317C147.695 82.8879 147.703 82.8443 147.719 82.8035C147.735 82.7627 147.759 82.7255 147.79 82.6942C147.821 82.6629 147.857 82.638 147.898 82.621C147.938 82.604 147.982 82.5953 148.026 82.5953C148.07 82.5944 148.115 82.6025 148.156 82.619C148.198 82.6355 148.236 82.6601 148.268 82.6915C148.3 82.7228 148.325 82.7602 148.342 82.8014C148.36 82.8427 148.369 82.887 148.369 82.9317C148.369 83.0233 148.333 83.1113 148.269 83.1767C148.204 83.2421 148.117 83.2797 148.026 83.2814C147.981 83.2806 147.937 83.2708 147.896 83.2527C147.855 83.2346 147.818 83.2085 147.787 83.1759C147.756 83.1433 147.732 83.105 147.717 83.063C147.701 83.0211 147.694 82.9765 147.696 82.9317ZM147.696 85.5707C147.695 85.5268 147.703 85.4832 147.719 85.4424C147.735 85.4016 147.759 85.3645 147.79 85.3332C147.821 85.3018 147.857 85.2769 147.898 85.2599C147.938 85.243 147.982 85.2342 148.026 85.2342C148.077 85.2196 148.13 85.2171 148.183 85.2268C148.235 85.2365 148.284 85.2582 148.326 85.2902C148.369 85.3222 148.403 85.3636 148.427 85.4111C148.45 85.4586 148.463 85.511 148.463 85.5641C148.463 85.6172 148.45 85.6696 148.427 85.7171C148.403 85.7646 148.369 85.806 148.326 85.838C148.284 85.8699 148.235 85.8916 148.183 85.9014C148.13 85.9111 148.077 85.9085 148.026 85.894C147.944 85.8929 147.865 85.8622 147.805 85.8076C147.744 85.753 147.705 85.6782 147.696 85.5971V85.5707Z" fill="#263238"/>
<path d="M152.004 84.6205C152.004 85.366 151.489 85.94 150.414 85.94C149.84 85.9587 149.281 85.7582 148.85 85.3792L149.068 85.023C149.426 85.3557 149.899 85.5377 150.387 85.531C151.126 85.531 151.522 85.1681 151.522 84.6337C151.522 84.0993 151.173 83.7233 150.058 83.7233H149.127L149.352 81.5264H151.746V81.9288H149.767L149.616 83.3209H150.176C151.502 83.3274 152.004 83.8486 152.004 84.6205Z" fill="#263238"/>
<path d="M155.863 84.601C155.858 84.7881 155.814 84.9721 155.734 85.1415C155.655 85.311 155.541 85.4622 155.401 85.586C155.261 85.7097 155.096 85.8032 154.918 85.8608C154.74 85.9183 154.552 85.9387 154.366 85.9205C153.205 85.9205 152.571 85.1156 152.571 83.7368C152.571 82.2458 153.383 81.4739 154.55 81.4739C154.912 81.4581 155.272 81.5378 155.593 81.7048L155.408 82.0676C155.15 81.9198 154.854 81.8489 154.557 81.8631C153.614 81.8631 153.007 82.4701 153.007 83.6576C153.007 83.7566 153.007 83.8819 153.007 84.0139C153.131 83.7747 153.321 83.5765 153.555 83.4431C153.789 83.3097 154.057 83.2467 154.326 83.2618C154.518 83.2295 154.715 83.2403 154.903 83.2933C155.091 83.3462 155.264 83.4401 155.411 83.5682C155.558 83.6963 155.675 83.8553 155.753 84.0339C155.831 84.2125 155.869 84.4062 155.863 84.601ZM155.415 84.601C155.415 84.0271 154.992 83.6576 154.319 83.6576C154.182 83.6421 154.042 83.655 153.91 83.6953C153.777 83.7357 153.655 83.8027 153.549 83.8923C153.443 83.9819 153.357 84.0922 153.295 84.2163C153.234 84.3405 153.199 84.4759 153.191 84.6142C153.191 85.0958 153.594 85.551 154.346 85.551C154.479 85.5668 154.614 85.5544 154.742 85.5146C154.87 85.4749 154.988 85.4087 155.089 85.3204C155.189 85.2321 155.271 85.1236 155.327 85.0019C155.383 84.8803 155.413 84.7482 155.415 84.6142V84.601Z" fill="#263238"/>
<path d="M147.564 215.499C155.74 215.499 162.368 208.87 162.368 200.694C162.368 192.518 155.74 185.89 147.564 185.89C139.388 185.89 132.759 192.518 132.759 200.694C132.759 208.87 139.388 215.499 147.564 215.499Z" fill="#257CFF"/>
<path d="M141.098 203.129L143.737 202.509C143.895 202.47 144.036 202.38 144.137 202.252C144.237 202.124 144.292 201.966 144.291 201.803V201.262C144.291 201.262 144.179 200.338 145.05 200.279C145.677 200.239 149.668 200.279 149.668 200.279C149.668 200.279 150.711 200.279 150.691 201.084V201.862C150.691 201.995 150.735 202.123 150.814 202.229C150.894 202.335 151.006 202.412 151.133 202.449L153.996 203.32C154.143 203.356 154.299 203.34 154.435 203.276C154.572 203.211 154.683 203.101 154.748 202.964L155.111 202.08C155.177 201.919 155.209 201.746 155.204 201.572C155.17 201.093 154.998 200.635 154.709 200.252C154.141 199.527 151.463 197.805 146.363 198.055C141.501 198.286 140.425 200.338 140.162 200.826C139.979 201.259 139.949 201.74 140.076 202.192C140.122 202.311 140.208 202.502 140.287 202.7C140.352 202.854 140.468 202.981 140.616 203.059C140.764 203.137 140.934 203.162 141.098 203.129Z" fill="white"/>
<path d="M120.442 132.808C126.49 132.808 131.394 127.904 131.394 121.856C131.394 115.808 126.49 110.904 120.442 110.904C114.394 110.904 109.49 115.808 109.49 121.856C109.49 127.904 114.394 132.808 120.442 132.808Z" fill="#455A64"/>
<path d="M120.442 124.317C119.917 124.317 119.414 124.109 119.043 123.738C118.671 123.367 118.463 122.863 118.463 122.338V118.076C118.463 117.551 118.671 117.048 119.043 116.677C119.414 116.306 119.917 116.097 120.442 116.097C120.967 116.097 121.47 116.306 121.842 116.677C122.213 117.048 122.421 117.551 122.421 118.076V122.378C122.411 122.896 122.198 123.389 121.828 123.752C121.458 124.115 120.96 124.318 120.442 124.317ZM120.442 116.48C120.029 116.482 119.633 116.647 119.341 116.94C119.049 117.233 118.885 117.63 118.885 118.043V122.345C118.911 122.741 119.087 123.113 119.376 123.384C119.666 123.656 120.048 123.807 120.445 123.807C120.843 123.807 121.225 123.656 121.515 123.384C121.804 123.113 121.98 122.741 122.006 122.345V118.076C122.01 117.868 121.973 117.661 121.896 117.468C121.82 117.274 121.705 117.098 121.56 116.949C121.414 116.801 121.24 116.683 121.048 116.602C120.856 116.521 120.65 116.48 120.442 116.48Z" fill="white"/>
<path d="M120.442 125.703C119.928 125.731 119.415 125.648 118.937 125.459C118.459 125.269 118.027 124.979 117.671 124.608C116.411 123.216 116.616 121.032 116.622 120.94C116.629 120.885 116.657 120.835 116.7 120.8C116.743 120.766 116.798 120.75 116.853 120.755C116.88 120.758 116.906 120.765 116.93 120.778C116.954 120.791 116.975 120.808 116.992 120.829C117.009 120.85 117.022 120.874 117.03 120.9C117.038 120.925 117.04 120.953 117.038 120.979C117.038 120.979 116.846 123.077 117.981 124.331C118.299 124.658 118.683 124.912 119.107 125.077C119.532 125.242 119.987 125.314 120.442 125.287C120.902 125.312 121.363 125.239 121.794 125.074C122.224 124.909 122.616 124.656 122.942 124.331C123.709 123.38 124.111 122.187 124.077 120.966C124.077 120.911 124.098 120.859 124.137 120.819C124.175 120.78 124.227 120.757 124.282 120.755C124.335 120.757 124.386 120.777 124.425 120.814C124.464 120.85 124.488 120.9 124.493 120.953C124.535 122.287 124.089 123.592 123.239 124.621C122.874 124.986 122.436 125.271 121.955 125.457C121.473 125.643 120.958 125.727 120.442 125.703Z" fill="white"/>
<path d="M120.442 128.731C120.388 128.731 120.336 128.709 120.297 128.671C120.259 128.632 120.238 128.58 120.238 128.526V125.498C120.232 125.467 120.233 125.436 120.241 125.406C120.249 125.377 120.264 125.349 120.284 125.325C120.303 125.301 120.328 125.282 120.356 125.269C120.384 125.256 120.415 125.25 120.445 125.25C120.476 125.25 120.507 125.256 120.535 125.269C120.563 125.282 120.587 125.301 120.607 125.325C120.627 125.349 120.641 125.377 120.649 125.406C120.657 125.436 120.659 125.467 120.653 125.498V128.526C120.653 128.553 120.648 128.581 120.637 128.606C120.626 128.631 120.611 128.654 120.591 128.673C120.571 128.692 120.548 128.707 120.522 128.717C120.497 128.727 120.47 128.731 120.442 128.731Z" fill="white"/>
<path d="M149.2 132.808C155.248 132.808 160.152 127.904 160.152 121.856C160.152 115.808 155.248 110.904 149.2 110.904C143.152 110.904 138.248 115.808 138.248 121.856C138.248 127.904 143.152 132.808 149.2 132.808Z" fill="#455A64"/>
<path d="M146.211 123.143C146.914 123.143 147.485 122.573 147.485 121.87C147.485 121.166 146.914 120.596 146.211 120.596C145.508 120.596 144.938 121.166 144.938 121.87C144.938 122.573 145.508 123.143 146.211 123.143Z" fill="white"/>
<path d="M149.2 123.143C149.903 123.143 150.473 122.573 150.473 121.87C150.473 121.166 149.903 120.596 149.2 120.596C148.497 120.596 147.927 121.166 147.927 121.87C147.927 122.573 148.497 123.143 149.2 123.143Z" fill="white"/>
<path d="M152.195 123.143C152.898 123.143 153.468 122.573 153.468 121.87C153.468 121.166 152.898 120.596 152.195 120.596C151.492 120.596 150.922 121.166 150.922 121.87C150.922 122.573 151.492 123.143 152.195 123.143Z" fill="white"/>
<path d="M147.485 118.835C147.485 119.088 147.409 119.336 147.268 119.547C147.127 119.757 146.927 119.921 146.693 120.018C146.459 120.115 146.201 120.14 145.953 120.09C145.704 120.04 145.476 119.917 145.297 119.738C145.119 119.558 144.997 119.329 144.949 119.081C144.9 118.832 144.926 118.574 145.024 118.341C145.122 118.107 145.287 117.907 145.498 117.768C145.71 117.628 145.958 117.554 146.211 117.555C146.55 117.557 146.873 117.692 147.112 117.932C147.351 118.172 147.485 118.497 147.485 118.835Z" fill="white"/>
<path d="M150.48 118.835C150.48 119.088 150.405 119.336 150.264 119.546C150.123 119.756 149.924 119.921 149.69 120.017C149.456 120.114 149.199 120.14 148.95 120.09C148.702 120.041 148.474 119.919 148.295 119.74C148.116 119.561 147.994 119.333 147.945 119.085C147.895 118.836 147.921 118.579 148.017 118.345C148.114 118.111 148.278 117.911 148.489 117.771C148.699 117.63 148.947 117.555 149.2 117.555C149.539 117.555 149.865 117.69 150.105 117.93C150.345 118.17 150.48 118.495 150.48 118.835Z" fill="white"/>
<path d="M153.468 118.835C153.467 119.086 153.391 119.332 153.251 119.541C153.11 119.749 152.911 119.911 152.678 120.007C152.445 120.102 152.189 120.126 151.943 120.076C151.696 120.026 151.47 119.905 151.292 119.726C151.115 119.548 150.994 119.321 150.946 119.074C150.897 118.828 150.923 118.572 151.019 118.34C151.116 118.107 151.279 117.909 151.488 117.769C151.698 117.63 151.944 117.555 152.195 117.555C152.363 117.555 152.529 117.588 152.684 117.653C152.839 117.717 152.979 117.811 153.098 117.93C153.216 118.049 153.31 118.19 153.373 118.346C153.437 118.501 153.469 118.667 153.468 118.835Z" fill="white"/>
<path d="M146.211 126.157C146.914 126.157 147.485 125.587 147.485 124.884C147.485 124.181 146.914 123.611 146.211 123.611C145.508 123.611 144.938 124.181 144.938 124.884C144.938 125.587 145.508 126.157 146.211 126.157Z" fill="white"/>
<path d="M149.2 126.157C149.903 126.157 150.473 125.587 150.473 124.884C150.473 124.181 149.903 123.611 149.2 123.611C148.497 123.611 147.927 124.181 147.927 124.884C147.927 125.587 148.497 126.157 149.2 126.157Z" fill="white"/>
<path d="M152.195 126.157C152.898 126.157 153.468 125.587 153.468 124.884C153.468 124.181 152.898 123.611 152.195 123.611C151.492 123.611 150.922 124.181 150.922 124.884C150.922 125.587 151.492 126.157 152.195 126.157Z" fill="white"/>
<path d="M177.964 132.808C184.013 132.808 188.916 127.904 188.916 121.856C188.916 115.808 184.013 110.904 177.964 110.904C171.916 110.904 167.013 115.808 167.013 121.856C167.013 127.904 171.916 132.808 177.964 132.808Z" fill="#455A64"/>
<path d="M172.818 120.425V123.018C172.818 123.071 172.839 123.122 172.876 123.16C172.913 123.198 172.963 123.22 173.016 123.222H174.448C174.493 123.221 174.537 123.235 174.573 123.262L176.803 125.003C176.832 125.027 176.867 125.042 176.904 125.047C176.941 125.051 176.979 125.045 177.013 125.029C177.046 125.014 177.075 124.988 177.095 124.957C177.115 124.926 177.126 124.889 177.126 124.852V118.789C177.128 118.751 177.118 118.714 177.1 118.682C177.081 118.65 177.053 118.624 177.02 118.606C176.987 118.589 176.95 118.582 176.912 118.585C176.875 118.588 176.84 118.601 176.81 118.624L174.652 120.181C174.618 120.206 174.576 120.219 174.534 120.22H173.016C172.963 120.222 172.913 120.244 172.876 120.283C172.839 120.321 172.818 120.372 172.818 120.425Z" fill="white"/>
<path d="M181.276 126.237C181.228 126.237 181.18 126.224 181.14 126.198C181.099 126.172 181.066 126.135 181.046 126.091C181.026 126.047 181.019 125.998 181.026 125.95C181.032 125.902 181.053 125.858 181.085 125.821C181.651 125.264 182.099 124.598 182.402 123.863C182.705 123.129 182.856 122.34 182.846 121.546C182.72 120.168 182.105 118.881 181.111 117.917C181.084 117.897 181.061 117.87 181.044 117.84C181.028 117.81 181.017 117.777 181.014 117.743C181.01 117.709 181.014 117.674 181.025 117.642C181.035 117.609 181.052 117.579 181.075 117.553C181.098 117.527 181.125 117.506 181.156 117.491C181.187 117.477 181.221 117.469 181.256 117.468C181.29 117.466 181.324 117.472 181.356 117.485C181.388 117.498 181.417 117.517 181.441 117.541C182.538 118.584 183.216 119.992 183.348 121.5C183.359 122.357 183.197 123.207 182.873 124C182.549 124.794 182.069 125.514 181.461 126.118C181.442 126.152 181.416 126.18 181.384 126.201C181.351 126.221 181.314 126.234 181.276 126.237Z" fill="white"/>
<path d="M179.891 125.01C179.857 125.01 179.824 125.003 179.793 124.989C179.763 124.975 179.735 124.955 179.713 124.93C179.689 124.908 179.671 124.88 179.658 124.85C179.646 124.82 179.639 124.788 179.639 124.756C179.639 124.723 179.646 124.691 179.658 124.661C179.671 124.631 179.689 124.603 179.713 124.581C180.108 124.249 180.43 123.838 180.657 123.374C180.884 122.911 181.012 122.405 181.032 121.889C180.961 120.791 180.492 119.757 179.713 118.98C179.664 118.934 179.635 118.871 179.632 118.804C179.63 118.737 179.654 118.672 179.7 118.623C179.745 118.574 179.808 118.545 179.875 118.543C179.942 118.54 180.007 118.565 180.056 118.61C180.952 119.482 181.487 120.66 181.553 121.909C181.533 122.495 181.39 123.07 181.131 123.596C180.873 124.123 180.507 124.589 180.056 124.963C180.009 124.999 179.95 125.016 179.891 125.01Z" fill="white"/>
<path d="M178.703 123.749C178.637 123.749 178.573 123.723 178.525 123.677C178.502 123.653 178.483 123.626 178.47 123.595C178.457 123.565 178.451 123.532 178.451 123.499C178.451 123.466 178.457 123.433 178.47 123.402C178.483 123.372 178.502 123.344 178.525 123.321C180.069 121.79 178.578 120.061 178.525 120.022C178.503 119.997 178.486 119.968 178.475 119.937C178.464 119.906 178.459 119.873 178.461 119.84C178.463 119.807 178.471 119.774 178.486 119.744C178.5 119.714 178.52 119.688 178.545 119.666C178.57 119.644 178.598 119.626 178.63 119.616C178.661 119.605 178.694 119.6 178.727 119.602C178.76 119.604 178.793 119.612 178.823 119.626C178.852 119.641 178.879 119.661 178.901 119.685C178.901 119.685 180.775 121.843 178.901 123.71C178.873 123.73 178.841 123.744 178.806 123.75C178.772 123.757 178.737 123.757 178.703 123.749Z" fill="white"/>
<path d="M131.111 158.216C131.854 152.213 127.589 146.745 121.587 146.003C115.584 145.26 110.116 149.525 109.374 155.527C108.631 161.53 112.896 166.998 118.898 167.74C124.901 168.483 130.369 164.218 131.111 158.216Z" fill="#455A64"/>
<path d="M120.304 160.649C120.26 160.65 120.216 160.642 120.175 160.626C120.134 160.609 120.097 160.585 120.066 160.554C120.035 160.524 120.01 160.487 119.993 160.447C119.976 160.406 119.967 160.363 119.967 160.319V153.405C119.982 153.329 120.024 153.26 120.084 153.211C120.144 153.162 120.219 153.135 120.297 153.135C120.375 153.135 120.45 153.162 120.51 153.211C120.57 153.26 120.611 153.329 120.627 153.405V160.299C120.629 160.343 120.623 160.388 120.608 160.43C120.593 160.472 120.57 160.51 120.54 160.543C120.51 160.575 120.473 160.602 120.432 160.62C120.392 160.638 120.348 160.648 120.304 160.649Z" fill="white"/>
<path d="M123.589 157.198H116.886C116.81 157.183 116.741 157.142 116.692 157.082C116.643 157.021 116.616 156.946 116.616 156.868C116.616 156.791 116.643 156.715 116.692 156.655C116.741 156.595 116.81 156.554 116.886 156.538H123.589C123.638 156.529 123.688 156.53 123.737 156.542C123.785 156.554 123.83 156.576 123.868 156.608C123.907 156.64 123.938 156.679 123.959 156.724C123.981 156.769 123.992 156.819 123.992 156.868C123.992 156.918 123.981 156.967 123.959 157.012C123.938 157.057 123.907 157.097 123.868 157.129C123.83 157.16 123.785 157.183 123.737 157.195C123.688 157.207 123.638 157.208 123.589 157.198Z" fill="white"/>
<path d="M187.987 158.217C188.729 152.214 184.465 146.746 178.462 146.004C172.46 145.261 166.992 149.526 166.249 155.528C165.507 161.531 169.771 166.999 175.774 167.741C181.777 168.484 187.245 164.219 187.987 158.217Z" fill="#455A64"/>
<path d="M177.859 157.001C178.24 156.831 178.564 156.552 178.789 156.201C179.014 155.849 179.131 155.439 179.126 155.021C179.126 154.492 178.915 153.985 178.541 153.61C178.167 153.236 177.659 153.026 177.13 153.026C176.601 153.026 176.093 153.236 175.719 153.61C175.344 153.985 175.134 154.492 175.134 155.021C175.13 155.44 175.249 155.85 175.475 156.201C175.701 156.553 176.025 156.831 176.407 157.001C173.34 157.462 173.478 160.794 173.478 160.794L180.735 160.834C180.735 160.834 180.9 157.456 177.859 157.001Z" fill="#EBEBEB"/>
<path d="M159.552 158.219C160.295 152.217 156.031 146.749 150.028 146.006C144.025 145.264 138.557 149.528 137.815 155.531C137.072 161.534 141.337 167.002 147.339 167.744C153.342 168.486 158.81 164.222 159.552 158.219Z" fill="#455A64"/>
<path d="M148.692 154.374H146.475C145.714 154.374 145.096 154.991 145.096 155.753V157.97C145.096 158.731 145.714 159.348 146.475 159.348H148.692C149.453 159.348 150.071 158.731 150.071 157.97V155.753C150.071 154.991 149.453 154.374 148.692 154.374Z" fill="#EBEBEB"/>
<path d="M150.519 157.746V156.057L151.779 154.738C151.816 154.698 151.865 154.67 151.918 154.658C151.971 154.646 152.026 154.65 152.077 154.67C152.127 154.69 152.171 154.725 152.201 154.77C152.232 154.815 152.248 154.868 152.248 154.922V158.755C152.248 158.808 152.233 158.86 152.204 158.904C152.175 158.948 152.134 158.983 152.085 159.004C152.037 159.025 151.983 159.031 151.931 159.022C151.879 159.013 151.831 158.989 151.793 158.953L150.519 157.746Z" fill="#EBEBEB"/>
<path d="M261.711 270.574L269.437 284.363L278.673 293.506C278.831 293.662 278.955 293.849 279.037 294.054C279.12 294.26 279.159 294.48 279.153 294.702C279.147 294.923 279.095 295.141 279.002 295.342C278.908 295.542 278.773 295.722 278.607 295.868C278.414 296.04 278.183 296.162 277.932 296.225C277.682 296.288 277.42 296.29 277.169 296.231C273.917 295.466 261.995 292.596 261.461 291.554C260.874 290.346 252.35 277.554 252.35 277.554L261.711 270.574Z" fill="#257CFF"/>
<g opacity="0.6">
<path opacity="0.6" d="M261.131 284.6C261.371 284.623 261.595 284.734 261.758 284.912C261.921 285.09 262.013 285.322 262.015 285.563C262 285.804 261.893 286.03 261.716 286.194C261.539 286.359 261.306 286.449 261.065 286.447C260.811 286.42 260.575 286.3 260.404 286.11C260.232 285.92 260.136 285.674 260.135 285.418C260.177 285.169 260.314 284.946 260.517 284.796C260.72 284.646 260.973 284.581 261.223 284.613" fill="white"/>
</g>
<path d="M272.003 291.759C272.033 291.129 272.232 290.519 272.581 289.994C272.929 289.469 273.414 289.048 273.983 288.777C273.983 288.737 273.745 288.731 273.395 288.876C272.95 289.078 272.572 289.402 272.304 289.811C272.037 290.22 271.891 290.696 271.885 291.185C271.865 291.587 271.964 291.772 272.003 291.759Z" fill="#263238"/>
<path d="M268.817 290.492C269.166 289.768 269.565 289.069 270.011 288.401C270.549 287.806 271.128 287.25 271.746 286.738C270.951 287.021 270.254 287.524 269.735 288.189C269.216 288.854 268.897 289.653 268.817 290.492Z" fill="#263238"/>
<path d="M266.118 286.5C266.204 286.56 266.778 285.801 267.728 285.181C268.678 284.561 269.602 284.343 269.575 284.244C268.839 284.213 268.116 284.447 267.537 284.904C266.893 285.255 266.391 285.819 266.118 286.5Z" fill="#263238"/>
<path d="M263.75 282.509C264.231 281.969 264.781 281.494 265.386 281.097C266.044 280.797 266.742 280.592 267.458 280.49C267.458 280.444 267.214 280.365 266.798 280.365C266.247 280.382 265.707 280.529 265.223 280.792C264.738 281.056 264.322 281.429 264.007 281.882C263.809 282.238 263.71 282.489 263.75 282.509Z" fill="#263238"/>
<path d="M264.918 280.371C264.859 280.179 264.76 280.001 264.627 279.85C264.306 279.403 263.898 279.026 263.427 278.742C263.1 278.502 262.704 278.377 262.299 278.385C262.165 278.402 262.04 278.459 261.94 278.548C261.84 278.638 261.769 278.756 261.738 278.887C261.697 279.143 261.751 279.406 261.89 279.626C262.19 280.066 262.634 280.387 263.146 280.534C263.658 280.681 264.206 280.645 264.693 280.431C265.173 280.211 265.575 279.853 265.849 279.403C266.123 278.952 266.256 278.43 266.231 277.904C266.22 277.776 266.183 277.652 266.123 277.538C266.063 277.425 265.981 277.325 265.881 277.244C265.765 277.175 265.631 277.143 265.497 277.152C265.362 277.162 265.234 277.212 265.129 277.297C264.839 277.567 264.626 277.908 264.509 278.286C264.313 278.801 264.211 279.346 264.205 279.896C264.187 280.097 264.21 280.298 264.271 280.49C264.327 279.768 264.485 279.057 264.74 278.379C264.853 278.053 265.045 277.76 265.3 277.528C265.356 277.48 265.426 277.451 265.5 277.445C265.573 277.439 265.646 277.456 265.709 277.495C265.772 277.555 265.823 277.626 265.858 277.705C265.893 277.785 265.912 277.87 265.914 277.957C265.919 278.411 265.794 278.857 265.553 279.241C265.312 279.626 264.966 279.934 264.555 280.127C264.14 280.307 263.677 280.34 263.241 280.22C262.805 280.1 262.424 279.834 262.16 279.467C262.06 279.316 262.017 279.133 262.041 278.953C262.056 278.88 262.094 278.815 262.148 278.765C262.203 278.715 262.271 278.684 262.345 278.676C262.685 278.672 263.018 278.771 263.301 278.959C263.917 279.334 264.463 279.812 264.918 280.371Z" fill="#263238"/>
<path d="M245.139 276.637L242.038 287.939C242.038 287.939 252.468 294.925 252.092 297.069L229.965 291.792L234.128 273.979L245.139 276.637Z" fill="#257CFF"/>
<g opacity="0.6">
<path opacity="0.6" d="M235.388 285.339C235.16 285.355 234.946 285.454 234.785 285.617C234.625 285.779 234.529 285.995 234.517 286.224C234.524 286.452 234.618 286.67 234.779 286.832C234.941 286.994 235.159 287.088 235.388 287.094C235.63 287.08 235.858 286.976 236.027 286.803C236.196 286.63 236.296 286.4 236.305 286.158C236.275 285.919 236.154 285.702 235.967 285.552C235.779 285.402 235.541 285.33 235.302 285.353" fill="white"/>
</g>
<path d="M242.388 287.912C242.388 288.018 241.807 287.912 241.194 288.156C240.58 288.4 240.184 288.763 240.098 288.697C240.013 288.631 240.316 288.037 241.068 287.793C241.82 287.549 242.434 287.82 242.388 287.912Z" fill="#263238"/>
<path d="M242.817 285.26C242.751 285.346 242.289 285.075 241.669 284.97C241.048 284.864 240.527 284.97 240.494 284.838C240.461 284.706 241.009 284.462 241.735 284.594C242.46 284.726 242.889 285.187 242.817 285.26Z" fill="#263238"/>
<g opacity="0.3">
<path opacity="0.3" d="M244.519 278.881L243.958 280.893L233.112 278.188L233.653 275.839L244.519 278.881Z" fill="black"/>
</g>
<path d="M243.41 282.964C243.023 282.979 242.639 282.885 242.302 282.693C241.917 282.52 241.556 282.298 241.227 282.034C241.031 281.884 240.846 281.721 240.673 281.545C240.565 281.446 240.473 281.33 240.402 281.202C240.35 281.109 240.33 281 240.345 280.894C240.361 280.788 240.411 280.69 240.488 280.615C240.562 280.556 240.648 280.514 240.741 280.491C240.833 280.468 240.929 280.465 241.022 280.483C241.164 280.515 241.299 280.569 241.425 280.642C241.656 280.756 241.877 280.89 242.084 281.044C242.416 281.301 242.705 281.608 242.942 281.954C243.344 282.555 243.424 283.003 243.377 283.017C243.331 283.03 243.153 282.641 242.718 282.119C242.468 281.819 242.18 281.552 241.86 281.328C241.673 281.197 241.477 281.08 241.273 280.978C241.055 280.859 240.857 280.813 240.771 280.905C240.686 280.998 240.732 280.952 240.771 281.031C240.822 281.125 240.889 281.21 240.969 281.281C241.131 281.448 241.3 281.607 241.477 281.756C241.78 282.006 242.105 282.226 242.447 282.416C242.778 282.58 243.1 282.763 243.41 282.964Z" fill="#263238"/>
<path d="M243.232 283.09C243.095 282.724 243.081 282.323 243.193 281.949C243.274 281.533 243.424 281.134 243.635 280.768C243.764 280.553 243.914 280.352 244.083 280.167C244.176 280.035 244.303 279.929 244.45 279.86C244.597 279.792 244.76 279.764 244.921 279.778C245.019 279.803 245.108 279.855 245.177 279.929C245.246 280.003 245.292 280.094 245.31 280.194C245.333 280.338 245.333 280.485 245.31 280.629C245.291 280.885 245.231 281.137 245.132 281.375C244.974 281.775 244.718 282.129 244.387 282.404C243.819 282.879 243.338 282.899 243.338 282.859C243.338 282.819 243.74 282.681 244.202 282.199C244.472 281.93 244.677 281.603 244.802 281.243C244.879 281.031 244.924 280.808 244.934 280.583C244.934 280.339 244.934 280.128 244.822 280.134C244.71 280.141 244.479 280.233 244.347 280.405C244.189 280.569 244.048 280.748 243.925 280.939C243.717 281.267 243.557 281.622 243.45 281.995C243.278 282.654 243.292 283.083 243.232 283.09Z" fill="#263238"/>
<path d="M248.457 150.582C251.44 159.232 253.296 168.23 253.979 177.354C255.035 191.915 246.122 283.229 246.122 283.229L228.678 280.082C228.678 280.082 232.577 247.9 234.563 232.178C236.542 216.701 228.678 162.53 228.678 162.53L247.151 150.582" fill="#263238"/>
<path d="M208.095 154.699C208.095 154.699 204.394 170.532 212.621 187.771C217.562 198.122 253.973 285.122 253.973 285.122L269.021 277.449L232.188 161.659L208.095 154.699Z" fill="#263238"/>
<path d="M255.325 234.381C255.226 234.381 250.588 220.434 244.954 203.162C239.32 185.89 234.84 171.858 234.933 171.831C235.025 171.805 239.67 185.772 245.297 203.05C250.925 220.329 255.417 234.348 255.325 234.381Z" fill="#455A64"/>
<path d="M253.973 285.121C253.887 285.154 246.551 268.054 237.591 246.922C228.632 225.791 221.441 208.624 221.534 208.585C221.626 208.545 228.962 225.646 237.921 246.784C246.881 267.922 254.065 285.081 253.973 285.121Z" fill="#455A64"/>
<path d="M233.983 169.259C233.529 169.016 233.089 168.749 232.663 168.46C231.595 167.844 230.476 167.318 229.318 166.89L227.399 166.178C226.883 165.976 226.357 165.804 225.822 165.663C225.325 165.562 224.818 165.513 224.311 165.518C224.807 165.312 225.357 165.277 225.875 165.419C226.429 165.528 226.974 165.68 227.504 165.874C228.104 166.072 228.758 166.303 229.444 166.567C230.621 166.999 231.745 167.563 232.795 168.249C233.248 168.512 233.65 168.854 233.983 169.259Z" fill="#455A64"/>
<path d="M243.1 160.154C242.341 161.236 241.513 162.267 240.62 163.242C239.806 164.292 238.925 165.288 237.981 166.224C238.645 165.073 239.433 163.998 240.329 163.017C241.149 161.968 242.078 161.008 243.1 160.154Z" fill="#455A64"/>
<path d="M215.609 160.504C215.733 161.032 215.711 161.584 215.543 162.1C215.206 163.38 214.401 164.487 213.287 165.201C212.145 165.84 210.837 166.123 209.533 166.012C209.001 166.02 208.47 165.953 207.956 165.814C208.479 165.755 209.007 165.738 209.533 165.762C210.778 165.805 212.012 165.508 213.102 164.904C214.143 164.228 214.921 163.215 215.306 162.034C215.432 161.529 215.534 161.019 215.609 160.504Z" fill="#455A64"/>
<path d="M249.493 157.72C248.731 157.512 248.025 157.137 247.426 156.623C246.827 156.108 246.35 155.466 246.03 154.744C246.115 154.691 246.689 155.549 247.652 156.361C248.616 157.172 249.539 157.66 249.493 157.72Z" fill="#455A64"/>
<path d="M238.937 81.5006C239.623 81.5513 240.285 81.7744 240.862 82.1492C241.439 82.524 241.911 83.0385 242.236 83.6447C242.585 84.4724 242.861 85.3289 243.061 86.2045C243.159 86.6419 243.345 87.0547 243.609 87.4177C243.872 87.7807 244.206 88.0862 244.591 88.3156C245.304 88.6587 246.142 88.5663 246.914 88.7181C247.829 88.93 248.636 89.4681 249.184 90.2318C249.731 90.9956 249.982 91.9327 249.889 92.8678C249.815 93.1153 249.815 93.3791 249.889 93.6265C249.978 93.7803 250.108 93.906 250.265 93.9894C251.314 94.6161 252.726 94.5172 253.663 95.3089C254.254 95.8759 254.622 96.6371 254.698 97.453C254.928 99.0045 254.626 100.588 253.841 101.946C253.544 102.496 253.127 102.972 252.62 103.338C251.863 103.765 251.009 103.992 250.14 103.998C247.217 104.202 244.11 103.549 241.919 101.603C239.023 99.0298 234.405 89.2986 233.897 85.459L238.937 81.5006Z" fill="#263238"/>
<path d="M217.377 91.911L207.006 96.8788L214.369 128.025C214.369 128.025 210.001 140.85 208.53 147.923L207.072 155.021C221.942 165.148 237.261 163.842 249.843 150.891L243.245 135.896L248.761 114.289L234.2 90.4596L230.605 90.2749L217.377 91.911Z" fill="#257CFF"/>
<g opacity="0.3">
<path opacity="0.3" d="M209.473 146.062C209.777 145.435 215.767 140.276 216.394 139.973C225.419 135.618 230.908 139.722 240.989 140.527C241.253 140.527 240.989 140.725 241.253 140.751C242.394 140.85 244.143 140.23 245.277 140.395L245.904 142.374C239.122 145.079 231.258 142.737 224.252 144.775C222.2 145.376 220.247 146.346 218.136 146.695C217.515 146.723 216.922 146.955 216.447 147.355C216.239 147.623 216.058 147.91 215.906 148.213C215.617 148.566 215.259 148.858 214.854 149.07C214.449 149.282 214.006 149.41 213.551 149.446C212.594 149.651 211.596 149.511 210.734 149.051C209.909 148.49 209.051 146.939 209.473 146.062Z" fill="black"/>
</g>
<path d="M208.352 143.522C207.824 143.674 208.009 145.501 209.315 145.211C211.583 144.63 213.81 143.896 215.978 143.014L220.491 139.333L240.719 140.566L237.591 131.079C237.591 131.079 216.645 133.059 213.689 134.266C211.532 135.143 209.988 136.021 208.979 137.156" fill="#FFBE9D"/>
<path d="M208.972 137.155C208.678 137.492 208.422 137.859 208.207 138.251C207.917 138.798 208.728 139.531 208.728 139.531C208.728 139.531 206.934 140.091 207.56 140.85C208.187 141.609 208.411 141.629 208.411 141.629C208.411 141.629 206.947 142.737 207.257 143.298C207.567 143.858 208.352 143.535 208.352 143.535" fill="#FFBE9D"/>
<path d="M208.194 143.615C208.134 143.549 208.649 143.001 209.513 142.665C209.998 142.405 210.56 142.328 211.097 142.447C210.627 142.668 210.139 142.849 209.639 142.988C209.176 143.238 208.693 143.448 208.194 143.615Z" fill="#EB996E"/>
<path d="M210.16 140.851C210.16 140.95 209.757 141.075 209.282 141.286C208.807 141.497 208.438 141.715 208.372 141.642C208.306 141.57 208.616 141.2 209.144 140.983C209.671 140.765 210.146 140.758 210.16 140.851Z" fill="#EB996E"/>
<path d="M209.995 139.366C209.995 139.406 209.909 139.419 209.817 139.452C209.679 139.503 209.538 139.543 209.394 139.57C209.058 139.623 208.768 139.57 208.735 139.504C208.702 139.439 208.972 139.287 209.335 139.221C209.49 139.192 209.649 139.192 209.803 139.221C209.955 139.234 210.028 139.326 209.995 139.366Z" fill="#EB996E"/>
<path d="M234.22 90.4399C234.22 90.4399 243.041 90.6708 246.458 97.3936C248.167 100.752 252.627 112.238 254.19 117.08C255.246 120.379 258.756 136.833 254.778 138.462C249.684 140.56 240.738 140.883 240.745 140.883L237.446 131.317C237.226 130.571 237.303 129.768 237.661 129.077C238.018 128.386 238.63 127.86 239.366 127.609L242.084 128.19L245.211 127.247L243.08 107.949L240.092 104.222L234.22 90.4399Z" fill="#257CFF"/>
<g opacity="0.3">
<path opacity="0.3" d="M225.881 98.1188C226.29 99.6296 225.881 101.813 226.053 103.166C226.892 108.561 227.113 114.035 226.712 119.481C226.671 119.776 226.687 120.076 226.759 120.365C226.866 120.616 227.01 120.85 227.187 121.058C228.201 122.588 228.588 124.449 228.269 126.257C227.947 128.043 227.397 129.782 226.633 131.429C226.633 129.977 226.719 127.8 226.858 126.355C226.858 126.065 227.029 126.257 227.042 125.966C227.115 124.225 226.844 122.602 225.637 121.348C225.383 121.117 225.161 120.853 224.977 120.563C224.846 120.267 224.77 119.95 224.753 119.626C224.093 113.539 223.667 107.425 223.473 101.286C223.426 100.938 223.503 100.585 223.691 100.289C223.886 100.106 224.108 99.9544 224.351 99.8407C224.819 99.5372 225.122 98.9962 225.63 98.7587" fill="black"/>
</g>
<path d="M207.006 96.8794C207.006 96.8794 200.719 99.4193 202.051 110.074C202.711 115.306 205.825 129.431 209.144 137.565C210.707 141.392 214.336 144.064 218.446 143.589C220.24 143.378 222.015 143.688 223.222 142.982C225.063 141.906 225.907 138.218 226.31 134.227C226.58 131.509 226.521 128.672 226.917 126.356C227.577 122.57 225.842 120.762 223.618 120.287L214.91 118.42L214.342 123.038L207.006 96.8794Z" fill="#257CFF"/>
<path d="M217.813 128.969C217.813 128.969 217.971 129.153 218.307 129.411C218.782 129.767 219.341 129.995 219.93 130.07C220.806 130.175 221.695 130.061 222.517 129.741C223.547 129.407 224.502 128.873 225.327 128.17C226.115 127.436 226.639 126.462 226.818 125.4C226.967 124.531 226.873 123.639 226.548 122.82C226.221 122.067 225.758 121.38 225.182 120.795C225.388 120.894 225.571 121.033 225.723 121.204C226.17 121.637 226.526 122.155 226.772 122.728C227.152 123.582 227.278 124.528 227.135 125.452C226.957 126.597 226.396 127.648 225.545 128.434C224.685 129.169 223.684 129.719 222.602 130.051C221.728 130.372 220.785 130.465 219.864 130.321C219.245 130.213 218.669 129.931 218.202 129.51C217.898 129.206 217.793 128.975 217.813 128.969Z" fill="#263238"/>
<path d="M208.636 136.232C208.636 136.232 208.814 136.701 209.21 137.506C209.767 138.639 210.512 139.669 211.413 140.554C212.742 141.876 214.397 142.823 216.209 143.298C218.423 143.888 220.766 143.756 222.899 142.922C224.027 142.487 224.45 141.253 224.878 140.217C225.268 139.184 225.562 138.118 225.756 137.031C226.07 135.174 226.29 133.302 226.416 131.423C226.554 129.853 226.666 128.566 226.752 127.616C226.792 127.201 226.831 126.858 226.858 126.58C226.87 126.461 226.889 126.342 226.917 126.224C226.936 126.344 226.936 126.467 226.917 126.587C226.917 126.864 226.917 127.207 226.871 127.623C226.818 128.573 226.739 129.866 226.653 131.436C226.567 133.328 226.378 135.213 226.086 137.084C225.897 138.195 225.603 139.286 225.208 140.343C224.996 140.904 224.743 141.449 224.45 141.972C224.134 142.539 223.64 142.984 223.044 143.239C220.837 144.103 218.41 144.232 216.124 143.608C214.575 143.185 213.14 142.423 211.922 141.377C210.705 140.33 209.735 139.026 209.084 137.559C208.941 137.241 208.818 136.915 208.715 136.582C208.671 136.47 208.644 136.352 208.636 136.232Z" fill="#263238"/>
<path d="M212.014 129.859C211.971 129.265 211.987 128.669 212.06 128.078C212.132 126.989 212.258 125.479 212.416 123.809C212.502 122.978 212.568 122.193 212.667 121.461C212.731 120.794 212.972 120.156 213.366 119.614C213.648 119.253 214.047 119.001 214.494 118.901C214.817 118.842 214.989 118.901 214.982 118.901C214.976 118.901 214.811 118.901 214.527 119.013C214.137 119.151 213.801 119.407 213.564 119.746C212.904 120.59 212.957 122.173 212.766 123.829C212.574 125.485 212.442 126.996 212.304 128.085C212.268 128.684 212.17 129.279 212.014 129.859Z" fill="#263238"/>
<path d="M209.005 97.8421C209.256 97.8763 209.497 97.964 209.711 98.0994C210.313 98.433 210.844 98.8813 211.275 99.4189C211.903 100.218 212.379 101.126 212.68 102.097C213.043 103.186 213.287 104.406 213.57 105.673C214.125 108.22 214.606 110.522 214.943 112.198C215.108 113.036 215.233 113.709 215.319 114.177C215.376 114.42 215.407 114.667 215.411 114.916C215.306 114.689 215.23 114.45 215.187 114.204C215.061 113.742 214.897 113.075 214.699 112.224C214.303 110.562 213.782 108.266 213.227 105.719C212.944 104.453 212.713 103.232 212.376 102.17C212.094 101.22 211.647 100.327 211.057 99.531C210.505 98.8248 209.804 98.2482 209.005 97.8421Z" fill="#263238"/>
<path d="M248.8 139.98C248.615 140.043 248.422 140.081 248.226 140.092L246.59 140.316L240.752 141.035H240.633L240.593 140.917C240.237 139.861 239.894 138.706 239.551 137.479C239.208 136.252 238.858 134.966 238.41 133.666C238.231 133.158 238.047 132.657 237.855 132.168L237.559 131.449C237.437 131.206 237.35 130.946 237.301 130.677C237.235 130.163 237.235 129.642 237.301 129.127C237.341 128.866 237.438 128.618 237.585 128.399C237.733 128.18 237.926 127.996 238.152 127.86C238.564 127.594 239.041 127.448 239.531 127.438C239.982 127.458 240.428 127.55 240.851 127.709C241.221 127.847 241.603 127.953 241.992 128.025C242.349 128.068 242.71 128.068 243.067 128.025C243.694 127.945 244.311 127.799 244.908 127.59C245.372 127.44 245.853 127.347 246.34 127.313C246.649 127.296 246.959 127.316 247.263 127.372C247.37 127.386 247.474 127.415 247.573 127.458C247.167 127.431 246.759 127.431 246.353 127.458C245.88 127.517 245.415 127.63 244.967 127.794C244.362 128.023 243.734 128.187 243.094 128.283C242.715 128.326 242.332 128.326 241.952 128.283C241.547 128.208 241.148 128.104 240.758 127.973C240.369 127.826 239.959 127.744 239.544 127.728C239.115 127.745 238.698 127.877 238.337 128.111C238.15 128.223 237.99 128.375 237.869 128.557C237.748 128.738 237.669 128.944 237.638 129.16C237.578 129.642 237.578 130.129 237.638 130.611C237.685 130.841 237.765 131.064 237.875 131.271C237.974 131.515 238.08 131.759 238.172 132.003C238.377 132.492 238.561 133 238.739 133.514C239.195 134.834 239.544 136.153 239.874 137.354C240.204 138.555 240.534 139.729 240.884 140.778L240.719 140.679L246.571 140.085L248.213 139.947C248.41 139.94 248.606 139.951 248.8 139.98Z" fill="#263238"/>
<path d="M249.836 128.203C249.836 128.163 250.107 128.203 250.456 128.408C250.904 128.695 251.275 129.087 251.538 129.549C251.95 130.162 252.197 130.871 252.257 131.607C252.152 131.653 251.822 130.73 251.241 129.734C250.995 129.311 250.681 128.932 250.311 128.612C250.027 128.368 249.816 128.249 249.836 128.203Z" fill="#263238"/>
<path d="M242.803 128.204C242.742 127.909 242.719 127.607 242.737 127.306C242.738 126.49 242.789 125.675 242.889 124.865C243.094 122.807 243.813 120.036 244.169 116.948C244.543 114.309 244.317 111.619 243.509 109.078C243.114 108.05 242.6 107.071 241.979 106.162C241.979 106.162 242.051 106.208 242.15 106.32C242.302 106.485 242.443 106.659 242.572 106.841C243.055 107.503 243.448 108.227 243.74 108.992C244.545 110.919 244.888 113.848 244.532 116.988C244.36 118.558 244.063 120.029 243.8 121.362C243.536 122.695 243.292 123.889 243.14 124.905C242.988 125.921 242.916 126.746 242.883 127.313C242.881 127.612 242.854 127.909 242.803 128.204Z" fill="#263238"/>
<g opacity="0.3">
<path opacity="0.3" d="M243.813 109.599C244.149 110.813 244.473 112.034 244.835 113.247C245.25 114.532 245.513 115.86 245.62 117.206C245.628 118.339 245.526 119.47 245.317 120.584C245.119 121.864 244.928 123.144 244.717 124.423C244.506 125.703 244.908 126.779 244.143 127.88L242.823 128.105C243.008 122.431 245.244 115.095 243.885 109.579" fill="black"/>
</g>
<path d="M238.555 97.7038C239.074 98.7399 239.502 99.8194 239.835 100.93C240.271 102.009 240.652 103.11 240.976 104.229C240.332 103.258 239.836 102.198 239.505 101.082C239.061 99.9952 238.743 98.862 238.555 97.7038Z" fill="#263238"/>
<g opacity="0.3">
<path opacity="0.3" d="M215.365 117.37C214.562 117.369 213.78 117.621 213.128 118.089C211.672 119.062 210.61 120.521 210.133 122.206C209.667 123.889 209.722 125.674 210.292 127.326C210.463 127.84 210.806 128.421 211.341 128.408C212 128.408 212.244 127.603 212.343 126.976C212.614 125.234 212.878 123.493 213.148 121.751C213.219 121.159 213.396 120.585 213.669 120.055C213.807 119.788 214.015 119.564 214.271 119.407C214.527 119.25 214.821 119.166 215.121 119.165L215.312 117.304" fill="black"/>
</g>
<path d="M214.079 109.949C214.079 109.949 213.419 110.094 212.363 110.43C211.002 110.872 209.679 111.422 208.405 112.073C206.901 112.825 205.588 113.597 204.651 114.171L203.536 114.831C203.404 114.923 203.262 115 203.114 115.062C203.227 114.948 203.353 114.848 203.49 114.765C203.74 114.58 204.11 114.323 204.572 114.026C205.776 113.234 207.025 112.511 208.312 111.862C209.596 111.205 210.939 110.671 212.324 110.265C212.744 110.142 213.171 110.045 213.604 109.975C213.76 109.943 213.92 109.934 214.079 109.949Z" fill="#FAFAFA"/>
<path d="M214.989 113.828C214.844 113.9 214.691 113.956 214.534 113.993C214.237 114.092 213.808 114.224 213.28 114.408C211.907 114.886 210.561 115.438 209.249 116.064C207.936 116.689 206.667 117.4 205.449 118.195C204.981 118.499 204.611 118.763 204.361 118.947C204.237 119.052 204.102 119.143 203.958 119.218C203.958 119.218 204.077 119.086 204.314 118.881C204.552 118.677 204.908 118.393 205.363 118.07C206.565 117.236 207.834 116.504 209.157 115.879C210.475 115.246 211.838 114.708 213.234 114.27C213.768 114.105 214.204 113.986 214.514 113.92C214.668 113.872 214.828 113.842 214.989 113.828Z" fill="#FAFAFA"/>
<path d="M249.586 105.211C249.269 105.322 248.945 105.408 248.616 105.468C247.835 105.663 247.066 105.903 246.313 106.188C245.562 106.481 244.828 106.818 244.116 107.197C243.83 107.371 243.532 107.525 243.226 107.659C243.467 107.421 243.743 107.221 244.044 107.065C244.742 106.647 245.475 106.289 246.234 105.996C246.996 105.706 247.782 105.485 248.583 105.337C248.91 105.251 249.247 105.209 249.586 105.211Z" fill="#FAFAFA"/>
<path d="M251.664 110.014C251.295 110.052 250.926 110.072 250.555 110.073C249.673 110.148 248.803 110.327 247.963 110.608C246.788 111.055 245.638 111.566 244.519 112.138C244.803 111.895 245.115 111.686 245.449 111.518C246.23 111.072 247.052 110.701 247.903 110.41C248.754 110.12 249.644 109.957 250.542 109.928C250.814 109.908 251.088 109.908 251.36 109.928C251.466 109.938 251.568 109.967 251.664 110.014Z" fill="#FAFAFA"/>
<path d="M236.503 59.3061C237.572 59.9164 238.447 60.8174 239.025 61.9045C239.603 62.9917 239.861 64.2204 239.769 65.4482C239.617 66.3785 239.274 67.3285 239.525 68.2389C239.838 68.9926 240.285 69.6833 240.844 70.2775C241.664 71.3842 242.108 72.7251 242.109 74.1028C242.11 75.4805 241.669 76.8222 240.851 77.9303C240.032 79.0385 238.879 79.8545 237.562 80.2584C236.245 80.6622 234.833 80.6325 233.534 80.1736" fill="#263238"/>
<path d="M238.779 71.189C243.45 58.4363 229.648 53.2573 222.53 55.8633C215.84 58.3109 213.181 61.9329 212.403 66.5906C211.624 71.2483 212.053 76.203 214.177 80.4451C215.226 82.5232 216.981 84.5882 219.31 84.6806" fill="#263238"/>
<path d="M220.095 96.2648L216.797 65.5607C216.741 64.9798 216.905 64.3992 217.257 63.9337C217.609 63.4683 218.123 63.1518 218.697 63.0471L230.79 58.9963C234.702 58.2772 237.697 62.9547 238.251 66.9131C238.858 71.2938 239.432 76.664 239.162 79.9891C238.614 86.6722 233.613 87.9059 233.613 87.9059C233.613 87.9059 234.002 93.7314 234.339 99.1874C234.348 99.3974 234.306 99.6065 234.218 99.7972C234.129 99.9879 233.997 100.155 233.831 100.284C233.665 100.413 233.471 100.5 233.264 100.539C233.058 100.578 232.845 100.567 232.643 100.507L220.095 96.2648Z" fill="#FFBE9D"/>
<path d="M237.09 71.3267C237.111 71.5457 237.045 71.764 236.907 71.9353C236.769 72.1065 236.57 72.2172 236.351 72.2437C236.247 72.2626 236.139 72.2604 236.036 72.2374C235.932 72.2143 235.834 72.1707 235.747 72.1093C235.661 72.0479 235.587 71.9698 235.531 71.8796C235.475 71.7893 235.438 71.6889 235.421 71.584C235.397 71.3653 235.46 71.1461 235.598 70.9742C235.735 70.8023 235.935 70.6918 236.153 70.6669C236.258 70.648 236.366 70.6501 236.47 70.6731C236.574 70.6961 236.672 70.7396 236.76 70.801C236.847 70.8623 236.921 70.9404 236.978 71.0307C237.034 71.1209 237.073 71.2215 237.09 71.3267Z" fill="#263238"/>
<path d="M228.454 71.9802C228.475 72.1999 228.409 72.419 228.271 72.5914C228.133 72.7637 227.934 72.8757 227.715 72.9038C227.505 72.9383 227.289 72.8884 227.115 72.7649C226.941 72.6414 226.822 72.4543 226.785 72.2441C226.771 72.1336 226.779 72.0214 226.809 71.914C226.839 71.8067 226.889 71.7063 226.958 71.6186C227.027 71.5309 227.112 71.4577 227.209 71.4031C227.306 71.3485 227.413 71.3137 227.524 71.3007C227.63 71.2829 227.738 71.2864 227.843 71.3111C227.947 71.3358 228.045 71.3811 228.132 71.4445C228.219 71.5078 228.292 71.5878 228.347 71.6798C228.403 71.7718 228.439 71.8739 228.454 71.9802Z" fill="#263238"/>
<path d="M237.136 69.4804C237.044 69.5992 236.351 69.1967 235.447 69.2957C234.544 69.3946 233.923 69.9554 233.811 69.8301C233.699 69.7047 233.844 69.5728 234.108 69.3287C234.477 69.0065 234.939 68.8101 235.428 68.7679C235.901 68.714 236.38 68.8134 236.793 69.0516C237.07 69.2561 237.182 69.421 237.136 69.4804Z" fill="#263238"/>
<path d="M228.507 70.3502C228.408 70.469 227.728 70.0402 226.818 70.1061C225.907 70.1721 225.274 70.6801 225.162 70.5745C225.05 70.469 225.202 70.3238 225.485 70.0863C225.862 69.7851 226.323 69.6077 226.805 69.5783C227.268 69.5473 227.73 69.6627 228.124 69.9082C228.441 70.1061 228.553 70.2975 228.507 70.3502Z" fill="#263238"/>
<path d="M232.142 77.1325C232.61 76.9444 233.1 76.818 233.6 76.7565C233.831 76.7103 234.049 76.6509 234.075 76.486C234.072 76.25 233.998 76.0203 233.864 75.8262L233.046 74.1109C231.898 71.6567 231.067 69.6379 231.146 69.5917C231.225 69.5455 232.254 71.4918 233.402 73.946L234.2 75.6811C234.365 75.9516 234.431 76.2713 234.385 76.5849C234.359 76.6702 234.313 76.748 234.251 76.8122C234.189 76.8764 234.113 76.9251 234.029 76.9544C233.902 76.9952 233.772 77.0239 233.64 77.0401C233.147 77.1359 232.643 77.1669 232.142 77.1325Z" fill="#263238"/>
<path d="M233.607 87.874C230.5 88.1553 227.376 87.5707 224.581 86.1851C224.581 86.1851 227.168 90.612 233.732 89.4838L233.607 87.874Z" fill="#EB996E"/>
<path d="M231.937 79.363C231.749 79.1567 231.51 79.0022 231.244 78.9145C230.979 78.8267 230.695 78.8085 230.42 78.8616C230.219 78.8974 230.027 78.9745 229.856 79.088C229.686 79.2016 229.541 79.3491 229.43 79.5214C229.319 79.6823 229.26 79.8733 229.26 80.0689C229.26 80.2646 229.319 80.4556 229.43 80.6165C229.591 80.7677 229.792 80.8683 230.009 80.9059C230.226 80.9434 230.449 80.9162 230.651 80.8276C231.068 80.6408 231.445 80.3741 231.759 80.0426C231.858 79.9619 231.941 79.8634 232.003 79.7523C232.036 79.7021 232.053 79.6437 232.053 79.584C232.053 79.5244 232.036 79.4659 232.003 79.4158" fill="#EB996E"/>
<path d="M229.503 77.9707C229.655 77.9707 229.727 78.9339 230.631 79.5738C231.535 80.2138 232.577 80.0224 232.61 80.161C232.643 80.2995 232.393 80.3721 231.951 80.4183C231.371 80.469 230.792 80.3149 230.315 79.9829C229.863 79.6722 229.549 79.1997 229.437 78.6634C229.365 78.2214 229.457 77.9641 229.503 77.9707Z" fill="#263238"/>
<path d="M228.626 68.9984C228.56 69.2557 227.636 69.2029 226.58 69.414C225.525 69.6251 224.674 69.9814 224.515 69.7702C224.443 69.6713 224.581 69.4206 224.911 69.1567C225.354 68.8286 225.866 68.6052 226.407 68.5035C226.949 68.4018 227.507 68.4244 228.038 68.5695C228.448 68.6949 228.659 68.8796 228.626 68.9984Z" fill="#263238"/>
<path d="M236.76 67.1647C236.615 67.3824 235.969 67.2175 235.21 67.2637C234.451 67.3099 233.831 67.5078 233.666 67.3033C233.593 67.2043 233.666 66.9866 233.943 66.7689C234.297 66.4993 234.726 66.347 235.17 66.3334C235.614 66.309 236.054 66.4219 236.43 66.6567C236.707 66.848 236.813 67.0592 236.76 67.1647Z" fill="#263238"/>
<path d="M218.578 74.1312C218.479 74.0916 214.923 72.8117 215.18 76.7701C215.437 80.7285 219.363 79.6466 219.363 79.5344C219.363 79.4222 218.578 74.1312 218.578 74.1312Z" fill="#FFBE9D"/>
<path d="M218.057 78.1358C218.057 78.1358 217.991 78.1886 217.879 78.248C217.719 78.3272 217.535 78.3437 217.364 78.2942C217.098 78.149 216.875 77.9356 216.718 77.6759C216.562 77.4162 216.477 77.1196 216.473 76.8164C216.442 76.477 216.485 76.1348 216.599 75.8136C216.628 75.6872 216.688 75.5701 216.773 75.4723C216.858 75.3745 216.966 75.2991 217.087 75.2528C217.164 75.2255 217.248 75.2264 217.324 75.2555C217.4 75.2845 217.463 75.3397 217.502 75.4111C217.562 75.5233 217.542 75.6024 217.562 75.609C217.582 75.6156 217.648 75.5365 217.601 75.3715C217.572 75.2754 217.512 75.1918 217.43 75.134C217.373 75.0968 217.309 75.0712 217.243 75.0588C217.176 75.0463 217.107 75.0472 217.041 75.0615C216.884 75.1065 216.741 75.1907 216.626 75.3061C216.51 75.4215 216.426 75.5643 216.381 75.7212C216.237 76.0742 216.18 76.4566 216.216 76.8361C216.219 77.1895 216.326 77.5341 216.524 77.8265C216.723 78.1189 217.004 78.3459 217.331 78.4789C217.444 78.5112 217.564 78.5148 217.679 78.4895C217.794 78.4641 217.901 78.4106 217.991 78.3337C218.057 78.2282 218.07 78.1424 218.057 78.1358Z" fill="#EB996E"/>
<path d="M231.944 56.9057C234.233 57.8755 235.48 62.309 234.741 64.6774C234.002 67.0459 231.641 68.3653 229.259 69.0779C226.943 69.8313 224.475 69.9923 222.081 69.5463C222.035 71.1692 221.197 72.8845 219.673 73.4255C217.654 74.1446 215.437 72.4161 214.817 70.3643C214.197 68.3126 214.725 66.1156 215.253 64.0375" fill="#263238"/>
<path d="M215.589 72.5544C215.589 72.5544 215.695 72.6666 215.912 72.8249C216.13 72.9833 216.453 73.201 216.876 73.4385C217.371 73.738 217.91 73.9605 218.472 74.0982C219.174 74.2621 219.91 74.195 220.57 73.9069C221.216 73.5835 221.737 73.0575 222.055 72.4093C222.31 71.8918 222.46 71.3291 222.497 70.7534C222.532 70.3715 222.532 69.9872 222.497 69.6054C222.491 69.4631 222.462 69.3228 222.411 69.1898C222.365 69.1898 222.457 69.7901 222.358 70.7402C222.3 71.2908 222.138 71.8256 221.883 72.3169C221.581 72.9152 221.092 73.3991 220.491 73.6958C219.869 73.9699 219.175 74.037 218.512 73.8871C217.969 73.7746 217.445 73.5858 216.955 73.3263C216.11 72.8711 215.609 72.5544 215.589 72.5544Z" fill="#263238"/>
<path d="M214.448 62.9094C214.448 62.9094 214.494 62.6917 214.639 62.3091C214.853 61.7805 215.174 61.302 215.583 60.9038C216.191 60.3212 216.915 59.8718 217.707 59.5844C218.691 59.2441 219.705 58.9967 220.735 58.8455C222.616 58.5562 224.457 58.0537 226.224 57.3479C226.884 57.0774 227.438 56.8267 227.801 56.6485L228.217 56.4308C228.268 56.4086 228.317 56.3797 228.362 56.3451L228.21 56.4044L227.781 56.5958C227.405 56.7673 226.871 56.9982 226.191 57.2555C224.418 57.9237 222.581 58.41 220.709 58.7069C219.67 58.8537 218.649 59.1057 217.661 59.459C216.853 59.764 216.119 60.2387 215.51 60.8511C215.099 61.2665 214.784 61.7662 214.586 62.3157C214.539 62.4652 214.499 62.6171 214.468 62.7709L214.448 62.9094Z" fill="#455A64"/>
<path d="M213.669 78.0041C213.669 78.0041 213.597 77.9645 213.485 77.8721C213.315 77.7248 213.161 77.5613 213.023 77.3839C212.505 76.7168 212.164 75.9292 212.033 75.0946C211.845 73.8107 212.065 72.5002 212.66 71.3473C213.007 70.6482 213.451 70.0018 213.98 69.4275C214.543 68.7498 215.32 68.2844 216.183 68.108L216.044 68.3257C215.767 67.4427 215.752 66.4981 216.002 65.6068C216.251 64.7155 216.754 63.9159 217.45 63.3052C218.404 62.5719 219.549 62.1277 220.748 62.0253C221.877 61.8603 222.945 61.768 223.942 61.5305C225.727 61.1941 227.388 60.3776 228.744 59.1686C229.638 58.333 230.284 57.2668 230.611 56.0876C230.71 55.6527 230.78 55.212 230.823 54.7682C230.847 54.8852 230.858 55.0048 230.856 55.1244C230.854 55.4639 230.816 55.8022 230.743 56.1338C230.457 57.3626 229.823 58.4827 228.916 59.3599C227.546 60.6321 225.848 61.4979 224.014 61.8603C222.998 62.111 221.903 62.21 220.801 62.3749C219.67 62.4744 218.59 62.8931 217.687 63.5822C217.049 64.1454 216.585 64.8797 216.352 65.6982C216.118 66.5167 216.123 67.385 216.368 68.2004L216.434 68.3917H216.236C215.446 68.5589 214.733 68.9835 214.21 69.599C213.688 70.1462 213.244 70.7635 212.891 71.4331C212.307 72.533 212.076 73.7864 212.231 75.0221C212.34 75.8322 212.638 76.6053 213.102 77.2784C213.412 77.7864 213.669 77.9843 213.669 78.0041Z" fill="#455A64"/>
<path d="M233.534 87.8336C233.534 87.8336 234.266 97.8023 234.814 102.889C235.005 104.617 235.236 106.418 236.239 107.843C237.113 108.971 238.384 109.724 239.794 109.948C241.203 110.172 242.645 109.851 243.826 109.051C244.948 108.167 245.715 106.907 245.984 105.504C246.253 104.101 246.007 102.648 245.291 101.411C244.769 100.553 243.971 99.577 244.44 98.6797C244.647 98.3546 244.903 98.0632 245.198 97.8154C246.564 96.3508 246.142 93.9692 245.258 92.1681C245.09 91.7057 244.756 91.3223 244.321 91.0927C243.826 90.8948 243.252 91.0927 242.731 90.9542C241.609 90.6375 241.537 89.1267 241.286 87.9854C240.91 86.3228 239.597 84.5482 237.902 84.2975C237.902 84.2975 236.252 87.0222 233.534 87.8336Z" fill="#263238"/>
<path d="M245.192 97.2018C245.494 96.4535 245.684 95.6641 245.752 94.8597C245.796 93.9939 245.634 93.13 245.277 92.3396C244.833 91.3781 244.127 90.5617 243.239 89.9843C242.77 89.6808 242.229 89.4895 241.768 89.1332C241.532 88.9616 241.342 88.7352 241.213 88.4735C241.105 88.2189 241.046 87.9455 241.042 87.6686C241.057 87.2065 241.022 86.7441 240.936 86.2898C240.804 85.915 240.577 85.5809 240.277 85.32C239.736 84.812 239.228 84.4359 238.957 84.0994C238.796 83.9426 238.678 83.7473 238.614 83.5321C238.614 83.5321 238.759 83.7168 239.056 84.0071C239.353 84.2974 239.861 84.6338 240.442 85.1418C240.778 85.425 241.035 85.7911 241.187 86.204C241.295 86.6778 241.344 87.1631 241.332 87.6488C241.333 87.8878 241.389 88.1233 241.495 88.3372C241.601 88.5512 241.756 88.7378 241.946 88.8825C242.348 89.1926 242.889 89.3839 243.397 89.7138C244.345 90.3234 245.092 91.2004 245.541 92.234C245.9 93.0649 246.047 93.9714 245.97 94.8729C245.92 95.4804 245.764 96.0743 245.508 96.6278C245.438 96.8366 245.331 97.0311 245.192 97.2018Z" fill="#455A64"/>
<path d="M241.147 109.968C241.147 109.935 241.458 109.744 241.952 109.308C242.63 108.638 243.141 107.818 243.443 106.914C243.903 105.58 243.835 104.121 243.252 102.836C242.592 101.385 241.273 100.197 240.019 98.7658C239.399 98.0783 238.882 97.305 238.482 96.4699C238.103 95.6758 237.95 94.7923 238.04 93.9168C238.132 93.0855 238.377 92.3532 238.495 91.6539C238.615 91.0129 238.615 90.3552 238.495 89.7142C238.317 88.778 237.909 87.9006 237.308 87.1611C236.872 86.6399 236.562 86.4156 236.582 86.3892C236.602 86.3628 236.674 86.4288 236.82 86.5409C237.031 86.7016 237.227 86.8804 237.407 87.0753C237.97 87.691 238.387 88.4264 238.626 89.2262C238.865 90.026 238.919 90.8695 238.786 91.6935C238.673 92.4126 238.443 93.1515 238.363 93.9366C238.292 94.7551 238.442 95.5779 238.799 96.3182C239.191 97.1203 239.693 97.8641 240.29 98.5283C241.504 99.9072 242.869 101.167 243.549 102.685C244.151 104.044 244.199 105.586 243.681 106.98C243.35 107.909 242.789 108.739 242.051 109.394C241.846 109.568 241.625 109.722 241.392 109.856C241.316 109.905 241.234 109.943 241.147 109.968Z" fill="#455A64"/>
<path d="M214.784 120.214L217.318 95.9886L224.575 98.9574L225.162 123.651C225.162 123.651 222.787 127.135 218.881 125.631C217.757 125.206 216.776 124.472 216.051 123.513C215.326 122.555 214.887 121.411 214.784 120.214Z" fill="#FFBE9D"/>
<path d="M216.843 74.7319L230.255 86.8711L227.669 95.7577L226.679 96.0348L214.976 83.7109L215.853 75.009L216.843 74.7319Z" fill="#263238"/>
<path d="M215.853 75.0086L229.266 87.1477L226.679 96.0344L213.986 83.9876L215.853 75.0086Z" fill="#455A64"/>
<path d="M224.839 99.7421C225.68 98.8411 226.18 97.6741 226.251 96.4434C226.251 94.6093 225.802 90.2023 225.802 90.2023C225.802 90.2023 228.236 85.2675 228.184 84.6077C228.131 83.948 228.025 83.948 227.174 84.2119C226.323 84.4758 223.631 88.9554 223.631 88.9554L222.82 85.5841C222.82 85.5841 225.056 82.0875 225.235 81.6257C225.413 81.1639 225.71 80.7351 225.162 80.6823C224.614 80.6295 220.451 84.5549 220.451 84.5549L220.729 88.2363C220.729 88.2363 220.643 88.5332 220.069 88.0054C219.495 87.4776 219.693 83.0903 219.693 83.0903C219.693 83.0903 221.131 80.5108 221.105 80.1347C221.078 79.7587 221.368 79.3562 221.105 78.7097C220.841 78.0631 220.023 78.7954 220.023 78.7954L217.245 82.3316L216.321 78.7756C216.321 78.7756 216.374 78.0235 215.391 78.0038L215.609 89.4832L217.964 98.2841L224.839 99.7421Z" fill="#FFBE9D"/>
<path d="M225.129 123.651C225.129 123.651 225.129 123.499 225.129 123.216C225.129 122.932 225.096 122.49 225.076 121.949C225.043 120.821 224.99 119.198 224.931 117.133C224.826 112.95 224.674 106.986 224.489 99.7621V99.6895L224.548 99.6433C225.13 99.1451 225.583 98.5136 225.868 97.8027C226.144 97.041 226.247 96.2276 226.171 95.421C226.112 93.7387 225.927 91.9904 225.716 90.1959V90.1497V90.1101C226.171 89.1667 226.627 88.2035 227.075 87.2073C227.3 86.7125 227.517 86.2111 227.735 85.6965C227.834 85.4458 227.933 85.1819 228.012 84.9246L228.065 84.7333C228.065 84.6739 228.065 84.6409 228.065 84.5749C228.059 84.4581 228.037 84.3426 227.999 84.2319C227.999 84.1461 227.649 84.2319 227.412 84.3045C227.294 84.3328 227.183 84.3869 227.088 84.4628C226.982 84.5463 226.882 84.639 226.792 84.7399C226.414 85.157 226.064 85.5977 225.743 86.0594C225.083 86.9962 224.423 87.9924 223.829 89.0018L223.612 89.358L223.513 88.949C223.255 87.8868 222.978 86.7389 222.695 85.5778V85.5118L222.734 85.4458L223.869 83.6447C224.298 82.9388 224.773 82.2065 225.129 81.5138C225.202 81.3159 225.301 81.1113 225.353 80.9464C225.406 80.7815 225.353 80.821 225.353 80.8276C225.3 80.8085 225.242 80.8085 225.188 80.8276C225.119 80.8502 225.052 80.8812 224.99 80.92C224.911 80.9662 224.826 81.0322 224.746 81.0849C224.667 81.1377 224.416 81.3158 224.258 81.4478C222.985 82.4638 221.791 83.559 220.623 84.6409L220.676 84.5024C220.768 85.7471 220.861 86.9764 220.953 88.1903C220.93 88.2571 220.885 88.3137 220.824 88.3499C220.764 88.3862 220.693 88.3998 220.623 88.3882C220.54 88.3772 220.459 88.3504 220.386 88.3091C220.267 88.2429 220.156 88.1632 220.056 88.0716C219.864 87.8641 219.743 87.6004 219.713 87.3195C219.632 86.8328 219.583 86.3413 219.567 85.8482C219.534 84.8784 219.567 83.9284 219.567 82.985V82.952C220.075 82.0745 220.529 81.1668 220.926 80.2339C220.941 80.1886 220.952 80.1422 220.959 80.0953C220.959 80.0557 220.959 79.9502 220.959 79.8908C220.959 79.8314 221.012 79.6269 221.032 79.5148C221.088 79.2984 221.088 79.0714 221.032 78.855C220.959 78.6175 220.887 78.5186 220.702 78.545C220.495 78.5982 220.304 78.7025 220.148 78.8484L217.364 82.378L217.186 82.6089L217.113 82.3252C216.797 81.0981 216.493 79.9106 216.196 78.7759V78.7297C216.196 78.6358 216.174 78.5432 216.132 78.4595C216.09 78.3758 216.028 78.3033 215.952 78.2481C215.786 78.1456 215.593 78.0929 215.398 78.0963L215.53 77.9644C215.602 82.6353 215.655 86.508 215.701 89.4438C216.216 91.5616 216.612 93.1977 216.889 94.3259C217.014 94.8668 217.113 95.2891 217.179 95.586C217.245 95.8828 217.265 96.0214 217.265 96.0214C217.265 96.0214 217.219 95.8828 217.14 95.5991L216.803 94.3456C216.506 93.2241 216.084 91.5945 215.536 89.4834C215.464 86.5476 215.378 82.6749 215.273 78.0106V77.8324H215.411C215.659 77.8279 215.902 77.8968 216.11 78.0304C216.225 78.1114 216.318 78.2193 216.382 78.3447C216.445 78.4701 216.476 78.6091 216.473 78.7495V78.7033L217.404 82.2527L217.153 82.1999L219.924 78.6571C220.125 78.4722 220.37 78.3426 220.636 78.2811C220.72 78.2653 220.806 78.2696 220.887 78.2937C220.969 78.3178 221.043 78.3609 221.105 78.4196C221.208 78.5276 221.279 78.6625 221.309 78.8088C221.378 79.0749 221.378 79.3542 221.309 79.6203C221.309 79.7457 221.256 79.8644 221.243 79.9766C221.236 80.0313 221.236 80.0868 221.243 80.1415C221.236 80.2206 221.219 80.2983 221.19 80.3724C220.793 81.3289 220.335 82.2588 219.818 83.1565V83.0839C219.785 84.0142 219.772 84.9576 219.818 85.9142C219.828 86.3899 219.874 86.8641 219.957 87.3326C219.979 87.5409 220.061 87.738 220.194 87.9C220.276 87.9723 220.364 88.0364 220.458 88.0913C220.494 88.1093 220.531 88.1226 220.57 88.1309C220.567 88.144 220.567 88.1575 220.57 88.1705H220.484V88.2365C220.392 87.0226 220.298 85.7933 220.201 84.5486V84.4298L220.26 84.3704C221.428 83.2819 222.615 82.1867 223.909 81.1509L224.417 80.7749C224.503 80.7124 224.594 80.6551 224.687 80.6033C224.798 80.5278 224.924 80.4782 225.056 80.4582C225.13 80.4518 225.204 80.4602 225.274 80.4829C225.345 80.5056 225.41 80.542 225.465 80.5901C225.521 80.653 225.558 80.7302 225.572 80.813C225.586 80.8958 225.577 80.9809 225.545 81.0586C225.472 81.2895 225.386 81.461 225.314 81.6523C224.918 82.444 224.469 83.1169 224.027 83.8426L222.886 85.6503V85.5118L223.697 88.883L223.381 88.8368C224.001 87.8142 224.634 86.8246 225.307 85.8746C225.642 85.3934 226.005 84.9329 226.396 84.4958C226.498 84.3842 226.608 84.2806 226.726 84.1857C226.855 84.0867 227.003 84.0149 227.161 83.9746C227.3 83.935 227.438 83.8954 227.596 83.8624C227.686 83.8488 227.777 83.8488 227.867 83.8624C227.927 83.875 227.983 83.9004 228.032 83.9369C228.081 83.9733 228.121 84.0199 228.151 84.0736C228.208 84.2258 228.241 84.386 228.25 84.5486C228.256 84.6342 228.256 84.7202 228.25 84.8059L228.19 85.0236C228.104 85.3007 228.005 85.5646 227.9 85.8218C227.695 86.343 227.471 86.8444 227.24 87.3458C226.792 88.342 226.33 89.3251 225.868 90.2487V90.1563C226.072 91.9574 226.251 93.7057 226.31 95.4342C226.385 96.2845 226.27 97.1409 225.973 97.9412C225.663 98.7106 225.167 99.3907 224.529 99.9204L224.588 99.8017C224.72 107.059 224.832 112.996 224.905 117.173C224.938 119.244 224.957 120.867 224.971 121.995C224.971 122.536 224.971 122.958 224.971 123.262C224.971 123.565 225.129 123.651 225.129 123.651Z" fill="#EB996E"/>
<path d="M217.72 88.5131C217.474 87.4842 217.346 86.4306 217.338 85.3727C217.219 84.3205 217.219 83.2583 217.338 82.206C217.574 83.2387 217.7 84.2936 217.714 85.3529C217.828 86.4031 217.83 87.4625 217.72 88.5131Z" fill="#EB996E"/>
<path d="M247.976 75.5151L252.04 68.3636C249.526 64.3036 248.622 59.4505 249.504 54.7577C250.387 50.0649 252.992 45.8716 256.808 43.0017C260.624 40.1318 265.376 38.7927 270.129 39.2475C274.883 39.7023 279.294 41.9182 282.497 45.4597C285.7 49.0012 287.463 53.6123 287.439 58.3873C287.416 63.1623 285.607 67.7558 282.37 71.2656C279.132 74.7753 274.699 76.9475 269.941 77.3554C265.184 77.7632 260.446 76.3773 256.658 73.4699L247.976 75.5151Z" fill="white"/>
<path d="M247.976 75.5163L256.618 73.392L256.566 73.5305C256.551 73.5128 256.543 73.4907 256.543 73.4678C256.543 73.445 256.551 73.4228 256.566 73.4052C256.583 73.3953 256.602 73.3901 256.622 73.3901C256.641 73.3901 256.661 73.3953 256.678 73.4052C259.34 75.4462 262.494 76.746 265.822 77.1723C266.816 77.3055 267.821 77.3518 268.823 77.3108C269.338 77.3108 269.866 77.2646 270.394 77.2184L271.99 76.9677C276.741 76.0166 280.955 73.298 283.78 69.361C285.346 67.183 286.428 64.695 286.953 62.0643C287.495 59.2864 287.416 56.4229 286.722 53.679C286.012 50.8106 284.628 48.153 282.684 45.9271C280.709 43.6475 278.223 41.8682 275.427 40.735C272.742 39.6678 269.852 39.2169 266.97 39.4155C264.239 39.6055 261.583 40.3938 259.191 41.7246C254.895 44.1211 251.678 48.07 250.199 52.762C249.606 54.7589 249.321 56.8346 249.355 58.9174C249.439 62.248 250.394 65.4984 252.125 68.345C252.134 68.3578 252.138 68.3727 252.138 68.3879C252.138 68.4031 252.134 68.418 252.125 68.4307L247.976 75.5163C248.259 75.0083 249.454 72.8444 251.967 68.3186V68.4044C250.188 65.5439 249.196 62.2645 249.091 58.8976C249.05 56.7871 249.33 54.6827 249.922 52.6564C250.627 50.403 251.733 48.2954 253.188 46.4351C254.782 44.4001 256.767 42.7043 259.026 41.4475C261.461 40.0938 264.164 39.2941 266.943 39.1055C269.865 38.8985 272.795 39.3494 275.52 40.4249C278.371 41.5681 280.907 43.3779 282.915 45.7028C284.899 47.9757 286.311 50.6902 287.032 53.6197C287.734 56.4141 287.811 59.3292 287.256 62.1567C286.719 64.8327 285.612 67.3618 284.011 69.5721C281.137 73.5695 276.848 76.3206 272.017 77.2646L270.394 77.5087C269.859 77.5549 269.325 77.5681 268.804 77.5945C267.79 77.6348 266.774 77.5841 265.769 77.4428C262.41 76.9835 259.234 75.6402 256.566 73.5503L256.691 73.4316C256.705 73.4482 256.712 73.4692 256.712 73.4909C256.712 73.5126 256.705 73.5337 256.691 73.5503H256.658L247.976 75.5163Z" fill="#D1D1D1"/>
<path d="M263.222 57.9538C263.222 58.2813 263.125 58.6015 262.943 58.8738C262.761 59.1461 262.503 59.3583 262.2 59.4837C261.897 59.609 261.564 59.6418 261.243 59.5779C260.922 59.514 260.627 59.3563 260.395 59.1247C260.164 58.8931 260.006 58.5981 259.942 58.2768C259.878 57.9556 259.911 57.6227 260.036 57.3201C260.162 57.0175 260.374 56.7589 260.646 56.5769C260.919 56.395 261.239 56.2979 261.566 56.2979C262.005 56.2979 262.427 56.4723 262.737 56.7829C263.048 57.0934 263.222 57.5146 263.222 57.9538Z" fill="#D1D1D1"/>
<path d="M269.839 57.9538C269.839 58.2813 269.742 58.6015 269.56 58.8738C269.378 59.1461 269.12 59.3584 268.817 59.4837C268.515 59.609 268.182 59.6418 267.86 59.5779C267.539 59.514 267.244 59.3563 267.012 59.1247C266.781 58.8931 266.623 58.5981 266.559 58.2769C266.495 57.9556 266.528 57.6227 266.654 57.3201C266.779 57.0175 266.991 56.7589 267.263 56.5769C267.536 56.395 267.856 56.2979 268.183 56.2979C268.401 56.297 268.617 56.3392 268.818 56.4221C269.019 56.505 269.202 56.627 269.356 56.7809C269.51 56.9349 269.632 57.1178 269.715 57.3191C269.798 57.5204 269.84 57.7361 269.839 57.9538Z" fill="#D1D1D1"/>
<path d="M276.443 57.1227C276.608 57.406 276.685 57.7316 276.664 58.0585C276.644 58.3854 276.527 58.6989 276.328 58.9593C276.129 59.2197 275.858 59.4153 275.548 59.5214C275.238 59.6274 274.903 59.6392 274.587 59.5552C274.27 59.4712 273.986 59.2952 273.769 59.0495C273.553 58.8037 273.414 58.4993 273.37 58.1746C273.327 57.85 273.381 57.5197 273.525 57.2256C273.669 56.9315 273.897 56.6868 274.18 56.5224C274.56 56.302 275.012 56.2415 275.436 56.3541C275.861 56.4667 276.223 56.7431 276.443 57.1227Z" fill="#D1D1D1"/>
</g>
</g>
<defs>
<filter id="filter0_d_50_700" x="56.2266" y="-9.19602" width="267.169" height="345.616" filterUnits="userSpaceOnUse" color-interpolation-filters="sRGB">
<feFlood flood-opacity="0" result="BackgroundImageFix"/>
<feColorMatrix in="SourceAlpha" type="matrix" values="0 0 0 0 0 0 0 0 0 0 0 0 0 0 0 0 0 0 127 0" result="hardAlpha"/>
<feOffset dy="3.57734"/>
<feGaussianBlur stdDeviation="17.8867"/>
<feComposite in2="hardAlpha" operator="out"/>
<feColorMatrix type="matrix" values="0 0 0 0 0.331875 0 0 0 0 0.459415 0 0 0 0 0.651458 0 0 0 0.4 0"/>
<feBlend mode="normal" in2="BackgroundImageFix" result="effect1_dropShadow_50_700"/>
<feBlend mode="normal" in="SourceGraphic" in2="effect1_dropShadow_50_700" result="shape"/>
</filter>
<clipPath id="clip0_50_700">
<rect width="379" height="320" fill="white"/>
</clipPath>
</defs>
</svg>
