<svg width="25" height="25" viewBox="0 0 25 25" fill="none" xmlns="http://www.w3.org/2000/svg">
<path d="M22.0703 0H2.92969C1.31426 0 0 1.31426 0 2.92969V22.0703C0 23.6857 1.31426 25 2.92969 25H22.0703C23.6857 25 25 23.6857 25 22.0703V2.92969C25 1.31426 23.6857 0 22.0703 0ZM23.0469 22.0703C23.0469 22.6088 22.6088 23.0469 22.0703 23.0469H16.5039V15.0879H19.521L20.0195 12.0605H16.5039V9.96094C16.5039 9.13208 17.1399 8.49609 17.9688 8.49609H19.9707V5.46875H17.9688C15.4823 5.46875 13.4776 7.48291 13.4776 9.96943V12.0605H10.5469V15.0879H13.4776V23.0469H2.92969C2.39121 23.0469 1.95312 22.6088 1.95312 22.0703V2.92969C1.95312 2.39121 2.39121 1.95312 2.92969 1.95312H22.0703C22.6088 1.95312 23.0469 2.39121 23.0469 2.92969V22.0703Z" fill="white"/>
</svg>
