<svg width="172" height="53" viewBox="0 0 172 53" fill="none" xmlns="http://www.w3.org/2000/svg">
<path d="M0 6C0 2.68629 2.68629 0 6 0H165.302C168.616 0 171.302 2.68629 171.302 6V46.7085C171.302 50.0222 168.616 52.7085 165.302 52.7085H5.99999C2.68628 52.7085 0 50.0222 0 46.7085V6Z" fill="white"/>
<path fill-rule="evenodd" clip-rule="evenodd" d="M12.7814 9.59048C12.3979 9.99634 12.1726 10.6249 12.1726 11.4405V40.5593C12.1726 41.375 12.3979 42.0035 12.7814 42.4094L12.8789 42.5043L29.1908 26.1923V25.8076L12.8789 9.49561L12.7814 9.59048Z" fill="#00D7FE"/>
<mask id="mask0_50_471" style="mask-type:alpha" maskUnits="userSpaceOnUse" x="29" y="20" width="14" height="12">
<path d="M34.6264 31.6321L29.1908 26.1926V25.8078L34.629 20.3696L41.1939 24.0988C43.0334 25.145 43.0334 26.8554 41.1939 27.9004L34.7516 31.561L34.6264 31.6321Z" fill="white"/>
</mask>
<g mask="url(#mask0_50_471)">
<path fill-rule="evenodd" clip-rule="evenodd" d="M34.6264 31.6321L29.1908 26.1926V25.8078L34.629 20.3696L41.1939 24.0988C43.0334 25.145 43.0334 26.8554 41.1939 27.9004L34.7516 31.561L34.6264 31.6321Z" fill="url(#paint0_linear_50_471)"/>
</g>
<mask id="mask1_50_471" style="mask-type:alpha" maskUnits="userSpaceOnUse" x="12" y="26" width="23" height="17">
<path d="M34.7516 31.5607L29.1908 26L12.7814 42.4095C13.3888 43.0512 14.3903 43.1302 15.5183 42.4898L34.7516 31.5607Z" fill="white"/>
</mask>
<g mask="url(#mask1_50_471)">
<path fill-rule="evenodd" clip-rule="evenodd" d="M34.7516 31.5607L29.1908 26L12.7814 42.4095C13.3888 43.0512 14.3903 43.1302 15.5183 42.4898L34.7516 31.5607Z" fill="url(#paint1_linear_50_471)"/>
</g>
<mask id="mask2_50_471" style="mask-type:alpha" maskUnits="userSpaceOnUse" x="12" y="9" width="23" height="17">
<path d="M34.7516 20.4392L15.5183 9.51009C14.3903 8.86968 13.3888 8.94875 12.7814 9.59047L29.1908 25.9999L34.7516 20.4392Z" fill="white"/>
</mask>
<g mask="url(#mask2_50_471)">
<path fill-rule="evenodd" clip-rule="evenodd" d="M34.7516 20.4392L15.5183 9.51009C14.3903 8.86968 13.3888 8.94875 12.7814 9.59047L29.1908 25.9999L34.7516 20.4392Z" fill="url(#paint2_linear_50_471)"/>
</g>
<path fill-rule="evenodd" clip-rule="evenodd" d="M137.251 40.4331H139.71V23.9604H137.251V40.4331ZM159.398 29.894L156.579 37.036H156.495L153.57 29.894H150.921L155.308 39.8757L152.807 45.4285H155.372L162.132 29.894H159.398ZM145.454 38.5619C144.647 38.5619 143.525 38.16 143.525 37.1638C143.525 35.8922 144.924 35.4047 146.131 35.4047C147.213 35.4047 147.72 35.6379 148.378 35.9555C148.187 37.4814 146.873 38.5619 145.454 38.5619ZM145.75 29.5343C143.97 29.5343 142.127 30.3183 141.364 32.0564L143.546 32.9669C144.012 32.0564 144.881 31.7586 145.792 31.7586C147.064 31.7586 148.357 32.5215 148.378 33.8788V34.0474C147.932 33.7931 146.98 33.4123 145.814 33.4123C143.461 33.4123 141.066 34.705 141.066 37.1203C141.066 39.3249 142.995 40.7454 145.156 40.7454C146.81 40.7454 147.72 40.0035 148.294 39.1338H148.378V40.4054H150.751V34.0909C150.751 31.1656 148.569 29.5343 145.75 29.5343ZM130.554 31.8996H127.057V26.2532H130.554C132.393 26.2532 133.436 27.7751 133.436 29.0757C133.436 30.3526 132.393 31.8996 130.554 31.8996ZM130.491 23.9604H124.6V40.4331H127.057V34.1924H130.491C133.216 34.1924 135.895 32.2184 135.895 29.0757C135.895 25.933 133.216 23.9604 130.491 23.9604ZM98.3641 38.5645C96.6656 38.5645 95.2438 37.1427 95.2438 35.1899C95.2438 33.216 96.6656 31.7717 98.3641 31.7717C100.042 31.7717 101.357 33.216 101.357 35.1899C101.357 37.1427 100.042 38.5645 98.3641 38.5645ZM101.187 30.8164H101.102C100.55 30.1589 99.4894 29.5646 98.1519 29.5646C95.3492 29.5646 92.781 32.0261 92.781 35.1899C92.781 38.3313 95.3492 40.773 98.1519 40.773C99.4894 40.773 100.55 40.1787 101.102 39.4988H101.187V40.3052C101.187 42.4505 100.042 43.5969 98.1941 43.5969C96.6867 43.5969 95.7524 42.5137 95.3703 41.6006L93.2263 42.4926C93.8417 43.979 95.477 45.8041 98.1941 45.8041C101.081 45.8041 103.523 44.1055 103.523 39.9666V29.9032H101.187V30.8164ZM105.221 40.4331H107.684V23.959H105.221V40.4331ZM111.313 34.9988C111.25 32.8338 112.991 31.7296 114.243 31.7296C115.22 31.7296 116.048 32.2171 116.323 32.9182L111.313 34.9988ZM118.956 33.1303C118.49 31.8785 117.066 29.5646 114.158 29.5646C111.271 29.5646 108.873 31.835 108.873 35.1688C108.873 38.3102 111.25 40.773 114.434 40.773C117.003 40.773 118.49 39.2023 119.105 38.2891L117.194 37.0149C116.558 37.9492 115.687 38.5645 114.434 38.5645C113.182 38.5645 112.29 37.9913 111.716 36.8673L119.21 33.7681L118.956 33.1303ZM59.2531 31.2842V33.6613H64.9417C64.7717 34.9988 64.3263 35.9752 63.6477 36.6552C62.8188 37.4827 61.5235 38.3946 59.2531 38.3946C55.7506 38.3946 53.0111 35.572 53.0111 32.0695C53.0111 28.5658 55.7506 25.7432 59.2531 25.7432C61.1427 25.7432 62.5223 26.4864 63.5409 27.4417L65.2184 25.7643C63.7953 24.4057 61.907 23.3647 59.2531 23.3647C54.4553 23.3647 50.4218 27.2718 50.4218 32.0695C50.4218 36.8673 54.4553 40.773 59.2531 40.773C61.8424 40.773 63.7953 39.9244 65.3238 38.3313C66.8945 36.7606 67.3834 34.5534 67.3834 32.7693C67.3834 32.2171 67.3412 31.7085 67.2556 31.2842H59.2531ZM73.852 38.5645C72.1535 38.5645 70.6882 37.1638 70.6882 35.1688C70.6882 33.1514 72.1535 31.7717 73.852 31.7717C75.5492 31.7717 77.0145 33.1514 77.0145 35.1688C77.0145 37.1638 75.5492 38.5645 73.852 38.5645ZM73.852 29.5646C70.7515 29.5646 68.2254 31.9206 68.2254 35.1688C68.2254 38.3946 70.7515 40.773 73.852 40.773C76.9513 40.773 79.4773 38.3946 79.4773 35.1688C79.4773 31.9206 76.9513 29.5646 73.852 29.5646ZM86.1239 38.5645C84.4253 38.5645 82.96 37.1638 82.96 35.1688C82.96 33.1514 84.4253 31.7717 86.1239 31.7717C87.8224 31.7717 89.2864 33.1514 89.2864 35.1688C89.2864 37.1638 87.8224 38.5645 86.1239 38.5645ZM86.1239 29.5646C83.0246 29.5646 80.4986 31.9206 80.4986 35.1688C80.4986 38.3946 83.0246 40.773 86.1239 40.773C89.2231 40.773 91.7492 38.3946 91.7492 35.1688C91.7492 31.9206 89.2231 29.5646 86.1239 29.5646Z" fill="black"/>
<path d="M57.6255 16.1283C57.3398 16.5376 56.9402 16.8445 56.4268 17.0491C55.9172 17.2498 55.3227 17.3502 54.6432 17.3502C53.9561 17.3502 53.3461 17.19 52.8134 16.8696C52.2806 16.5453 51.8675 16.0859 51.5742 15.4914C51.2846 14.8969 51.136 14.2078 51.1283 13.4241V12.6887C51.1283 11.4186 51.4236 10.4341 52.0142 9.73539C52.6088 9.03664 53.4426 8.68727 54.5158 8.68727C55.396 8.68727 56.1044 8.9131 56.641 9.36478C57.1776 9.8126 57.5058 10.4496 57.6255 11.2757H56.5136C56.3052 10.16 55.6412 9.6022 54.5216 9.6022C53.7766 9.6022 53.211 9.86471 52.8249 10.3897C52.4428 10.9109 52.2497 11.6676 52.2459 12.6597V13.3488C52.2459 14.2946 52.4621 15.0474 52.8944 15.6072C53.3268 16.1631 53.9117 16.441 54.649 16.441C55.066 16.441 55.4308 16.3947 55.7435 16.3021C56.0562 16.2094 56.3148 16.0531 56.5194 15.833V13.9395H54.568V13.0361H57.6255V16.1283ZM63.8943 13.3372H60.2403V16.3252H64.4849V17.2344H59.1285V8.80308H64.427V9.71801H60.2403V12.4281H63.8943V13.3372ZM71.4544 9.71801H68.7443V17.2344H67.6383V9.71801H64.934V8.80308H71.4544V9.71801ZM75.8966 17.2344H74.7848V8.80308H75.8966V17.2344ZM83.2309 9.71801H80.5208V17.2344H79.4148V9.71801H76.7105V8.80308H83.2309V9.71801ZM92.9658 13.2909C92.9658 14.117 92.8268 14.8389 92.5489 15.4566C92.2709 16.0704 91.8771 16.5395 91.3675 16.8638C90.858 17.188 90.2635 17.3502 89.584 17.3502C88.92 17.3502 88.3313 17.188 87.8178 16.8638C87.3044 16.5356 86.9048 16.0704 86.6192 15.4682C86.3373 14.8621 86.1926 14.1614 86.1849 13.3662V12.7581C86.1849 11.9474 86.3258 11.2313 86.6076 10.6098C86.8894 9.98825 87.287 9.51341 87.8005 9.18527C88.3178 8.85327 88.9084 8.68727 89.5724 8.68727C90.248 8.68727 90.8425 8.85134 91.356 9.17948C91.8733 9.50376 92.2709 9.97667 92.5489 10.5982C92.8268 11.2159 92.9658 11.9359 92.9658 12.7581V13.2909ZM91.8598 12.7466C91.8598 11.7467 91.659 10.9804 91.2575 10.4476C90.856 9.91104 90.2943 9.64274 89.5724 9.64274C88.8698 9.64274 88.3158 9.91104 87.9105 10.4476C87.509 10.9804 87.3025 11.7216 87.2909 12.6713V13.2909C87.2909 14.2599 87.4936 15.0223 87.8989 15.5782C88.3081 16.1303 88.8698 16.4063 89.584 16.4063C90.3021 16.4063 90.858 16.1457 91.2517 15.6246C91.6455 15.0995 91.8482 14.3487 91.8598 13.372V12.7466ZM100.758 17.2344H99.6399L95.3953 10.7372V17.2344H94.2777V8.80308H95.3953L99.6515 15.3292V8.80308H100.758V17.2344Z" fill="black"/>
<defs>
<linearGradient id="paint0_linear_50_471" x1="39.9971" y1="26.0006" x2="29.1908" y2="26.0006" gradientUnits="userSpaceOnUse">
<stop stop-color="#FFBC00"/>
<stop offset="1" stop-color="#FFDA03"/>
</linearGradient>
<linearGradient id="paint1_linear_50_471" x1="31.7295" y1="31.2324" x2="17.6254" y2="42.8579" gradientUnits="userSpaceOnUse">
<stop stop-color="#E22652"/>
<stop offset="1" stop-color="#FF3A44"/>
</linearGradient>
<linearGradient id="paint2_linear_50_471" x1="15.2661" y1="11.5659" x2="24.6696" y2="19.8345" gradientUnits="userSpaceOnUse">
<stop stop-color="#0ED574"/>
<stop offset="1" stop-color="#07F076"/>
</linearGradient>
</defs>
</svg>
