<svg width="26" height="26" viewBox="0 0 26 26" fill="none" xmlns="http://www.w3.org/2000/svg">
<path d="M24.9395 7.23291C24.6155 7.08984 24.237 7.16079 23.987 7.41102L21.4496 9.94725L16.8208 9.12878L16.0019 4.4997L18.5395 1.96352C18.7893 1.71324 18.8603 1.33511 18.7175 1.01104C18.5749 0.687369 18.2467 0.484137 17.8937 0.500971C16.1645 0.581735 14.46 1.27982 13.1389 2.60124C11.1103 4.62909 10.5495 7.55988 11.4384 10.096L1.48504 20.0516C0.238182 21.2976 0.238182 23.3188 1.48504 24.5653C2.08294 25.1636 2.89444 25.5 3.74129 25.5C4.58733 25.5 5.39955 25.1635 5.99744 24.5657L16.0003 14.5627C18.5024 15.3787 21.3606 14.7994 23.348 12.8108C24.6691 11.4901 25.3675 9.78598 25.4491 8.05713C25.4648 7.70381 25.2636 7.37638 24.9395 7.23291ZM5.29157 22.6616C4.7663 23.1869 3.9136 23.1869 3.38833 22.6616C2.86215 22.1355 2.86215 21.2836 3.38833 20.7575C3.9136 20.2322 4.7663 20.2322 5.29157 20.7575C5.81695 21.2836 5.81695 22.1354 5.29157 22.6616Z" fill="#257CFF"/>
</svg>
