<svg width="26" height="22" viewBox="0 0 26 22" fill="none" xmlns="http://www.w3.org/2000/svg">
<path d="M23.9311 15.0948V7.31897L22.4662 7.80725V15.0948C21.5553 15.4015 20.8972 16.2631 20.8972 17.276V21.1986C20.8972 21.6031 21.2251 21.931 21.6296 21.931H24.7676C25.1721 21.931 25.5 21.6031 25.5 21.1986V17.276C25.5 16.2631 24.8419 15.4015 23.9311 15.0948Z" fill="#257CFF"/>
<path d="M12.3055 10.7311L5.20715 8.36499V13.3536C5.20715 13.5479 5.28435 13.7341 5.4217 13.8715C7.44622 15.8958 10.1378 17.0106 13.0005 17.0106C15.8632 17.0106 18.5545 15.8957 20.5786 13.8714C20.7159 13.734 20.7931 13.5478 20.7931 13.3536V8.36499L13.6949 10.7311C13.2097 10.8926 12.7213 10.8696 12.3055 10.7311V10.7311Z" fill="#257CFF"/>
<path d="M13.0001 9.37889C13.0783 9.37889 13.1565 9.36634 13.2317 9.34129L24.9992 5.41879C25.2983 5.31908 25.5001 5.0392 25.5001 4.72396C25.5001 4.40873 25.2984 4.12884 24.9992 4.02914L13.2317 0.106628C13.0814 0.0565796 12.9188 0.0565796 12.7685 0.106628L1.00089 4.02914C0.70177 4.1288 0.500061 4.40868 0.500061 4.72396C0.500061 5.03924 0.70177 5.31908 1.00089 5.41879L12.7685 9.34129C12.8436 9.36634 12.9218 9.37889 13.0001 9.37889Z" fill="#257CFF"/>
</svg>
