<svg width="26" height="22" viewBox="0 0 26 22" fill="none" xmlns="http://www.w3.org/2000/svg">
<path d="M14.9601 0.444723L2.54378 2.63906C1.22293 2.87251 0.330696 4.08042 0.527034 5.36943C0.75008 6.83369 2.26502 7.76088 3.72259 7.32514L11.8465 5.08896C16.2375 3.88027 20.9198 4.09335 25.164 5.72314L25.1754 5.72753C25.4019 5.81469 25.5989 5.55107 25.4458 5.36552C24.0157 3.63217 19.9365 -0.605521 14.9601 0.444723V0.444723Z" fill="#257CFF"/>
<path d="M20.347 15.9177C20.6685 15.5394 20.9178 15.1301 21.0824 14.6959C21.2261 14.3167 21.0292 13.8951 20.6425 13.7542C20.256 13.6133 19.8259 13.8064 19.6822 14.1856C19.3873 14.9636 18.6165 15.6868 17.5117 16.2222C16.3175 16.8008 14.8029 17.1195 13.2471 17.1195C11.6912 17.1195 10.1767 16.8008 8.98253 16.2222C7.87775 15.6869 7.1069 14.9636 6.81198 14.1857C6.66827 13.8065 6.23844 13.6134 5.85167 13.7544C5.46505 13.8953 5.26813 14.3169 5.41183 14.6961C5.57638 15.1302 5.82579 15.5395 6.14718 15.9177L4.39767 17.6333C4.10597 17.9194 4.10597 18.3831 4.39767 18.6691C4.54352 18.8121 4.73463 18.8836 4.92579 18.8836C5.11696 18.8836 5.30812 18.8121 5.45392 18.6691L7.24996 16.9079C7.7359 17.2485 8.29283 17.5457 8.90509 17.7913L8.20489 20.1462C8.08942 20.5345 8.31691 20.9411 8.7129 21.0543C8.78268 21.0743 8.85304 21.0837 8.92228 21.0837C9.24576 21.0837 9.54386 20.876 9.63898 20.5562L10.3267 18.2433C11.0094 18.4092 11.7353 18.5181 12.4887 18.562V20.9878C12.4887 21.3922 12.8232 21.7202 13.2357 21.7202C13.6482 21.7202 13.9826 21.3922 13.9826 20.9878V18.5634C14.7442 18.5204 15.4779 18.4109 16.1675 18.2433L16.8552 20.5562C16.9504 20.8761 17.2485 21.0838 17.5719 21.0838C17.6412 21.0838 17.7115 21.0743 17.7814 21.0544C18.1774 20.9411 18.4048 20.5345 18.2893 20.1462L17.5891 17.7913C18.2013 17.5457 18.7582 17.2485 19.2442 16.9079L21.0402 18.6692C21.186 18.8122 21.3772 18.8837 21.5683 18.8837C21.7594 18.8837 21.9506 18.8121 22.0964 18.6692C22.3881 18.3831 22.3881 17.9194 22.0964 17.6334L20.347 15.9177Z" fill="#257CFF"/>
</svg>
