<svg width="374" height="484" viewBox="0 0 374 484" fill="none" xmlns="http://www.w3.org/2000/svg">
<g filter="url(#filter0_d_50_1279)">
<path d="M187.008 45.2604H163.955C162.438 45.2943 160.996 45.929 159.946 47.0252C158.897 48.1214 158.326 49.5893 158.358 51.1066V55.2468C158.375 55.9972 158.244 56.7436 157.972 57.4432C157.7 58.1429 157.293 58.7821 156.774 59.3243C156.255 59.8665 155.634 60.3009 154.947 60.6028C154.26 60.9048 153.52 61.0682 152.77 61.0837H107.882C106.371 61.0427 104.938 60.406 103.894 59.3127C102.851 58.2193 102.282 56.7578 102.312 55.2468V51.0512C102.329 50.3004 102.198 49.5536 101.927 48.8534C101.655 48.1532 101.248 47.5133 100.729 46.9704C100.21 46.4275 99.5896 45.9922 98.9024 45.6893C98.2152 45.3864 97.475 45.2218 96.7242 45.2051H68.4708C63.6741 45.2124 59.0762 47.1224 55.6862 50.5159C52.2961 53.9095 50.3908 58.5093 50.3883 63.306L50.333 353.954C50.3306 356.333 50.7969 358.689 51.7054 360.888C52.6138 363.087 53.9466 365.085 55.6276 366.768C57.3085 368.452 59.3047 369.788 61.5021 370.699C63.6994 371.611 66.0549 372.081 68.434 372.082L186.98 372.147C191.782 372.137 196.384 370.221 199.775 366.82C203.165 363.419 205.067 358.811 205.062 354.009L205.118 63.3613C205.115 58.5598 203.206 53.9558 199.81 50.5615C196.414 47.1672 191.809 45.2604 187.008 45.2604Z" fill="white"/>
<path d="M187.008 45.2605H187.625C188.242 45.2649 188.859 45.3111 189.47 45.3988C191.877 45.6869 194.195 46.4887 196.265 47.7501C197.806 48.6469 199.2 49.776 200.396 51.0974C201.866 52.6766 203.035 54.511 203.845 56.5102C204.793 58.8517 205.258 61.3611 205.21 63.887C205.21 66.5703 205.21 69.4196 205.21 72.4349C205.21 96.5756 205.21 131.505 205.265 174.669C205.321 217.833 205.265 269.231 205.265 326.3V353.456C205.303 355.324 205.07 357.187 204.574 358.989C204.068 360.8 203.287 362.523 202.259 364.097C201.207 365.667 199.933 367.077 198.479 368.283C195.505 370.7 191.847 372.122 188.022 372.35C184.223 372.461 180.442 372.35 176.634 372.396H153.581H106.222H81.9981H69.7525C65.5675 372.636 61.4197 371.493 57.9496 369.141C54.502 366.741 51.9698 363.244 50.7664 359.219C50.1991 357.226 49.944 355.158 50.0102 353.087V346.983C50.0102 338.85 50.0102 330.772 50.0102 322.75C50.0102 306.705 50.0102 290.913 50.0102 275.372C50.0102 244.315 50.0102 214.356 50.0102 185.817C50.0102 157.278 50.0102 130.159 50.0563 104.773C50.0563 92.085 50.0563 79.8425 50.0563 68.0457V63.5919C50.0563 62.8635 50.1209 62.1166 50.167 61.3881C50.2533 60.6631 50.3764 59.9429 50.5358 59.2304C51.2133 56.4033 52.5463 53.7752 54.4271 51.5584C56.2291 49.42 58.4937 47.7194 61.0497 46.5852C63.6057 45.4509 66.3862 44.9128 69.1808 45.0115H84.9765H96.2907C97.5688 44.9415 98.8338 45.2983 99.8869 46.0258C100.912 46.7431 101.689 47.7614 102.109 48.9397C102.45 50.0996 102.575 51.3123 102.478 52.5174V54.3248C102.464 54.9001 102.482 55.4758 102.533 56.0491C102.676 57.1574 103.141 58.1994 103.87 59.0459C104.591 59.8961 105.557 60.5018 106.637 60.7795C107.175 60.9017 107.727 60.9544 108.278 60.9363H116.485H140.377H150.916C151.746 60.9363 152.595 60.9363 153.378 60.9363C154.168 60.8435 154.927 60.5757 155.601 60.1525C156.249 59.7386 156.807 59.199 157.242 58.5654C157.678 57.9318 157.982 57.2173 158.136 56.464C158.257 55.7577 158.303 55.0407 158.275 54.3248V52.167C158.245 51.4587 158.276 50.7493 158.367 50.0462C158.488 49.3681 158.719 48.7141 159.049 48.1098C159.691 46.9431 160.722 46.0391 161.963 45.5555C163.126 45.1839 164.353 45.0522 165.569 45.1682H177.316H184.545H187.008H184.545H177.316H165.559C164.368 45.0586 163.167 45.1903 162.028 45.5555C160.846 46.0411 159.868 46.9208 159.261 48.0452C158.94 48.6347 158.719 49.2735 158.607 49.9355C158.515 50.6261 158.484 51.3235 158.514 52.0195C158.514 52.7295 158.514 53.4488 158.514 54.1864C158.547 54.9365 158.497 55.6878 158.367 56.4272C158.204 57.2013 157.889 57.9352 157.439 58.5859C156.99 59.2367 156.415 59.7912 155.748 60.217C155.05 60.656 154.262 60.9332 153.443 61.0285C152.604 61.1022 151.792 61.0285 150.953 61.0285H108.287C107.714 61.0465 107.141 60.9907 106.581 60.8625C105.436 60.5681 104.411 59.9233 103.649 59.0183C102.87 58.1177 102.373 57.0083 102.22 55.8278C102.162 55.2395 102.14 54.6483 102.155 54.0573V52.5267C102.258 51.3562 102.139 50.1767 101.805 49.0503C101.41 47.9312 100.675 46.9639 99.7025 46.284C98.7075 45.6108 97.5174 45.2865 96.3184 45.3619H69.2085C66.4942 45.2806 63.7946 45.7903 61.2968 46.8557C58.7621 47.9846 56.5147 49.6709 54.7222 51.789C52.9215 53.9708 51.6581 56.5449 51.0338 59.3041C50.8494 59.9957 50.794 60.7149 50.6742 61.425C50.5543 62.135 50.5819 62.8542 50.5727 63.5827V67.9719C50.5727 79.7564 50.5727 91.9989 50.5727 104.699C50.5727 130.085 50.5727 157.204 50.5727 185.743C50.5727 214.282 50.5727 244.242 50.5727 275.298V322.658C50.5727 330.68 50.5727 338.758 50.5727 346.891V352.995C50.5072 355.016 50.7561 357.035 51.3104 358.979C52.4777 362.892 54.9388 366.293 58.2908 368.625C61.6578 370.918 65.6846 372.042 69.7525 371.824H106.213H153.572H176.625C180.424 371.824 184.241 371.889 187.976 371.778C191.702 371.562 195.266 370.181 198.165 367.832C199.582 366.655 200.824 365.283 201.853 363.756C202.855 362.225 203.614 360.548 204.103 358.786C204.588 357.03 204.818 355.213 204.786 353.391V347.859C204.786 340.543 204.786 333.32 204.786 326.189C204.786 269.12 204.841 217.731 204.869 174.558C204.896 131.385 204.942 96.465 204.97 72.3243C204.97 69.2998 204.97 66.4597 204.97 63.7763C205.021 61.2806 204.569 58.8002 203.642 56.4825C202.84 54.4983 201.687 52.6743 200.24 51.0974C197.404 47.9819 193.568 45.9563 189.396 45.3711C188.785 45.2749 188.169 45.2164 187.552 45.1959L187.008 45.2605Z" fill="#F9F9F9"/>
<path d="M103.953 117.95L105.373 116.235C105.661 116.691 106.056 117.07 106.524 117.338C106.991 117.607 107.518 117.757 108.057 117.775C109.449 117.775 110.159 116.945 110.159 115.285V108.305H105.355V106.202H112.667V115.183C112.667 118.365 111.091 119.923 108.121 119.923C107.32 119.947 106.525 119.781 105.8 119.438C105.076 119.095 104.443 118.585 103.953 117.95Z" fill="#263238"/>
<path d="M124.572 113.671V119.711H122.313V118.457C121.932 118.94 121.437 119.321 120.871 119.564C120.306 119.807 119.689 119.905 119.076 119.849C116.715 119.849 115.231 118.558 115.231 116.76C115.231 114.962 116.393 113.699 119.519 113.699H122.174V113.542C122.174 112.131 121.326 111.301 119.611 111.301C118.485 111.289 117.386 111.649 116.485 112.325L115.563 110.573C116.84 109.693 118.365 109.247 119.915 109.3C122.857 109.3 124.572 110.702 124.572 113.671ZM122.156 116.493V115.294H119.666C118.034 115.294 117.591 115.912 117.591 116.668C117.591 117.424 118.32 118.097 119.555 118.097C120.102 118.134 120.647 117.999 121.113 117.712C121.579 117.424 121.944 116.998 122.156 116.493Z" fill="#263238"/>
<path d="M137.804 113.81V119.711H135.388V114.123C135.388 112.279 134.466 111.403 132.944 111.403C131.22 111.403 130.067 112.445 130.067 114.501V119.711H127.651V109.411H129.948V110.739C130.397 110.253 130.948 109.872 131.562 109.623C132.176 109.375 132.837 109.264 133.498 109.301C135.969 109.301 137.804 110.702 137.804 113.81Z" fill="#263238"/>
<path d="M150.612 115.331H142.525C142.679 116.082 143.104 116.75 143.721 117.206C144.337 117.662 145.1 117.875 145.863 117.802C146.377 117.819 146.888 117.729 147.364 117.537C147.84 117.344 148.271 117.055 148.629 116.687L149.92 118.171C149.398 118.74 148.755 119.186 148.039 119.477C147.323 119.767 146.552 119.894 145.78 119.849C142.322 119.849 140.091 117.627 140.091 114.566C140.07 113.864 140.194 113.165 140.455 112.513C140.715 111.862 141.107 111.27 141.606 110.776C142.105 110.283 142.701 109.897 143.355 109.643C144.01 109.389 144.71 109.272 145.411 109.3C146.112 109.274 146.811 109.394 147.463 109.653C148.114 109.912 148.705 110.305 149.195 110.806C149.686 111.307 150.066 111.906 150.312 112.563C150.558 113.22 150.663 113.921 150.621 114.621C150.649 114.815 150.63 115.101 150.612 115.331ZM142.507 113.736H148.353C148.287 113.022 147.946 112.361 147.403 111.893C146.859 111.425 146.155 111.186 145.439 111.228C144.725 111.202 144.027 111.445 143.484 111.91C142.94 112.374 142.592 113.026 142.507 113.736Z" fill="#263238"/>
<path d="M116.254 129.873C116.254 127.927 117.278 126.766 118.698 126.766C120.118 126.766 121.141 127.927 121.141 129.873C121.141 131.819 120.109 132.981 118.698 132.981C117.287 132.981 116.254 131.782 116.254 129.873ZM120.496 129.873C120.496 128.241 119.758 127.337 118.698 127.337C117.638 127.337 116.854 128.259 116.854 129.873C116.854 131.487 117.582 132.409 118.698 132.409C119.814 132.409 120.468 131.505 120.468 129.873H120.496Z" fill="#263238"/>
<path d="M127.237 131.321H126.001V132.934H125.365V131.321H121.916V130.86L125.162 126.802H125.853L122.727 130.758H125.383V129.338H126.001V130.758H127.218L127.237 131.321Z" fill="#263238"/>
<path d="M127.845 128.766C127.844 128.705 127.855 128.644 127.878 128.587C127.9 128.53 127.934 128.478 127.977 128.434C128.02 128.39 128.071 128.356 128.128 128.332C128.184 128.308 128.245 128.296 128.306 128.296C128.369 128.295 128.431 128.306 128.489 128.329C128.547 128.352 128.6 128.387 128.645 128.43C128.689 128.474 128.725 128.526 128.749 128.584C128.773 128.642 128.786 128.704 128.786 128.766C128.786 128.894 128.735 129.017 128.646 129.109C128.556 129.2 128.434 129.253 128.306 129.255C128.244 129.254 128.182 129.24 128.125 129.215C128.068 129.19 128.016 129.153 127.973 129.108C127.93 129.062 127.897 129.008 127.875 128.95C127.853 128.891 127.843 128.829 127.845 128.766ZM127.845 132.455C127.844 132.393 127.855 132.332 127.878 132.275C127.9 132.218 127.934 132.166 127.977 132.123C128.02 132.079 128.071 132.044 128.128 132.02C128.184 131.997 128.245 131.984 128.306 131.984C128.378 131.964 128.453 131.96 128.526 131.974C128.599 131.988 128.667 132.018 128.727 132.063C128.786 132.107 128.834 132.165 128.867 132.232C128.9 132.298 128.917 132.371 128.917 132.445C128.917 132.52 128.9 132.593 128.867 132.659C128.834 132.726 128.786 132.784 128.727 132.828C128.667 132.873 128.599 132.903 128.526 132.917C128.453 132.93 128.378 132.927 128.306 132.907C128.192 132.905 128.082 132.862 127.998 132.786C127.913 132.709 127.859 132.605 127.845 132.492V132.455Z" fill="#263238"/>
<path d="M133.867 131.127C133.867 132.169 133.147 132.971 131.644 132.971C130.843 132.997 130.061 132.717 129.459 132.187L129.763 131.689C130.264 132.154 130.924 132.409 131.607 132.399C132.64 132.399 133.193 131.892 133.193 131.145C133.193 130.398 132.705 129.873 131.146 129.873H129.846L130.16 126.802H133.507V127.365H130.741L130.529 129.31H131.312C133.166 129.32 133.867 130.048 133.867 131.127Z" fill="#263238"/>
<path d="M139.261 131.099C139.253 131.361 139.192 131.618 139.081 131.855C138.97 132.091 138.811 132.303 138.615 132.476C138.418 132.649 138.189 132.779 137.94 132.86C137.691 132.94 137.428 132.969 137.168 132.943C135.545 132.943 134.66 131.818 134.66 129.891C134.66 127.807 135.794 126.728 137.426 126.728C137.931 126.706 138.434 126.818 138.883 127.051L138.625 127.558C138.263 127.352 137.851 127.252 137.435 127.272C136.116 127.272 135.268 128.121 135.268 129.78C135.268 129.919 135.268 130.094 135.268 130.278C135.442 129.944 135.708 129.667 136.035 129.481C136.362 129.294 136.736 129.206 137.112 129.227C137.381 129.182 137.656 129.197 137.919 129.271C138.181 129.345 138.423 129.477 138.629 129.656C138.834 129.835 138.998 130.057 139.107 130.306C139.216 130.556 139.269 130.827 139.261 131.099ZM138.634 131.099C138.634 130.297 138.044 129.78 137.103 129.78C136.911 129.759 136.716 129.777 136.531 129.833C136.345 129.89 136.174 129.983 136.026 130.109C135.878 130.234 135.758 130.388 135.672 130.561C135.586 130.735 135.536 130.924 135.526 131.118C135.526 131.791 136.089 132.427 137.14 132.427C137.326 132.449 137.515 132.432 137.693 132.376C137.872 132.321 138.037 132.228 138.178 132.105C138.319 131.981 138.432 131.829 138.511 131.659C138.589 131.489 138.631 131.305 138.634 131.118V131.099Z" fill="#263238"/>
<path d="M127.661 314.054C139.089 314.054 148.353 304.79 148.353 293.362C148.353 281.934 139.089 272.67 127.661 272.67C116.233 272.67 106.969 281.934 106.969 293.362C106.969 304.79 116.233 314.054 127.661 314.054Z" fill="#257CFF"/>
<path d="M118.624 296.764L122.313 295.897C122.534 295.844 122.73 295.717 122.871 295.538C123.011 295.359 123.087 295.138 123.087 294.911V294.155C123.087 294.155 122.93 292.864 124.148 292.781C125.024 292.725 130.602 292.781 130.602 292.781C130.602 292.781 132.059 292.781 132.032 293.906V294.994C132.032 295.179 132.093 295.359 132.204 295.507C132.315 295.655 132.472 295.763 132.649 295.814L136.651 297.032C136.857 297.082 137.074 297.06 137.265 296.969C137.457 296.879 137.611 296.725 137.703 296.534L138.21 295.298C138.302 295.073 138.346 294.831 138.339 294.588C138.292 293.919 138.052 293.279 137.647 292.744C136.854 291.73 133.11 289.323 125.983 289.673C119.187 289.996 117.684 292.864 117.315 293.546C117.06 294.15 117.017 294.823 117.195 295.455C117.259 295.621 117.379 295.888 117.49 296.165C117.581 296.38 117.744 296.557 117.95 296.667C118.157 296.776 118.395 296.81 118.624 296.764Z" fill="white"/>
<path d="M89.7531 198.477C98.2069 198.477 105.06 191.624 105.06 183.17C105.06 174.716 98.2069 167.863 89.7531 167.863C81.2993 167.863 74.4461 174.716 74.4461 183.17C74.4461 191.624 81.2993 198.477 89.7531 198.477Z" fill="#455A64"/>
<path d="M89.7531 186.611C89.0194 186.611 88.3158 186.319 87.797 185.8C87.2782 185.282 86.9868 184.578 86.9868 183.844V177.887C86.9868 177.154 87.2782 176.45 87.797 175.931C88.3158 175.413 89.0194 175.121 89.7531 175.121C90.4867 175.121 91.1904 175.413 91.7092 175.931C92.2279 176.45 92.5194 177.154 92.5194 177.887V183.9C92.5049 184.624 92.2071 185.313 91.6899 185.82C91.1726 186.327 90.4773 186.611 89.7531 186.611ZM89.7531 175.656C89.1751 175.658 88.6216 175.89 88.2137 176.299C87.8059 176.709 87.5769 177.263 87.5769 177.841V183.853C87.6129 184.407 87.8584 184.927 88.2634 185.306C88.6684 185.686 89.2026 185.897 89.7577 185.897C90.3127 185.897 90.847 185.686 91.252 185.306C91.657 184.927 91.9024 184.407 91.9385 183.853V177.887C91.9446 177.597 91.8926 177.307 91.7855 177.037C91.6785 176.766 91.5185 176.52 91.3149 176.312C91.1114 176.104 90.8684 175.939 90.6002 175.827C90.332 175.714 90.044 175.656 89.7531 175.656Z" fill="white"/>
<path d="M89.753 188.546C89.0353 188.585 88.3176 188.468 87.6492 188.204C86.9807 187.94 86.3773 187.535 85.8801 187.016C84.1189 185.07 84.4047 182.018 84.414 181.889C84.4232 181.812 84.4622 181.742 84.5226 181.694C84.5829 181.645 84.6598 181.623 84.7367 181.63C84.7743 181.634 84.8109 181.645 84.8442 181.662C84.8776 181.68 84.9072 181.704 84.9312 181.733C84.9552 181.763 84.9732 181.796 84.9841 181.832C84.995 181.868 84.9987 181.906 84.9949 181.944C84.9949 181.944 84.7275 184.876 86.3135 186.628C86.7572 187.085 87.2941 187.441 87.8876 187.671C88.4811 187.902 89.1173 188.002 89.753 187.965C90.3966 187.999 91.0401 187.898 91.6421 187.667C92.244 187.437 92.791 187.083 93.2477 186.628C94.3191 185.299 94.8814 183.632 94.8338 181.925C94.8337 181.849 94.8636 181.775 94.9169 181.72C94.9703 181.665 95.043 181.633 95.1196 181.63C95.1942 181.632 95.2654 181.662 95.3198 181.713C95.3742 181.764 95.4079 181.833 95.4147 181.907C95.4737 183.772 94.8508 185.595 93.6627 187.034C93.1519 187.544 92.5404 187.942 91.8673 188.202C91.1941 188.463 90.474 188.58 89.753 188.546Z" fill="white"/>
<path d="M89.753 192.779C89.6772 192.779 89.6045 192.749 89.5509 192.695C89.4973 192.642 89.4672 192.569 89.4672 192.493V188.261C89.4596 188.218 89.4614 188.175 89.4725 188.133C89.4836 188.091 89.5037 188.052 89.5314 188.019C89.5591 187.986 89.5937 187.96 89.6328 187.941C89.6719 187.923 89.7145 187.914 89.7577 187.914C89.8008 187.914 89.8434 187.923 89.8825 187.941C89.9216 187.96 89.9562 187.986 89.9839 188.019C90.0116 188.052 90.0317 188.091 90.0428 188.133C90.0539 188.175 90.0557 188.218 90.0481 188.261V192.493C90.0481 192.531 90.0405 192.569 90.0255 192.605C90.0106 192.64 89.9887 192.672 89.9612 192.699C89.9336 192.725 89.901 192.746 89.8653 192.76C89.8295 192.774 89.7914 192.78 89.753 192.779Z" fill="white"/>
<path d="M129.948 198.477C138.401 198.477 145.254 191.624 145.254 183.17C145.254 174.716 138.401 167.863 129.948 167.863C121.494 167.863 114.641 174.716 114.641 183.17C114.641 191.624 121.494 198.477 129.948 198.477Z" fill="#455A64"/>
<path d="M125.77 184.968C126.753 184.968 127.55 184.172 127.55 183.189C127.55 182.206 126.753 181.409 125.77 181.409C124.788 181.409 123.991 182.206 123.991 183.189C123.991 184.172 124.788 184.968 125.77 184.968Z" fill="white"/>
<path d="M129.948 184.968C130.93 184.968 131.727 184.172 131.727 183.189C131.727 182.206 130.93 181.409 129.948 181.409C128.965 181.409 128.168 182.206 128.168 183.189C128.168 184.172 128.965 184.968 129.948 184.968Z" fill="white"/>
<path d="M134.134 184.968C135.117 184.968 135.914 184.172 135.914 183.189C135.914 182.206 135.117 181.409 134.134 181.409C133.151 181.409 132.354 182.206 132.354 183.189C132.354 184.172 133.151 184.968 134.134 184.968Z" fill="white"/>
<path d="M127.55 178.947C127.55 179.301 127.445 179.648 127.248 179.942C127.051 180.236 126.771 180.466 126.444 180.601C126.116 180.736 125.756 180.771 125.409 180.701C125.062 180.631 124.743 180.46 124.493 180.209C124.243 179.958 124.074 179.638 124.006 179.29C123.938 178.943 123.974 178.583 124.111 178.256C124.248 177.929 124.479 177.651 124.774 177.455C125.069 177.26 125.416 177.156 125.77 177.158C126.243 177.161 126.696 177.35 127.029 177.685C127.363 178.021 127.55 178.474 127.55 178.947Z" fill="white"/>
<path d="M131.736 178.947C131.736 179.301 131.632 179.647 131.435 179.941C131.238 180.235 130.959 180.464 130.632 180.6C130.305 180.735 129.946 180.771 129.599 180.702C129.252 180.633 128.933 180.462 128.683 180.212C128.432 179.962 128.262 179.643 128.193 179.296C128.124 178.949 128.159 178.589 128.295 178.263C128.43 177.936 128.66 177.656 128.954 177.46C129.248 177.263 129.594 177.158 129.948 177.158C130.422 177.158 130.877 177.347 131.213 177.682C131.548 178.018 131.736 178.473 131.736 178.947Z" fill="white"/>
<path d="M135.914 178.947C135.912 179.299 135.806 179.642 135.609 179.933C135.413 180.225 135.134 180.451 134.809 180.585C134.483 180.718 134.126 180.752 133.781 180.682C133.437 180.612 133.12 180.442 132.872 180.193C132.624 179.944 132.456 179.627 132.388 179.282C132.32 178.937 132.356 178.579 132.491 178.255C132.626 177.93 132.854 177.653 133.146 177.457C133.439 177.262 133.782 177.158 134.134 177.158C134.368 177.158 134.601 177.205 134.817 177.295C135.034 177.385 135.23 177.516 135.396 177.683C135.561 177.849 135.692 178.046 135.781 178.263C135.87 178.48 135.915 178.713 135.914 178.947Z" fill="white"/>
<path d="M125.77 189.182C126.753 189.182 127.55 188.386 127.55 187.403C127.55 186.42 126.753 185.623 125.77 185.623C124.788 185.623 123.991 186.42 123.991 187.403C123.991 188.386 124.788 189.182 125.77 189.182Z" fill="white"/>
<path d="M129.948 189.182C130.93 189.182 131.727 188.386 131.727 187.403C131.727 186.42 130.93 185.623 129.948 185.623C128.965 185.623 128.168 186.42 128.168 187.403C128.168 188.386 128.965 189.182 129.948 189.182Z" fill="white"/>
<path d="M134.134 189.182C135.117 189.182 135.914 188.386 135.914 187.403C135.914 186.42 135.117 185.623 134.134 185.623C133.151 185.623 132.354 186.42 132.354 187.403C132.354 188.386 133.151 189.182 134.134 189.182Z" fill="white"/>
<path d="M170.151 198.477C178.605 198.477 185.458 191.624 185.458 183.17C185.458 174.716 178.605 167.863 170.151 167.863C161.698 167.863 154.844 174.716 154.844 183.17C154.844 191.624 161.698 198.477 170.151 198.477Z" fill="#455A64"/>
<path d="M162.959 181.169V184.793C162.959 184.868 162.988 184.939 163.039 184.992C163.091 185.046 163.161 185.077 163.236 185.079H165.236C165.299 185.078 165.361 185.097 165.412 185.135L168.528 187.569C168.569 187.602 168.618 187.623 168.67 187.629C168.721 187.636 168.774 187.627 168.821 187.605C168.868 187.583 168.908 187.548 168.937 187.504C168.965 187.46 168.98 187.409 168.98 187.357V178.883C168.982 178.831 168.969 178.779 168.943 178.734C168.916 178.689 168.878 178.652 168.832 178.628C168.785 178.604 168.733 178.593 168.681 178.598C168.629 178.602 168.579 178.621 168.538 178.652L165.522 180.828C165.474 180.863 165.416 180.882 165.356 180.884H163.236C163.161 180.886 163.091 180.917 163.039 180.971C162.988 181.024 162.959 181.095 162.959 181.169Z" fill="white"/>
<path d="M174.78 189.293C174.713 189.294 174.646 189.275 174.589 189.239C174.532 189.202 174.487 189.15 174.458 189.089C174.43 189.028 174.42 188.959 174.43 188.892C174.44 188.826 174.468 188.763 174.513 188.712C175.305 187.933 175.931 187.002 176.354 185.976C176.777 184.949 176.988 183.847 176.975 182.737C176.798 180.811 175.938 179.012 174.55 177.665C174.512 177.636 174.48 177.599 174.456 177.557C174.433 177.515 174.418 177.469 174.414 177.421C174.409 177.374 174.414 177.325 174.429 177.28C174.443 177.234 174.467 177.192 174.499 177.155C174.531 177.119 174.569 177.09 174.613 177.07C174.656 177.049 174.703 177.038 174.751 177.036C174.799 177.035 174.847 177.043 174.892 177.061C174.936 177.079 174.977 177.105 175.011 177.14C176.544 178.597 177.492 180.565 177.676 182.672C177.691 183.87 177.465 185.058 177.012 186.167C176.559 187.276 175.888 188.282 175.038 189.127C175.013 189.174 174.975 189.214 174.93 189.243C174.885 189.272 174.834 189.289 174.78 189.293Z" fill="white"/>
<path d="M172.844 187.578C172.797 187.578 172.751 187.569 172.708 187.55C172.665 187.53 172.626 187.502 172.595 187.467C172.562 187.436 172.536 187.398 172.519 187.356C172.501 187.314 172.492 187.269 172.492 187.223C172.492 187.178 172.501 187.132 172.519 187.091C172.536 187.049 172.562 187.011 172.595 186.979C173.148 186.515 173.597 185.941 173.915 185.293C174.233 184.645 174.411 183.938 174.439 183.217C174.339 181.682 173.684 180.236 172.595 179.15C172.527 179.086 172.486 178.998 172.483 178.905C172.479 178.812 172.513 178.721 172.577 178.652C172.64 178.584 172.728 178.543 172.822 178.54C172.915 178.536 173.006 178.57 173.074 178.634C174.328 179.852 175.075 181.499 175.168 183.244C175.14 184.063 174.939 184.867 174.578 185.603C174.217 186.339 173.705 186.99 173.074 187.514C173.009 187.564 172.926 187.587 172.844 187.578Z" fill="white"/>
<path d="M171.184 185.817C171.091 185.817 171.002 185.781 170.935 185.716C170.902 185.683 170.876 185.644 170.858 185.602C170.84 185.559 170.831 185.513 170.831 185.467C170.831 185.421 170.84 185.375 170.858 185.332C170.876 185.289 170.902 185.25 170.935 185.218C173.093 183.079 171.009 180.663 170.935 180.607C170.904 180.573 170.88 180.533 170.865 180.489C170.85 180.445 170.843 180.399 170.846 180.353C170.848 180.306 170.86 180.261 170.88 180.219C170.9 180.178 170.928 180.14 170.963 180.109C170.997 180.078 171.038 180.055 171.081 180.039C171.125 180.024 171.171 180.018 171.217 180.02C171.264 180.023 171.309 180.034 171.351 180.054C171.392 180.074 171.43 180.103 171.461 180.137C171.461 180.137 174.079 183.152 171.461 185.762C171.421 185.79 171.376 185.809 171.328 185.819C171.281 185.828 171.232 185.828 171.184 185.817Z" fill="white"/>
<path d="M104.665 233.989C105.703 225.599 99.7426 217.957 91.3528 216.919C82.9629 215.882 75.3204 221.842 74.2828 230.232C73.2452 238.622 79.2055 246.264 87.5953 247.302C95.9852 248.339 103.628 242.379 104.665 233.989Z" fill="#455A64"/>
<path d="M89.5594 237.391C89.4981 237.392 89.4371 237.381 89.3801 237.358C89.3231 237.335 89.2712 237.302 89.2274 237.259C89.1836 237.216 89.1488 237.165 89.1251 237.108C89.1013 237.052 89.0891 236.991 89.0891 236.929V227.266C89.1105 227.159 89.1681 227.063 89.2522 226.995C89.3362 226.926 89.4415 226.888 89.5502 226.888C89.6588 226.888 89.7641 226.926 89.8481 226.995C89.9322 227.063 89.9898 227.159 90.0112 227.266V236.902C90.015 236.964 90.0061 237.026 89.9852 237.085C89.9643 237.143 89.9317 237.197 89.8895 237.243C89.8473 237.288 89.7963 237.325 89.7396 237.35C89.6828 237.376 89.6215 237.389 89.5594 237.391Z" fill="white"/>
<path d="M94.1514 232.568H84.7828C84.6763 232.546 84.5805 232.489 84.5117 232.404C84.4428 232.32 84.4052 232.215 84.4052 232.107C84.4052 231.998 84.4428 231.893 84.5117 231.809C84.5805 231.725 84.6763 231.667 84.7828 231.645H94.1514C94.2197 231.632 94.2901 231.633 94.3577 231.65C94.4252 231.667 94.4882 231.699 94.542 231.743C94.5959 231.787 94.6393 231.842 94.6691 231.905C94.6989 231.968 94.7144 232.037 94.7144 232.107C94.7144 232.176 94.6989 232.245 94.6691 232.308C94.6393 232.371 94.5959 232.426 94.542 232.47C94.4882 232.514 94.4252 232.546 94.3577 232.563C94.2901 232.58 94.2197 232.581 94.1514 232.568Z" fill="white"/>
<path d="M184.16 233.991C185.197 225.601 179.237 217.958 170.847 216.921C162.457 215.883 154.815 221.843 153.777 230.233C152.74 238.623 158.7 246.265 167.09 247.303C175.48 248.341 183.122 242.38 184.16 233.991Z" fill="#455A64"/>
<path d="M170.004 232.291C170.537 232.053 170.989 231.665 171.303 231.173C171.618 230.681 171.782 230.108 171.774 229.525C171.774 228.785 171.48 228.075 170.957 227.552C170.434 227.029 169.725 226.735 168.985 226.735C168.245 226.735 167.536 227.029 167.013 227.552C166.489 228.075 166.196 228.785 166.196 229.525C166.19 230.109 166.356 230.682 166.672 231.174C166.988 231.665 167.441 232.054 167.975 232.291C163.687 232.937 163.881 237.593 163.881 237.593L174.024 237.648C174.024 237.648 174.255 232.927 170.004 232.291Z" fill="#EBEBEB"/>
<path d="M144.417 233.994C145.455 225.605 139.495 217.962 131.105 216.924C122.715 215.887 115.072 221.847 114.035 230.237C112.997 238.627 118.957 246.269 127.347 247.307C135.737 248.345 143.38 242.384 144.417 233.994Z" fill="#455A64"/>
<path d="M129.238 228.621H126.139C125.075 228.621 124.212 229.484 124.212 230.548V233.647C124.212 234.711 125.075 235.574 126.139 235.574H129.238C130.302 235.574 131.165 234.711 131.165 233.647V230.548C131.165 229.484 130.302 228.621 129.238 228.621Z" fill="#EBEBEB"/>
<path d="M131.792 233.333V230.972L133.553 229.128C133.605 229.073 133.672 229.034 133.746 229.017C133.82 229 133.898 229.006 133.968 229.034C134.039 229.062 134.1 229.111 134.142 229.173C134.185 229.236 134.208 229.31 134.208 229.386V234.744C134.208 234.818 134.186 234.89 134.146 234.951C134.106 235.013 134.048 235.062 133.98 235.091C133.913 235.12 133.838 235.129 133.765 235.117C133.693 235.104 133.625 235.071 133.571 235.02L131.792 233.333Z" fill="#EBEBEB"/>
<path d="M287.204 391.032L298.001 410.304L310.911 423.085C311.131 423.302 311.305 423.563 311.42 423.85C311.535 424.138 311.59 424.446 311.582 424.755C311.573 425.065 311.501 425.369 311.37 425.65C311.238 425.93 311.051 426.181 310.819 426.386C310.549 426.625 310.225 426.796 309.876 426.885C309.526 426.973 309.16 426.976 308.809 426.893C304.263 425.823 287.6 421.812 286.853 420.355C286.033 418.668 274.119 400.788 274.119 400.788L287.204 391.032Z" fill="#257CFF"/>
<g opacity="0.6">
<path opacity="0.6" d="M286.392 410.636C286.728 410.668 287.04 410.823 287.269 411.072C287.497 411.32 287.625 411.645 287.628 411.982C287.607 412.319 287.457 412.635 287.21 412.864C286.963 413.094 286.637 413.221 286.3 413.218C285.944 413.179 285.616 413.011 285.376 412.746C285.136 412.481 285.002 412.137 285 411.779C285.059 411.431 285.25 411.12 285.534 410.91C285.818 410.7 286.171 410.609 286.521 410.654" fill="white"/>
</g>
<path d="M301.588 420.641C301.629 419.761 301.908 418.909 302.395 418.175C302.883 417.441 303.56 416.853 304.355 416.473C304.355 416.418 304.023 416.409 303.534 416.611C302.912 416.893 302.383 417.346 302.009 417.918C301.635 418.49 301.432 419.156 301.422 419.839C301.395 420.401 301.533 420.659 301.588 420.641Z" fill="#263238"/>
<path d="M297.135 418.871C297.622 417.859 298.18 416.882 298.804 415.948C299.555 415.116 300.366 414.339 301.229 413.624C300.118 414.019 299.143 414.722 298.418 415.651C297.693 416.58 297.247 417.697 297.135 418.871Z" fill="#263238"/>
<path d="M293.363 413.292C293.483 413.375 294.285 412.314 295.613 411.447C296.941 410.581 298.232 410.276 298.195 410.138C297.166 410.095 296.155 410.422 295.346 411.06C294.446 411.551 293.744 412.34 293.363 413.292Z" fill="#263238"/>
<path d="M290.053 407.713C290.726 406.958 291.494 406.294 292.34 405.739C293.259 405.32 294.234 405.034 295.235 404.891C295.235 404.826 294.894 404.716 294.313 404.716C293.543 404.741 292.789 404.945 292.111 405.314C291.434 405.682 290.852 406.203 290.413 406.837C290.136 407.335 289.998 407.685 290.053 407.713Z" fill="#263238"/>
<path d="M291.685 404.725C291.603 404.456 291.465 404.207 291.279 403.996C290.83 403.372 290.259 402.845 289.601 402.447C289.145 402.112 288.59 401.937 288.024 401.949C287.838 401.972 287.663 402.052 287.523 402.177C287.383 402.302 287.284 402.467 287.24 402.65C287.183 403.009 287.259 403.376 287.453 403.683C287.872 404.298 288.493 404.747 289.209 404.953C289.925 405.158 290.69 405.107 291.371 404.808C292.041 404.501 292.604 404.001 292.987 403.371C293.37 402.742 293.556 402.012 293.52 401.276C293.505 401.097 293.453 400.924 293.369 400.765C293.285 400.607 293.17 400.467 293.031 400.354C292.87 400.257 292.682 400.213 292.494 400.226C292.306 400.239 292.127 400.31 291.98 400.428C291.575 400.805 291.277 401.282 291.113 401.811C290.84 402.53 290.696 403.292 290.689 404.061C290.664 404.341 290.695 404.623 290.781 404.891C290.86 403.881 291.08 402.888 291.436 401.94C291.594 401.484 291.863 401.075 292.22 400.75C292.298 400.684 292.396 400.643 292.498 400.635C292.601 400.626 292.704 400.651 292.792 400.704C292.879 400.788 292.95 400.888 292.999 400.999C293.048 401.109 293.074 401.229 293.077 401.35C293.085 401.984 292.91 402.608 292.573 403.146C292.236 403.683 291.752 404.113 291.178 404.384C290.598 404.635 289.95 404.681 289.342 404.513C288.733 404.345 288.199 403.974 287.831 403.461C287.69 403.25 287.631 402.994 287.665 402.742C287.685 402.641 287.738 402.549 287.814 402.48C287.89 402.41 287.986 402.366 288.089 402.355C288.564 402.349 289.03 402.488 289.426 402.751C290.286 403.275 291.05 403.943 291.685 404.725Z" fill="#263238"/>
<path d="M264.04 399.506L259.706 415.302C259.706 415.302 274.285 425.067 273.759 428.064L242.832 420.687L248.65 395.79L264.04 399.506Z" fill="#257CFF"/>
<g opacity="0.6">
<path opacity="0.6" d="M250.412 411.669C250.093 411.691 249.793 411.829 249.569 412.056C249.345 412.284 249.212 412.586 249.194 412.905C249.204 413.224 249.335 413.529 249.561 413.755C249.787 413.981 250.092 414.112 250.412 414.122C250.75 414.101 251.068 413.956 251.305 413.714C251.542 413.472 251.68 413.151 251.693 412.812C251.652 412.479 251.482 412.176 251.22 411.966C250.959 411.756 250.626 411.656 250.292 411.687" fill="white"/>
</g>
<path d="M260.195 415.265C260.195 415.412 259.384 415.265 258.526 415.606C257.669 415.947 257.115 416.454 256.995 416.362C256.876 416.27 257.3 415.44 258.351 415.099C259.402 414.758 260.26 415.136 260.195 415.265Z" fill="#263238"/>
<path d="M260.794 411.558C260.702 411.677 260.057 411.299 259.19 411.152C258.323 411.004 257.595 411.152 257.549 410.967C257.503 410.783 258.268 410.442 259.282 410.626C260.296 410.811 260.896 411.456 260.794 411.558Z" fill="#263238"/>
<g opacity="0.3">
<path opacity="0.3" d="M263.173 402.642L262.39 405.454L247.23 401.673L247.986 398.391L263.173 402.642Z" fill="black"/>
</g>
<path d="M261.625 408.349C261.083 408.37 260.546 408.239 260.075 407.971C259.537 407.728 259.032 407.418 258.572 407.048C258.299 406.839 258.04 406.611 257.798 406.366C257.647 406.227 257.519 406.066 257.42 405.887C257.347 405.756 257.319 405.604 257.341 405.456C257.362 405.308 257.432 405.171 257.54 405.066C257.643 404.983 257.764 404.924 257.893 404.892C258.022 404.86 258.156 404.857 258.286 404.882C258.484 404.926 258.674 405.001 258.849 405.103C259.173 405.262 259.481 405.451 259.771 405.665C260.235 406.024 260.639 406.454 260.97 406.938C261.532 407.777 261.643 408.404 261.578 408.422C261.514 408.441 261.265 407.897 260.656 407.168C260.308 406.748 259.904 406.376 259.458 406.062C259.196 405.879 258.922 405.716 258.637 405.573C258.333 405.407 258.056 405.343 257.936 405.472C257.816 405.601 257.881 405.536 257.936 405.647C258.007 405.779 258.101 405.898 258.213 405.997C258.438 406.231 258.675 406.452 258.923 406.661C259.345 407.009 259.799 407.318 260.278 407.583C260.741 407.813 261.191 408.068 261.625 408.349Z" fill="#263238"/>
<path d="M261.375 408.525C261.184 408.013 261.164 407.453 261.32 406.929C261.434 406.349 261.643 405.791 261.938 405.279C262.118 404.979 262.328 404.698 262.565 404.44C262.695 404.254 262.872 404.106 263.078 404.011C263.283 403.915 263.51 403.876 263.736 403.896C263.873 403.93 263.997 404.004 264.093 404.107C264.19 404.209 264.254 404.338 264.28 404.477C264.312 404.678 264.312 404.884 264.28 405.085C264.253 405.444 264.169 405.795 264.031 406.127C263.81 406.686 263.452 407.181 262.989 407.566C262.196 408.23 261.523 408.257 261.523 408.202C261.523 408.147 262.085 407.953 262.731 407.28C263.108 406.903 263.394 406.446 263.57 405.943C263.677 405.646 263.74 405.336 263.754 405.021C263.754 404.68 263.754 404.384 263.598 404.394C263.441 404.403 263.118 404.532 262.934 404.772C262.713 405.001 262.515 405.251 262.344 405.519C262.053 405.976 261.829 406.473 261.68 406.994C261.44 407.916 261.458 408.515 261.375 408.525Z" fill="#263238"/>
<path d="M268.678 223.319C272.847 235.409 275.441 247.986 276.396 260.738C277.872 281.089 265.414 408.718 265.414 408.718L241.034 404.32C241.034 404.32 246.483 359.339 249.259 337.365C252.025 315.733 241.034 240.019 241.034 240.019L266.853 223.319" fill="#263238"/>
<path d="M212.264 229.073C212.264 229.073 207.091 251.204 218.59 275.298C225.496 289.766 276.387 411.364 276.387 411.364L297.421 400.64L245.939 238.801L212.264 229.073Z" fill="#263238"/>
<path d="M278.278 340.445C278.139 340.445 271.657 320.952 263.782 296.811C255.907 272.67 249.646 253.057 249.775 253.02C249.904 252.983 256.396 272.504 264.262 296.654C272.127 320.804 278.407 340.399 278.278 340.445Z" fill="#455A64"/>
<path d="M276.387 411.364C276.267 411.41 266.014 387.509 253.491 357.974C240.969 328.439 230.918 304.446 231.047 304.391C231.176 304.335 241.43 328.236 253.952 357.781C266.475 387.325 276.516 411.309 276.387 411.364Z" fill="#455A64"/>
<path d="M248.448 249.424C247.814 249.085 247.198 248.712 246.603 248.308C245.11 247.446 243.546 246.712 241.928 246.114L239.245 245.118C238.525 244.836 237.789 244.595 237.041 244.398C236.346 244.257 235.638 244.189 234.929 244.196C235.622 243.907 236.391 243.858 237.115 244.057C237.89 244.209 238.651 244.422 239.392 244.694C240.232 244.97 241.144 245.293 242.103 245.662C243.749 246.266 245.32 247.055 246.788 248.013C247.421 248.38 247.983 248.858 248.448 249.424Z" fill="#455A64"/>
<path d="M261.191 236.699C260.13 238.211 258.972 239.653 257.724 241.015C256.587 242.483 255.355 243.876 254.035 245.183C254.964 243.575 256.065 242.072 257.318 240.701C258.464 239.234 259.762 237.893 261.191 236.699Z" fill="#455A64"/>
<path d="M222.767 237.188C222.941 237.926 222.909 238.698 222.675 239.419C222.204 241.208 221.078 242.755 219.521 243.753C217.925 244.647 216.097 245.042 214.274 244.887C213.53 244.897 212.789 244.804 212.07 244.61C212.802 244.528 213.539 244.503 214.274 244.537C216.015 244.597 217.739 244.182 219.263 243.338C220.718 242.393 221.805 240.977 222.343 239.327C222.52 238.621 222.661 237.907 222.767 237.188Z" fill="#455A64"/>
<path d="M270.126 233.297C269.061 233.007 268.074 232.483 267.237 231.763C266.399 231.044 265.733 230.147 265.285 229.138C265.405 229.064 266.207 230.263 267.554 231.397C268.9 232.531 270.191 233.214 270.126 233.297Z" fill="#455A64"/>
<path d="M255.373 126.766C256.331 126.836 257.256 127.148 258.062 127.672C258.868 128.196 259.529 128.915 259.983 129.762C260.471 130.919 260.856 132.116 261.136 133.34C261.273 133.952 261.534 134.529 261.901 135.036C262.269 135.543 262.737 135.97 263.275 136.291C264.271 136.77 265.442 136.641 266.521 136.853C267.801 137.15 268.929 137.902 269.694 138.969C270.459 140.037 270.81 141.346 270.679 142.654C270.576 142.999 270.576 143.368 270.679 143.714C270.804 143.929 270.986 144.105 271.205 144.221C272.671 145.097 274.645 144.959 275.954 146.065C276.781 146.858 277.295 147.922 277.402 149.062C277.723 151.231 277.301 153.444 276.203 155.342C275.789 156.111 275.205 156.776 274.497 157.287C273.439 157.885 272.245 158.202 271.03 158.209C266.945 158.495 262.602 157.582 259.54 154.862C255.492 151.266 249.038 137.665 248.328 132.298L255.373 126.766Z" fill="#263238"/>
<path d="M225.238 141.317L210.742 148.26L221.033 191.793C221.033 191.793 214.929 209.718 212.872 219.603L210.835 229.525C231.619 243.68 253.03 241.854 270.615 223.753L261.394 202.793L269.103 172.594L248.752 139.288L243.726 139.03L225.238 141.317Z" fill="#257CFF"/>
<g opacity="0.3">
<path opacity="0.3" d="M214.191 217.003C214.615 216.127 222.988 208.916 223.864 208.492C236.478 202.406 244.15 208.142 258.24 209.266C258.609 209.266 258.24 209.543 258.609 209.58C260.204 209.718 262.648 208.852 264.234 209.082L265.11 211.848C255.631 215.629 244.639 212.356 234.846 215.205C231.979 216.044 229.249 217.399 226.298 217.888C225.431 217.927 224.602 218.251 223.938 218.81C223.647 219.184 223.394 219.586 223.182 220.009C222.777 220.503 222.277 220.911 221.712 221.207C221.146 221.504 220.526 221.683 219.89 221.733C218.553 222.019 217.158 221.823 215.952 221.18C214.8 220.396 213.601 218.229 214.191 217.003Z" fill="black"/>
</g>
<path d="M212.624 213.452C211.886 213.665 212.144 216.219 213.97 215.813C217.14 215.002 220.252 213.976 223.283 212.742L229.59 207.597L257.862 209.321L253.491 196.062C253.491 196.062 224.215 198.828 220.083 200.515C217.068 201.742 214.91 202.968 213.5 204.554" fill="#FFBE9D"/>
<path d="M213.49 204.554C213.08 205.024 212.721 205.538 212.421 206.085C212.015 206.85 213.149 207.874 213.149 207.874C213.149 207.874 210.641 208.658 211.517 209.718C212.393 210.778 212.707 210.806 212.707 210.806C212.707 210.806 210.66 212.355 211.093 213.139C211.526 213.923 212.624 213.471 212.624 213.471" fill="#FFBE9D"/>
<path d="M212.402 213.582C212.319 213.49 213.039 212.725 214.247 212.254C214.924 211.892 215.709 211.784 216.46 211.95C215.803 212.259 215.121 212.512 214.422 212.706C213.775 213.056 213.1 213.349 212.402 213.582Z" fill="#EB996E"/>
<path d="M215.15 209.718C215.15 209.857 214.588 210.032 213.924 210.327C213.26 210.622 212.744 210.926 212.651 210.825C212.559 210.723 212.993 210.207 213.73 209.903C214.468 209.598 215.132 209.589 215.15 209.718Z" fill="#EB996E"/>
<path d="M214.92 207.644C214.92 207.699 214.8 207.717 214.671 207.763C214.479 207.835 214.282 207.891 214.081 207.929C213.61 208.003 213.205 207.929 213.158 207.837C213.112 207.745 213.49 207.533 213.998 207.441C214.214 207.4 214.436 207.4 214.652 207.441C214.864 207.459 214.966 207.588 214.92 207.644Z" fill="#EB996E"/>
<path d="M248.779 139.26C248.779 139.26 261.108 139.583 265.885 148.979C268.273 153.673 274.506 169.727 276.692 176.495C278.167 181.105 283.073 204.103 277.512 206.38C270.394 209.313 257.89 209.764 257.899 209.764L253.289 196.394C252.981 195.351 253.088 194.229 253.588 193.263C254.088 192.297 254.942 191.562 255.972 191.212L259.771 192.023L264.142 190.705L261.163 163.733L256.986 158.523L248.779 139.26Z" fill="#257CFF"/>
<g opacity="0.3">
<path opacity="0.3" d="M237.124 149.993C237.696 152.105 237.124 155.157 237.364 157.047C238.537 164.589 238.846 172.239 238.286 179.851C238.228 180.263 238.25 180.683 238.35 181.087C238.5 181.438 238.702 181.764 238.95 182.055C240.366 184.194 240.907 186.795 240.462 189.321C240.012 191.819 239.243 194.248 238.175 196.55C238.175 194.522 238.295 191.479 238.489 189.459C238.489 189.054 238.728 189.321 238.747 188.915C238.848 186.481 238.47 184.213 236.783 182.461C236.428 182.137 236.118 181.768 235.861 181.363C235.677 180.95 235.57 180.506 235.547 180.054C234.625 171.546 234.029 163.001 233.758 154.419C233.692 153.934 233.8 153.441 234.063 153.027C234.335 152.77 234.646 152.559 234.985 152.4C235.639 151.976 236.064 151.22 236.774 150.888" fill="black"/>
</g>
<path d="M210.743 148.26C210.743 148.26 201.955 151.81 203.818 166.702C204.74 174.014 209.092 193.756 213.73 205.126C215.916 210.474 220.987 214.209 226.732 213.545C229.24 213.25 231.72 213.683 233.408 212.697C235.981 211.193 237.161 206.039 237.723 200.46C238.101 196.661 238.018 192.696 238.572 189.459C239.494 184.167 237.069 181.64 233.961 180.976L221.789 178.367L220.996 184.821L210.743 148.26Z" fill="#257CFF"/>
<path d="M225.847 193.111C225.847 193.111 226.068 193.37 226.538 193.729C227.202 194.228 227.983 194.545 228.807 194.651C230.031 194.797 231.273 194.639 232.421 194.19C233.862 193.724 235.197 192.978 236.35 191.996C237.451 190.969 238.184 189.608 238.433 188.123C238.641 186.909 238.511 185.662 238.055 184.517C237.599 183.464 236.952 182.505 236.147 181.687C236.434 181.825 236.691 182.019 236.903 182.258C237.527 182.865 238.026 183.588 238.369 184.388C238.901 185.583 239.077 186.905 238.876 188.197C238.627 189.797 237.844 191.266 236.654 192.365C235.452 193.392 234.052 194.161 232.541 194.624C231.319 195.073 230.001 195.203 228.714 195.002C227.849 194.85 227.043 194.457 226.391 193.868C225.967 193.443 225.819 193.121 225.847 193.111Z" fill="#263238"/>
<path d="M213.02 203.263C213.02 203.263 213.269 203.918 213.822 205.043C214.602 206.626 215.643 208.066 216.902 209.303C218.759 211.151 221.072 212.474 223.606 213.139C226.699 213.963 229.975 213.779 232.956 212.613C234.533 212.005 235.123 210.28 235.722 208.833C236.267 207.389 236.678 205.898 236.949 204.379C237.388 201.783 237.695 199.168 237.871 196.541C238.065 194.346 238.221 192.548 238.341 191.221C238.396 190.64 238.452 190.16 238.489 189.773C238.506 189.605 238.533 189.439 238.572 189.275C238.598 189.443 238.598 189.614 238.572 189.782C238.572 190.169 238.572 190.649 238.507 191.23C238.433 192.558 238.323 194.365 238.203 196.56C238.083 199.203 237.818 201.838 237.41 204.453C237.146 206.006 236.735 207.532 236.183 209.008C235.887 209.792 235.533 210.554 235.123 211.286C234.683 212.077 233.992 212.7 233.159 213.056C230.074 214.264 226.682 214.445 223.486 213.572C221.321 212.981 219.316 211.916 217.614 210.453C215.912 208.991 214.557 207.168 213.647 205.117C213.447 204.673 213.275 204.217 213.131 203.752C213.069 203.596 213.032 203.431 213.02 203.263Z" fill="#263238"/>
<path d="M217.741 194.356C217.683 193.526 217.704 192.692 217.806 191.866C217.907 190.345 218.083 188.233 218.304 185.9C218.424 184.738 218.516 183.641 218.654 182.618C218.744 181.685 219.081 180.794 219.632 180.036C220.026 179.531 220.584 179.179 221.209 179.04C221.66 178.957 221.9 179.04 221.891 179.04C221.882 179.04 221.651 179.04 221.255 179.197C220.71 179.389 220.239 179.747 219.908 180.22C218.986 181.4 219.06 183.613 218.793 185.928C218.525 188.242 218.341 190.354 218.147 191.876C218.097 192.714 217.961 193.545 217.741 194.356Z" fill="#263238"/>
<path d="M213.536 149.606C213.887 149.654 214.224 149.776 214.523 149.966C215.365 150.432 216.107 151.058 216.709 151.81C217.587 152.927 218.252 154.196 218.673 155.554C219.18 157.075 219.521 158.781 219.917 160.551C220.692 164.111 221.365 167.329 221.835 169.671C222.066 170.842 222.241 171.783 222.361 172.437C222.441 172.776 222.484 173.122 222.49 173.47C222.343 173.153 222.237 172.818 222.177 172.474C222.001 171.829 221.771 170.897 221.494 169.708C220.941 167.384 220.213 164.175 219.438 160.616C219.041 158.845 218.719 157.14 218.248 155.655C217.854 154.327 217.23 153.079 216.404 151.967C215.632 150.979 214.654 150.174 213.536 149.606Z" fill="#263238"/>
<path d="M269.158 208.501C268.899 208.59 268.629 208.643 268.356 208.658L266.069 208.971L257.908 209.976H257.742L257.687 209.81C257.189 208.335 256.71 206.721 256.23 205.006C255.751 203.291 255.262 201.493 254.635 199.676C254.386 198.966 254.128 198.265 253.86 197.583L253.445 196.578C253.275 196.237 253.154 195.874 253.086 195.499C252.994 194.78 252.994 194.052 253.086 193.332C253.142 192.968 253.277 192.62 253.483 192.314C253.689 192.008 253.959 191.751 254.275 191.562C254.85 191.19 255.518 190.986 256.202 190.972C256.833 191 257.456 191.127 258.047 191.35C258.564 191.544 259.098 191.692 259.642 191.792C260.141 191.852 260.646 191.852 261.145 191.792C262.021 191.679 262.884 191.475 263.718 191.184C264.367 190.975 265.039 190.845 265.719 190.796C266.151 190.772 266.584 190.8 267.01 190.879C267.159 190.899 267.305 190.94 267.443 190.999C266.875 190.962 266.305 190.962 265.737 190.999C265.076 191.081 264.426 191.239 263.801 191.469C262.955 191.79 262.077 192.018 261.182 192.152C260.652 192.212 260.117 192.212 259.587 192.152C259.021 192.048 258.463 191.903 257.918 191.718C257.374 191.514 256.801 191.399 256.221 191.377C255.621 191.4 255.038 191.585 254.533 191.912C254.272 192.069 254.049 192.282 253.88 192.535C253.711 192.789 253.6 193.077 253.556 193.378C253.473 194.052 253.473 194.733 253.556 195.407C253.623 195.728 253.735 196.039 253.888 196.329C254.026 196.67 254.174 197.011 254.303 197.353C254.589 198.035 254.847 198.745 255.096 199.464C255.732 201.308 256.221 203.153 256.682 204.831C257.143 206.509 257.604 208.15 258.093 209.617L257.862 209.478L266.041 208.648L268.337 208.455C268.612 208.446 268.886 208.461 269.158 208.501Z" fill="#263238"/>
<path d="M270.606 192.042C270.606 191.986 270.984 192.042 271.472 192.327C272.098 192.73 272.616 193.277 272.985 193.923C273.56 194.78 273.906 195.771 273.99 196.8C273.842 196.864 273.381 195.573 272.57 194.181C272.226 193.59 271.786 193.06 271.269 192.613C270.873 192.272 270.578 192.106 270.606 192.042Z" fill="#263238"/>
<path d="M260.776 192.041C260.69 191.629 260.659 191.208 260.684 190.787C260.685 189.647 260.756 188.507 260.896 187.376C261.182 184.499 262.187 180.626 262.685 176.31C263.207 172.621 262.892 168.861 261.763 165.31C261.21 163.872 260.492 162.505 259.623 161.234C259.623 161.234 259.725 161.298 259.863 161.455C260.075 161.685 260.272 161.929 260.453 162.184C261.128 163.109 261.677 164.12 262.085 165.19C263.21 167.882 263.69 171.976 263.192 176.366C262.952 178.56 262.537 180.617 262.168 182.479C261.8 184.342 261.458 186.011 261.246 187.431C261.034 188.851 260.933 190.004 260.887 190.797C260.884 191.214 260.847 191.63 260.776 192.041Z" fill="#263238"/>
<g opacity="0.3">
<path opacity="0.3" d="M262.187 166.038C262.657 167.735 263.109 169.441 263.616 171.138C264.196 172.933 264.564 174.79 264.713 176.67C264.724 178.254 264.582 179.835 264.289 181.391C264.013 183.18 263.745 184.969 263.45 186.758C263.155 188.547 263.718 190.05 262.648 191.59L260.804 191.903C261.062 183.973 264.188 173.72 262.288 166.011" fill="black"/>
</g>
<path d="M254.838 149.412C255.564 150.86 256.162 152.369 256.627 153.921C257.237 155.43 257.769 156.969 258.222 158.532C257.322 157.176 256.629 155.693 256.165 154.133C255.546 152.615 255.1 151.031 254.838 149.412Z" fill="#263238"/>
<g opacity="0.3">
<path opacity="0.3" d="M222.426 176.901C221.304 176.9 220.211 177.251 219.3 177.906C217.264 179.265 215.78 181.305 215.113 183.66C214.462 186.013 214.539 188.507 215.335 190.815C215.574 191.535 216.054 192.346 216.801 192.328C217.723 192.328 218.064 191.203 218.202 190.327C218.58 187.892 218.949 185.458 219.327 183.024C219.426 182.196 219.673 181.394 220.056 180.654C220.248 180.281 220.539 179.967 220.896 179.748C221.254 179.529 221.665 179.411 222.084 179.409L222.352 176.809" fill="black"/>
</g>
<path d="M220.628 166.527C220.628 166.527 219.706 166.73 218.23 167.2C216.328 167.818 214.478 168.585 212.698 169.496C210.595 170.547 208.76 171.626 207.451 172.428L205.892 173.35C205.708 173.479 205.51 173.587 205.302 173.673C205.46 173.514 205.636 173.375 205.828 173.258C206.178 173 206.695 172.64 207.34 172.225C209.024 171.119 210.77 170.109 212.568 169.201C214.363 168.283 216.24 167.536 218.175 166.969C218.762 166.797 219.36 166.662 219.964 166.564C220.182 166.519 220.406 166.506 220.628 166.527Z" fill="#FAFAFA"/>
<path d="M221.9 171.949C221.698 172.05 221.484 172.127 221.264 172.179C220.849 172.318 220.249 172.502 219.512 172.76C217.593 173.427 215.712 174.2 213.878 175.075C212.043 175.947 210.268 176.942 208.566 178.053C207.912 178.477 207.395 178.846 207.045 179.104C206.872 179.251 206.684 179.378 206.482 179.482C206.482 179.482 206.648 179.298 206.98 179.012C207.312 178.726 207.81 178.33 208.447 177.878C210.126 176.713 211.9 175.689 213.749 174.816C215.592 173.931 217.496 173.179 219.447 172.567C220.194 172.336 220.803 172.17 221.236 172.078C221.452 172.011 221.675 171.968 221.9 171.949Z" fill="#FAFAFA"/>
<path d="M270.255 159.906C269.813 160.061 269.36 160.181 268.9 160.266C267.808 160.537 266.734 160.873 265.682 161.271C264.632 161.681 263.606 162.152 262.611 162.681C262.211 162.924 261.795 163.14 261.366 163.327C261.703 162.994 262.089 162.715 262.51 162.497C263.485 161.912 264.51 161.412 265.571 161.003C266.635 160.598 267.734 160.289 268.854 160.081C269.311 159.961 269.782 159.902 270.255 159.906Z" fill="#FAFAFA"/>
<path d="M273.16 166.619C272.645 166.673 272.128 166.701 271.611 166.702C270.378 166.807 269.161 167.058 267.987 167.449C266.345 168.075 264.738 168.789 263.174 169.589C263.57 169.248 264.007 168.957 264.474 168.722C265.566 168.098 266.714 167.58 267.904 167.173C269.093 166.767 270.336 166.54 271.592 166.5C271.973 166.472 272.355 166.472 272.736 166.5C272.883 166.514 273.027 166.554 273.16 166.619Z" fill="#FAFAFA"/>
<path d="M251.97 95.7451C253.465 96.5981 254.687 97.8574 255.495 99.3769C256.302 100.896 256.663 102.614 256.534 104.33C256.322 105.63 255.843 106.958 256.193 108.23C256.631 109.284 257.256 110.249 258.037 111.08C259.184 112.627 259.804 114.501 259.806 116.426C259.808 118.352 259.191 120.227 258.047 121.776C256.903 123.325 255.292 124.465 253.451 125.03C251.61 125.594 249.636 125.553 247.82 124.911" fill="#263238"/>
<path d="M255.151 112.353C261.68 94.5286 242.389 87.2901 232.44 90.9324C223.09 94.3534 219.373 99.4158 218.285 105.926C217.197 112.436 217.797 119.361 220.766 125.29C222.232 128.195 224.685 131.081 227.94 131.21" fill="#263238"/>
<path d="M229.037 147.402L224.427 104.487C224.349 103.675 224.578 102.864 225.07 102.213C225.562 101.563 226.28 101.12 227.082 100.974L243.984 95.3121C249.453 94.307 253.639 100.845 254.413 106.377C255.262 112.5 256.064 120.006 255.686 124.654C254.921 133.994 247.931 135.719 247.931 135.719C247.931 135.719 248.475 143.861 248.945 151.487C248.958 151.78 248.9 152.073 248.776 152.339C248.653 152.606 248.467 152.839 248.235 153.019C248.004 153.2 247.732 153.322 247.443 153.376C247.155 153.431 246.857 153.415 246.576 153.331L229.037 147.402Z" fill="#FFBE9D"/>
<path d="M252.791 112.546C252.819 112.852 252.727 113.158 252.535 113.397C252.342 113.636 252.063 113.791 251.758 113.828C251.612 113.855 251.462 113.852 251.317 113.819C251.172 113.787 251.035 113.726 250.914 113.64C250.793 113.554 250.69 113.445 250.612 113.319C250.534 113.193 250.481 113.053 250.458 112.906C250.424 112.6 250.513 112.294 250.705 112.054C250.896 111.813 251.176 111.659 251.481 111.624C251.628 111.598 251.778 111.601 251.924 111.633C252.069 111.665 252.207 111.726 252.329 111.812C252.451 111.897 252.554 112.007 252.633 112.133C252.713 112.259 252.766 112.399 252.791 112.546Z" fill="#263238"/>
<path d="M240.72 113.459C240.749 113.767 240.657 114.073 240.465 114.314C240.272 114.555 239.993 114.711 239.687 114.75C239.393 114.799 239.091 114.729 238.848 114.556C238.605 114.384 238.439 114.122 238.387 113.828C238.368 113.674 238.379 113.517 238.421 113.367C238.462 113.217 238.533 113.077 238.629 112.954C238.725 112.832 238.845 112.729 238.98 112.653C239.116 112.577 239.265 112.528 239.42 112.51C239.568 112.485 239.719 112.49 239.865 112.524C240.011 112.559 240.149 112.622 240.27 112.711C240.391 112.799 240.494 112.911 240.571 113.04C240.648 113.168 240.699 113.311 240.72 113.459Z" fill="#263238"/>
<path d="M252.855 109.965C252.726 110.131 251.758 109.569 250.495 109.707C249.231 109.845 248.365 110.629 248.208 110.454C248.051 110.279 248.254 110.094 248.623 109.753C249.139 109.303 249.785 109.028 250.467 108.969C251.129 108.894 251.798 109.033 252.376 109.366C252.763 109.652 252.92 109.882 252.855 109.965Z" fill="#263238"/>
<path d="M240.794 111.181C240.656 111.347 239.706 110.748 238.433 110.84C237.161 110.933 236.276 111.643 236.119 111.495C235.962 111.347 236.174 111.145 236.571 110.813C237.098 110.392 237.742 110.144 238.415 110.103C239.063 110.059 239.708 110.221 240.259 110.564C240.702 110.84 240.859 111.108 240.794 111.181Z" fill="#263238"/>
<path d="M245.875 120.661C246.528 120.398 247.213 120.221 247.913 120.135C248.235 120.071 248.54 119.988 248.577 119.757C248.572 119.427 248.469 119.106 248.281 118.835L247.138 116.438C245.534 113.007 244.372 110.186 244.482 110.121C244.593 110.057 246.032 112.777 247.636 116.207L248.752 118.632C248.982 119.01 249.074 119.457 249.01 119.896C248.973 120.015 248.909 120.124 248.823 120.213C248.736 120.303 248.63 120.371 248.512 120.412C248.335 120.469 248.153 120.509 247.968 120.532C247.279 120.666 246.575 120.709 245.875 120.661Z" fill="#263238"/>
<path d="M247.922 135.674C243.58 136.067 239.214 135.25 235.307 133.313C235.307 133.313 238.922 139.5 248.097 137.924L247.922 135.674Z" fill="#EB996E"/>
<path d="M245.589 123.778C245.325 123.489 244.991 123.273 244.62 123.151C244.249 123.028 243.852 123.003 243.468 123.077C243.186 123.127 242.918 123.235 242.68 123.393C242.442 123.552 242.239 123.758 242.085 123.999C241.929 124.224 241.846 124.491 241.846 124.764C241.846 125.038 241.929 125.305 242.085 125.53C242.309 125.741 242.59 125.881 242.893 125.934C243.197 125.986 243.509 125.948 243.791 125.825C244.374 125.563 244.9 125.191 245.34 124.727C245.478 124.615 245.594 124.477 245.681 124.322C245.726 124.252 245.75 124.17 245.75 124.086C245.75 124.003 245.726 123.921 245.681 123.851" fill="#EB996E"/>
<path d="M242.186 121.832C242.399 121.832 242.5 123.178 243.763 124.073C245.026 124.967 246.483 124.7 246.53 124.894C246.576 125.087 246.225 125.189 245.607 125.253C244.797 125.324 243.988 125.109 243.321 124.645C242.69 124.21 242.251 123.55 242.094 122.8C241.993 122.183 242.122 121.823 242.186 121.832Z" fill="#263238"/>
<path d="M240.96 109.292C240.868 109.651 239.577 109.578 238.101 109.873C236.626 110.168 235.437 110.666 235.215 110.371C235.114 110.232 235.307 109.882 235.769 109.513C236.387 109.054 237.102 108.742 237.86 108.6C238.617 108.458 239.396 108.49 240.139 108.692C240.711 108.868 241.006 109.126 240.96 109.292Z" fill="#263238"/>
<path d="M252.33 106.729C252.127 107.033 251.223 106.803 250.163 106.867C249.102 106.932 248.235 107.208 248.005 106.923C247.903 106.784 248.005 106.48 248.392 106.176C248.886 105.799 249.486 105.586 250.107 105.567C250.727 105.533 251.342 105.691 251.868 106.019C252.256 106.286 252.403 106.581 252.33 106.729Z" fill="#263238"/>
<path d="M226.916 116.465C226.778 116.41 221.808 114.621 222.167 120.154C222.527 125.687 228.014 124.174 228.014 124.018C228.014 123.861 226.916 116.465 226.916 116.465Z" fill="#FFBE9D"/>
<path d="M226.188 122.063C226.188 122.063 226.096 122.137 225.939 122.22C225.716 122.33 225.459 122.353 225.22 122.284C224.848 122.081 224.536 121.783 224.317 121.42C224.099 121.057 223.98 120.642 223.975 120.219C223.931 119.744 223.991 119.266 224.15 118.817C224.191 118.641 224.274 118.477 224.393 118.34C224.512 118.203 224.663 118.098 224.832 118.033C224.94 117.995 225.057 117.997 225.164 118.037C225.27 118.078 225.358 118.155 225.413 118.255C225.496 118.411 225.469 118.522 225.496 118.531C225.524 118.54 225.616 118.43 225.552 118.199C225.511 118.065 225.427 117.948 225.312 117.867C225.232 117.815 225.143 117.78 225.05 117.762C224.957 117.745 224.861 117.746 224.768 117.766C224.549 117.829 224.349 117.947 224.188 118.108C224.026 118.269 223.909 118.469 223.846 118.688C223.645 119.181 223.565 119.716 223.615 120.246C223.619 120.74 223.769 121.222 224.046 121.631C224.324 122.039 224.716 122.357 225.173 122.542C225.332 122.588 225.499 122.593 225.66 122.557C225.821 122.522 225.971 122.447 226.096 122.34C226.188 122.192 226.206 122.072 226.188 122.063Z" fill="#EB996E"/>
<path d="M245.598 92.3896C248.798 93.7451 250.541 99.9417 249.508 103.252C248.475 106.562 245.174 108.407 241.845 109.403C238.608 110.456 235.159 110.681 231.813 110.057C231.748 112.326 230.577 114.723 228.447 115.479C225.625 116.484 222.527 114.068 221.66 111.201C220.793 108.333 221.531 105.262 222.269 102.358" fill="#263238"/>
<path d="M222.739 114.262C222.739 114.262 222.887 114.419 223.191 114.64C223.495 114.862 223.947 115.166 224.537 115.498C225.23 115.917 225.982 116.228 226.769 116.42C227.749 116.649 228.778 116.555 229.701 116.153C230.603 115.701 231.332 114.965 231.776 114.059C232.132 113.336 232.342 112.55 232.394 111.745C232.443 111.211 232.443 110.674 232.394 110.141C232.385 109.942 232.345 109.745 232.274 109.56C232.209 109.56 232.338 110.399 232.2 111.727C232.118 112.496 231.893 113.244 231.536 113.93C231.113 114.767 230.431 115.443 229.59 115.858C228.721 116.241 227.751 116.334 226.824 116.125C226.065 115.968 225.333 115.704 224.648 115.341C223.468 114.705 222.767 114.262 222.739 114.262Z" fill="#263238"/>
<path d="M221.144 100.78C221.144 100.78 221.208 100.476 221.411 99.9413C221.71 99.2025 222.159 98.5337 222.73 97.9772C223.581 97.1628 224.592 96.5347 225.699 96.133C227.074 95.6574 228.491 95.3116 229.931 95.1003C232.56 94.6959 235.134 93.9937 237.603 93.0071C238.526 92.629 239.3 92.2786 239.807 92.0296L240.388 91.7253C240.461 91.6942 240.529 91.6539 240.591 91.6055L240.379 91.6885L239.78 91.9559C239.254 92.1956 238.507 92.5184 237.557 92.878C235.078 93.812 232.511 94.4917 229.895 94.9066C228.443 95.1118 227.015 95.464 225.634 95.9578C224.505 96.3841 223.48 97.0475 222.628 97.9035C222.055 98.4841 221.614 99.1826 221.337 99.9505C221.271 100.159 221.215 100.372 221.171 100.587L221.144 100.78Z" fill="#455A64"/>
<path d="M220.056 121.878C220.056 121.878 219.954 121.823 219.798 121.694C219.561 121.488 219.345 121.259 219.152 121.011C218.428 120.079 217.952 118.978 217.769 117.811C217.506 116.017 217.813 114.185 218.645 112.574C219.13 111.597 219.751 110.693 220.489 109.891C221.276 108.943 222.363 108.293 223.569 108.046L223.375 108.351C222.988 107.116 222.967 105.796 223.316 104.55C223.664 103.305 224.367 102.187 225.34 101.333C226.674 100.309 228.274 99.6877 229.95 99.5445C231.527 99.314 233.021 99.1849 234.413 98.853C236.909 98.3828 239.23 97.2416 241.126 95.5518C242.375 94.3838 243.278 92.8937 243.736 91.2456C243.873 90.6377 243.972 90.0218 244.031 89.4014C244.065 89.565 244.081 89.7321 244.077 89.8993C244.074 90.3738 244.021 90.8466 243.92 91.3101C243.52 93.0276 242.633 94.5932 241.366 95.8192C239.451 97.5974 237.078 98.8075 234.514 99.314C233.094 99.6644 231.564 99.8027 230.024 100.033C228.443 100.172 226.933 100.757 225.671 101.721C224.779 102.508 224.131 103.534 223.805 104.678C223.478 105.822 223.486 107.036 223.827 108.175L223.919 108.443H223.643C222.538 108.676 221.543 109.27 220.812 110.13C220.081 110.895 219.461 111.758 218.968 112.694C218.151 114.231 217.829 115.983 218.046 117.71C218.197 118.842 218.615 119.923 219.263 120.864C219.696 121.574 220.056 121.85 220.056 121.878Z" fill="#455A64"/>
<path d="M247.82 135.618C247.82 135.618 248.844 149.551 249.609 156.66C249.877 159.076 250.199 161.594 251.601 163.585C252.823 165.162 254.6 166.213 256.569 166.527C258.539 166.84 260.554 166.392 262.205 165.273C263.774 164.037 264.845 162.277 265.221 160.316C265.597 158.354 265.253 156.323 264.252 154.595C263.524 153.396 262.408 152.031 263.063 150.777C263.353 150.323 263.71 149.915 264.123 149.569C266.032 147.522 265.442 144.193 264.206 141.676C263.972 141.03 263.505 140.494 262.897 140.173C262.205 139.896 261.403 140.173 260.675 139.979C259.107 139.537 259.006 137.425 258.655 135.83C258.13 133.506 256.295 131.026 253.925 130.675C253.925 130.675 251.62 134.484 247.82 135.618Z" fill="#263238"/>
<path d="M264.114 148.712C264.537 147.666 264.802 146.562 264.898 145.438C264.959 144.228 264.732 143.02 264.234 141.916C263.613 140.572 262.626 139.431 261.385 138.624C260.73 138.199 259.974 137.932 259.328 137.434C258.999 137.194 258.733 136.878 258.554 136.512C258.402 136.156 258.32 135.774 258.314 135.387C258.336 134.741 258.286 134.095 258.166 133.46C257.981 132.936 257.664 132.469 257.244 132.104C256.488 131.394 255.778 130.869 255.4 130.398C255.175 130.179 255.01 129.906 254.921 129.605C254.921 129.605 255.124 129.864 255.538 130.269C255.953 130.675 256.663 131.145 257.475 131.855C257.946 132.251 258.305 132.763 258.517 133.34C258.668 134.002 258.736 134.68 258.72 135.359C258.721 135.693 258.799 136.023 258.947 136.322C259.096 136.621 259.312 136.881 259.577 137.084C260.14 137.517 260.896 137.785 261.606 138.246C262.931 139.098 263.974 140.323 264.603 141.768C265.104 142.929 265.309 144.196 265.202 145.456C265.132 146.305 264.913 147.136 264.557 147.909C264.459 148.201 264.309 148.473 264.114 148.712Z" fill="#455A64"/>
<path d="M258.462 166.555C258.462 166.508 258.895 166.241 259.587 165.632C260.534 164.696 261.248 163.549 261.67 162.285C262.313 160.421 262.218 158.382 261.403 156.587C260.481 154.558 258.637 152.898 256.885 150.897C256.018 149.936 255.295 148.855 254.736 147.688C254.206 146.578 253.992 145.343 254.118 144.12C254.248 142.958 254.589 141.934 254.755 140.957C254.922 140.061 254.922 139.142 254.755 138.246C254.506 136.937 253.935 135.711 253.095 134.677C252.486 133.949 252.053 133.635 252.081 133.598C252.108 133.562 252.21 133.654 252.413 133.811C252.707 134.035 252.982 134.285 253.233 134.557C254.021 135.418 254.603 136.446 254.937 137.564C255.271 138.682 255.347 139.861 255.16 141.012C255.004 142.017 254.681 143.05 254.57 144.147C254.47 145.291 254.681 146.441 255.179 147.476C255.727 148.597 256.429 149.637 257.263 150.565C258.96 152.492 260.868 154.254 261.818 156.374C262.66 158.275 262.726 160.429 262.002 162.377C261.539 163.676 260.756 164.837 259.725 165.752C259.438 165.995 259.129 166.211 258.803 166.398C258.698 166.467 258.583 166.52 258.462 166.555Z" fill="#455A64"/>
<path d="M221.614 180.875L225.155 147.015L235.298 151.165L236.119 185.679C236.119 185.679 232.799 190.548 227.34 188.445C225.769 187.852 224.398 186.826 223.385 185.486C222.372 184.147 221.758 182.548 221.614 180.875Z" fill="#FFBE9D"/>
<path d="M224.491 117.305L243.238 134.271L239.623 146.692L238.24 147.079L221.882 129.855L223.108 117.692L224.491 117.305Z" fill="#263238"/>
<path d="M223.108 117.692L241.854 134.659L238.24 147.08L220.498 130.242L223.108 117.692Z" fill="#455A64"/>
<path d="M235.667 152.261C236.843 151.002 237.541 149.371 237.64 147.651C237.64 145.087 237.013 138.928 237.013 138.928C237.013 138.928 240.416 132.03 240.342 131.108C240.268 130.186 240.121 130.186 238.931 130.555C237.742 130.924 233.98 137.185 233.98 137.185L232.845 132.473C232.845 132.473 235.971 127.586 236.22 126.94C236.469 126.295 236.884 125.695 236.119 125.622C235.353 125.548 229.535 131.034 229.535 131.034L229.922 136.18C229.922 136.18 229.802 136.595 229 135.857C228.198 135.119 228.475 128.987 228.475 128.987C228.475 128.987 230.485 125.382 230.448 124.856C230.411 124.331 230.817 123.768 230.448 122.865C230.079 121.961 228.936 122.984 228.936 122.984L225.054 127.927L223.763 122.957C223.763 122.957 223.836 121.906 222.462 121.878L222.767 137.923L226.059 150.223L235.667 152.261Z" fill="#FFBE9D"/>
<path d="M236.073 185.679C236.073 185.679 236.073 185.467 236.073 185.071C236.073 184.674 236.027 184.056 235.999 183.3C235.953 181.723 235.879 179.455 235.796 176.569C235.649 170.723 235.437 162.387 235.178 152.29V152.188L235.261 152.124C236.074 151.427 236.707 150.545 237.106 149.551C237.491 148.486 237.636 147.35 237.53 146.222C237.447 143.871 237.189 141.427 236.893 138.919V138.855V138.799C237.53 137.481 238.166 136.134 238.793 134.742C239.107 134.051 239.411 133.35 239.715 132.63C239.853 132.28 239.992 131.911 240.102 131.552L240.176 131.284C240.176 131.201 240.176 131.155 240.176 131.063C240.168 130.9 240.137 130.738 240.084 130.583C240.084 130.464 239.595 130.583 239.263 130.685C239.098 130.724 238.944 130.8 238.811 130.906C238.662 131.023 238.523 131.152 238.396 131.293C237.869 131.876 237.379 132.492 236.93 133.138C236.008 134.447 235.086 135.839 234.256 137.25L233.952 137.748L233.814 137.176C233.454 135.692 233.067 134.087 232.67 132.464V132.372L232.726 132.28L234.312 129.763C234.911 128.776 235.575 127.753 236.073 126.784C236.174 126.508 236.313 126.222 236.386 125.991C236.46 125.761 236.386 125.816 236.386 125.825C236.312 125.799 236.23 125.799 236.156 125.825C236.059 125.857 235.966 125.9 235.879 125.954C235.768 126.019 235.649 126.111 235.538 126.185C235.427 126.259 235.077 126.508 234.856 126.692C233.076 128.112 231.407 129.643 229.775 131.155L229.849 130.961C229.978 132.701 230.107 134.419 230.236 136.116C230.204 136.209 230.141 136.288 230.056 136.339C229.972 136.39 229.872 136.409 229.775 136.393C229.658 136.377 229.545 136.34 229.443 136.282C229.277 136.19 229.122 136.078 228.982 135.95C228.713 135.66 228.545 135.292 228.502 134.899C228.39 134.219 228.322 133.532 228.299 132.843C228.253 131.487 228.299 130.159 228.299 128.841V128.795C229.009 127.568 229.644 126.299 230.199 124.995C230.219 124.932 230.234 124.867 230.245 124.802C230.245 124.746 230.245 124.599 230.245 124.516C230.245 124.433 230.319 124.147 230.347 123.99C230.425 123.688 230.425 123.371 230.347 123.068C230.245 122.736 230.144 122.598 229.885 122.635C229.596 122.709 229.33 122.855 229.111 123.059L225.22 127.992L224.971 128.315L224.869 127.919C224.427 126.203 224.002 124.544 223.587 122.958V122.893C223.588 122.762 223.557 122.632 223.498 122.515C223.439 122.398 223.352 122.297 223.246 122.22C223.014 122.077 222.745 122.003 222.472 122.008L222.656 121.823C222.758 128.352 222.831 133.765 222.896 137.868C223.615 140.828 224.168 143.115 224.556 144.692C224.731 145.448 224.869 146.038 224.961 146.453C225.054 146.868 225.081 147.061 225.081 147.061C225.081 147.061 225.017 146.868 224.906 146.471L224.436 144.719C224.021 143.152 223.431 140.874 222.665 137.923C222.564 133.82 222.444 128.407 222.297 121.888V121.639H222.49C222.836 121.633 223.176 121.729 223.468 121.916C223.628 122.029 223.758 122.18 223.847 122.355C223.935 122.53 223.979 122.724 223.975 122.921V122.856L225.275 127.817L224.925 127.743L228.797 122.792C229.078 122.533 229.421 122.352 229.793 122.266C229.91 122.244 230.03 122.25 230.144 122.284C230.258 122.317 230.362 122.378 230.448 122.46C230.592 122.611 230.691 122.799 230.734 123.004C230.83 123.376 230.83 123.766 230.734 124.138C230.734 124.313 230.66 124.479 230.642 124.636C230.632 124.712 230.632 124.79 230.642 124.866C230.632 124.977 230.607 125.085 230.568 125.189C230.012 126.526 229.372 127.826 228.65 129.08V128.979C228.604 130.279 228.585 131.598 228.65 132.935C228.663 133.6 228.728 134.262 228.843 134.917C228.875 135.208 228.99 135.484 229.175 135.71C229.289 135.811 229.413 135.901 229.544 135.978C229.594 136.003 229.647 136.021 229.701 136.033C229.697 136.051 229.697 136.07 229.701 136.088H229.581V136.181C229.452 134.484 229.32 132.766 229.185 131.026V130.86L229.268 130.777C230.9 129.256 232.56 127.725 234.367 126.277L235.077 125.752C235.198 125.664 235.324 125.584 235.455 125.512C235.61 125.406 235.786 125.337 235.971 125.309C236.074 125.3 236.178 125.312 236.276 125.343C236.374 125.375 236.465 125.426 236.543 125.493C236.621 125.581 236.673 125.689 236.692 125.805C236.712 125.921 236.698 126.04 236.654 126.148C236.552 126.471 236.432 126.711 236.331 126.978C235.778 128.084 235.151 129.025 234.533 130.039L232.938 132.566V132.372L234.072 137.084L233.629 137.02C234.496 135.59 235.381 134.207 236.322 132.879C236.789 132.207 237.298 131.563 237.843 130.952C237.986 130.796 238.14 130.651 238.304 130.519C238.485 130.38 238.692 130.28 238.913 130.224C239.107 130.168 239.3 130.113 239.521 130.067C239.647 130.048 239.774 130.048 239.9 130.067C239.983 130.085 240.062 130.12 240.13 130.171C240.199 130.222 240.255 130.287 240.296 130.362C240.376 130.575 240.423 130.799 240.434 131.026C240.443 131.146 240.443 131.266 240.434 131.386L240.351 131.69C240.231 132.077 240.093 132.446 239.946 132.806C239.66 133.534 239.346 134.235 239.024 134.936C238.396 136.328 237.751 137.702 237.106 138.993V138.864C237.391 141.381 237.64 143.825 237.723 146.241C237.829 147.429 237.668 148.626 237.253 149.745C236.82 150.82 236.126 151.771 235.234 152.511L235.317 152.345C235.501 162.488 235.658 170.787 235.759 176.624C235.805 179.52 235.833 181.788 235.851 183.365C235.851 184.121 235.851 184.711 235.851 185.135C235.851 185.559 236.073 185.679 236.073 185.679Z" fill="#EB996E"/>
<path d="M225.718 136.568C225.373 135.13 225.194 133.657 225.183 132.179C225.017 130.708 225.017 129.223 225.183 127.752C225.513 129.196 225.689 130.67 225.708 132.151C225.868 133.619 225.871 135.099 225.718 136.568Z" fill="#EB996E"/>
<path d="M268.005 118.4L273.686 108.404C270.173 102.73 268.909 95.9464 270.142 89.3873C271.375 82.8283 275.016 76.9674 280.35 72.9562C285.684 68.945 292.326 67.0734 298.969 67.709C305.613 68.3447 311.779 71.4417 316.255 76.3916C320.732 81.3415 323.196 87.7865 323.163 94.4604C323.13 101.134 320.603 107.555 316.078 112.46C311.552 117.366 305.356 120.402 298.707 120.972C292.057 121.542 285.435 119.605 280.14 115.541L268.005 118.4Z" fill="white"/>
<path d="M268.005 118.402L280.085 115.433L280.011 115.626C279.991 115.602 279.98 115.571 279.98 115.539C279.98 115.507 279.991 115.476 280.011 115.451C280.035 115.437 280.062 115.43 280.09 115.43C280.117 115.43 280.144 115.437 280.168 115.451C283.888 118.304 288.298 120.121 292.948 120.716C294.339 120.902 295.742 120.967 297.144 120.91C297.863 120.91 298.601 120.845 299.339 120.781L301.57 120.43C308.211 119.101 314.1 115.301 318.048 109.799C320.237 106.754 321.749 103.277 322.483 99.6001C323.241 95.7174 323.131 91.7152 322.161 87.8801C321.169 83.8709 319.234 80.1564 316.517 77.0454C313.757 73.8592 310.281 71.3722 306.374 69.7884C302.621 68.2967 298.582 67.6665 294.553 67.9442C290.736 68.2097 287.025 69.3115 283.681 71.1716C277.676 74.5211 273.18 80.0404 271.113 86.5984C270.284 89.3894 269.886 92.2906 269.933 95.2016C270.05 99.8568 271.386 104.4 273.805 108.379C273.817 108.396 273.823 108.417 273.823 108.438C273.823 108.46 273.817 108.481 273.805 108.498L268.005 118.402C268.402 117.692 270.071 114.667 273.584 108.342V108.462C271.098 104.463 269.711 99.8798 269.564 95.174C269.507 92.2242 269.899 89.2829 270.726 86.4508C271.711 83.3012 273.258 80.3555 275.29 77.7554C277.518 74.9111 280.293 72.5409 283.451 70.7843C286.853 68.8922 290.632 67.7744 294.516 67.5108C298.599 67.2216 302.696 67.8518 306.503 69.355C310.489 70.9527 314.033 73.4823 316.84 76.7319C319.613 79.9086 321.586 83.7026 322.594 87.7971C323.575 91.7029 323.683 95.7772 322.908 99.7292C322.157 103.469 320.609 107.004 318.371 110.094C314.355 115.681 308.36 119.526 301.607 120.845L299.339 121.187C298.592 121.251 297.845 121.27 297.116 121.306C295.699 121.363 294.279 121.292 292.875 121.094C288.181 120.452 283.741 118.575 280.011 115.654L280.186 115.488C280.206 115.511 280.217 115.541 280.217 115.571C280.217 115.601 280.206 115.631 280.186 115.654H280.14L268.005 118.402Z" fill="#D1D1D1"/>
<path d="M289.315 93.8555C289.315 94.3133 289.18 94.7607 288.925 95.1414C288.671 95.522 288.309 95.8186 287.887 95.9938C287.464 96.169 286.998 96.2148 286.549 96.1255C286.1 96.0362 285.688 95.8158 285.364 95.4921C285.041 95.1684 284.82 94.756 284.731 94.307C284.641 93.8581 284.687 93.3927 284.862 92.9698C285.038 92.5469 285.334 92.1854 285.715 91.9311C286.096 91.6768 286.543 91.541 287.001 91.541C287.615 91.541 288.203 91.7849 288.637 92.2189C289.071 92.653 289.315 93.2417 289.315 93.8555Z" fill="#D1D1D1"/>
<path d="M298.564 93.8555C298.564 94.3133 298.428 94.7608 298.174 95.1414C297.92 95.522 297.558 95.8186 297.135 95.9938C296.712 96.169 296.247 96.2148 295.798 96.1255C295.349 96.0362 294.937 95.8158 294.613 95.4921C294.289 95.1684 294.069 94.756 293.979 94.3071C293.89 93.8581 293.936 93.3927 294.111 92.9698C294.286 92.5469 294.583 92.1854 294.964 91.9311C295.344 91.6768 295.792 91.541 296.249 91.541C296.554 91.5398 296.855 91.5988 297.137 91.7147C297.418 91.8306 297.674 92.0011 297.889 92.2162C298.104 92.4314 298.274 92.687 298.39 92.9684C298.506 93.2497 298.565 93.5512 298.564 93.8555Z" fill="#D1D1D1"/>
<path d="M307.794 92.6937C308.024 93.0896 308.132 93.5448 308.103 94.0017C308.074 94.4586 307.911 94.8967 307.633 95.2607C307.355 95.6246 306.976 95.898 306.543 96.0462C306.109 96.1945 305.642 96.211 305.199 96.0936C304.757 95.9762 304.359 95.7302 304.057 95.3867C303.754 95.0432 303.56 94.6177 303.499 94.1639C303.438 93.7102 303.513 93.2486 303.715 92.8375C303.916 92.4264 304.235 92.0844 304.631 91.8546C305.162 91.5466 305.793 91.462 306.387 91.6194C306.98 91.7767 307.486 92.1632 307.794 92.6937Z" fill="#D1D1D1"/>
</g>
<defs>
<filter id="filter0_d_50_1279" x="0" y="0" width="373.419" height="483.064" filterUnits="userSpaceOnUse" color-interpolation-filters="sRGB">
<feFlood flood-opacity="0" result="BackgroundImageFix"/>
<feColorMatrix in="SourceAlpha" type="matrix" values="0 0 0 0 0 0 0 0 0 0 0 0 0 0 0 0 0 0 127 0" result="hardAlpha"/>
<feOffset dy="5"/>
<feGaussianBlur stdDeviation="25"/>
<feComposite in2="hardAlpha" operator="out"/>
<feColorMatrix type="matrix" values="0 0 0 0 0.331875 0 0 0 0 0.459415 0 0 0 0 0.651458 0 0 0 0.4 0"/>
<feBlend mode="normal" in2="BackgroundImageFix" result="effect1_dropShadow_50_1279"/>
<feBlend mode="normal" in="SourceGraphic" in2="effect1_dropShadow_50_1279" result="shape"/>
</filter>
</defs>
</svg>
