<svg width="532" height="399" viewBox="0 0 532 399" fill="none" xmlns="http://www.w3.org/2000/svg">
<g filter="url(#filter0_d_50_1149)">
<path d="M459.715 88.4663H349.898V271.944H459.715V88.4663Z" fill="#F5F5F5"/>
<path d="M379.029 196.509L380.206 198.891L382.841 199.284L380.935 201.134L381.383 203.759L379.029 202.516L376.675 203.759L377.132 201.134L375.226 199.284L377.852 198.891L379.029 196.509Z" fill="#257CFF"/>
<path d="M392.109 196.509L393.286 198.891L395.921 199.284L394.015 201.134L394.464 203.759L392.109 202.516L389.755 203.759L390.203 201.134L388.297 199.284L390.932 198.891L392.109 196.509Z" fill="#257CFF"/>
<path d="M405.18 196.509L406.357 198.891L408.992 199.284L407.086 201.134L407.535 203.759L405.18 202.516L402.835 203.759L403.284 201.134L401.378 199.284L404.003 198.891L405.18 196.509Z" fill="#257CFF"/>
<path d="M418.26 196.509L419.438 198.891L422.072 199.284L420.166 201.134L420.615 203.759L418.26 202.516L415.906 203.759L416.354 201.134L414.448 199.284L417.083 198.891L418.26 196.509Z" fill="#257CFF"/>
<path d="M431.331 196.509L432.508 198.891L435.143 199.284L433.237 201.134L433.686 203.759L431.331 202.516L428.986 203.759L429.435 201.134L427.529 199.284L430.163 198.891L431.331 196.509Z" fill="#257CFF"/>
<path d="M400.322 218.016C400.322 218.156 391.988 218.259 381.701 218.259C371.415 218.259 363.081 218.156 363.081 218.016C363.081 217.876 371.415 217.773 381.701 217.773C391.988 217.773 400.322 217.885 400.322 218.016Z" fill="#257CFF"/>
<path d="M447.121 226.154C447.121 226.285 428.528 226.397 405.591 226.397C382.654 226.397 364.061 226.285 364.061 226.154C364.061 226.023 382.654 225.911 405.591 225.911C428.528 225.911 447.121 225.967 447.121 226.154Z" fill="#263238"/>
<path d="M447.121 233.049C447.121 233.18 428.528 233.292 405.591 233.292C382.654 233.292 364.061 233.18 364.061 233.049C364.061 232.918 382.654 232.806 405.591 232.806C428.528 232.806 447.121 232.918 447.121 233.049Z" fill="#263238"/>
<path d="M447.121 240.001C447.121 240.132 428.528 240.244 405.591 240.244C382.654 240.244 364.061 240.132 364.061 240.001C364.061 239.87 382.654 239.758 405.591 239.758C428.528 239.758 447.121 239.861 447.121 240.001Z" fill="#263238"/>
<path d="M447.121 246.942C447.121 247.082 428.528 247.185 405.591 247.185C382.654 247.185 364.061 247.082 364.061 246.942C364.061 246.802 382.654 246.699 405.591 246.699C428.528 246.699 447.121 246.811 447.121 246.942Z" fill="#263238"/>
<path d="M447.121 253.893C447.121 254.024 428.528 254.136 405.591 254.136C382.654 254.136 364.061 254.024 364.061 253.893C364.061 253.763 382.654 253.65 405.591 253.65C428.528 253.65 447.121 253.753 447.121 253.893Z" fill="#263238"/>
<path d="M451.718 97.7812H357.12V188.595H451.718V97.7812Z" fill="#E0E0E0"/>
<path d="M437.666 172.768L443.813 188.604H428.921L425.567 179.981L437.666 172.768Z" fill="#FFBE9D"/>
<path d="M380.963 188.605H421.297C421.923 182.644 422.315 177.01 422.315 177.01L424.389 182.616L441.328 174.142C441.328 174.142 435.171 157.726 430.014 152.167C423.474 145.132 411.786 145.832 411.786 145.832L396.575 146.085C392.683 146.545 388.894 147.65 385.364 149.355L384.99 149.467V149.542C381.701 152.344 371.816 165.593 371.816 165.593L375.46 169.134L382.934 176.094C382.925 176.116 382.92 176.14 382.92 176.164C382.92 176.189 382.925 176.212 382.934 176.234C382.991 176.991 380.963 188.605 380.963 188.605Z" fill="#257CFF"/>
<path d="M412.215 145.291C412.215 145.291 412.262 145.384 412.299 145.561C412.355 145.826 412.389 146.095 412.402 146.365C412.45 147.366 412.311 148.367 411.991 149.317C411.509 150.741 410.654 152.008 409.515 152.989C408.084 154.167 406.302 154.835 404.45 154.887C402.597 154.939 400.78 154.374 399.285 153.279C398.097 152.359 397.175 151.14 396.613 149.747C396.241 148.817 396.048 147.825 396.043 146.823C396.036 146.551 396.055 146.279 396.099 146.01C396.099 145.832 396.145 145.739 396.164 145.739C396.176 147.068 396.436 148.383 396.93 149.616C397.511 150.921 398.415 152.056 399.556 152.914C400.979 153.928 402.694 154.45 404.441 154.401C406.187 154.352 407.871 153.735 409.235 152.643C410.327 151.725 411.164 150.541 411.664 149.205C412.094 147.947 412.281 146.619 412.215 145.291Z" fill="#263238"/>
<path d="M426.622 148.897C426.622 148.944 426.211 148.897 425.548 149.177C424.61 149.532 423.793 150.148 423.193 150.952C422.335 152.169 421.81 153.59 421.671 155.073C421.446 156.745 421.4 158.632 421.325 160.594C421.222 164.537 421.372 168.069 421.558 170.685C421.643 171.89 421.727 172.908 421.783 173.731C421.845 174.104 421.861 174.484 421.829 174.861C421.716 174.502 421.638 174.133 421.596 173.759C421.493 173.039 421.343 172.002 421.213 170.713C420.874 167.348 420.749 163.965 420.839 160.585C420.871 158.711 421.002 156.84 421.231 154.979C421.397 153.427 421.985 151.95 422.932 150.709C423.584 149.878 424.479 149.271 425.492 148.972C425.762 148.89 426.041 148.846 426.323 148.841C426.52 148.869 426.622 148.878 426.622 148.897Z" fill="#263238"/>
<path d="M390.465 147.196C390.406 147.584 390.313 147.966 390.185 148.336C389.932 149.158 389.624 150.205 389.25 151.41C388.475 153.998 387.438 157.586 386.391 161.585C385.345 165.583 384.523 169.218 383.943 171.862C383.663 173.104 383.43 174.151 383.243 174.992C383.182 175.382 383.078 175.764 382.934 176.132C382.94 175.736 382.981 175.342 383.056 174.954C383.168 174.207 383.355 173.086 383.598 171.796C384.102 169.124 384.887 165.462 385.924 161.463C386.961 157.464 388.064 153.877 388.923 151.307C389.353 150.018 389.717 148.99 389.988 148.28C390.11 147.904 390.269 147.54 390.465 147.196Z" fill="#263238"/>
<path opacity="0.2" d="M421.054 161.688L426.66 181.551L424.427 182.672L422.353 177.066C422.353 177.066 420.297 165.238 421.054 161.688Z" fill="black"/>
<g opacity="0.2">
<path opacity="0.2" d="M391.119 147.215C387.877 148.859 395.837 153.12 399.472 153.082L397.005 146.019C397.005 146.019 392.203 146.664 391.119 147.215Z" fill="black"/>
</g>
<path d="M404.806 154.437C403.68 154.514 402.551 154.353 401.491 153.965C400.432 153.577 399.466 152.97 398.656 152.184C397.846 151.398 397.211 150.45 396.791 149.403C396.371 148.355 396.177 147.231 396.22 146.103C396.314 143.515 396.398 141.432 396.398 141.432C396.398 141.432 389.979 140.871 389.475 134.527C388.97 128.183 389.082 113.524 389.082 113.524C392.588 111.73 396.51 110.905 400.442 111.133C404.374 111.361 408.174 112.635 411.449 114.823L412.44 115.477L412.318 146.477C412.299 148.506 411.515 150.453 410.122 151.929C408.73 153.405 406.831 154.301 404.806 154.437Z" fill="#FFBE9D"/>
<path d="M392.53 124.699C392.663 124.569 392.756 124.403 392.794 124.221C392.833 124.039 392.816 123.849 392.746 123.677C392.677 123.504 392.557 123.357 392.403 123.252C392.248 123.148 392.066 123.093 391.88 123.093C391.694 123.093 391.512 123.148 391.358 123.252C391.204 123.357 391.084 123.504 391.014 123.677C390.944 123.849 390.928 124.039 390.966 124.221C391.005 124.403 391.097 124.569 391.231 124.699C391.405 124.867 391.638 124.961 391.88 124.961C392.123 124.961 392.355 124.867 392.53 124.699Z" fill="#263238"/>
<path d="M389.717 122.811C389.82 122.914 390.409 122.4 391.287 122.335C392.165 122.269 392.829 122.68 392.913 122.559C392.997 122.437 392.847 122.316 392.558 122.12C392.163 121.879 391.702 121.768 391.24 121.802C390.781 121.839 390.345 122.023 389.998 122.325C389.745 122.559 389.661 122.764 389.717 122.811Z" fill="#263238"/>
<path d="M400.509 123.306C400.356 123.412 400.239 123.561 400.172 123.735C400.105 123.908 400.091 124.097 400.132 124.278C400.173 124.459 400.267 124.624 400.402 124.751C400.537 124.879 400.707 124.963 400.89 124.994C401.073 125.024 401.261 124.999 401.43 124.923C401.599 124.846 401.741 124.72 401.839 124.562C401.936 124.404 401.984 124.221 401.977 124.035C401.97 123.85 401.907 123.671 401.798 123.521C401.654 123.324 401.438 123.191 401.197 123.15C400.956 123.11 400.709 123.166 400.509 123.306Z" fill="#263238"/>
<path d="M398.967 122.839C399.079 122.942 399.668 122.418 400.546 122.353C401.424 122.288 402.078 122.699 402.172 122.577C402.265 122.456 402.106 122.334 401.807 122.148C401.419 121.899 400.959 121.787 400.499 121.83C400.04 121.86 399.603 122.04 399.257 122.344C398.995 122.587 398.92 122.792 398.967 122.839Z" fill="#263238"/>
<path d="M396.183 130.537C395.718 130.392 395.231 130.326 394.744 130.341C394.51 130.341 394.333 130.285 394.305 130.164C394.283 129.936 394.325 129.706 394.426 129.5L394.996 127.632C395.549 126.084 395.947 124.484 396.183 122.857C395.469 124.337 394.911 125.887 394.52 127.482C394.333 128.118 394.155 128.725 393.987 129.351C393.865 129.647 393.842 129.975 393.922 130.285C393.96 130.371 394.018 130.448 394.091 130.508C394.164 130.568 394.25 130.61 394.342 130.631C394.472 130.653 394.605 130.653 394.735 130.631C395.219 130.684 395.709 130.653 396.183 130.537Z" fill="#263238"/>
<path d="M396.388 141.31C399.324 141.167 402.151 140.152 404.507 138.395C404.507 138.395 402.854 143.067 396.482 142.954L396.388 141.31Z" fill="#EB996E"/>
<path d="M412.159 122.204C412.281 122.157 417.354 121.606 416.551 126.511C415.859 130.744 411.3 129.454 411.309 129.314C411.319 129.174 412.159 122.204 412.159 122.204Z" fill="#FFBE9D"/>
<path d="M413.084 127.445C413.084 127.445 413.15 127.501 413.271 127.567C413.441 127.655 413.638 127.675 413.822 127.623C414.099 127.463 414.331 127.235 414.494 126.96C414.658 126.685 414.748 126.373 414.757 126.053C414.799 125.693 414.758 125.329 414.635 124.988C414.604 124.853 414.541 124.728 414.452 124.622C414.363 124.516 414.249 124.434 414.121 124.381C414.038 124.354 413.947 124.358 413.866 124.39C413.784 124.422 413.716 124.482 413.673 124.558C413.608 124.67 413.673 124.754 413.608 124.754C413.542 124.754 413.523 124.68 413.608 124.511C413.641 124.41 413.707 124.321 413.794 124.259C413.916 124.181 414.064 124.154 414.205 124.184C414.377 124.23 414.533 124.319 414.66 124.444C414.786 124.568 414.877 124.724 414.925 124.894C415.073 125.271 415.131 125.678 415.093 126.081C415.085 126.457 414.966 126.822 414.752 127.131C414.538 127.44 414.237 127.679 413.888 127.819C413.772 127.844 413.653 127.843 413.538 127.815C413.423 127.788 413.316 127.735 413.224 127.66C413.084 127.548 413.066 127.454 413.084 127.445Z" fill="#EB996E"/>
<path d="M411.094 126.614C410.113 127.202 408.777 126.464 408.291 125.436C407.895 124.358 407.726 123.21 407.796 122.063C407.74 120.502 407.47 118.955 406.993 117.467C406.932 116.922 406.733 116.402 406.415 115.956C406.097 115.51 405.67 115.152 405.176 114.916C404.681 114.68 404.134 114.575 403.587 114.609C403.041 114.643 402.512 114.817 402.05 115.112C401.024 115.625 399.898 115.905 398.752 115.934C397.248 115.804 396.005 114.617 394.501 114.412C392.997 114.206 391.782 114.888 390.427 115.271C389.081 115.718 387.622 115.685 386.298 115.178C385.646 114.914 385.087 114.46 384.696 113.875C384.305 113.291 384.098 112.602 384.102 111.898C384.129 111.552 384.227 111.215 384.391 110.909C384.554 110.604 384.78 110.335 385.054 110.121C385.327 109.908 385.642 109.754 385.979 109.669C386.315 109.584 386.666 109.57 387.008 109.628C386.767 109.464 386.564 109.249 386.413 108.999C386.262 108.749 386.167 108.47 386.134 108.18C386.101 107.89 386.131 107.596 386.222 107.318C386.314 107.041 386.464 106.787 386.662 106.573C387.099 106.165 387.64 105.887 388.226 105.769C388.812 105.652 389.419 105.701 389.979 105.909C391.089 106.338 392.095 106.997 392.931 107.843C393.046 107.324 393.331 106.858 393.74 106.52C394.15 106.181 394.661 105.989 395.192 105.975C396.273 105.979 397.323 106.337 398.182 106.993C399.116 107.591 399.873 108.32 400.817 108.862C402.686 109.899 404.909 110.011 407.011 110.394C409.114 110.777 411.365 111.627 412.384 113.515C413.318 115.168 412.683 117.158 412.608 119.046C412.533 120.933 412.524 121.447 412.43 123.287C412.412 123.222 412.533 125.782 411.094 126.614Z" fill="#263238"/>
<path d="M395.389 133.107C395.389 133.163 395.622 133.266 396.052 133.257C396.613 133.239 397.155 133.051 397.605 132.717C398.056 132.383 398.394 131.919 398.575 131.388C398.705 130.977 398.668 130.715 398.575 130.706C398.481 130.697 398.229 131.64 397.304 132.369C396.708 132.714 396.062 132.964 395.389 133.107Z" fill="white"/>
<path d="M388.092 110.927C387.945 111.029 387.831 111.172 387.763 111.338C387.695 111.503 387.676 111.685 387.709 111.861C387.749 112.259 387.936 112.629 388.232 112.898C388.438 113.062 388.679 113.179 388.935 113.241C389.192 113.302 389.459 113.306 389.717 113.253C390.337 113.135 390.927 112.897 391.455 112.552C392.031 112.155 392.66 111.841 393.324 111.618C394.081 111.458 394.871 111.577 395.547 111.954C396.267 112.31 396.94 112.823 397.687 113.281C398.39 113.784 399.233 114.055 400.098 114.057C400.899 113.953 401.647 113.6 402.237 113.048C402.765 112.583 403.377 112.224 404.04 111.992C404.629 111.849 405.247 111.885 405.815 112.095C406.657 112.397 407.35 113.013 407.749 113.814C407.872 114.115 407.963 114.428 408.02 114.748C408.02 114.425 407.95 114.107 407.815 113.814C407.625 113.398 407.355 113.023 407.02 112.712C406.684 112.401 406.291 112.16 405.862 112.001C405.267 111.77 404.615 111.725 403.994 111.87C403.303 112.095 402.666 112.461 402.125 112.945C401.547 113.452 400.832 113.777 400.07 113.879C399.24 113.872 398.434 113.608 397.762 113.122C397.033 112.674 396.351 112.188 395.604 111.796C394.892 111.404 394.063 111.281 393.268 111.45C392.605 111.675 391.976 111.989 391.399 112.384C390.889 112.724 390.318 112.962 389.717 113.085C389.476 113.141 389.224 113.142 388.982 113.089C388.74 113.035 388.512 112.929 388.316 112.777C388.038 112.536 387.853 112.205 387.793 111.842C387.764 111.677 387.776 111.507 387.828 111.347C387.881 111.188 387.971 111.043 388.092 110.927Z" fill="#455A64"/>
<path d="M390.904 107.582C390.857 107.513 390.793 107.458 390.717 107.423C390.608 107.37 390.488 107.343 390.367 107.343C390.245 107.343 390.126 107.37 390.016 107.423C389.837 107.498 389.687 107.63 389.59 107.799C389.494 107.968 389.457 108.165 389.484 108.357C389.52 108.613 389.626 108.853 389.791 109.051C389.956 109.249 390.173 109.397 390.418 109.479C391.006 109.65 391.634 109.621 392.203 109.395C392.828 109.143 393.476 108.949 394.137 108.815C394.5 108.789 394.865 108.844 395.204 108.977C395.544 109.109 395.849 109.316 396.099 109.581C396.639 110.188 397.269 110.708 397.967 111.123C398.36 111.261 398.776 111.32 399.191 111.296C399.607 111.272 400.013 111.165 400.387 110.983C401.062 110.669 401.775 110.443 402.508 110.31C403.556 110.168 404.622 110.345 405.567 110.818C406.512 111.292 407.292 112.039 407.805 112.964C408.104 113.496 408.198 113.823 408.217 113.814C408.14 113.507 408.023 113.212 407.871 112.936C407.47 112.162 406.882 111.501 406.161 111.011C405.081 110.281 403.772 109.972 402.48 110.142C401.735 110.275 401.01 110.501 400.322 110.815C399.97 110.989 399.588 111.092 399.196 111.116C398.805 111.14 398.412 111.085 398.042 110.955C397.348 110.548 396.719 110.041 396.173 109.451C395.908 109.167 395.582 108.948 395.219 108.809C394.857 108.669 394.467 108.614 394.081 108.647C393.408 108.782 392.75 108.986 392.119 109.254C391.593 109.467 391.014 109.506 390.465 109.367C390.24 109.297 390.039 109.166 389.885 108.987C389.731 108.809 389.631 108.59 389.596 108.357C389.565 108.182 389.594 108.002 389.679 107.846C389.764 107.69 389.899 107.567 390.063 107.498C390.165 107.45 390.277 107.425 390.39 107.425C390.503 107.425 390.615 107.45 390.717 107.498C390.848 107.498 390.895 107.591 390.904 107.582Z" fill="#455A64"/>
<path d="M409.665 112.552C409.786 112.599 410.132 111.833 410.954 111.328C411.776 110.824 412.598 110.833 412.608 110.702C412.617 110.571 412.412 110.553 412.047 110.543C411.574 110.555 411.112 110.694 410.711 110.945C410.31 111.197 409.984 111.552 409.768 111.973C409.618 112.309 409.609 112.534 409.665 112.552Z" fill="#263238"/>
<path d="M410.412 107.853C410.281 107.853 410.468 108.843 410.309 110.011C410.151 111.179 409.758 112.057 409.87 112.122C410.359 111.537 410.67 110.824 410.766 110.067C410.862 109.31 410.74 108.542 410.412 107.853Z" fill="#263238"/>
<path d="M411.898 124.885C412.071 124.62 412.185 124.321 412.231 124.009C412.278 123.696 412.257 123.377 412.169 123.073C411.978 122.418 411.628 121.821 411.15 121.335C410.905 121.046 410.737 120.698 410.664 120.326C410.632 119.915 410.683 119.502 410.814 119.111C411.072 118.315 411.12 117.465 410.954 116.645C410.805 115.965 410.4 115.37 409.824 114.982C409.436 114.727 408.979 114.6 408.516 114.617C408.347 114.624 408.182 114.666 408.03 114.739C408.03 114.739 408.207 114.739 408.516 114.692C408.958 114.699 409.388 114.839 409.749 115.094C410.288 115.468 410.66 116.038 410.786 116.682C410.939 117.476 410.887 118.296 410.636 119.065C410.498 119.479 410.447 119.918 410.487 120.354C410.568 120.755 410.751 121.129 411.019 121.438C411.488 121.902 411.837 122.472 412.038 123.101C412.136 123.534 412.136 123.984 412.038 124.418C412.007 124.578 411.96 124.734 411.898 124.885Z" fill="#455A64"/>
<path d="M407.282 170.096C407.294 170.298 407.294 170.501 407.282 170.703C407.282 171.142 407.282 171.637 407.329 172.31C407.329 173.693 407.413 175.636 407.432 177.981L407.376 177.832L410.253 180.513H410.01L414.962 178.504L414.822 178.691C414.842 178.534 414.87 178.378 414.906 178.224C415.448 175.281 415.953 172.506 416.401 170.096L416.616 170.348C413.86 170.348 411.543 170.283 409.889 170.245L407.955 170.189C407.729 170.176 407.504 170.145 407.282 170.096C407.493 170.064 407.705 170.048 407.918 170.049L409.786 169.993C411.421 169.993 413.794 169.9 416.644 169.881H416.896V170.133C416.466 172.553 415.962 175.328 415.457 178.271L415.373 178.738V178.869L415.252 178.925L410.291 180.896L410.151 180.952L410.048 180.85L407.245 178.131L407.18 178.065V177.981C407.18 175.552 407.245 173.553 407.282 172.189C407.282 171.563 407.282 171.049 407.338 170.619C407.298 170.448 407.279 170.272 407.282 170.096Z" fill="#263238"/>
<path d="M416.074 172.534C414.627 172.855 413.144 172.978 411.664 172.899C410.183 172.982 408.697 172.869 407.245 172.562C408.711 172.385 410.19 172.335 411.664 172.413C413.135 172.329 414.61 172.37 416.074 172.534Z" fill="#263238"/>
<path d="M373.9 167.657C374.096 167.853 358.951 188.604 358.951 188.604H373.797L382.906 176.122L373.9 167.657Z" fill="#FFBE9D"/>
<path d="M343.825 54.3457H187.292V315.866H343.825V54.3457Z" fill="#F5F5F5"/>
<path d="M228.821 208.347L230.494 211.738L234.25 212.289L231.531 214.933L232.176 218.671L228.821 216.905L225.458 218.671L226.103 214.933L223.393 212.289L227.14 211.738L228.821 208.347Z" fill="#257CFF"/>
<path d="M247.451 208.347L249.133 211.738L252.88 212.289L250.17 214.933L250.805 218.671L247.451 216.905L244.097 218.671L244.742 214.933L242.023 212.289L245.779 211.738L247.451 208.347Z" fill="#257CFF"/>
<path d="M266.091 208.347L267.772 211.738L271.519 212.289L268.81 214.933L269.445 218.671L266.091 216.905L262.737 218.671L263.381 214.933L260.662 212.289L264.418 211.738L266.091 208.347Z" fill="#257CFF"/>
<path d="M284.73 208.347L286.412 211.738L290.158 212.289L287.449 214.933L288.084 218.671L284.73 216.905L281.376 218.671L282.02 214.933L279.302 212.289L283.048 211.738L284.73 208.347Z" fill="#257CFF"/>
<path d="M303.369 208.347L305.042 211.738L308.798 212.289L306.079 214.933L306.723 218.671L303.369 216.905L300.015 218.671L300.65 214.933L297.941 212.289L301.688 211.738L303.369 208.347Z" fill="#257CFF"/>
<path d="M259.167 239.001C259.167 239.132 247.283 239.244 232.624 239.244C217.965 239.244 206.08 239.132 206.08 239.001C206.08 238.87 217.965 238.758 232.624 238.758C247.283 238.758 259.167 238.861 259.167 239.001Z" fill="#257CFF"/>
<path d="M325.867 250.521C325.867 250.661 299.361 250.764 266.679 250.764C233.997 250.764 207.482 250.661 207.482 250.521C207.482 250.381 233.979 250.278 266.679 250.278C299.38 250.278 325.867 250.39 325.867 250.521Z" fill="#263238"/>
<path d="M325.867 260.425C325.867 260.556 299.361 260.668 266.679 260.668C233.997 260.668 207.482 260.556 207.482 260.425C207.482 260.294 233.979 260.182 266.679 260.182C299.38 260.182 325.867 260.294 325.867 260.425Z" fill="#263238"/>
<path d="M325.867 270.328C325.867 270.459 299.361 270.571 266.679 270.571C233.997 270.571 207.482 270.459 207.482 270.328C207.482 270.197 233.979 270.085 266.679 270.085C299.38 270.085 325.867 270.188 325.867 270.328Z" fill="#263238"/>
<path d="M325.867 280.232C325.867 280.363 299.361 280.475 266.679 280.475C233.997 280.475 207.482 280.363 207.482 280.232C207.482 280.101 233.979 279.989 266.679 279.989C299.38 279.989 325.867 280.092 325.867 280.232Z" fill="#263238"/>
<path d="M325.867 290.126C325.867 290.266 299.361 290.369 266.679 290.369C233.997 290.369 207.482 290.266 207.482 290.126C207.482 289.986 233.979 289.883 266.679 289.883C299.38 289.883 325.867 289.995 325.867 290.126Z" fill="#263238"/>
<path d="M332.426 67.6221H197.588V197.07H332.426V67.6221Z" fill="#E0E0E0"/>
<path d="M257.28 89.0736C258.691 84.3367 263.026 80.7957 267.828 79.6465C272.631 78.4973 278.592 76.9277 282.992 79.17C285.739 80.5715 288.374 82.6082 289.458 85.4952C290.738 88.9241 288.766 95.3147 287.785 98.8371C286.804 102.359 286.066 106.386 288 109.488C289.934 112.59 293.737 113.674 296.128 116.308C297.717 118.204 298.505 120.643 298.325 123.109C298.145 125.575 297.012 127.875 295.166 129.52C299.417 129.267 303.005 133.602 302.855 137.853C302.706 142.105 299.595 145.842 295.801 147.766C292.008 149.691 287.626 150.093 283.375 150.102C278.097 150.11 272.833 149.562 267.67 148.467C263.419 147.533 258.981 146.141 256.215 142.787C253.664 139.703 252.964 135.499 252.954 131.5C252.954 117.364 260.354 103.35 257.131 89.5781" fill="#263238"/>
<path d="M260.728 85.8222C258.503 84.2997 255.886 83.4513 253.191 83.3786C250.496 83.306 247.837 84.0122 245.534 85.4125C243.23 86.8129 241.379 88.848 240.203 91.2738C239.027 93.6997 238.575 96.4133 238.903 99.0893C239.248 101.892 240.416 104.695 239.706 107.358C238.37 112.431 231.223 114.402 230.288 119.56C229.915 121.597 230.634 123.643 231.176 125.633C231.718 127.623 232.11 129.875 231.045 131.668C230.279 132.995 228.896 133.827 227.812 134.901C224.337 138.377 224.402 144.478 227.317 148.448C230.232 152.419 235.39 154.316 240.304 154.157C245.218 153.998 249.927 152.008 254.122 149.439" fill="#263238"/>
<path d="M250.404 91.5029L250.469 94.857L251.142 145.188C251.217 151.037 256.309 155.624 262.559 155.465C268.884 155.325 274.014 150.439 274.032 144.534C274.032 138.339 274.182 131.818 274.182 131.818C274.182 131.818 282.17 130.491 283.824 120.074C284.646 114.898 284.384 106.405 283.945 99.4631C283.856 97.9785 283.467 96.5272 282.801 95.1973C282.135 93.8673 281.207 92.6862 280.071 91.7255C278.936 90.7648 277.617 90.0444 276.196 89.6078C274.774 89.1713 273.278 89.0277 271.799 89.1858L250.404 91.5029Z" fill="#B78876"/>
<path d="M279.937 105.405C279.94 105.753 279.806 106.089 279.566 106.34C279.325 106.591 278.995 106.739 278.648 106.751C278.478 106.765 278.307 106.744 278.145 106.691C277.983 106.637 277.833 106.552 277.705 106.439C277.577 106.327 277.473 106.19 277.399 106.036C277.325 105.883 277.282 105.716 277.274 105.545C277.269 105.198 277.4 104.863 277.64 104.612C277.879 104.36 278.207 104.212 278.554 104.2C278.725 104.186 278.896 104.206 279.059 104.26C279.221 104.313 279.371 104.399 279.5 104.511C279.629 104.623 279.734 104.76 279.809 104.914C279.884 105.068 279.928 105.235 279.937 105.405Z" fill="#263238"/>
<path d="M282.086 103.91C281.918 104.078 280.909 103.331 279.47 103.331C278.031 103.331 276.975 104.06 276.826 103.882C276.676 103.705 276.91 103.49 277.377 103.154C277.999 102.728 278.735 102.5 279.489 102.5C280.237 102.499 280.966 102.734 281.572 103.172C282.03 103.509 282.179 103.826 282.086 103.91Z" fill="#263238"/>
<path d="M266.091 105.405C266.093 105.753 265.96 106.089 265.719 106.34C265.478 106.591 265.149 106.739 264.801 106.751C264.632 106.762 264.462 106.74 264.301 106.686C264.14 106.631 263.992 106.545 263.864 106.433C263.737 106.321 263.632 106.185 263.558 106.033C263.483 105.881 263.439 105.715 263.428 105.545C263.423 105.197 263.555 104.86 263.797 104.608C264.038 104.357 264.369 104.21 264.717 104.2C264.887 104.186 265.058 104.206 265.22 104.26C265.382 104.313 265.531 104.399 265.66 104.511C265.788 104.624 265.892 104.761 265.966 104.915C266.04 105.068 266.082 105.235 266.091 105.405Z" fill="#263238"/>
<path d="M267.978 104.172C267.81 104.349 266.791 103.602 265.362 103.602C263.933 103.602 262.867 104.331 262.709 104.153C262.55 103.976 262.802 103.761 263.26 103.425C263.884 102.997 264.624 102.769 265.381 102.771C266.129 102.77 266.858 103.005 267.464 103.443C267.903 103.761 268.071 104.097 267.978 104.172Z" fill="#263238"/>
<path d="M273.191 114.832C273.949 114.595 274.734 114.454 275.527 114.412C275.891 114.412 276.237 114.3 276.303 114.047C276.333 113.67 276.249 113.292 276.06 112.964L274.967 110.161C273.462 106.181 272.369 102.911 272.537 102.845C272.706 102.78 274.042 105.966 275.555 109.946C275.92 110.927 276.265 111.861 276.592 112.749C276.826 113.19 276.893 113.701 276.779 114.188C276.726 114.317 276.645 114.433 276.542 114.526C276.438 114.62 276.315 114.69 276.181 114.73C275.976 114.782 275.766 114.81 275.555 114.814C274.771 114.921 273.977 114.927 273.191 114.832Z" fill="#263238"/>
<path d="M274.182 131.846C269.276 131.915 264.447 130.622 260.233 128.109C260.233 128.109 263.615 135.266 274.042 134.294L274.182 131.846Z" fill="#AA6550"/>
<path d="M272.584 118.299C272.306 117.96 271.947 117.697 271.541 117.533C271.134 117.37 270.693 117.312 270.258 117.364C269.941 117.392 269.633 117.484 269.354 117.635C269.074 117.786 268.829 117.993 268.632 118.243C268.438 118.48 268.322 118.772 268.3 119.078C268.278 119.384 268.352 119.69 268.51 119.952C268.741 120.206 269.041 120.387 269.373 120.472C269.705 120.557 270.055 120.542 270.379 120.429C271.068 120.191 271.703 119.82 272.248 119.336C272.405 119.214 272.544 119.069 272.659 118.906C272.712 118.827 272.74 118.735 272.74 118.64C272.74 118.545 272.712 118.452 272.659 118.373" fill="#AA6550"/>
<path d="M269.006 115.832C269.239 115.832 269.239 117.374 270.575 118.486C271.911 119.597 273.574 119.42 273.584 119.635C273.593 119.85 273.219 119.943 272.519 119.962C271.604 119.97 270.716 119.66 270.005 119.084C269.328 118.526 268.89 117.73 268.782 116.86C268.679 116.206 268.856 115.823 269.006 115.832Z" fill="#263238"/>
<path d="M258.878 86.6258C258.878 86.495 259.046 86.4296 259.13 86.467C259.214 86.5043 259.252 86.6351 259.196 86.7659C259.178 86.8189 259.142 86.8635 259.094 86.8912C259.045 86.9188 258.988 86.9275 258.934 86.9154C258.889 86.8834 258.859 86.8356 258.848 86.7818C258.838 86.7279 258.849 86.6721 258.878 86.6258Z" fill="#263238"/>
<path d="M249.853 140.778C251.38 140.201 252.765 139.302 253.914 138.141C255.062 136.98 255.945 135.585 256.505 134.051C257.601 130.955 257.68 127.59 256.729 124.446C256.318 122.998 255.739 121.41 256.374 120.046C256.967 119.125 257.739 118.334 258.644 117.719C260.428 115.996 261.484 113.656 261.597 111.179C261.692 108.71 261.242 106.251 260.279 103.976C259.784 102.714 259.186 101.331 259.644 100.061C260.064 99.1943 260.685 98.4413 261.457 97.8652C262.938 96.4749 264.163 94.8332 265.072 93.0162C265.708 91.7362 266.184 90.2133 265.567 88.8959C264.811 87.3263 262.849 86.8405 261.12 86.7097C256.991 86.392 252.431 87.3076 249.806 90.5029C247.461 93.3619 247.19 97.3514 247.003 101.061C246.48 112.721 245.957 124.502 247.937 136.003" fill="#263238"/>
<path d="M287.897 90.3448C287.322 90.6925 286.726 91.0045 286.113 91.2791C285.573 91.6693 285.07 92.1071 284.609 92.5871C284.338 92.8488 284.048 93.1384 283.786 93.4374L283.599 93.6616L283.301 93.9606L282.581 94.6426C281.887 95.289 281.14 95.8765 280.348 96.3991C279.177 97.2152 277.866 97.8105 276.48 98.1556C273.816 98.7505 271.028 98.421 268.576 97.2213C266.885 96.4076 265.403 95.2189 264.241 93.7457C262.466 91.3819 262.195 89.4666 263.007 88.4295C263.82 87.3924 265.885 87.4952 268.184 88.1025C269.303 88.3941 270.438 88.6187 271.584 88.7752C272.485 88.9041 273.401 88.8788 274.294 88.7005C274.731 88.6019 275.154 88.4513 275.555 88.252C276.144 87.9904 276.873 87.6073 277.713 87.2056C278.134 87.0094 278.573 86.8132 279.049 86.6263C279.283 86.5329 279.535 86.4488 279.778 86.3647C280.021 86.2806 280.329 86.1778 280.6 86.1124C281.618 85.8483 282.674 85.763 283.721 85.8602C284.552 85.8918 285.365 86.1077 286.102 86.4923C286.838 86.8769 287.48 87.4205 287.981 88.0838C288.243 88.4071 288.379 88.8143 288.364 89.2301C288.348 89.6459 288.183 90.0419 287.897 90.3448Z" fill="#263238"/>
<path d="M235.259 147.954C235.206 147.907 235.156 147.857 235.109 147.804C234.968 147.65 234.837 147.488 234.717 147.318C234.244 146.671 233.887 145.947 233.661 145.179C233.312 143.964 233.248 142.685 233.474 141.441C233.806 139.765 234.695 138.25 235.997 137.144C237.389 135.873 239.211 134.92 240.883 133.593C241.754 132.921 242.5 132.102 243.088 131.173C243.698 130.199 243.946 129.042 243.789 127.903C243.471 125.549 241.528 123.484 241.36 120.663C241.292 119.241 241.634 117.829 242.347 116.597C243.059 115.364 244.111 114.362 245.377 113.711C246.635 113.17 247.829 112.49 248.937 111.684C249.419 111.257 249.798 110.727 250.045 110.133C250.293 109.54 250.402 108.897 250.366 108.255C250.303 106.984 249.985 105.739 249.432 104.593C248.89 103.462 248.236 102.388 247.676 101.294C247.098 100.227 246.7 99.0719 246.498 97.875C246.346 96.721 246.491 95.5473 246.919 94.4648C247.712 92.5575 249.098 90.9558 250.871 89.896C252.327 89.0406 253.936 88.4788 255.608 88.2423C256.845 88.0594 258.095 87.9782 259.345 87.9994C260.382 87.9994 261.214 88.0741 261.718 88.1208L262.335 88.1862C262.475 88.1862 262.54 88.1862 262.54 88.1862C262.267 88.2048 261.992 88.2048 261.718 88.1862C261.176 88.1862 260.373 88.1862 259.345 88.1862C258.093 88.1922 256.843 88.2984 255.608 88.5039C253.985 88.7614 252.428 89.3292 251.02 90.1763C249.334 91.2161 248.025 92.7679 247.283 94.6049C246.891 95.6214 246.762 96.7206 246.909 97.8002C247.113 98.9496 247.504 100.058 248.068 101.08C248.619 102.154 249.283 103.219 249.843 104.387C250.444 105.586 250.791 106.897 250.862 108.236C250.905 108.947 250.785 109.658 250.512 110.316C250.238 110.973 249.818 111.56 249.283 112.03C248.151 112.87 246.925 113.576 245.63 114.132C244.444 114.748 243.461 115.692 242.798 116.852C242.135 118.012 241.821 119.338 241.892 120.672C242.014 123.269 243.929 125.343 244.284 127.866C244.454 129.107 244.179 130.368 243.509 131.426C242.889 132.392 242.105 133.243 241.192 133.939C239.454 135.294 237.641 136.209 236.286 137.424C235.019 138.468 234.143 139.91 233.801 141.516C233.552 142.732 233.587 143.988 233.904 145.188C234.195 146.18 234.653 147.116 235.259 147.954Z" fill="#455A64"/>
<path d="M293.372 145.945C293.596 145.829 293.794 145.669 293.955 145.475C294.116 145.281 294.235 145.056 294.307 144.814C294.453 144.253 294.411 143.658 294.185 143.123C293.838 142.435 293.303 141.859 292.643 141.46C291.924 140.965 291.037 140.573 290.149 139.965C289.65 139.665 289.223 139.258 288.9 138.773C288.577 138.289 288.365 137.739 288.28 137.162C288.253 135.872 288.672 134.611 289.467 133.593C290.214 132.519 291.186 131.603 291.933 130.519C292.699 129.505 293.035 128.229 292.868 126.969C292.651 125.797 292.161 124.693 291.438 123.746C290.093 121.877 288.42 120.513 287.365 119.074C286.441 117.982 285.825 116.663 285.58 115.253C285.526 114.872 285.526 114.485 285.58 114.104C285.58 113.842 285.655 113.702 285.674 113.711C285.664 114.217 285.692 114.723 285.758 115.225C286.064 116.575 286.706 117.825 287.626 118.859C288.691 120.251 290.373 121.569 291.793 123.531C292.567 124.534 293.092 125.705 293.326 126.95C293.428 127.627 293.39 128.317 293.213 128.978C293.013 129.65 292.697 130.283 292.279 130.846C291.494 131.996 290.513 132.911 289.794 133.92C289.061 134.849 288.666 135.998 288.673 137.181C288.746 137.701 288.935 138.197 289.224 138.635C289.513 139.073 289.896 139.441 290.345 139.713C291.177 140.302 292.064 140.722 292.793 141.245C293.498 141.7 294.056 142.349 294.4 143.114C294.638 143.711 294.655 144.374 294.447 144.982C294.332 145.367 294.083 145.698 293.746 145.917C293.626 145.957 293.497 145.967 293.372 145.945Z" fill="#455A64"/>
<path d="M288.626 86.0839C288.626 86.0839 288.626 86.196 288.626 86.4109C288.624 86.725 288.59 87.0381 288.523 87.3452C288.293 88.4881 287.731 89.5377 286.907 90.363C286.295 90.9828 285.551 91.458 284.732 91.7538C283.912 92.0496 283.037 92.1586 282.17 92.0728C281.134 91.9963 280.136 91.6518 279.274 91.073C278.405 90.4178 277.626 89.6514 276.957 88.7934C276.306 87.9763 275.549 87.2504 274.705 86.6351C273.909 86.0795 273.033 85.6479 272.108 85.3551C270.53 84.8639 268.849 84.8026 267.24 85.1776C266.15 85.4374 265.112 85.8763 264.166 86.4763C263.493 86.9061 263.157 87.1957 263.138 87.1677C263.398 86.8322 263.714 86.5445 264.073 86.3175C265.001 85.6369 266.051 85.1391 267.165 84.8506C268.834 84.4053 270.593 84.4312 272.248 84.9253C273.222 85.2219 274.145 85.6662 274.985 86.2427C275.869 86.8752 276.661 87.6267 277.34 88.4757C277.981 89.3015 278.726 90.0424 279.554 90.6806C280.35 91.2086 281.265 91.5297 282.217 91.6149C283.026 91.7022 283.845 91.612 284.617 91.3506C285.388 91.0892 286.093 90.6629 286.683 90.1014C287.482 89.3342 288.059 88.366 288.355 87.2985C288.551 86.5323 288.551 86.0839 288.626 86.0839Z" fill="#455A64"/>
<path d="M268.342 98.5381C268.202 98.9305 266.763 98.7437 265.082 98.9492C263.4 99.1547 262.036 99.6125 261.812 99.2669C261.709 99.0987 261.942 98.725 262.494 98.3326C263.227 97.8687 264.057 97.578 264.92 97.4825C265.783 97.387 266.656 97.4892 267.473 97.7813C268.071 98.0523 268.408 98.3606 268.342 98.5381Z" fill="#263238"/>
<path d="M281.572 99.7434C281.32 100.07 280.329 99.7434 279.143 99.7434C277.956 99.7434 276.938 99.9676 276.704 99.6219C276.611 99.4538 276.77 99.1268 277.209 98.8184C277.797 98.4373 278.49 98.251 279.19 98.2859C279.886 98.3019 280.561 98.53 281.124 98.9399C281.544 99.2482 281.684 99.5846 281.572 99.7434Z" fill="#263238"/>
<path d="M240.883 197.491C241.388 198.359 237.697 185.924 237.697 185.924L234.605 197.285L211.668 197.453C211.668 197.453 224.626 155.092 230.783 149.178C238.818 141.46 253.879 141.04 253.879 141.04L262.895 148.729L277.134 141.414L277.657 141.47C282.325 142.044 286.779 143.764 290.621 146.477C294.463 149.189 297.575 152.81 299.679 157.017L315.123 197.033H294.736L290.382 185.223L291.84 197.033" fill="#257CFF"/>
<path d="M246.582 141.956L267.249 188.97L277.695 141.47C277.695 141.47 274.798 141.302 270.659 141.143C268.37 141.059 265.698 150.112 262.933 150.065C261.157 150.065 259.354 140.881 257.57 140.891C255.318 140.891 253.122 140.891 251.123 141.04C249.385 141.134 247.862 141.834 246.582 141.956Z" fill="#FAFAFA"/>
<path d="M250.469 142.394V138.078C250.469 138.078 262.783 138.246 262.998 148.103C262.998 148.103 264.745 138.386 274.686 138.078L275.322 141.385L272.519 152.718L265.343 157.492H255.673L251.674 152.232L250.469 142.394Z" fill="#FAFAFA"/>
<path d="M267.072 190.221C267.09 190.042 267.131 189.866 267.193 189.698C267.35 189.201 267.55 188.72 267.791 188.259C268.189 187.536 268.679 186.867 269.249 186.269C269.903 185.559 270.687 184.811 271.482 183.924C273.459 181.937 275.185 179.716 276.62 177.309C277.402 175.869 277.852 174.273 277.938 172.637C278.064 170.887 277.556 169.149 276.508 167.742L276.181 167.321H276.723C276.931 167.344 277.141 167.344 277.349 167.321C278.21 167.143 278.977 166.659 279.507 165.957C280.036 165.269 280.374 164.454 280.488 163.593C280.616 161.914 280.487 160.226 280.105 158.585C279.573 155.371 279.087 152.475 278.685 150.018C278.283 147.561 277.994 145.673 277.751 144.244C277.667 143.599 277.592 143.085 277.526 142.665C277.494 142.483 277.478 142.299 277.48 142.114C277.549 142.288 277.599 142.47 277.629 142.656C277.704 143.057 277.816 143.59 277.938 144.207C278.209 145.636 278.573 147.579 279.012 149.962L280.535 158.501C280.945 160.191 281.084 161.935 280.946 163.668C280.828 164.612 280.457 165.506 279.872 166.256C279.272 167.057 278.396 167.606 277.414 167.798C277.169 167.825 276.922 167.825 276.676 167.798L276.882 167.405C278.004 168.902 278.545 170.754 278.405 172.619C278.311 174.326 277.832 175.991 277.003 177.486C275.533 179.916 273.759 182.149 271.724 184.129C270.902 185.008 270.099 185.746 269.435 186.428C268.864 186.988 268.362 187.616 267.941 188.296C267.296 189.502 267.137 190.24 267.072 190.221Z" fill="#263238"/>
<path d="M267.072 189.82C266.926 189.693 266.797 189.549 266.689 189.39L265.633 188.128C264.699 187.035 263.362 185.484 261.653 183.597C259.943 181.71 257.915 179.458 255.832 176.767C254.707 175.384 253.739 173.88 252.945 172.283C252.078 170.501 251.953 168.448 252.599 166.574C252.702 166.322 252.824 166.079 252.964 165.845L253.085 166.2C251.289 165.551 249.692 164.447 248.451 162.996C247.306 161.671 246.408 160.152 245.798 158.511C244.816 155.739 244.425 152.792 244.648 149.859C244.772 147.904 245.006 145.958 245.349 144.029C245.471 143.394 245.564 142.88 245.648 142.469C245.668 142.284 245.712 142.101 245.779 141.927C245.8 142.114 245.8 142.302 245.779 142.488C245.723 142.899 245.657 143.422 245.573 144.057C245.405 145.431 245.116 147.412 245.031 149.878C244.853 152.756 245.266 155.64 246.246 158.352C246.851 159.939 247.73 161.406 248.843 162.687C250.029 164.065 251.547 165.117 253.253 165.743L253.524 165.836L253.375 166.098C253.255 166.31 253.146 166.528 253.048 166.752C252.454 168.505 252.574 170.422 253.384 172.086C254.151 173.657 255.091 175.136 256.187 176.496C258.205 179.178 260.233 181.439 261.905 183.364C263.577 185.288 264.904 186.876 265.773 188.035C266.212 188.605 266.539 189.044 266.754 189.362C266.877 189.502 266.983 189.656 267.072 189.82Z" fill="#263238"/>
<path d="M266.847 197.387C266.637 195.993 266.59 194.579 266.707 193.174C266.671 191.766 266.79 190.359 267.062 188.979C267.309 191.781 267.237 194.601 266.847 197.387Z" fill="#263238"/>
<path d="M237.099 188.727C237.199 188.18 237.334 187.64 237.501 187.11C237.772 186.073 238.164 184.569 238.538 182.691C239.51 177.803 239.887 172.815 239.659 167.836C239.578 165.101 239.208 162.383 238.557 159.726C238.029 157.561 237.038 155.537 235.651 153.793C234.715 152.623 233.56 151.645 232.25 150.916C231.316 150.411 230.727 150.252 230.746 150.206C230.889 150.222 231.03 150.253 231.166 150.299C231.568 150.414 231.959 150.564 232.334 150.747C233.714 151.42 234.936 152.375 235.922 153.55C237.374 155.314 238.423 157.374 238.996 159.586C239.676 162.274 240.061 165.027 240.145 167.798C240.381 172.816 239.954 177.842 238.874 182.747C238.454 184.616 238.015 186.12 237.688 187.148C237.52 187.652 237.37 188.082 237.277 188.316C237.183 188.549 237.118 188.783 237.099 188.727Z" fill="#263238"/>
<path d="M290.56 181.112C290.499 180.594 290.477 180.073 290.495 179.552C290.495 178.543 290.495 177.095 290.401 175.301C290.24 170.633 289.832 165.976 289.177 161.352C288.268 155.214 286.954 149.144 285.244 143.179L285.178 142.937L285.365 143.086C285.701 143.321 286.014 143.587 286.3 143.88C285.941 143.69 285.6 143.468 285.281 143.217L285.412 143.133C287.38 149.042 288.802 155.118 289.663 161.286C290.331 165.929 290.696 170.61 290.756 175.301C290.756 177.104 290.756 178.561 290.691 179.561C290.692 180.081 290.648 180.6 290.56 181.112Z" fill="#263238"/>
<path d="M260.709 142.516C260.709 142.562 260.475 142.516 260.158 142.768C259.742 143.123 259.421 143.576 259.224 144.085C258.334 145.782 257.779 147.635 257.588 149.542L257.523 150.149L257.149 149.654L256.477 148.719C254.916 146.692 253.384 144.982 252.254 143.712C251.602 143.079 250.999 142.398 250.45 141.675C251.199 142.199 251.889 142.804 252.506 143.478C254.067 145.025 255.522 146.677 256.86 148.42L257.542 149.355L257.103 149.467C257.321 147.505 257.959 145.612 258.971 143.917C259.232 143.374 259.64 142.914 260.148 142.59C260.457 142.413 260.718 142.497 260.709 142.516Z" fill="#263238"/>
<path d="M275.163 141.591C274.682 142.402 274.128 143.168 273.509 143.88C272.444 145.263 270.94 147.15 269.258 149.215L268.37 150.299L267.959 150.803V150.149C267.968 149.076 267.89 148.005 267.726 146.944C267.587 146.107 267.289 145.305 266.847 144.581C266.418 143.936 265.873 143.375 265.24 142.927C265.457 142.964 265.661 143.05 265.838 143.179C266.354 143.489 266.797 143.907 267.137 144.403C267.645 145.146 267.994 145.986 268.165 146.87C268.365 147.948 268.465 149.043 268.464 150.14L268.034 150L268.922 148.906C270.603 146.842 272.145 144.992 273.285 143.665C273.85 142.921 274.478 142.227 275.163 141.591Z" fill="#263238"/>
<path d="M266.661 187.848C266.547 187.334 266.472 186.813 266.436 186.288C266.315 185.195 266.165 183.765 265.979 182.027C265.614 178.421 265.156 173.441 264.67 167.938C264.185 162.435 263.736 157.455 263.493 153.839C263.372 152.102 263.278 150.663 263.194 149.57C263.149 149.044 263.149 148.516 263.194 147.991C263.309 148.505 263.387 149.026 263.428 149.551C263.54 150.644 263.689 152.074 263.876 153.811C264.241 157.418 264.708 162.398 265.194 167.901C265.68 173.404 266.128 178.384 266.362 181.99C266.483 183.737 266.586 185.176 266.661 186.269C266.706 186.794 266.706 187.323 266.661 187.848Z" fill="#263238"/>
<path d="M266.689 156.577C266.689 156.53 267.034 156.297 267.539 156.633C267.684 156.733 267.803 156.865 267.888 157.019C267.972 157.173 268.019 157.345 268.025 157.521C268.004 157.742 267.918 157.952 267.779 158.126C267.64 158.299 267.453 158.428 267.241 158.496C267.03 158.565 266.803 158.57 266.588 158.511C266.374 158.452 266.182 158.332 266.035 158.165C265.935 158.021 265.871 157.855 265.848 157.681C265.825 157.507 265.845 157.331 265.904 157.166C266.119 156.596 266.567 156.558 266.558 156.614C266.548 156.67 266.306 156.829 266.24 157.25C266.218 157.36 266.22 157.474 266.246 157.584C266.272 157.693 266.321 157.796 266.39 157.885C266.478 157.977 266.592 158.041 266.716 158.069C266.841 158.098 266.971 158.089 267.09 158.044C267.215 158.011 267.328 157.942 267.414 157.846C267.501 157.749 267.557 157.63 267.576 157.502C267.578 157.39 267.557 157.279 267.513 157.176C267.47 157.073 267.405 156.981 267.324 156.904C267.016 156.596 266.698 156.652 266.689 156.577Z" fill="#263238"/>
<path d="M268.482 168.228C268.482 168.172 268.894 168.022 269.314 168.471C269.438 168.6 269.529 168.758 269.578 168.931C269.627 169.103 269.633 169.286 269.594 169.461C269.528 169.682 269.392 169.876 269.207 170.014C269.022 170.152 268.797 170.227 268.567 170.227C268.337 170.248 268.107 170.194 267.912 170.073C267.716 169.951 267.565 169.769 267.483 169.554C267.427 169.382 267.415 169.199 267.448 169.022C267.481 168.844 267.557 168.677 267.67 168.536C268.053 168.059 268.511 168.172 268.473 168.228C268.436 168.284 268.155 168.34 267.959 168.732C267.902 168.832 267.867 168.943 267.857 169.058C267.848 169.172 267.863 169.288 267.903 169.396C267.962 169.513 268.055 169.609 268.171 169.67C268.286 169.732 268.418 169.757 268.548 169.741C268.679 169.745 268.809 169.709 268.919 169.637C269.029 169.565 269.115 169.461 269.165 169.339C269.192 169.229 269.196 169.113 269.177 169.001C269.157 168.888 269.115 168.781 269.052 168.685C268.809 168.274 268.482 168.228 268.482 168.228Z" fill="#263238"/>
<g opacity="0.3">
<path opacity="0.3" d="M245.368 142.516C243.621 148.729 241.967 155.764 245.218 161.342C246.153 163.024 247.573 164.453 248.488 166.172C250.067 169.115 250.17 172.609 251.151 175.795C253.123 182.251 260.167 188.53 266.847 189.511C263.4 185.316 258.065 179.85 254.888 175.095C253.878 173.855 253.134 172.421 252.702 170.881C252.31 169.153 252.02 167.321 253.169 165.967C248.703 165.275 246.162 160.66 245.359 156.212C244.616 151.741 244.804 147.164 245.91 142.768" fill="black"/>
</g>
<g opacity="0.3">
<path opacity="0.3" d="M290.747 175.562C289.635 182.233 290.383 190.978 294.484 196.36C295.988 189.035 295.241 179.458 290.747 173.451" fill="black"/>
</g>
<path d="M181.564 93.7642H71.7466V277.242H181.564V93.7642Z" fill="#F5F5F5"/>
<path d="M100.878 201.807L102.055 204.189L104.69 204.572L102.784 206.422L103.233 209.047L100.878 207.814L98.5237 209.047L98.9815 206.422L97.0755 204.572L99.7009 204.189L100.878 201.807Z" fill="#257CFF"/>
<path d="M113.958 201.807L115.136 204.189L117.77 204.572L115.864 206.422L116.313 209.047L113.958 207.814L111.604 209.047L112.052 206.422L110.146 204.572L112.781 204.189L113.958 201.807Z" fill="#257CFF"/>
<path d="M127.029 201.807L128.206 204.189L130.841 204.572L128.935 206.422L129.384 209.047L127.029 207.814L124.684 209.047L125.133 206.422L123.227 204.572L125.852 204.189L127.029 201.807Z" fill="#257CFF"/>
<path d="M140.109 201.807L141.287 204.189L143.921 204.572L142.015 206.422L142.464 209.047L140.109 207.814L137.755 209.047L138.203 206.422L136.298 204.572L138.932 204.189L140.109 201.807Z" fill="#257CFF"/>
<path d="M153.18 201.807L154.358 204.189L156.992 204.572L155.086 206.422L155.535 209.047L153.18 207.814L150.826 209.047L151.284 206.422L149.378 204.572L152.012 204.189L153.18 201.807Z" fill="#257CFF"/>
<path d="M122.171 223.351C122.171 223.482 113.837 223.594 103.55 223.594C93.2636 223.594 84.9483 223.445 84.9483 223.351C84.9483 223.258 93.2916 223.108 103.569 223.108C113.846 223.108 122.171 223.174 122.171 223.351Z" fill="#257CFF"/>
<path d="M168.97 231.396C168.97 231.527 150.377 231.639 127.44 231.639C104.503 231.639 85.9106 231.527 85.9106 231.396C85.9106 231.265 104.503 231.153 127.44 231.153C150.377 231.153 168.97 231.265 168.97 231.396Z" fill="#263238"/>
<path d="M168.97 238.347C168.97 238.478 150.377 238.59 127.44 238.59C104.503 238.59 85.9106 238.478 85.9106 238.347C85.9106 238.216 104.503 238.095 127.44 238.095C150.377 238.095 168.97 238.207 168.97 238.347Z" fill="#263238"/>
<path d="M168.97 245.289C168.97 245.42 150.377 245.532 127.44 245.532C104.503 245.532 85.9106 245.42 85.9106 245.289C85.9106 245.158 104.503 245.046 127.44 245.046C150.377 245.046 168.97 245.158 168.97 245.289Z" fill="#263238"/>
<path d="M168.97 252.24C168.97 252.371 150.377 252.483 127.44 252.483C104.503 252.483 85.9106 252.371 85.9106 252.24C85.9106 252.109 104.503 251.997 127.44 251.997C150.377 251.997 168.97 252.1 168.97 252.24Z" fill="#263238"/>
<path d="M168.97 259.182C168.97 259.322 150.377 259.425 127.44 259.425C104.503 259.425 85.8826 259.322 85.8826 259.182C85.8826 259.042 104.475 258.939 127.412 258.939C150.349 258.939 168.97 259.051 168.97 259.182Z" fill="#263238"/>
<path d="M173.399 103.079H78.8006V193.893H173.399V103.079Z" fill="#E0E0E0"/>
<path d="M131.906 148.084C131.906 150.448 132.121 151.821 132.14 154.204C132.105 154.497 132.132 154.795 132.221 155.077C132.309 155.358 132.457 155.618 132.654 155.839C132.86 155.979 133.101 156.06 133.35 156.072C133.599 156.083 133.846 156.025 134.065 155.904C134.497 155.654 134.872 155.317 135.167 154.914C137.788 151.685 139.368 147.736 139.698 143.59C139.734 143.416 139.735 143.236 139.702 143.061C139.668 142.887 139.6 142.72 139.502 142.572C139.128 142.142 138.437 142.301 137.923 142.572C135.365 143.72 133.253 145.672 131.906 148.131" fill="#263238"/>
<path d="M116.023 119.831L116.07 122.185L116.546 157.502C116.592 158.504 116.836 159.487 117.264 160.394C117.692 161.301 118.296 162.114 119.041 162.786C119.786 163.458 120.656 163.975 121.603 164.308C122.549 164.641 123.552 164.782 124.553 164.724C128.991 164.631 132.588 161.202 132.607 157.054C132.607 152.709 132.71 148.131 132.71 148.131C132.71 148.131 138.316 147.197 139.474 139.9C140.044 136.265 139.867 130.305 139.558 125.437C139.493 124.398 139.219 123.382 138.751 122.452C138.284 121.522 137.633 120.696 136.838 120.024C136.042 119.351 135.119 118.847 134.124 118.541C133.129 118.235 132.082 118.134 131.047 118.243L116.023 119.831Z" fill="#FFBE9D"/>
<path d="M136.746 129.585C136.746 129.833 136.647 130.07 136.472 130.246C136.297 130.421 136.059 130.519 135.812 130.519C135.579 130.52 135.355 130.435 135.182 130.279C135.009 130.124 134.901 129.91 134.877 129.678C134.877 129.431 134.976 129.193 135.151 129.018C135.326 128.843 135.564 128.744 135.812 128.744C136.044 128.743 136.269 128.828 136.441 128.984C136.614 129.139 136.723 129.354 136.746 129.585Z" fill="#263238"/>
<path d="M138.269 128.529C138.147 128.66 137.437 128.128 136.4 128.137C135.363 128.146 134.653 128.642 134.532 128.52C134.41 128.399 134.588 128.24 134.915 128.006C135.352 127.706 135.87 127.546 136.4 127.548C136.924 127.544 137.434 127.708 137.858 128.016C138.203 128.258 138.325 128.483 138.269 128.529Z" fill="#263238"/>
<path d="M126.992 129.585C126.992 129.833 126.893 130.07 126.718 130.246C126.543 130.421 126.305 130.519 126.058 130.519C125.825 130.52 125.601 130.435 125.428 130.279C125.255 130.124 125.147 129.91 125.123 129.678C125.123 129.431 125.222 129.193 125.397 129.018C125.572 128.843 125.81 128.744 126.058 128.744C126.29 128.743 126.515 128.828 126.687 128.984C126.86 129.139 126.969 129.354 126.992 129.585Z" fill="#263238"/>
<path d="M128.356 128.726C128.234 128.847 127.524 128.315 126.487 128.324C125.45 128.333 124.74 128.829 124.619 128.707C124.497 128.586 124.675 128.427 125.002 128.193C125.439 127.893 125.957 127.733 126.487 127.735C127.012 127.734 127.523 127.901 127.945 128.212C128.3 128.445 128.412 128.67 128.356 128.726Z" fill="#263238"/>
<path d="M132.009 136.2C132.543 136.033 133.095 135.933 133.653 135.901C133.906 135.901 134.149 135.826 134.195 135.649C134.215 135.386 134.156 135.122 134.027 134.892C133.784 134.266 133.532 133.612 133.261 132.93C132.557 131.268 131.985 129.553 131.551 127.801C132.393 129.4 133.102 131.066 133.672 132.781L134.401 134.752C134.56 135.063 134.606 135.42 134.532 135.761C134.498 135.853 134.441 135.935 134.368 136C134.295 136.066 134.207 136.112 134.111 136.135C133.969 136.177 133.821 136.199 133.672 136.2C133.12 136.271 132.561 136.271 132.009 136.2Z" fill="#263238"/>
<path d="M132.71 148.131C129.271 148.184 125.884 147.281 122.928 145.524C122.928 145.524 125.301 150.541 132.607 149.859L132.71 148.131Z" fill="#EB996E"/>
<path d="M131.589 138.629C131.393 138.391 131.141 138.205 130.856 138.087C130.57 137.97 130.26 137.925 129.954 137.957C129.732 137.978 129.517 138.043 129.321 138.149C129.125 138.255 128.953 138.399 128.814 138.573C128.676 138.739 128.594 138.943 128.579 139.158C128.564 139.372 128.617 139.586 128.73 139.769C128.891 139.952 129.104 140.082 129.341 140.142C129.578 140.202 129.827 140.189 130.056 140.105C130.532 139.937 130.97 139.676 131.346 139.339C131.456 139.254 131.553 139.153 131.635 139.04C131.672 138.985 131.692 138.92 131.692 138.854C131.692 138.787 131.672 138.722 131.635 138.667" fill="#EB996E"/>
<path d="M129.047 136.901C129.206 136.901 129.216 137.984 130.15 138.769C131.084 139.554 132.252 139.423 132.261 139.582C132.271 139.741 132 139.788 131.505 139.806C130.864 139.815 130.242 139.597 129.748 139.19C129.267 138.803 128.959 138.242 128.888 137.629C128.86 137.162 128.973 136.891 129.047 136.901Z" fill="#263238"/>
<path d="M126.992 119.224C127.766 119.45 128.43 119.952 128.86 120.635C129.279 121.307 129.747 121.948 130.262 122.55C130.896 123.176 131.712 123.586 132.593 123.72C133.474 123.854 134.375 123.706 135.167 123.297C135.756 123.867 136.531 124.475 137.316 124.232C137.538 124.142 137.734 123.998 137.885 123.811C138.035 123.625 138.135 123.403 138.175 123.167C138.248 122.689 138.177 122.201 137.97 121.765C137.204 119.981 135.232 119.028 133.298 118.654C130.972 118.205 128.567 118.392 126.338 119.196" fill="#263238"/>
<path d="M109.352 194.192C109.698 194.799 107.11 186.073 107.11 186.073L104.942 194.042L88.8536 194.164C88.8536 194.164 97.9444 164.444 102.261 160.295C107.867 154.877 118.462 154.587 118.462 154.587L134.784 154.849H135.148C138.426 155.254 141.553 156.464 144.249 158.372C146.945 160.279 149.128 162.824 150.602 165.78L161.43 193.856H147.126L144.08 185.568L145.099 193.856" fill="#263238"/>
<path d="M142.156 153.886C141.66 152.709 139.867 152.756 139.082 151.756C138.297 150.756 138.979 149.103 139.624 147.86C142.716 141.899 142.427 134.78 141.838 128.109C141.595 125.241 141.305 122.316 140.063 119.7C137.587 114.524 131.598 110.432 124.18 110.768C118.116 111.002 113.501 116.468 110.221 121.578C106.942 126.689 105.195 134.658 106.269 140.666C106.811 143.656 110.006 145.963 109.446 148.944C109.072 150.813 107.11 153.074 107.493 154.951C108.016 157.511 111.735 158.399 113.912 159.857C116.078 161.452 118.106 163.228 119.975 165.163C121.858 167.098 124.128 168.614 126.637 169.611C129.187 170.47 132.243 170.311 134.298 168.602C137.69 165.799 137.363 160.258 140.446 157.138C141.343 156.213 142.669 155.148 142.156 153.886ZM137.372 121.578C138.615 123.447 138.717 125.867 139.007 128.118C139.611 131.881 139.655 135.713 139.138 139.489C138.606 143.286 136.867 146.81 134.177 149.542C132.821 150.886 131.157 151.878 129.33 152.432C127.503 152.986 125.568 153.084 123.694 152.718C119.536 151.784 118.2 148.047 117.023 143.983C115.846 139.919 118.471 136.135 119.639 132.033C120.573 128.866 120.882 124.4 122.928 121.821C124.974 119.242 128.365 119.065 129.365 119.112C129.365 119.102 134.877 117.822 137.372 121.578Z" fill="#257CFF"/>
<g opacity="0.3">
<path opacity="0.3" d="M107.867 151.952C110.333 153.288 112.267 155.409 114.276 157.371C116.285 159.333 118.518 161.239 121.237 161.94C123.955 162.64 127.263 161.809 128.618 159.352C124.727 159.917 120.761 159.145 117.366 157.163C113.972 155.181 111.35 152.105 109.932 148.439" fill="black"/>
</g>
<g opacity="0.3">
<path opacity="0.3" d="M138.68 150.205C138.423 151.177 137.965 152.083 137.335 152.867C136.706 153.651 135.92 154.294 135.027 154.755C134.603 154.928 134.207 155.161 133.85 155.447C133.673 155.592 133.544 155.788 133.479 156.007C133.414 156.227 133.416 156.461 133.485 156.68C133.617 156.901 133.821 157.07 134.062 157.158C134.304 157.246 134.569 157.249 134.812 157.166C135.291 156.978 135.72 156.68 136.064 156.297C137.409 154.998 138.811 153.587 139.194 151.756" fill="black"/>
</g>
<path d="M480.637 194.417C482.385 187.062 477.84 179.683 470.486 177.935C463.131 176.187 455.752 180.732 454.004 188.087C452.256 195.441 456.801 202.82 464.155 204.568C471.51 206.316 478.889 201.772 480.637 194.417Z" fill="#E0E0E0"/>
<path d="M465.209 197.069C465.787 196.413 466.429 195.816 467.124 195.285C468.357 194.238 470.077 192.809 472.001 191.249V191.622L471.908 191.538C470.039 189.894 468.32 188.39 467.106 187.278C466.426 186.714 465.8 186.089 465.237 185.409C465.986 185.883 466.692 186.42 467.348 187.016C468.619 188.063 470.348 189.529 472.244 191.174L472.338 191.249L472.562 191.445L472.328 191.622C470.413 193.183 468.656 194.575 467.376 195.556C466.698 196.121 465.973 196.627 465.209 197.069Z" fill="#263238"/>
<path d="M77.7019 194.927C79.4406 187.594 74.9058 180.241 67.5732 178.502C60.2405 176.763 52.8868 181.298 51.1481 188.631C49.4095 195.963 53.9443 203.317 61.2769 205.056C68.6095 206.794 75.9633 202.26 77.7019 194.927Z" fill="#E0E0E0"/>
<path d="M67.1965 185.409C66.6079 186.056 65.9639 186.65 65.2719 187.184C64.0386 188.24 62.3288 189.67 60.4042 191.23V190.856L60.5069 190.94C62.3755 192.585 64.0947 194.089 65.2999 195.201C65.9802 195.763 66.6059 196.389 67.1685 197.069C66.414 196.596 65.7041 196.055 65.0476 195.453C63.777 194.416 62.0485 192.949 60.1613 191.305L60.0585 191.221L59.8436 191.034L60.0678 190.847C61.9925 189.296 63.749 187.904 65.029 186.923C65.7001 186.348 66.4261 185.841 67.1965 185.409Z" fill="#263238"/>
<path d="M214.396 57.2797C196.054 67.0248 181.013 81.9897 171.175 100.282C161.338 118.575 157.145 139.374 159.127 160.049C161.109 180.724 169.177 200.348 182.311 216.438C195.444 232.529 213.054 244.363 232.914 250.446C249.061 255.385 266.162 256.355 282.764 253.273C299.366 250.19 314.979 243.147 328.278 232.741L416.784 343.456L430.322 332.665L341.068 221.016C351.648 209.513 359.515 195.785 364.09 180.841C365.202 177.212 366.119 173.525 366.836 169.798C370.564 150.34 368.713 130.225 361.497 111.775C354.28 93.3252 341.993 77.2921 326.054 65.527C310.114 53.762 291.173 46.7447 271.415 45.2854C251.658 43.8261 231.891 47.9842 214.396 57.2797ZM289.336 66.1836C308.738 72.1222 325.481 84.6046 336.712 101.504C347.943 118.403 352.966 138.674 350.926 158.862C348.887 179.05 339.91 197.906 325.526 212.218C311.142 226.529 292.241 235.411 272.043 237.348C251.845 239.286 231.599 234.16 214.757 222.844C197.915 211.528 185.517 194.722 179.676 175.29C173.836 155.858 174.914 135.002 182.727 116.276C190.54 97.5496 204.605 82.1118 222.524 72.5929C232.684 67.1601 243.82 63.7963 255.288 62.6962C266.756 61.596 278.329 62.7813 289.336 66.1836Z" fill="#455A64"/>
</g>
<defs>
<filter id="filter0_d_50_1149" x="0.776917" y="0" width="530.234" height="398.456" filterUnits="userSpaceOnUse" color-interpolation-filters="sRGB">
<feFlood flood-opacity="0" result="BackgroundImageFix"/>
<feColorMatrix in="SourceAlpha" type="matrix" values="0 0 0 0 0 0 0 0 0 0 0 0 0 0 0 0 0 0 127 0" result="hardAlpha"/>
<feOffset dy="5"/>
<feGaussianBlur stdDeviation="25"/>
<feComposite in2="hardAlpha" operator="out"/>
<feColorMatrix type="matrix" values="0 0 0 0 0.331875 0 0 0 0 0.459415 0 0 0 0 0.651458 0 0 0 0.4 0"/>
<feBlend mode="normal" in2="BackgroundImageFix" result="effect1_dropShadow_50_1149"/>
<feBlend mode="normal" in="SourceGraphic" in2="effect1_dropShadow_50_1149" result="shape"/>
</filter>
</defs>
</svg>
