<svg width="423" height="399" viewBox="0 0 423 399" fill="none" xmlns="http://www.w3.org/2000/svg">
<g filter="url(#filter0_d_50_1085)">
<path d="M322.529 297.447C322.403 297.521 309.184 277.082 293.008 251.78C276.831 226.479 263.812 205.893 263.939 205.819C264.065 205.745 277.273 226.205 293.418 251.465C309.563 276.724 322.603 297.363 322.529 297.447Z" fill="#D1D1D1"/>
<path d="M328.223 342.092C345.167 342.092 358.903 328.357 358.903 311.413C358.903 294.469 345.167 280.733 328.223 280.733C311.28 280.733 297.544 294.469 297.544 311.413C297.544 328.357 311.28 342.092 328.223 342.092Z" fill="white"/>
<path d="M297.544 311.455C297.544 311.455 297.544 311.286 297.544 310.96C297.544 310.634 297.544 310.118 297.596 309.497C297.596 309.171 297.596 308.813 297.596 308.445C297.596 308.076 297.702 307.624 297.765 307.161C297.89 306.096 298.091 305.04 298.365 304.003C299.052 301.105 300.18 298.329 301.712 295.773C303.933 291.978 306.94 288.701 310.53 286.162C314.12 283.623 318.211 281.88 322.529 281.049C323.819 280.808 325.124 280.653 326.434 280.586C327.097 280.586 327.771 280.491 328.444 280.502L330.497 280.607C331.203 280.627 331.907 280.701 332.602 280.828C333.286 280.933 333.991 281.017 334.707 281.154C337.539 281.797 340.28 282.794 342.863 284.122C343.516 284.48 344.147 284.891 344.8 285.269C345.45 285.653 346.073 286.082 346.663 286.553C349.195 288.363 351.407 290.583 353.209 293.121C355.14 295.698 356.637 298.575 357.64 301.635C359.766 307.973 359.766 314.831 357.64 321.169C356.631 324.234 355.135 327.116 353.209 329.705C352.275 330.963 351.259 332.158 350.167 333.283C349.065 334.355 347.891 335.351 346.652 336.262C346.062 336.733 345.44 337.163 344.789 337.546C344.137 337.935 343.505 338.345 342.853 338.693C341.552 339.375 340.205 339.966 338.822 340.461C337.471 340.951 336.089 341.351 334.685 341.661C334.001 341.808 333.296 341.882 332.58 341.997C331.885 342.125 331.182 342.199 330.476 342.219L328.423 342.313C327.75 342.313 327.076 342.261 326.413 342.229C325.099 342.166 323.791 342.011 322.498 341.766C318.2 340.939 314.126 339.21 310.547 336.691C306.967 334.173 303.963 330.924 301.733 327.158C300.205 324.601 299.076 321.825 298.386 318.927C298.114 317.89 297.913 316.835 297.786 315.77C297.723 315.296 297.649 314.875 297.618 314.475C297.586 314.076 297.618 313.728 297.618 313.423C297.618 312.802 297.618 312.318 297.565 311.96C297.512 311.602 297.565 311.465 297.565 311.465C297.565 311.465 297.565 311.634 297.618 311.96C297.67 312.286 297.67 312.792 297.712 313.412L297.786 314.465C297.786 314.854 297.912 315.286 297.975 315.749C298.121 316.815 298.339 317.87 298.628 318.906C299.343 321.771 300.489 324.511 302.027 327.031C304.256 330.735 307.242 333.925 310.789 336.394C314.337 338.862 318.367 340.553 322.614 341.355C323.886 341.589 325.173 341.736 326.466 341.798C327.129 341.798 327.781 341.882 328.455 341.871L330.465 341.766C331.147 341.745 331.826 341.671 332.496 341.545C333.18 341.429 333.865 341.355 334.549 341.208C335.923 340.897 337.276 340.5 338.601 340.019C339.961 339.526 341.287 338.943 342.568 338.272C343.21 337.924 343.831 337.514 344.463 337.135C345.107 336.759 345.722 336.337 346.305 335.872C347.519 334.975 348.669 333.994 349.746 332.936C350.823 331.831 351.822 330.653 352.735 329.41C354.629 326.856 356.097 324.013 357.082 320.99C359.166 314.764 359.166 308.03 357.082 301.804C356.097 298.781 354.629 295.938 352.735 293.384C351.826 292.141 350.83 290.963 349.757 289.858C348.675 288.806 347.525 287.825 346.315 286.922C345.733 286.457 345.117 286.035 344.473 285.659C343.842 285.28 343.221 284.88 342.579 284.522C341.299 283.851 339.973 283.27 338.611 282.786C337.289 282.296 335.935 281.895 334.559 281.586C333.875 281.449 333.191 281.365 332.507 281.26C331.837 281.13 331.158 281.053 330.476 281.028L328.465 280.923C327.802 280.923 327.139 280.986 326.476 281.007C325.187 281.062 323.903 281.21 322.635 281.449C318.383 282.241 314.347 283.928 310.797 286.397C307.246 288.866 304.26 292.062 302.038 295.773C300.498 298.293 299.352 301.033 298.638 303.898C298.348 304.934 298.13 305.989 297.986 307.056C297.923 307.519 297.839 307.94 297.796 308.34C297.754 308.74 297.744 309.087 297.723 309.392C297.723 310.013 297.649 310.445 297.628 310.855C297.607 311.265 297.544 311.455 297.544 311.455Z" fill="#D1D1D1"/>
<path d="M319.856 300.141L315.657 324.137L328.223 322.411L340.79 324.137L335.727 300.141H319.856Z" fill="#263238"/>
<path d="M333.528 300.457C333.433 300.457 333.18 299.594 332.475 298.352C332.098 297.616 331.588 296.956 330.97 296.405C330.596 296.11 330.181 295.869 329.739 295.689C329.254 295.523 328.746 295.438 328.234 295.437C327.234 295.388 326.241 295.625 325.371 296.121C324.692 296.583 324.151 297.219 323.803 297.963C323.171 299.247 322.961 300.141 322.866 300.12C322.898 299.312 323.099 298.52 323.456 297.794C323.786 296.948 324.357 296.216 325.097 295.689C326.042 295.102 327.144 294.819 328.255 294.879C328.83 294.883 329.399 294.986 329.939 295.184C330.438 295.383 330.901 295.664 331.307 296.016C331.957 296.624 332.476 297.358 332.833 298.173C333.215 298.88 333.452 299.657 333.528 300.457Z" fill="#263238"/>
<path d="M205.8 299.499C205.643 299.499 205.527 278.376 205.527 252.317C205.527 226.258 205.643 205.135 205.8 205.135C205.958 205.135 206.074 226.247 206.074 252.317C206.074 278.387 205.948 299.499 205.8 299.499Z" fill="#D1D1D1"/>
<path d="M205.169 342.776C222.113 342.776 235.848 329.041 235.848 312.097C235.848 295.153 222.113 281.417 205.169 281.417C188.225 281.417 174.49 295.153 174.49 312.097C174.49 329.041 188.225 342.776 205.169 342.776Z" fill="white"/>
<path d="M174.49 312.097C174.49 312.097 174.49 311.929 174.49 311.603C174.49 311.276 174.49 310.761 174.49 310.14C174.49 309.814 174.49 309.456 174.49 309.087C174.49 308.719 174.605 308.266 174.668 307.803C174.785 306.737 174.985 305.681 175.268 304.646C175.954 301.747 177.083 298.971 178.615 296.416C180.839 292.643 183.841 289.389 187.422 286.868C191.003 284.347 195.079 282.618 199.38 281.797C200.67 281.557 201.975 281.402 203.285 281.334C203.959 281.334 204.632 281.25 205.306 281.25L207.348 281.355C208.054 281.374 208.758 281.447 209.452 281.576C210.147 281.681 210.842 281.765 211.557 281.902C212.963 282.19 214.348 282.57 215.704 283.039C217.09 283.532 218.44 284.119 219.746 284.796C220.398 285.154 221.03 285.565 221.672 285.944C222.342 286.335 222.986 286.771 223.598 287.249C224.83 288.168 226.004 289.163 227.113 290.227C228.201 291.355 229.214 292.554 230.144 293.816C232.068 296.402 233.564 299.281 234.575 302.341C236.708 308.678 236.708 315.538 234.575 321.875C233.572 324.939 232.075 327.818 230.144 330.4C229.217 331.66 228.204 332.856 227.113 333.978C226.006 335.045 224.832 336.04 223.598 336.957C223.005 337.429 222.378 337.858 221.724 338.241C221.082 338.63 220.451 339.041 219.798 339.388C218.493 340.068 217.142 340.659 215.757 341.156C214.409 341.646 213.031 342.046 211.631 342.356C210.936 342.503 210.242 342.577 209.526 342.693C208.831 342.821 208.128 342.895 207.421 342.914L205.379 343.008C204.695 343.008 204.032 342.956 203.359 342.924C202.048 342.862 200.743 342.707 199.454 342.461C195.155 341.638 191.08 339.91 187.5 337.391C183.919 334.873 180.916 331.621 178.689 327.853C177.157 325.298 176.028 322.522 175.342 319.623C175.06 318.587 174.859 317.532 174.742 316.465C174.679 315.992 174.605 315.571 174.563 315.171C174.521 314.771 174.563 314.423 174.563 314.118C174.563 313.497 174.563 313.013 174.563 312.655C174.563 312.297 174.563 312.161 174.563 312.161C174.59 312.324 174.607 312.489 174.616 312.655C174.616 313.003 174.679 313.487 174.721 314.108C174.721 314.43 174.742 314.781 174.784 315.16C174.784 315.549 174.91 315.981 174.984 316.444C175.126 317.51 175.341 318.565 175.626 319.601C176.35 322.465 177.5 325.204 179.036 327.727C181.264 331.408 184.242 334.579 187.776 337.034C191.31 339.49 195.321 341.174 199.549 341.977C200.821 342.21 202.108 342.358 203.401 342.419C204.053 342.419 204.716 342.503 205.379 342.493L207.4 342.387C208.082 342.365 208.761 342.291 209.431 342.166C210.105 342.051 210.8 341.977 211.473 341.83C212.852 341.524 214.209 341.126 215.536 340.64C216.896 340.148 218.222 339.564 219.504 338.893C220.146 338.546 220.756 338.135 221.398 337.767C222.036 337.384 222.648 336.958 223.229 336.494C224.445 335.597 225.598 334.62 226.681 333.568C227.752 332.457 228.747 331.275 229.66 330.031C231.555 327.479 233.023 324.635 234.007 321.612C236.097 315.387 236.097 308.65 234.007 302.425C233.021 299.403 231.553 296.559 229.66 294.005C228.744 292.767 227.749 291.589 226.681 290.48C225.596 289.427 224.442 288.446 223.229 287.543C222.65 287.078 222.038 286.656 221.398 286.28C220.756 285.901 220.146 285.502 219.504 285.154C218.226 284.475 216.9 283.891 215.536 283.407C214.21 282.918 212.853 282.517 211.473 282.207C210.8 282.07 210.105 281.986 209.431 281.881C208.762 281.75 208.082 281.676 207.4 281.66L205.39 281.555C204.716 281.555 204.053 281.607 203.401 281.628C202.108 281.684 200.821 281.832 199.549 282.07C195.302 282.873 191.272 284.563 187.725 287.032C184.177 289.501 181.191 292.691 178.962 296.395C177.425 298.917 176.276 301.656 175.553 304.52C175.265 305.556 175.051 306.611 174.91 307.677C174.837 308.14 174.753 308.561 174.711 308.961C174.668 309.361 174.711 309.708 174.647 310.013C174.647 310.634 174.574 311.119 174.542 311.476C174.539 311.684 174.521 311.892 174.49 312.097Z" fill="#D1D1D1"/>
<path d="M205.169 298.352L191.866 310.444V325.779H202.222V316.591H208.821V325.779H218.483V310.444L205.169 298.352Z" fill="#263238"/>
<path d="M87.0399 298.51C86.9136 298.436 100.122 277.545 116.509 251.875C132.896 226.205 146.346 205.44 146.473 205.566C146.599 205.693 133.391 226.521 117.004 252.212C100.617 277.903 87.1662 298.594 87.0399 298.51Z" fill="#D1D1D1"/>
<path d="M82.0724 342.387C99.0162 342.387 112.752 328.652 112.752 311.708C112.752 294.764 99.0162 281.028 82.0724 281.028C65.1286 281.028 51.3929 294.764 51.3929 311.708C51.3929 328.652 65.1286 342.387 82.0724 342.387Z" fill="white"/>
<path d="M112.752 311.707C112.725 311.544 112.708 311.378 112.699 311.213C112.699 310.855 112.636 310.371 112.594 309.75C112.594 309.434 112.594 309.076 112.531 308.697C112.468 308.318 112.404 307.876 112.331 307.413C112.196 306.346 111.981 305.291 111.689 304.256C110.971 301.39 109.821 298.65 108.279 296.131C106.05 292.427 103.064 289.237 99.5167 286.768C95.9689 284.3 91.9394 282.609 87.6925 281.807C86.4205 281.568 85.1333 281.421 83.8404 281.365C83.1879 281.365 82.5248 281.281 81.8618 281.291L79.841 281.396C79.159 281.413 78.4795 281.487 77.8098 281.617C77.1362 281.723 76.4416 281.807 75.768 281.944C74.3887 282.253 73.0316 282.654 71.7055 283.143C70.3431 283.631 69.0172 284.215 67.7377 284.891C67.0957 285.238 66.4852 285.638 65.8432 286.017C65.2046 286.395 64.5927 286.817 64.0119 287.28C62.8009 288.185 61.6479 289.166 60.5598 290.216C59.4918 291.326 58.4969 292.503 57.5813 293.742C55.6878 296.296 54.2199 299.139 53.2347 302.162C51.1441 308.386 51.1441 315.123 53.2347 321.348C54.2178 324.372 55.6859 327.215 57.5813 329.768C58.4942 331.012 59.4892 332.193 60.5598 333.304C61.6431 334.356 62.7964 335.334 64.0119 336.23C64.5908 336.698 65.2028 337.124 65.8432 337.503C66.4852 337.872 67.0957 338.282 67.7377 338.63C69.0214 339.296 70.3467 339.88 71.7055 340.377C73.0302 340.867 74.3877 341.265 75.768 341.566C76.4416 341.713 77.1362 341.787 77.8098 341.903C78.4803 342.028 79.1593 342.102 79.841 342.124L81.8618 342.229C82.5248 342.229 83.1879 342.229 83.8404 342.155C85.133 342.095 86.4199 341.948 87.6925 341.713C91.941 340.915 95.9724 339.226 99.5207 336.757C103.069 334.288 106.054 331.096 108.279 327.389C109.819 324.869 110.969 322.129 111.689 319.264C111.979 318.229 112.194 317.173 112.331 316.107C112.404 315.644 112.489 315.212 112.531 314.823L112.594 313.77C112.594 313.149 112.678 312.718 112.699 312.318C112.708 312.152 112.725 311.987 112.752 311.823C112.752 311.823 112.752 311.992 112.752 312.318C112.752 312.644 112.752 313.16 112.752 313.781C112.752 314.107 112.752 314.465 112.752 314.833C112.752 315.202 112.636 315.665 112.573 316.128C112.455 317.193 112.258 318.249 111.983 319.285C111.293 322.185 110.161 324.961 108.626 327.515C106.389 331.276 103.378 334.517 99.7921 337.025C96.2066 339.533 92.1288 341.249 87.8293 342.061C86.5403 342.307 85.2355 342.461 83.9246 342.524C83.2616 342.524 82.588 342.618 81.9039 342.608L79.8621 342.513C79.1558 342.494 78.452 342.42 77.7572 342.292C77.0625 342.176 76.3679 342.103 75.6522 341.955C74.2522 341.646 72.8741 341.245 71.5265 340.755C70.1408 340.258 68.7906 339.668 67.4851 338.987C66.8325 338.64 66.2011 338.23 65.5591 337.84C64.9049 337.457 64.2788 337.028 63.6857 336.556C62.4511 335.64 61.277 334.645 60.1704 333.578C59.0794 332.456 58.0666 331.26 57.1393 329.999C55.2157 327.413 53.7198 324.535 52.7084 321.474C50.5755 315.138 50.5755 308.277 52.7084 301.94C53.7198 298.88 55.2157 296.002 57.1393 293.415C58.0729 292.153 59.089 290.954 60.1809 289.827C61.2844 288.76 62.455 287.765 63.6857 286.848C64.2814 286.38 64.9072 285.951 65.5591 285.564C66.2116 285.185 66.8325 284.775 67.4851 284.417C68.7908 283.74 70.141 283.153 71.5265 282.659C72.8725 282.165 74.251 281.764 75.6522 281.459C76.3468 281.312 77.0415 281.228 77.7572 281.123C78.452 280.994 79.1558 280.92 79.8621 280.902L81.9039 280.796C82.588 280.796 83.2511 280.86 83.9246 280.881C85.235 280.948 86.5395 281.103 87.8293 281.344C92.1304 282.165 96.2071 283.894 99.7877 286.415C103.368 288.935 106.371 292.19 108.594 295.962C110.13 298.517 111.262 301.293 111.952 304.193C112.227 305.229 112.424 306.284 112.541 307.35C112.604 307.813 112.689 308.245 112.72 308.634C112.752 309.024 112.72 309.392 112.72 309.687C112.72 310.308 112.72 310.792 112.72 311.15C112.72 311.507 112.752 311.707 112.752 311.707Z" fill="#D1D1D1"/>
<path d="M93.9441 295.731H69.8531V327.674H93.9441V295.731Z" fill="#263238"/>
<path d="M83.0617 300.836C80.4396 301.201 77.7797 301.201 75.1577 300.836C77.7797 300.471 80.4396 300.471 83.0617 300.836Z" fill="#455A64"/>
<path d="M90.0392 305.33C87.4103 305.601 84.766 305.692 82.1247 305.603C79.4868 305.692 76.846 305.601 74.2206 305.33C76.846 305.059 79.4868 304.968 82.1247 305.056C84.766 304.968 87.4103 305.059 90.0392 305.33Z" fill="#455A64"/>
<path d="M90.0392 308.066C87.4103 308.337 84.766 308.429 82.1247 308.34C79.4868 308.429 76.846 308.337 74.2206 308.066C76.8451 307.782 79.4866 307.687 82.1247 307.782C84.7662 307.687 87.4112 307.782 90.0392 308.066Z" fill="#455A64"/>
<path d="M90.0392 310.792C87.4103 311.062 84.766 311.154 82.1247 311.065C79.4868 311.154 76.846 311.063 74.2206 310.792C76.846 310.521 79.4868 310.429 82.1247 310.518C84.766 310.43 87.4103 310.521 90.0392 310.792Z" fill="#455A64"/>
<path d="M90.0392 313.56C87.4103 313.831 84.766 313.922 82.1247 313.834C79.4868 313.922 76.846 313.831 74.2206 313.56C76.8451 313.276 79.4866 313.181 82.1247 313.276C84.7662 313.181 87.4112 313.276 90.0392 313.56Z" fill="#455A64"/>
<path d="M90.0392 316.254C87.4103 316.525 84.766 316.616 82.1247 316.528C79.4868 316.617 76.846 316.525 74.2206 316.254C76.846 315.983 79.4868 315.892 82.1247 315.981C84.766 315.892 87.4103 315.983 90.0392 316.254Z" fill="#455A64"/>
<path d="M90.0392 318.98C87.4112 319.264 84.7662 319.359 82.1247 319.264C79.4866 319.359 76.8451 319.264 74.2206 318.98C76.846 318.709 79.4868 318.618 82.1247 318.707C84.766 318.618 87.4103 318.71 90.0392 318.98Z" fill="#455A64"/>
<path d="M90.0392 321.716C87.4103 321.987 84.766 322.078 82.1247 321.99C79.4868 322.078 76.846 321.987 74.2206 321.716C76.846 321.445 79.4868 321.354 82.1247 321.442C84.766 321.354 87.4103 321.445 90.0392 321.716Z" fill="#455A64"/>
<path d="M346.926 153.479H75.3153C61.4871 153.479 50.2771 164.689 50.2771 178.518V181.265C50.2771 195.093 61.4871 206.303 75.3153 206.303H346.926C360.754 206.303 371.964 195.093 371.964 181.265V178.518C371.964 164.689 360.754 153.479 346.926 153.479Z" fill="white"/>
<path d="M300.691 153.006V206.303H345.684C352.753 206.303 359.532 203.496 364.531 198.498C369.53 193.501 372.34 186.723 372.343 179.654C372.343 176.154 371.653 172.688 370.313 169.454C368.974 166.22 367.01 163.282 364.534 160.807C362.058 158.333 359.119 156.37 355.885 155.031C352.651 153.693 349.184 153.004 345.684 153.006H300.691Z" fill="#257CFF"/>
<path d="M342.526 178.171C342.427 177.258 342.276 176.351 342.074 175.455C341.423 173.029 339.978 170.891 337.969 169.383C336.497 168.273 334.769 167.55 332.945 167.282C331.121 167.013 329.258 167.207 327.529 167.846C326.526 168.208 325.585 168.722 324.74 169.372C323.85 170.028 323.066 170.816 322.414 171.709C321.032 173.592 320.287 175.867 320.287 178.202C320.287 180.538 321.032 182.813 322.414 184.696C323.057 185.596 323.843 186.385 324.74 187.033C325.583 187.673 326.52 188.181 327.518 188.538C328.969 189.062 330.512 189.28 332.051 189.177C333.59 189.074 335.091 188.653 336.458 187.939C337.826 187.226 339.03 186.236 339.995 185.033C340.96 183.83 341.664 182.439 342.063 180.949C342.266 180.05 342.417 179.14 342.516 178.223C342.58 179.157 342.495 180.095 342.263 181.002C341.673 183.513 340.234 185.743 338.19 187.317C336.674 188.493 334.885 189.266 332.989 189.564C331.094 189.862 329.154 189.676 327.35 189.022C326.299 188.659 325.312 188.133 324.424 187.464C323.486 186.784 322.662 185.96 321.982 185.022C320.526 183.051 319.74 180.664 319.74 178.213C319.74 175.762 320.526 173.375 321.982 171.403C323.334 169.566 325.203 168.174 327.35 167.404C329.283 166.714 331.365 166.554 333.38 166.941C335.522 167.353 337.5 168.375 339.075 169.884C340.651 171.392 341.758 173.323 342.263 175.445C342.494 176.334 342.582 177.254 342.526 178.171Z" fill="white"/>
<path d="M352.967 193.916C350.712 192.627 348.546 191.189 346.484 189.611C344.319 188.172 342.259 186.582 340.316 184.854C342.574 186.138 344.74 187.576 346.8 189.159C348.964 190.598 351.025 192.188 352.967 193.916Z" fill="white"/>
<path d="M277.516 174.939H80.8619V186.243H277.516V174.939Z" fill="#EBEBEB"/>
<path d="M207.548 173.466C206.59 172.351 206.495 171.361 208.653 171.214C213.4 170.782 216.894 168.709 217.452 167.509C218.009 166.309 216.494 165.141 215.21 165.857C213.735 166.497 212.181 166.936 210.59 167.162C209.311 167.378 208.005 167.378 206.727 167.162C205.622 166.994 204.622 166.804 203.78 166.625C203.78 166.625 198.76 165.573 196.592 163.847L185.962 175.203L190.951 180.834C191.697 181.884 192.701 182.726 193.865 183.279C195.029 183.831 196.316 184.077 197.602 183.991C201.875 183.57 207.632 180.507 207.632 180.507C208.411 179.307 215.294 183.559 217.515 185.149C219.736 186.738 221.367 186.338 221.283 184.812C221.23 183.759 214.557 178.729 212.326 177.203C210.601 176.125 208.998 174.861 207.548 173.435" fill="#FFBE9D"/>
<path d="M201.307 183.327C201.307 183.401 201.001 183.527 200.444 183.517C199.726 183.471 199.039 183.215 198.466 182.78C197.893 182.346 197.461 181.753 197.223 181.075C197.055 180.559 197.107 180.212 197.17 180.202C197.576 181 198.13 181.714 198.802 182.307C199.562 182.807 200.413 183.153 201.307 183.327Z" fill="#EB996E"/>
<path d="M205.517 181.675C205.517 181.738 205.211 181.854 204.685 181.823C204.001 181.755 203.35 181.495 202.807 181.072C202.265 180.649 201.854 180.081 201.622 179.434C201.465 178.939 201.496 178.613 201.559 178.602C201.622 178.592 202.001 179.77 203.149 180.644C203.879 181.109 204.678 181.457 205.517 181.675Z" fill="#EB996E"/>
<path d="M216.978 63.5249C217.42 72.8498 228.797 85.6267 237.259 87.7317C241.7 88.7841 246.815 88.3105 250.341 91.2995C256.393 96.4251 252.857 107.087 256.93 113.928C259.435 118.137 264.413 120.242 267.233 124.231C271.917 130.904 268.77 140.987 262.381 145.954C255.993 150.922 247.468 151.869 239.459 151.659C221.83 151.206 203.78 145.607 191.045 133.114C185.057 127.241 161.639 109.128 169.806 66.1771" fill="#263238"/>
<path d="M280.589 130.252L213.579 110.36C210.455 108.995 207.18 108.009 203.822 107.424L181.194 107.571C178.206 107.581 175.252 108.201 172.511 109.392L111.521 129.652C107.006 131.083 103.89 135.714 103.89 140.987C103.89 147.481 108.574 152.754 114.352 152.754H142.558L142.442 153.164L240.406 153.532L277.8 153.606C283.578 153.606 288.262 148.291 288.262 141.724C288.22 136.377 285.104 131.694 280.589 130.252Z" fill="#257CFF"/>
<path d="M267.16 137.503C266.957 137.524 266.752 137.524 266.549 137.503L264.823 137.303C263.329 137.114 261.161 136.872 258.509 136.619C251.513 135.944 244.486 135.649 237.459 135.735C230.443 135.838 223.438 136.316 216.473 137.166C213.8 137.493 211.632 137.787 210.158 138.019L208.432 138.261C208.234 138.298 208.033 138.315 207.832 138.314C208.016 138.233 208.211 138.18 208.411 138.156L210.116 137.808C211.6 137.514 213.758 137.156 216.431 136.756C223.408 135.794 230.438 135.263 237.48 135.167C244.512 135.08 251.542 135.431 258.53 136.219C261.213 136.524 263.381 136.83 264.844 137.082L266.56 137.377C266.765 137.391 266.967 137.433 267.16 137.503Z" fill="#263238"/>
<g opacity="0.6">
<path opacity="0.6" d="M251.436 121.221C251.385 121.305 251.321 121.379 251.246 121.442L250.657 122.063C250.131 122.6 249.352 123.4 248.289 124.368C247.006 125.55 245.645 126.643 244.216 127.641C242.318 128.995 240.199 130.007 237.954 130.63C235.199 131.314 232.312 131.256 229.586 130.462C226.506 129.508 223.547 128.201 220.767 126.568C217.743 124.761 214.544 123.263 211.221 122.095C207.647 120.868 203.737 121.068 200.307 122.653C196.781 124.242 193.781 126.663 190.508 128.41C189.698 128.862 188.835 129.21 188.003 129.588C187.159 129.917 186.298 130.201 185.425 130.441C183.742 130.921 182.014 131.221 180.268 131.336C174.181 131.777 168.128 130.113 163.123 126.62C161.286 125.217 159.555 123.68 157.945 122.021C156.725 120.795 155.381 119.698 153.935 118.748C152.686 117.961 151.289 117.438 149.83 117.211C150.216 117.218 150.6 117.26 150.978 117.338C152.063 117.57 153.102 117.982 154.051 118.559C155.528 119.493 156.904 120.579 158.155 121.8C159.774 123.425 161.508 124.93 163.344 126.305C168.294 129.695 174.254 131.292 180.236 130.83C181.946 130.713 183.64 130.417 185.288 129.946C186.141 129.706 186.98 129.422 187.803 129.094C188.614 128.725 189.456 128.389 190.245 127.936C193.476 126.221 196.465 123.789 200.086 122.148C203.638 120.518 207.681 120.315 211.379 121.579C214.734 122.766 217.96 124.29 221.009 126.126C223.749 127.751 226.666 129.057 229.702 130.02C232.353 130.817 235.167 130.896 237.859 130.252C240.07 129.657 242.163 128.689 244.047 127.389C245.48 126.428 246.848 125.373 248.141 124.231C249.194 123.295 250.025 122.526 250.583 122.021L251.204 121.432C251.351 121.274 251.425 121.211 251.436 121.221Z" fill="white"/>
</g>
<g opacity="0.2">
<path opacity="0.2" d="M147.305 137.367L189.666 145.355L184.772 153.322L183.478 153.343L147.305 137.367Z" fill="black"/>
</g>
<g opacity="0.6">
<path opacity="0.6" d="M275.527 128.999C275.55 129.213 275.55 129.428 275.527 129.641C275.503 130.262 275.44 130.881 275.337 131.493C274.662 135.343 272.62 138.819 269.586 141.283C266.552 143.747 262.73 145.032 258.824 144.902C256.681 144.768 254.561 144.379 252.509 143.744C250.404 143.144 248.352 142.481 246.342 142.081C244.422 141.653 242.444 141.55 240.49 141.776C237.703 142.11 235.024 143.06 232.649 144.556C230.274 146.052 228.261 148.058 226.755 150.427L226.208 151.343C226.075 151.61 225.959 151.841 225.861 152.038C225.774 152.239 225.665 152.43 225.534 152.606C225.592 152.397 225.666 152.193 225.755 151.996C225.85 151.785 225.945 151.543 226.061 151.269L226.576 150.322C227.717 148.325 229.24 146.572 231.06 145.165C233.77 143.033 237.014 141.686 240.437 141.271C242.446 141.032 244.48 141.128 246.457 141.555C248.51 141.955 250.562 142.608 252.678 143.218C254.699 143.844 256.786 144.229 258.898 144.365C261.548 144.452 264.179 143.882 266.556 142.705C268.932 141.528 270.98 139.78 272.517 137.619C273.805 135.773 274.708 133.686 275.169 131.483C275.474 129.894 275.464 128.989 275.527 128.999Z" fill="white"/>
</g>
<path d="M111.573 151.396C111.573 151.396 188.151 185.159 187.814 184.412C187.477 183.665 199.97 161.489 199.97 161.489L137.927 130.82L111.573 151.396Z" fill="#257CFF"/>
<path d="M146.768 135.198C147.31 135.378 147.838 135.6 148.347 135.861L152.556 137.85C156.114 139.544 160.976 141.923 166.375 144.586C171.774 147.249 176.616 149.68 180.121 151.469L184.257 153.574C184.774 153.816 185.271 154.101 185.741 154.426C185.196 154.257 184.668 154.038 184.162 153.774L179.952 151.785C176.405 150.09 171.532 147.712 166.133 145.049C160.734 142.386 155.893 139.955 152.388 138.166L148.252 136.061C147.736 135.812 147.24 135.523 146.768 135.198Z" fill="#263238"/>
<g opacity="0.6">
<path opacity="0.6" d="M163.544 145.449C163.446 146.244 163.203 147.014 162.829 147.723C161.812 149.679 160.217 151.274 158.261 152.29C156.947 153.015 155.526 153.527 154.051 153.806C152.335 154.07 150.589 154.07 148.873 153.806C144.982 153.132 141.216 151.869 137.706 150.059C134.211 148.289 130.547 146.872 126.771 145.828C125.134 145.416 123.449 145.222 121.761 145.249C120.288 145.289 118.828 145.537 117.425 145.986C115.371 146.594 113.523 147.751 112.078 149.333C111.586 149.939 111.126 150.572 110.7 151.227C110.988 150.486 111.401 149.799 111.921 149.196C113.34 147.515 115.21 146.274 117.309 145.618C118.739 145.133 120.231 144.856 121.74 144.797C123.472 144.746 125.204 144.931 126.887 145.344C130.685 146.382 134.364 147.814 137.864 149.617C141.33 151.4 145.039 152.663 148.873 153.364C150.54 153.622 152.237 153.622 153.904 153.364C155.351 153.113 156.75 152.638 158.05 151.953C159.963 150.998 161.549 149.496 162.607 147.638C162.969 146.931 163.282 146.199 163.544 145.449Z" fill="white"/>
</g>
<g opacity="0.6">
<path opacity="0.6" d="M196.055 168.614C196.055 168.709 194.36 168.435 191.624 168.382C190.024 168.367 188.425 168.451 186.835 168.635C184.891 168.872 182.967 169.252 181.078 169.772C179.2 170.319 177.364 171.001 175.584 171.813C174.135 172.495 172.729 173.265 171.375 174.118C169.07 175.592 167.786 176.718 167.723 176.634C167.97 176.318 168.256 176.035 168.575 175.792C169.394 175.074 170.259 174.409 171.164 173.803C172.503 172.883 173.911 172.067 175.374 171.361C178.953 169.63 182.807 168.536 186.762 168.13C188.377 167.967 190.002 167.924 191.624 168.003C192.715 168.041 193.801 168.153 194.876 168.34C195.28 168.378 195.676 168.47 196.055 168.614Z" fill="white"/>
</g>
<g opacity="0.2">
<path opacity="0.2" d="M205.495 107.277C204.232 110.813 206.127 114.644 207.979 117.907C209.159 120.249 210.654 122.42 212.421 124.358C213.306 125.328 214.379 126.108 215.575 126.651C216.771 127.193 218.065 127.488 219.377 127.516C222.819 127.4 225.892 124.864 229.334 125.064C231.67 125.2 233.712 126.579 235.649 127.884C238.933 130.268 242.496 132.244 246.257 133.767C250.054 135.286 254.237 135.548 258.192 134.515C260.154 133.972 261.943 132.935 263.39 131.503C264.836 130.071 265.891 128.293 266.454 126.337" fill="black"/>
</g>
<path d="M205.78 106.308C205.958 102.182 206.18 98.4567 206.18 98.4567C206.18 98.4567 215.399 97.2885 215.789 87.9321C216.178 78.5756 215.252 56.8737 215.252 56.8737L198.339 48.6855L180.099 63.4201L182.952 106.571C183.152 109.563 184.517 112.358 186.755 114.355C188.992 116.352 191.922 117.393 194.918 117.254C197.767 117.112 200.461 115.911 202.47 113.886C204.479 111.861 205.66 109.158 205.78 106.308Z" fill="#FFBE9D"/>
<path d="M213.663 73.8282C213.661 74.0579 213.591 74.2818 213.462 74.4721C213.334 74.6623 213.152 74.8104 212.939 74.8978C212.727 74.9852 212.493 75.0081 212.268 74.9635C212.043 74.9189 211.835 74.8089 211.672 74.6472C211.509 74.4855 211.397 74.2793 211.351 74.0544C211.304 73.8294 211.325 73.5957 211.41 73.3826C211.496 73.1694 211.642 72.9861 211.831 72.8557C212.021 72.7253 212.244 72.6536 212.474 72.6494C212.787 72.6494 213.088 72.7733 213.311 72.994C213.534 73.2148 213.66 73.5146 213.663 73.8282Z" fill="#263238"/>
<path d="M214.799 71.3242C214.652 71.4821 213.747 70.7348 212.515 70.6927C211.284 70.6506 210.316 71.2821 210.179 71.1137C210.042 70.9453 210.263 70.7454 210.674 70.4507C211.219 70.0638 211.879 69.8711 212.547 69.9034C213.213 69.9402 213.851 70.187 214.368 70.6085C214.747 70.9453 214.873 71.2505 214.799 71.3242Z" fill="#263238"/>
<path d="M199.686 73.8282C199.686 74.0605 199.617 74.2875 199.488 74.4809C199.36 74.6742 199.177 74.8253 198.963 74.9151C198.749 75.0049 198.513 75.0294 198.285 74.9856C198.057 74.9418 197.847 74.8316 197.681 74.6689C197.515 74.5061 197.401 74.2981 197.354 74.0708C197.306 73.8436 197.326 73.6072 197.412 73.3915C197.498 73.1758 197.646 72.9903 197.837 72.8583C198.028 72.7262 198.254 72.6536 198.486 72.6495C198.642 72.6481 198.797 72.6775 198.942 72.7359C199.087 72.7944 199.219 72.8809 199.33 72.9903C199.441 73.0998 199.53 73.2301 199.591 73.3739C199.652 73.5176 199.684 73.672 199.686 73.8282Z" fill="#263238"/>
<path d="M200.823 71.5661C200.675 71.724 199.77 70.9767 198.528 70.9346C197.286 70.8925 196.329 71.524 196.202 71.3556C196.076 71.1872 196.286 70.9873 196.697 70.6926C197.239 70.3072 197.895 70.1145 198.56 70.1453C199.229 70.1752 199.87 70.427 200.381 70.8609C200.77 71.1872 200.896 71.4924 200.823 71.5661Z" fill="#263238"/>
<path d="M205.559 82.4171C206.244 82.221 206.951 82.1149 207.664 82.1013C207.98 82.1013 208.295 82.0276 208.348 81.7961C208.386 81.4332 208.317 81.0671 208.148 80.7436C207.864 79.8911 207.559 79.0071 207.232 78.0704C206.386 75.8008 205.707 73.4721 205.201 71.103C206.221 73.298 207.072 75.5674 207.748 77.8914C208.053 78.8281 208.348 79.7227 208.622 80.5752C208.82 80.9988 208.872 81.4766 208.769 81.9329C208.723 82.0497 208.651 82.1541 208.558 82.2381C208.464 82.3222 208.353 82.3834 208.232 82.4171C208.053 82.4612 207.869 82.4824 207.685 82.4802C206.977 82.555 206.261 82.5338 205.559 82.4171Z" fill="#263238"/>
<path d="M201.412 83.7115C200.128 82.8695 204.98 85.8164 207.548 85.7638C207.109 86.4242 206.456 86.9134 205.699 87.1491C204.942 87.3849 204.127 87.3528 203.391 87.0583C200.675 85.9322 201.412 83.7115 201.412 83.7115Z" fill="white"/>
<path d="M206.18 98.4564C201.812 98.336 197.573 96.9463 193.982 94.457C193.982 94.457 196.855 101.309 206.022 100.772L206.18 98.4564Z" fill="#EB996E"/>
<path d="M170.154 72.6501C170.154 80.7857 167.996 102.309 182.783 105.277L182.289 75.7022C182.289 75.7022 196.655 68.9243 199.128 54.8108L199.212 54.8949C200.128 56.9999 201.77 61.5992 200.77 65.3249L214.231 68.6402L215.778 70.0505C215.778 70.0505 220.567 59.5258 211.326 50.0536C202.085 40.5814 194.181 47.433 189.224 46.8962C185.93 46.4963 174.49 46.5699 169.848 66.2511L170.154 72.6501Z" fill="#263238"/>
<path d="M182.657 75.9865C181.404 75.2076 179.689 75.8496 178.699 76.9337C177.906 77.7944 177.413 78.8899 177.296 80.0549C177.179 81.2199 177.444 82.3914 178.051 83.3927C178.658 84.394 179.574 85.1708 180.661 85.6061C181.748 86.0414 182.947 86.1116 184.078 85.806" fill="#FFBE9D"/>
<path d="M182.373 82.9958C182.373 83.0589 181.952 83.1326 181.32 82.9958C180.876 82.884 180.465 82.6669 180.123 82.3628C179.78 82.0587 179.516 81.6766 179.352 81.2487C179.179 80.7469 179.201 80.198 179.415 79.7121C179.589 79.3313 179.866 79.0068 180.215 78.7754C180.805 78.3965 181.268 78.4281 181.268 78.4912C181.268 78.5544 180.899 78.6912 180.457 79.0911C180.174 79.3251 179.968 79.6393 179.867 79.9924C179.765 80.3456 179.773 80.7211 179.889 81.0698C180.031 81.4239 180.245 81.745 180.516 82.013C180.788 82.2809 181.112 82.4901 181.468 82.6274C181.983 82.8379 182.373 82.9116 182.373 82.9958Z" fill="#EB996E"/>
<path d="M181.141 84.8481C180.885 84.8991 180.657 85.0435 180.501 85.2534C180.346 85.4632 180.274 85.7235 180.299 85.9835C180.325 86.2435 180.446 86.4848 180.64 86.6602C180.833 86.8357 181.085 86.9329 181.347 86.9329C181.608 86.9329 181.86 86.8357 182.053 86.6602C182.247 86.4848 182.368 86.2435 182.394 85.9835C182.42 85.7235 182.348 85.4632 182.192 85.2534C182.036 85.0435 181.808 84.8991 181.552 84.8481" fill="#257CFF"/>
<path d="M208.4 153.585V138.124C208.4 138.124 185.446 142.881 185.025 153.395L208.4 153.585Z" fill="#FFBE9D"/>
<path d="M206.011 104.677C206.397 109.438 208.538 113.887 212.02 117.158C215.501 120.429 220.074 122.29 224.85 122.379C228.239 122.432 231.807 121.632 234.901 123.011C237.596 124.221 239.332 126.82 241.448 128.873C243.972 131.253 247.088 132.913 250.472 133.68C253.856 134.446 257.383 134.291 260.687 133.23C263.476 132.293 267.886 130.294 268.402 127.41C268.801 125.21 266.107 123.021 264.528 121.453C262.861 119.959 260.949 118.763 258.877 117.917C242.521 110.234 224.977 104.655 206.937 103.698" fill="#263238"/>
</g>
<defs>
<filter id="filter0_d_50_1085" x="0.2771" y="0" width="422.066" height="398.008" filterUnits="userSpaceOnUse" color-interpolation-filters="sRGB">
<feFlood flood-opacity="0" result="BackgroundImageFix"/>
<feColorMatrix in="SourceAlpha" type="matrix" values="0 0 0 0 0 0 0 0 0 0 0 0 0 0 0 0 0 0 127 0" result="hardAlpha"/>
<feOffset dy="5"/>
<feGaussianBlur stdDeviation="25"/>
<feComposite in2="hardAlpha" operator="out"/>
<feColorMatrix type="matrix" values="0 0 0 0 0.331875 0 0 0 0 0.459415 0 0 0 0 0.651458 0 0 0 0.4 0"/>
<feBlend mode="normal" in2="BackgroundImageFix" result="effect1_dropShadow_50_1085"/>
<feBlend mode="normal" in="SourceGraphic" in2="effect1_dropShadow_50_1085" result="shape"/>
</filter>
</defs>
</svg>
