<svg width="25" height="25" viewBox="0 0 25 25" fill="none" xmlns="http://www.w3.org/2000/svg">
<g clip-path="url(#clip0_50_494)">
<path d="M24.9268 7.33571C24.8683 6.00996 24.6539 5.09852 24.3468 4.30874C24.03 3.47041 23.5426 2.71986 22.904 2.09592C22.28 1.46227 21.5245 0.969895 20.6959 0.658021C19.9016 0.350906 18.9949 0.136516 17.6691 0.0780638C16.3335 0.0146607 15.9094 0 12.5219 0C9.13427 0 8.71025 0.0146607 7.37955 0.0731134C6.0538 0.131566 5.14236 0.346146 4.35277 0.65307C3.51425 0.969895 2.7637 1.45732 2.13976 2.09592C1.50611 2.71986 1.01392 3.47536 0.701859 4.30398C0.394745 5.09852 0.180355 6.00501 0.121902 7.33076C0.0584993 8.66641 0.0438385 9.09043 0.0438385 12.478C0.0438385 15.8656 0.0584993 16.2896 0.116952 17.6203C0.175405 18.9461 0.389985 19.8575 0.697099 20.6473C1.01392 21.4856 1.50611 22.2362 2.13976 22.8601C2.7637 23.4938 3.5192 23.9861 4.34782 24.298C5.14236 24.6051 6.04885 24.8195 7.37479 24.878C8.7053 24.9366 9.12951 24.9511 12.5171 24.9511C15.9047 24.9511 16.3287 24.9366 17.6594 24.878C18.9852 24.8195 19.8966 24.6051 20.6862 24.298C22.363 23.6497 23.6888 22.324 24.3371 20.6473C24.644 19.8528 24.8586 18.9461 24.9171 17.6203C24.9755 16.2896 24.9902 15.8656 24.9902 12.478C24.9902 9.09043 24.9852 8.66641 24.9268 7.33571ZM22.6799 17.5228C22.6262 18.7414 22.4215 19.3994 22.2509 19.8381C21.8316 20.9251 20.9689 21.7878 19.8819 22.2071C19.4433 22.3777 18.7805 22.5823 17.5667 22.6358C16.2506 22.6945 15.8559 22.7089 12.5268 22.7089C9.19768 22.7089 8.79803 22.6945 7.48675 22.6358C6.26819 22.5823 5.61017 22.3777 5.17149 22.2071C4.63056 22.0071 4.13819 21.6903 3.73854 21.276C3.32423 20.8714 3.00741 20.384 2.80749 19.8431C2.63689 19.4044 2.43221 18.7414 2.37871 17.5278C2.32006 16.2118 2.30559 15.8169 2.30559 12.4877C2.30559 9.1586 2.32006 8.75895 2.37871 7.44786C2.43221 6.2293 2.63689 5.57128 2.80749 5.1326C3.00741 4.59148 3.32423 4.0993 3.74349 3.69946C4.1479 3.28515 4.63532 2.96833 5.17644 2.7686C5.61512 2.598 6.27809 2.39332 7.4917 2.33963C8.80774 2.28118 9.20263 2.26652 12.5316 2.26652C15.8657 2.26652 16.2604 2.28118 17.5716 2.33963C18.7902 2.39332 19.4482 2.598 19.8869 2.7686C20.4278 2.96833 20.9202 3.28515 21.3198 3.69946C21.7342 4.10406 22.051 4.59148 22.2509 5.1326C22.4215 5.57128 22.6262 6.23406 22.6799 7.44786C22.7383 8.7639 22.753 9.1586 22.753 12.4877C22.753 15.8169 22.7383 16.2068 22.6799 17.5228Z" fill="white"/>
<path d="M12.5219 6.06836C8.98334 6.06836 6.1123 8.9392 6.1123 12.478C6.1123 16.0167 8.98334 18.8876 12.5219 18.8876C16.0607 18.8876 18.9315 16.0167 18.9315 12.478C18.9315 8.9392 16.0607 6.06836 12.5219 6.06836ZM12.5219 16.6357C10.2263 16.6357 8.36416 14.7738 8.36416 12.478C8.36416 10.1821 10.2263 8.32021 12.5219 8.32021C14.8178 8.32021 16.6797 10.1821 16.6797 12.478C16.6797 14.7738 14.8178 16.6357 12.5219 16.6357Z" fill="white"/>
<path d="M20.6815 5.81495C20.6815 6.64129 20.0115 7.3113 19.1849 7.3113C18.3586 7.3113 17.6886 6.64129 17.6886 5.81495C17.6886 4.98843 18.3586 4.3186 19.1849 4.3186C20.0115 4.3186 20.6815 4.98843 20.6815 5.81495Z" fill="white"/>
</g>
<defs>
<clipPath id="clip0_50_494">
<rect width="24.9512" height="24.9512" fill="white"/>
</clipPath>
</defs>
</svg>
