<svg width="151" height="45" viewBox="0 0 151 45" fill="none" xmlns="http://www.w3.org/2000/svg">
<path d="M15.998 3.26099C7.36636 3.26099 0.344055 9.68986 0.344055 17.592C0.344055 27.3988 14.3528 41.7957 14.9492 42.4038C15.5094 42.975 16.4875 42.974 17.0467 42.4038C17.6432 41.7957 31.6519 27.3988 31.6519 17.592C31.6518 9.68986 24.6295 3.26099 15.998 3.26099Z" fill="white"/>
<path d="M18.3956 15.287C18.3956 13.7195 19.789 12.4439 21.5019 12.4439C23.2141 12.4439 24.6075 13.7192 24.6075 15.287C24.6075 15.7383 24.2081 16.1039 23.7152 16.1039C23.2223 16.1039 22.8229 15.7383 22.8229 15.287C22.8229 14.6201 22.2304 14.0777 21.5019 14.0777C20.7731 14.0777 20.1802 14.6201 20.1802 15.287C20.1802 15.7383 19.7808 16.1039 19.2879 16.1039C18.795 16.1039 18.3956 15.7379 18.3956 15.287ZM8.50068 15.2782C8.50068 13.7107 9.8941 12.4351 11.607 12.4351C13.3191 12.4351 14.7125 13.7104 14.7125 15.2782C14.7125 15.7294 14.3132 16.0951 13.8202 16.0951C13.3273 16.0951 12.9279 15.7294 12.9279 15.2782C12.9279 14.6113 12.3354 14.0689 11.607 14.0689C10.8781 14.0689 10.2853 14.6113 10.2853 15.2782C10.2853 15.7294 9.88589 16.0951 9.39298 16.0951C8.90008 16.0951 8.50068 15.7294 8.50068 15.2782ZM8.10485 22.5816C7.87785 22.0816 8.13662 21.5079 8.68307 21.3004C8.81727 21.2494 8.95647 21.2252 9.09353 21.2252C9.51327 21.2252 9.91159 21.4526 10.0826 21.83C11.0737 24.0144 13.5286 25.4257 16.3369 25.4257C19.0816 25.4257 21.5223 24.0138 22.5548 21.8277C22.7897 21.3307 23.42 21.1014 23.9622 21.317C24.5051 21.532 24.7549 22.1088 24.52 22.6058C23.1491 25.5093 19.9368 27.3856 16.3369 27.3856C12.6602 27.3859 9.42903 25.5002 8.10485 22.5816Z" fill="#546072"/>
<path d="M53.1566 11.9096C52.2595 11.9096 51.6263 12.1734 51.257 12.7011C50.8876 13.2023 50.7029 13.7564 50.7029 14.3632V16.2232H54.3042C54.9374 16.2232 55.4651 16.4343 55.8872 16.8564C56.3093 17.2522 56.5204 17.7666 56.5204 18.3998C56.5204 19.033 56.3093 19.5607 55.8872 19.9828C55.4651 20.3786 54.9374 20.5764 54.3042 20.5764H50.7029V34.5859C50.7029 35.2719 50.4787 35.8523 50.0301 36.3272C49.5816 36.7757 49.0144 37 48.3284 37C47.6425 37 47.0752 36.7757 46.6267 36.3272C46.1782 35.8523 45.9539 35.2719 45.9539 34.5859V20.5764H43.8169C43.1837 20.5764 42.656 20.3786 42.2339 19.9828C41.8118 19.5607 41.6007 19.033 41.6007 18.3998C41.6007 17.7666 41.8118 17.2522 42.2339 16.8564C42.656 16.4343 43.1837 16.2232 43.8169 16.2232H45.9539V14.4028C45.9539 12.424 46.6267 10.8147 47.9723 9.57465C49.3442 8.33464 51.3097 7.71463 53.8689 7.71463C54.8451 7.71463 55.6893 7.91251 56.4017 8.30825C57.1404 8.704 57.5098 9.31082 57.5098 10.1287C57.5098 10.7619 57.3251 11.2764 56.9557 11.6721C56.5864 12.0679 56.1379 12.2657 55.6102 12.2657C55.4783 12.2657 55.3332 12.2525 55.1749 12.2262C55.043 12.1998 54.8978 12.1734 54.7395 12.147C54.1063 11.9887 53.5787 11.9096 53.1566 11.9096ZM67.1262 34.5859C67.1262 35.2719 66.9019 35.8523 66.4534 36.3272C66.0049 36.7757 65.4376 37 64.7517 37C64.0657 37 63.4985 36.7757 63.0499 36.3272C62.6014 35.8523 62.3772 35.2719 62.3772 34.5859V18.2415C62.3772 17.5556 62.6014 16.9883 63.0499 16.5398C63.4985 16.0649 64.0657 15.8275 64.7517 15.8275C65.4376 15.8275 66.0049 16.0649 66.4534 16.5398C66.9019 16.9883 67.1262 17.5556 67.1262 18.2415V34.5859ZM64.7121 13.2551C63.8151 13.2551 63.1819 13.11 62.8125 12.8198C62.4431 12.5296 62.2585 12.0151 62.2585 11.2764V10.5244C62.2585 9.78571 62.4563 9.27124 62.8521 8.98103C63.2478 8.69081 63.881 8.5457 64.7517 8.5457C65.6751 8.5457 66.3215 8.69081 66.6908 8.98103C67.0602 9.27124 67.2449 9.78571 67.2449 10.5244V11.2764C67.2449 12.0415 67.047 12.5691 66.6513 12.8594C66.2819 13.1232 65.6355 13.2551 64.7121 13.2551ZM84.5125 15.4317C87.2036 15.4317 89.0636 16.2364 90.0925 17.8458C91.1215 19.4288 91.636 21.6318 91.636 24.4548V34.5859C91.636 35.2719 91.4117 35.8523 90.9632 36.3272C90.5147 36.7757 89.9474 37 89.2615 37C88.5755 37 88.0083 36.7757 87.5598 36.3272C87.1112 35.8523 86.887 35.2719 86.887 34.5859V24.4548C86.887 23.0037 86.5836 21.8692 85.9768 21.0513C85.3699 20.2071 84.3278 19.785 82.8503 19.785C81.3201 19.785 80.1197 20.2335 79.249 21.1305C78.3784 22.0011 77.9431 23.1092 77.9431 24.4548V34.5859C77.9431 35.2719 77.7188 35.8523 77.2703 36.3272C76.8218 36.7757 76.2545 37 75.5686 37C74.8826 37 74.3154 36.7757 73.8669 36.3272C73.4183 35.8523 73.1941 35.2719 73.1941 34.5859V18.2415C73.1941 17.5556 73.4183 16.9883 73.8669 16.5398C74.3154 16.0649 74.8826 15.8275 75.5686 15.8275C76.2545 15.8275 76.8218 16.0649 77.2703 16.5398C77.7188 16.9883 77.9431 17.5556 77.9431 18.2415V18.9143C78.6554 17.9645 79.5788 17.1466 80.7133 16.4607C81.8742 15.7747 83.1406 15.4317 84.5125 15.4317ZM114.301 7.71463C114.987 7.71463 115.554 7.93889 116.002 8.3874C116.451 8.83592 116.675 9.41635 116.675 10.1287V34.5859C116.675 35.2719 116.451 35.8523 116.002 36.3272C115.554 36.7757 114.987 37 114.301 37C113.615 37 113.047 36.7757 112.599 36.3272C112.177 35.8787 111.952 35.3115 111.926 34.6255C111.267 35.3906 110.369 36.0502 109.235 36.6043C108.127 37.1319 106.953 37.3957 105.713 37.3957C103.892 37.3957 102.243 36.934 100.766 36.0106C99.2885 35.0608 98.1145 33.7549 97.2438 32.0927C96.3996 30.4306 95.9774 28.5442 95.9774 26.4335C95.9774 24.3229 96.3996 22.4365 97.2438 20.7743C98.0881 19.0858 99.2358 17.7798 100.687 16.8564C102.164 15.9066 103.787 15.4317 105.555 15.4317C106.821 15.4317 108.008 15.6692 109.116 16.1441C110.224 16.5926 111.161 17.173 111.926 17.8854V10.1287C111.926 9.44273 112.15 8.87549 112.599 8.42698C113.047 7.95208 113.615 7.71463 114.301 7.71463ZM106.306 33.0425C108.021 33.0425 109.42 32.4225 110.501 31.1825C111.583 29.9161 112.124 28.3331 112.124 26.4335C112.124 24.5339 111.583 22.9509 110.501 21.6845C109.42 20.4181 108.021 19.785 106.306 19.785C104.618 19.785 103.233 20.4181 102.151 21.6845C101.069 22.9509 100.529 24.5339 100.529 26.4335C100.529 28.3331 101.056 29.9161 102.112 31.1825C103.193 32.4225 104.592 33.0425 106.306 33.0425ZM142.559 26.4335C142.559 28.5442 142.084 30.4438 141.134 32.1323C140.184 33.7944 138.878 35.0872 137.216 36.0106C135.58 36.934 133.773 37.3957 131.795 37.3957C129.789 37.3957 127.969 36.934 126.333 36.0106C124.697 35.0872 123.405 33.7944 122.455 32.1323C121.505 30.4438 121.03 28.5442 121.03 26.4335C121.03 24.3229 121.505 22.4365 122.455 20.7743C123.405 19.0858 124.697 17.7798 126.333 16.8564C127.969 15.9066 129.789 15.4317 131.795 15.4317C133.773 15.4317 135.58 15.9066 137.216 16.8564C138.878 17.7798 140.184 19.0858 141.134 20.7743C142.084 22.4365 142.559 24.3229 142.559 26.4335ZM137.81 26.4335C137.81 25.1407 137.533 23.9931 136.979 22.9905C136.451 21.9616 135.726 21.1701 134.802 20.616C133.905 20.062 132.903 19.785 131.795 19.785C130.686 19.785 129.671 20.062 128.747 20.616C127.85 21.1701 127.125 21.9616 126.571 22.9905C126.043 23.9931 125.779 25.1407 125.779 26.4335C125.779 27.7263 126.043 28.874 126.571 29.8765C127.125 30.8791 127.85 31.6574 128.747 32.2114C129.671 32.7655 130.686 33.0425 131.795 33.0425C132.903 33.0425 133.905 32.7655 134.802 32.2114C135.726 31.6574 136.451 30.8791 136.979 29.8765C137.533 28.874 137.81 27.7263 137.81 26.4335Z" fill="white"/>
</svg>
