<svg width="379" height="320" viewBox="0 0 379 320" fill="none" xmlns="http://www.w3.org/2000/svg">
<rect width="379" height="320" fill="white"/>
<g filter="url(#filter0_d_50_504)">
<path d="M270.986 233.618C270.896 233.671 261.438 219.048 249.864 200.945C238.29 182.843 228.976 168.114 229.066 168.062C229.156 168.009 238.607 182.647 250.158 200.72C261.709 218.792 271.039 233.558 270.986 233.618Z" fill="#D1D1D1"/>
<path d="M275.06 265.56C287.182 265.56 297.01 255.733 297.01 243.61C297.01 231.487 287.182 221.66 275.06 221.66C262.937 221.66 253.109 231.487 253.109 243.61C253.109 255.733 262.937 265.56 275.06 265.56Z" fill="white"/>
<path d="M253.109 243.64C253.109 243.64 253.109 243.519 253.109 243.286C253.109 243.052 253.109 242.683 253.147 242.239C253.147 242.006 253.147 241.75 253.147 241.486C253.147 241.223 253.222 240.899 253.268 240.567C253.357 239.805 253.501 239.05 253.697 238.308C254.188 236.234 254.996 234.248 256.091 232.42C257.681 229.705 259.832 227.36 262.4 225.543C264.969 223.727 267.896 222.479 270.986 221.885C271.909 221.713 272.842 221.602 273.779 221.554C274.254 221.554 274.736 221.486 275.218 221.494L276.686 221.569C277.191 221.583 277.695 221.636 278.192 221.727C278.682 221.802 279.186 221.863 279.698 221.961C281.725 222.421 283.686 223.134 285.534 224.084C286.001 224.34 286.453 224.634 286.919 224.905C287.385 225.179 287.83 225.486 288.252 225.824C290.064 227.118 291.647 228.706 292.936 230.522C294.318 232.366 295.389 234.424 296.106 236.614C297.627 241.149 297.627 246.055 296.106 250.59C295.384 252.783 294.314 254.845 292.936 256.697C292.268 257.597 291.541 258.452 290.76 259.257C289.971 260.024 289.131 260.736 288.245 261.388C287.823 261.726 287.378 262.033 286.912 262.307C286.445 262.585 285.993 262.879 285.526 263.127C284.596 263.616 283.632 264.038 282.642 264.393C281.676 264.743 280.687 265.03 279.683 265.251C279.194 265.356 278.689 265.409 278.177 265.492C277.68 265.583 277.176 265.636 276.671 265.65L275.203 265.718C274.721 265.718 274.239 265.68 273.764 265.658C272.824 265.613 271.888 265.502 270.963 265.326C267.888 264.735 264.974 263.497 262.413 261.695C259.852 259.894 257.702 257.569 256.106 254.875C255.013 253.045 254.206 251.059 253.712 248.986C253.517 248.244 253.374 247.489 253.283 246.727C253.237 246.388 253.185 246.087 253.162 245.801C253.14 245.515 253.162 245.266 253.162 245.048C253.162 244.604 253.162 244.257 253.124 244.001C253.087 243.745 253.124 243.647 253.124 243.647C253.124 243.647 253.124 243.768 253.162 244.001C253.2 244.235 253.2 244.596 253.23 245.04L253.283 245.793C253.283 246.072 253.373 246.381 253.418 246.712C253.523 247.475 253.679 248.229 253.885 248.971C254.397 251.021 255.217 252.981 256.317 254.784C257.912 257.434 260.048 259.717 262.586 261.483C265.125 263.249 268.007 264.459 271.046 265.033C271.957 265.199 272.877 265.305 273.802 265.349C274.276 265.349 274.743 265.409 275.225 265.402L276.663 265.326C277.151 265.311 277.637 265.258 278.117 265.168C278.606 265.085 279.096 265.033 279.585 264.927C280.568 264.705 281.537 264.421 282.484 264.076C283.457 263.724 284.406 263.306 285.323 262.826C285.782 262.578 286.227 262.284 286.678 262.013C287.139 261.744 287.579 261.442 287.996 261.109C288.865 260.468 289.688 259.766 290.459 259.009C291.229 258.218 291.944 257.375 292.597 256.486C293.952 254.659 295.002 252.625 295.707 250.462C297.198 246.008 297.198 241.189 295.707 236.735C295.002 234.572 293.952 232.538 292.597 230.711C291.946 229.821 291.234 228.978 290.466 228.188C289.692 227.435 288.869 226.733 288.004 226.087C287.587 225.754 287.146 225.452 286.686 225.183C286.234 224.912 285.79 224.626 285.331 224.37C284.415 223.89 283.466 223.474 282.492 223.128C281.546 222.778 280.577 222.491 279.593 222.269C279.103 222.171 278.614 222.111 278.124 222.036C277.645 221.943 277.159 221.888 276.671 221.87L275.233 221.795C274.758 221.795 274.284 221.84 273.81 221.855C272.887 221.895 271.969 222 271.061 222.171C268.019 222.738 265.132 223.945 262.591 225.712C260.051 227.478 257.915 229.765 256.325 232.42C255.223 234.223 254.403 236.183 253.893 238.233C253.685 238.974 253.529 239.729 253.426 240.492C253.381 240.823 253.32 241.125 253.29 241.411C253.26 241.697 253.252 241.945 253.237 242.164C253.237 242.608 253.185 242.917 253.17 243.21C253.155 243.504 253.109 243.64 253.109 243.64Z" fill="#D1D1D1"/>
<path d="M269.073 235.545L266.069 252.714L275.06 251.479L284.051 252.714L280.429 235.545H269.073Z" fill="#263238"/>
<path d="M278.855 235.772C278.787 235.772 278.606 235.154 278.102 234.266C277.832 233.739 277.467 233.267 277.025 232.873C276.757 232.661 276.46 232.489 276.144 232.361C275.797 232.242 275.434 232.181 275.067 232.18C274.352 232.145 273.641 232.315 273.019 232.67C272.533 233 272.146 233.455 271.897 233.987C271.445 234.906 271.295 235.546 271.227 235.531C271.25 234.953 271.393 234.386 271.648 233.867C271.885 233.261 272.293 232.738 272.823 232.361C273.499 231.94 274.287 231.738 275.082 231.781C275.493 231.784 275.901 231.858 276.287 231.999C276.644 232.142 276.975 232.343 277.266 232.594C277.731 233.029 278.102 233.554 278.358 234.138C278.631 234.644 278.8 235.199 278.855 235.772Z" fill="#263238"/>
<path d="M187.47 235.086C187.357 235.086 187.274 219.974 187.274 201.329C187.274 182.685 187.357 167.572 187.47 167.572C187.583 167.572 187.666 182.677 187.666 201.329C187.666 219.981 187.576 235.086 187.47 235.086Z" fill="#D1D1D1"/>
<path d="M187.018 266.05C199.141 266.05 208.968 256.223 208.968 244.1C208.968 231.977 199.141 222.15 187.018 222.15C174.896 222.15 165.068 231.977 165.068 244.1C165.068 256.223 174.896 266.05 187.018 266.05Z" fill="white"/>
<path d="M165.068 244.101C165.068 244.101 165.068 243.98 165.068 243.747C165.068 243.513 165.068 243.144 165.068 242.7C165.068 242.467 165.068 242.21 165.068 241.947C165.068 241.683 165.151 241.36 165.196 241.028C165.279 240.265 165.423 239.51 165.625 238.769C166.116 236.695 166.924 234.709 168.02 232.881C169.611 230.182 171.759 227.853 174.321 226.05C176.883 224.246 179.799 223.009 182.877 222.421C183.8 222.25 184.733 222.139 185.67 222.09C186.152 222.09 186.634 222.03 187.116 222.03L188.577 222.105C189.082 222.119 189.586 222.172 190.083 222.263C190.58 222.339 191.077 222.399 191.589 222.497C192.595 222.703 193.586 222.974 194.556 223.31C195.547 223.663 196.513 224.083 197.447 224.568C197.914 224.824 198.366 225.117 198.825 225.388C199.305 225.668 199.765 225.98 200.203 226.322C201.085 226.98 201.925 227.692 202.718 228.453C203.497 229.26 204.222 230.118 204.887 231.021C206.263 232.871 207.334 234.931 208.057 237.12C209.583 241.654 209.583 246.562 208.057 251.096C207.34 253.288 206.269 255.348 204.887 257.195C204.224 258.097 203.499 258.953 202.718 259.756C201.927 260.519 201.087 261.231 200.203 261.887C199.779 262.224 199.331 262.531 198.863 262.805C198.404 263.084 197.952 263.378 197.485 263.626C196.551 264.113 195.585 264.535 194.594 264.891C193.629 265.241 192.643 265.528 191.642 265.749C191.145 265.855 190.648 265.908 190.136 265.99C189.639 266.082 189.135 266.135 188.63 266.149L187.169 266.216C186.679 266.216 186.205 266.179 185.723 266.156C184.785 266.112 183.852 266.001 182.929 265.825C179.853 265.236 176.938 264 174.376 262.198C171.815 260.396 169.666 258.069 168.073 255.373C166.976 253.545 166.169 251.559 165.678 249.485C165.476 248.744 165.333 247.989 165.249 247.226C165.204 246.887 165.151 246.585 165.121 246.299C165.091 246.013 165.121 245.765 165.121 245.546C165.121 245.102 165.121 244.756 165.121 244.5C165.121 244.244 165.121 244.146 165.121 244.146C165.14 244.263 165.152 244.381 165.159 244.5C165.159 244.748 165.204 245.094 165.234 245.539C165.234 245.77 165.249 246.021 165.279 246.292C165.279 246.57 165.369 246.879 165.422 247.21C165.524 247.973 165.677 248.728 165.881 249.469C166.4 251.518 167.222 253.478 168.321 255.283C169.915 257.917 172.046 260.186 174.574 261.942C177.103 263.699 179.973 264.904 182.997 265.478C183.908 265.645 184.829 265.751 185.753 265.795C186.22 265.795 186.694 265.855 187.169 265.847L188.615 265.772C189.102 265.756 189.588 265.703 190.068 265.614C190.55 265.531 191.047 265.478 191.529 265.373C192.515 265.154 193.486 264.87 194.435 264.522C195.409 264.17 196.357 263.752 197.274 263.272C197.734 263.024 198.17 262.73 198.63 262.466C199.086 262.192 199.524 261.888 199.94 261.555C200.81 260.914 201.635 260.215 202.41 259.462C203.176 258.667 203.888 257.822 204.541 256.932C205.897 255.105 206.947 253.071 207.651 250.908C209.146 246.454 209.146 241.634 207.651 237.18C206.946 235.018 205.896 232.983 204.541 231.156C203.886 230.27 203.174 229.428 202.41 228.634C201.633 227.881 200.808 227.179 199.94 226.533C199.526 226.2 199.088 225.898 198.63 225.629C198.17 225.358 197.734 225.072 197.274 224.824C196.36 224.337 195.411 223.92 194.435 223.574C193.487 223.223 192.516 222.937 191.529 222.715C191.047 222.617 190.55 222.557 190.068 222.482C189.589 222.388 189.103 222.335 188.615 222.324L187.176 222.248C186.695 222.248 186.22 222.286 185.753 222.301C184.828 222.341 183.907 222.447 182.997 222.617C179.959 223.191 177.076 224.401 174.537 226.167C171.999 227.933 169.863 230.216 168.268 232.866C167.168 234.67 166.346 236.63 165.829 238.679C165.623 239.42 165.47 240.175 165.369 240.938C165.317 241.269 165.256 241.57 165.226 241.857C165.196 242.143 165.226 242.391 165.181 242.61C165.181 243.054 165.128 243.4 165.106 243.656C165.103 243.805 165.091 243.953 165.068 244.101Z" fill="#D1D1D1"/>
<path d="M187.018 234.265L177.5 242.917V253.888H184.91V247.315H189.631V253.888H196.544V242.917L187.018 234.265Z" fill="#263238"/>
<path d="M102.501 234.378C102.411 234.326 111.861 219.378 123.585 201.013C135.309 182.647 144.933 167.79 145.023 167.88C145.114 167.971 135.663 182.873 123.939 201.254C112.215 219.634 102.591 234.439 102.501 234.378Z" fill="#D1D1D1"/>
<path d="M98.9468 265.772C111.07 265.772 120.897 255.944 120.897 243.821C120.897 231.699 111.07 221.871 98.9468 221.871C86.8241 221.871 76.9967 231.699 76.9967 243.821C76.9967 255.944 86.8241 265.772 98.9468 265.772Z" fill="white"/>
<path d="M120.897 243.821C120.878 243.704 120.865 243.586 120.859 243.467C120.859 243.211 120.814 242.865 120.784 242.421C120.784 242.195 120.784 241.939 120.739 241.668C120.694 241.396 120.648 241.08 120.596 240.749C120.499 239.985 120.346 239.23 120.136 238.49C119.623 236.439 118.8 234.479 117.697 232.677C116.102 230.027 113.966 227.744 111.428 225.978C108.889 224.212 106.006 223.002 102.968 222.428C102.058 222.258 101.137 222.152 100.212 222.112C99.7449 222.112 99.2705 222.052 98.7961 222.059L97.3504 222.135C96.8624 222.147 96.3762 222.2 95.8971 222.293C95.4151 222.368 94.9182 222.428 94.4362 222.526C93.4494 222.748 92.4784 223.034 91.5296 223.385C90.5549 223.733 89.6062 224.151 88.6908 224.635C88.2315 224.883 87.7947 225.169 87.3354 225.44C86.8785 225.711 86.4407 226.013 86.0251 226.344C85.1587 226.992 84.3338 227.693 83.5553 228.445C82.7912 229.239 82.0793 230.081 81.4243 230.967C80.0695 232.794 79.0193 234.829 78.3144 236.991C76.8187 241.445 76.8187 246.265 78.3144 250.719C79.0178 252.882 80.0681 254.916 81.4243 256.743C82.0774 257.633 82.7893 258.478 83.5553 259.273C84.3303 260.026 85.1555 260.725 86.0251 261.366C86.4393 261.701 86.8772 262.006 87.3354 262.277C87.7947 262.541 88.2315 262.835 88.6908 263.083C89.6092 263.56 90.5575 263.978 91.5296 264.333C92.4774 264.684 93.4487 264.969 94.4362 265.184C94.9182 265.289 95.4151 265.342 95.8971 265.425C96.3768 265.514 96.8626 265.567 97.3504 265.583L98.7961 265.658C99.2705 265.658 99.7449 265.658 100.212 265.606C101.137 265.563 102.057 265.457 102.968 265.289C106.008 264.719 108.892 263.51 111.431 261.744C113.969 259.977 116.105 257.693 117.697 255.041C118.799 253.238 119.622 251.278 120.136 249.228C120.344 248.487 120.498 247.732 120.596 246.969C120.648 246.637 120.709 246.329 120.739 246.05L120.784 245.297C120.784 244.853 120.844 244.544 120.859 244.258C120.865 244.139 120.878 244.021 120.897 243.904C120.897 243.904 120.897 244.024 120.897 244.258C120.897 244.491 120.897 244.86 120.897 245.305C120.897 245.538 120.897 245.794 120.897 246.058C120.897 246.321 120.814 246.652 120.769 246.984C120.684 247.746 120.543 248.501 120.347 249.243C119.854 251.317 119.043 253.303 117.945 255.131C116.344 257.822 114.19 260.141 111.625 261.935C109.059 263.729 106.142 264.957 103.066 265.538C102.143 265.714 101.21 265.825 100.272 265.869C99.7976 265.869 99.3157 265.937 98.8263 265.929L97.3654 265.862C96.8601 265.848 96.3565 265.795 95.8594 265.703C95.3624 265.621 94.8654 265.568 94.3534 265.463C93.3518 265.241 92.3657 264.954 91.4016 264.604C90.4102 264.248 89.4441 263.826 88.5101 263.339C88.0432 263.091 87.5914 262.797 87.1321 262.518C86.664 262.244 86.2161 261.937 85.7917 261.6C84.9085 260.944 84.0684 260.232 83.2767 259.469C82.4961 258.666 81.7715 257.81 81.108 256.908C79.7318 255.058 78.6614 252.999 77.9379 250.809C76.4119 246.275 76.4119 241.367 77.9379 236.833C78.6614 234.644 79.7318 232.584 81.108 230.734C81.7759 229.831 82.5029 228.973 83.2842 228.166C84.0737 227.403 84.9112 226.691 85.7917 226.035C86.218 225.7 86.6657 225.393 87.1321 225.116C87.5989 224.845 88.0432 224.552 88.5101 224.296C89.4442 223.811 90.4103 223.391 91.4016 223.038C92.3646 222.684 93.3509 222.398 94.3534 222.18C94.8504 222.074 95.3474 222.014 95.8594 221.939C96.3565 221.847 96.8601 221.794 97.3654 221.781L98.8263 221.705C99.3157 221.705 99.7901 221.751 100.272 221.766C101.21 221.814 102.143 221.925 103.066 222.097C106.143 222.685 109.06 223.921 111.622 225.725C114.183 227.529 116.331 229.857 117.923 232.556C119.021 234.384 119.831 236.37 120.325 238.445C120.521 239.186 120.662 239.941 120.746 240.704C120.791 241.035 120.852 241.344 120.874 241.622C120.897 241.901 120.874 242.165 120.874 242.375C120.874 242.82 120.874 243.166 120.874 243.422C120.874 243.678 120.897 243.821 120.897 243.821Z" fill="#D1D1D1"/>
<path d="M107.441 232.391H90.2043V255.245H107.441V232.391Z" fill="#263238"/>
<path d="M99.6546 236.043C97.7786 236.304 95.8755 236.304 93.9995 236.043C95.8755 235.782 97.7786 235.782 99.6546 236.043Z" fill="#455A64"/>
<path d="M104.647 239.258C102.766 239.452 100.874 239.517 98.9842 239.454C97.0969 239.518 95.2075 239.452 93.3291 239.258C95.2075 239.064 97.0969 238.999 98.9842 239.063C100.874 238.999 102.766 239.065 104.647 239.258Z" fill="#455A64"/>
<path d="M104.647 241.216C102.766 241.41 100.874 241.475 98.9842 241.412C97.0969 241.476 95.2075 241.41 93.3291 241.216C95.2068 241.013 97.0967 240.945 98.9842 241.013C100.874 240.945 102.767 241.013 104.647 241.216Z" fill="#455A64"/>
<path d="M104.647 243.166C102.766 243.36 100.874 243.425 98.9842 243.362C97.0969 243.426 95.2075 243.36 93.3291 243.166C95.2075 242.973 97.0969 242.907 98.9842 242.971C100.874 242.907 102.766 242.973 104.647 243.166Z" fill="#455A64"/>
<path d="M104.647 245.147C102.766 245.34 100.874 245.406 98.9842 245.342C97.0969 245.406 95.2075 245.34 93.3291 245.147C95.2068 244.943 97.0967 244.875 98.9842 244.943C100.874 244.876 102.767 244.943 104.647 245.147Z" fill="#455A64"/>
<path d="M104.647 247.074C102.766 247.267 100.874 247.333 98.9842 247.269C97.0969 247.333 95.2075 247.267 93.3291 247.074C95.2075 246.88 97.0969 246.814 98.9842 246.878C100.874 246.815 102.766 246.88 104.647 247.074Z" fill="#455A64"/>
<path d="M104.647 249.025C102.767 249.228 100.874 249.296 98.9842 249.228C97.0967 249.296 95.2068 249.228 93.3291 249.025C95.2075 248.831 97.0969 248.766 98.9842 248.829C100.874 248.766 102.766 248.831 104.647 249.025Z" fill="#455A64"/>
<path d="M104.647 250.982C102.766 251.175 100.874 251.241 98.9842 251.177C97.0969 251.241 95.2075 251.176 93.3291 250.982C95.2075 250.788 97.0969 250.722 98.9842 250.786C100.874 250.723 102.766 250.788 104.647 250.982Z" fill="#455A64"/>
<path d="M288.441 130.615H94.1123C84.2186 130.615 76.1983 138.635 76.1983 148.529V150.494C76.1983 160.388 84.2186 168.408 94.1123 168.408H288.441C298.334 168.408 306.355 160.388 306.355 150.494V148.529C306.355 138.635 298.334 130.615 288.441 130.615Z" fill="white"/>
<path d="M255.361 130.275V168.408H287.552C292.609 168.408 297.46 166.399 301.037 162.824C304.613 159.248 306.624 154.399 306.626 149.341C306.626 146.837 306.132 144.357 305.174 142.043C304.215 139.73 302.81 137.627 301.039 135.857C299.267 134.086 297.165 132.682 294.851 131.724C292.537 130.767 290.057 130.274 287.552 130.275H255.361Z" fill="#257CFF"/>
<path d="M285.293 148.28C285.222 147.627 285.114 146.978 284.969 146.337C284.503 144.602 283.469 143.072 282.033 141.993C280.979 141.198 279.743 140.682 278.438 140.489C277.133 140.297 275.8 140.436 274.563 140.893C273.845 141.152 273.172 141.52 272.567 141.985C271.931 142.454 271.37 143.018 270.903 143.657C269.915 145.004 269.382 146.632 269.382 148.303C269.382 149.974 269.915 151.601 270.903 152.949C271.364 153.592 271.926 154.157 272.567 154.62C273.171 155.079 273.841 155.442 274.555 155.697C275.593 156.073 276.697 156.229 277.798 156.155C278.899 156.081 279.973 155.78 280.951 155.269C281.93 154.759 282.791 154.051 283.482 153.19C284.172 152.329 284.676 151.334 284.962 150.268C285.107 149.625 285.215 148.973 285.286 148.318C285.331 148.986 285.27 149.657 285.105 150.306C284.682 152.102 283.653 153.698 282.191 154.824C281.106 155.665 279.826 156.218 278.47 156.432C277.114 156.645 275.725 156.511 274.435 156.044C273.683 155.784 272.976 155.408 272.341 154.929C271.67 154.443 271.081 153.853 270.594 153.182C269.552 151.772 268.99 150.064 268.99 148.31C268.99 146.557 269.552 144.849 270.594 143.438C271.562 142.124 272.899 141.128 274.435 140.577C275.818 140.083 277.307 139.969 278.749 140.246C280.282 140.541 281.697 141.272 282.824 142.351C283.951 143.43 284.743 144.812 285.105 146.33C285.27 146.966 285.333 147.624 285.293 148.28Z" fill="white"/>
<path d="M292.763 159.545C291.15 158.623 289.6 157.594 288.124 156.465C286.576 155.435 285.101 154.298 283.712 153.062C285.327 153.98 286.877 155.009 288.35 156.142C289.899 157.172 291.373 158.309 292.763 159.545Z" fill="white"/>
<path d="M238.78 145.968H98.0808V154.055H238.78V145.968Z" fill="#EBEBEB"/>
<path d="M188.72 144.914C188.035 144.115 187.967 143.408 189.511 143.302C192.907 142.993 195.407 141.51 195.806 140.652C196.205 139.793 195.121 138.957 194.202 139.469C193.147 139.927 192.035 140.241 190.897 140.403C189.982 140.558 189.048 140.558 188.133 140.403C187.342 140.283 186.627 140.147 186.025 140.019C186.025 140.019 182.433 139.266 180.882 138.031L173.276 146.156L176.845 150.185C177.38 150.936 178.098 151.539 178.931 151.934C179.764 152.329 180.684 152.505 181.604 152.444C184.662 152.142 188.781 149.951 188.781 149.951C189.338 149.093 194.262 152.135 195.851 153.272C197.44 154.409 198.607 154.123 198.547 153.031C198.509 152.278 193.735 148.679 192.139 147.587C190.904 146.816 189.758 145.912 188.72 144.891" fill="#FFBE9D"/>
<path d="M184.255 151.969C184.255 152.021 184.036 152.112 183.637 152.104C183.124 152.071 182.632 151.888 182.222 151.577C181.813 151.267 181.503 150.842 181.333 150.357C181.213 149.988 181.25 149.74 181.295 149.732C181.586 150.304 181.982 150.815 182.463 151.238C183.007 151.596 183.616 151.844 184.255 151.969Z" fill="#EB996E"/>
<path d="M187.267 150.787C187.267 150.832 187.049 150.915 186.672 150.892C186.183 150.844 185.717 150.658 185.329 150.355C184.941 150.053 184.647 149.646 184.481 149.183C184.368 148.829 184.391 148.595 184.436 148.588C184.481 148.58 184.752 149.424 185.573 150.049C186.096 150.382 186.667 150.631 187.267 150.787Z" fill="#EB996E"/>
<path d="M195.467 66.2542C195.783 72.9258 203.923 82.0673 209.978 83.5733C213.155 84.3263 216.815 83.9875 219.337 86.126C223.667 89.7931 221.137 97.4211 224.051 102.316C225.843 105.328 229.405 106.834 231.423 109.688C234.774 114.462 232.523 121.675 227.952 125.23C223.381 128.784 217.282 129.462 211.551 129.311C198.939 128.987 186.024 124.981 176.913 116.043C172.629 111.841 155.874 98.8819 161.717 68.1517" fill="#263238"/>
<path d="M240.979 113.995L193.035 99.7627C190.801 98.786 188.457 98.0807 186.055 97.6619L169.865 97.7673C167.727 97.7745 165.613 98.2177 163.653 99.07L120.016 113.565C116.786 114.589 114.557 117.903 114.557 121.675C114.557 126.321 117.908 130.094 122.042 130.094H142.222L142.139 130.388L212.229 130.651L238.983 130.704C243.118 130.704 246.468 126.901 246.468 122.202C246.438 118.377 244.209 115.026 240.979 113.995Z" fill="#257CFF"/>
<path d="M231.371 119.183C231.225 119.198 231.079 119.198 230.934 119.183L229.699 119.04C228.63 118.904 227.079 118.731 225.181 118.55C220.176 118.068 215.149 117.857 210.121 117.918C205.101 117.992 200.089 118.334 195.106 118.942C193.193 119.175 191.642 119.386 190.588 119.552L189.353 119.725C189.211 119.751 189.068 119.764 188.924 119.763C189.055 119.705 189.195 119.667 189.338 119.65L190.558 119.401C191.619 119.191 193.163 118.935 195.076 118.648C200.068 117.96 205.097 117.58 210.136 117.511C215.167 117.449 220.197 117.701 225.196 118.264C227.116 118.483 228.667 118.701 229.714 118.882L230.941 119.093C231.088 119.102 231.233 119.133 231.371 119.183Z" fill="#263238"/>
<g opacity="0.6">
<path opacity="0.6" d="M220.121 107.534C220.084 107.593 220.038 107.647 219.985 107.692L219.563 108.136C219.187 108.52 218.63 109.092 217.869 109.785C216.951 110.63 215.978 111.413 214.955 112.127C213.598 113.095 212.081 113.819 210.475 114.266C208.503 114.754 206.438 114.713 204.488 114.145C202.284 113.463 200.167 112.528 198.178 111.359C196.014 110.066 193.726 108.994 191.348 108.159C188.791 107.281 185.994 107.424 183.54 108.558C181.017 109.695 178.871 111.427 176.529 112.677C175.949 113 175.332 113.249 174.737 113.52C174.133 113.755 173.517 113.958 172.892 114.13C171.688 114.474 170.451 114.688 169.202 114.77C164.847 115.086 160.516 113.895 156.936 111.397C155.621 110.393 154.383 109.293 153.231 108.106C152.358 107.229 151.397 106.444 150.362 105.764C149.468 105.201 148.469 104.827 147.425 104.665C147.701 104.669 147.976 104.7 148.246 104.755C149.023 104.921 149.766 105.216 150.445 105.629C151.502 106.297 152.486 107.074 153.382 107.948C154.54 109.11 155.78 110.187 157.094 111.171C160.636 113.596 164.9 114.739 169.18 114.409C170.403 114.325 171.615 114.113 172.794 113.776C173.404 113.604 174.005 113.401 174.594 113.166C175.174 112.903 175.776 112.662 176.341 112.338C178.652 111.11 180.791 109.371 183.381 108.196C185.923 107.03 188.815 106.885 191.461 107.79C193.862 108.639 196.17 109.729 198.351 111.043C200.312 112.205 202.398 113.14 204.571 113.829C206.467 114.399 208.481 114.456 210.407 113.994C211.989 113.569 213.486 112.877 214.834 111.946C215.859 111.258 216.838 110.504 217.764 109.687C218.517 109.017 219.112 108.467 219.511 108.106L219.955 107.684C220.06 107.571 220.113 107.526 220.121 107.534Z" fill="white"/>
</g>
<g opacity="0.2">
<path opacity="0.2" d="M145.618 119.085L175.927 124.801L172.425 130.501L171.499 130.516L145.618 119.085Z" fill="black"/>
</g>
<g opacity="0.6">
<path opacity="0.6" d="M237.357 113.099C237.373 113.251 237.373 113.405 237.357 113.558C237.34 114.002 237.295 114.445 237.221 114.883C236.738 117.638 235.277 120.125 233.106 121.887C230.936 123.65 228.201 124.57 225.407 124.477C223.873 124.381 222.356 124.103 220.889 123.648C219.383 123.219 217.914 122.745 216.476 122.459C215.102 122.152 213.687 122.079 212.289 122.24C210.295 122.479 208.379 123.159 206.679 124.229C204.98 125.3 203.54 126.735 202.463 128.43L202.071 129.085C201.976 129.276 201.893 129.442 201.822 129.582C201.761 129.726 201.682 129.863 201.589 129.989C201.63 129.839 201.683 129.693 201.747 129.552C201.815 129.401 201.883 129.228 201.966 129.032L202.334 128.355C203.15 126.926 204.241 125.672 205.542 124.665C207.482 123.14 209.802 122.176 212.252 121.879C213.689 121.708 215.144 121.776 216.559 122.082C218.027 122.368 219.496 122.835 221.009 123.272C222.455 123.72 223.949 123.995 225.459 124.093C227.356 124.155 229.238 123.747 230.938 122.905C232.639 122.063 234.104 120.812 235.203 119.266C236.125 117.946 236.771 116.452 237.101 114.876C237.319 113.739 237.312 113.091 237.357 113.099Z" fill="white"/>
</g>
<path d="M120.054 129.123C120.054 129.123 174.842 153.279 174.601 152.745C174.36 152.21 183.299 136.344 183.299 136.344L138.909 114.402L120.054 129.123Z" fill="#257CFF"/>
<path d="M145.234 117.533C145.622 117.662 146 117.821 146.364 118.008L149.376 119.431C151.921 120.643 155.4 122.345 159.263 124.25C163.126 126.155 166.589 127.895 169.097 129.175L172.056 130.681C172.426 130.854 172.782 131.058 173.118 131.291C172.728 131.169 172.35 131.013 171.988 130.824L168.976 129.401C166.439 128.188 162.952 126.487 159.089 124.581C155.227 122.676 151.763 120.937 149.255 119.657L146.296 118.151C145.927 117.973 145.572 117.766 145.234 117.533Z" fill="#263238"/>
<g opacity="0.6">
<path opacity="0.6" d="M157.237 124.868C157.167 125.437 156.993 125.988 156.725 126.494C155.998 127.894 154.857 129.035 153.457 129.762C152.517 130.281 151.5 130.647 150.445 130.847C149.217 131.036 147.968 131.036 146.74 130.847C143.956 130.365 141.262 129.461 138.751 128.166C136.25 126.9 133.629 125.886 130.927 125.139C129.756 124.844 128.55 124.705 127.343 124.725C126.289 124.753 125.244 124.931 124.24 125.252C122.771 125.687 121.448 126.515 120.415 127.646C120.063 128.08 119.733 128.533 119.429 129.002C119.635 128.471 119.93 127.98 120.302 127.548C121.318 126.346 122.655 125.458 124.158 124.988C125.181 124.641 126.248 124.443 127.328 124.401C128.567 124.365 129.806 124.497 131.01 124.792C133.727 125.535 136.359 126.56 138.864 127.85C141.343 129.125 143.997 130.029 146.74 130.53C147.933 130.715 149.147 130.715 150.34 130.53C151.375 130.351 152.376 130.011 153.306 129.521C154.675 128.838 155.81 127.763 156.567 126.434C156.826 125.928 157.049 125.404 157.237 124.868Z" fill="white"/>
</g>
<g opacity="0.6">
<path opacity="0.6" d="M180.498 141.442C180.498 141.51 179.285 141.314 177.327 141.276C176.183 141.265 175.038 141.325 173.901 141.457C172.51 141.626 171.133 141.898 169.782 142.27C168.439 142.662 167.125 143.15 165.852 143.731C164.815 144.218 163.809 144.769 162.84 145.38C161.19 146.434 160.272 147.24 160.227 147.18C160.404 146.954 160.609 146.752 160.837 146.577C161.423 146.064 162.042 145.588 162.689 145.154C163.647 144.496 164.654 143.912 165.701 143.407C168.262 142.168 171.019 141.386 173.849 141.095C175.004 140.979 176.167 140.949 177.327 141.005C178.108 141.032 178.885 141.112 179.654 141.246C179.943 141.273 180.227 141.339 180.498 141.442Z" fill="white"/>
</g>
<g opacity="0.2">
<path opacity="0.2" d="M187.252 97.5568C186.348 100.087 187.704 102.828 189.029 105.162C189.873 106.838 190.942 108.391 192.207 109.778C192.84 110.472 193.608 111.03 194.464 111.418C195.319 111.806 196.245 112.017 197.184 112.037C199.646 111.954 201.845 110.139 204.307 110.283C205.979 110.38 207.44 111.367 208.825 112.301C211.176 114.006 213.724 115.42 216.416 116.51C219.132 117.596 222.124 117.784 224.955 117.045C226.358 116.656 227.638 115.914 228.673 114.89C229.708 113.865 230.463 112.593 230.866 111.194" fill="black"/>
</g>
<path d="M187.455 96.8634C187.583 93.9117 187.741 91.246 187.741 91.246C187.741 91.246 194.338 90.4102 194.616 83.716C194.895 77.0217 194.232 61.4947 194.232 61.4947L182.131 55.6364L169.082 66.1784L171.122 97.0517C171.266 99.1925 172.243 101.192 173.843 102.621C175.444 104.049 177.541 104.794 179.684 104.695C181.723 104.593 183.65 103.734 185.087 102.285C186.525 100.836 187.369 98.9027 187.455 96.8634Z" fill="#FFBE9D"/>
<path d="M193.095 73.6255C193.094 73.7898 193.044 73.9501 192.952 74.0862C192.86 74.2223 192.73 74.3282 192.578 74.3908C192.426 74.4533 192.259 74.4696 192.097 74.4378C191.936 74.4059 191.788 74.3271 191.671 74.2114C191.554 74.0958 191.474 73.9482 191.441 73.7873C191.408 73.6264 191.423 73.4592 191.484 73.3066C191.545 73.1541 191.65 73.023 191.785 72.9297C191.92 72.8364 192.08 72.7851 192.244 72.7821C192.469 72.7821 192.684 72.8707 192.843 73.0287C193.003 73.1866 193.093 73.4011 193.095 73.6255Z" fill="#263238"/>
<path d="M193.908 71.8341C193.803 71.9471 193.155 71.4124 192.274 71.3823C191.393 71.3522 190.701 71.804 190.603 71.6835C190.505 71.563 190.663 71.42 190.957 71.2091C191.347 70.9323 191.819 70.7944 192.297 70.8176C192.774 70.8439 193.23 71.0205 193.6 71.3221C193.871 71.563 193.961 71.7814 193.908 71.8341Z" fill="#263238"/>
<path d="M183.095 73.6255C183.095 73.7917 183.046 73.9541 182.954 74.0924C182.862 74.2308 182.731 74.3389 182.578 74.4031C182.425 74.4674 182.256 74.4849 182.093 74.4536C181.93 74.4223 181.779 74.3434 181.661 74.227C181.542 74.1105 181.461 73.9617 181.427 73.7991C181.392 73.6365 181.407 73.4674 181.468 73.3131C181.53 73.1587 181.636 73.026 181.772 72.9315C181.909 72.8371 182.071 72.7851 182.237 72.7821C182.349 72.7811 182.459 72.8022 182.563 72.844C182.667 72.8859 182.761 72.9477 182.841 73.026C182.92 73.1043 182.984 73.1976 183.028 73.3004C183.071 73.4033 183.094 73.5138 183.095 73.6255Z" fill="#263238"/>
<path d="M183.909 72.0072C183.803 72.1202 183.156 71.5856 182.267 71.5554C181.378 71.5253 180.693 71.9771 180.603 71.8566C180.512 71.7362 180.663 71.5931 180.957 71.3823C181.345 71.1065 181.814 70.9687 182.29 70.9907C182.769 71.0121 183.227 71.1923 183.592 71.5027C183.871 71.7362 183.961 71.9545 183.909 72.0072Z" fill="#263238"/>
<path d="M187.297 79.7702C187.787 79.63 188.294 79.554 188.803 79.5443C189.029 79.5443 189.255 79.4916 189.293 79.326C189.32 79.0663 189.271 78.8044 189.15 78.5729C188.946 77.963 188.728 77.3305 188.495 76.6603C187.889 75.0365 187.403 73.3704 187.041 71.6754C187.771 73.2459 188.38 74.8695 188.864 76.5323C189.082 77.2025 189.293 77.8425 189.489 78.4525C189.631 78.7556 189.668 79.0973 189.594 79.4238C189.561 79.5074 189.509 79.5821 189.443 79.6422C189.376 79.7023 189.296 79.7462 189.21 79.7702C189.082 79.8018 188.95 79.817 188.818 79.8154C188.312 79.869 187.8 79.8538 187.297 79.7702Z" fill="#263238"/>
<path d="M184.33 80.6965C183.412 80.094 186.883 82.2025 188.72 82.1648C188.406 82.6373 187.939 82.9873 187.398 83.156C186.856 83.3247 186.273 83.3017 185.746 83.091C183.803 82.2853 184.33 80.6965 184.33 80.6965Z" fill="white"/>
<path d="M187.741 91.2463C184.616 91.1601 181.584 90.1659 179.014 88.3849C179.014 88.3849 181.07 93.287 187.628 92.9029L187.741 91.2463Z" fill="#EB996E"/>
<path d="M161.966 72.7827C161.966 78.6035 160.422 94.0025 171.002 96.1259L170.648 74.9664C170.648 74.9664 180.927 70.1171 182.696 60.0193L182.756 60.0795C183.411 61.5855 184.586 64.8762 183.871 67.5418L193.502 69.9138L194.609 70.9228C194.609 70.9228 198.035 63.3927 191.423 56.6157C184.812 49.8386 179.157 54.7407 175.61 54.3567C173.253 54.0705 165.068 54.1232 161.747 68.2045L161.966 72.7827Z" fill="#263238"/>
<path d="M170.912 75.1702C170.015 74.613 168.788 75.0723 168.08 75.8479C167.512 76.4638 167.16 77.2475 167.076 78.0811C166.993 78.9146 167.182 79.7528 167.617 80.4691C168.051 81.1855 168.706 81.7413 169.484 82.0528C170.262 82.3642 171.119 82.4144 171.928 82.1958" fill="#FFBE9D"/>
<path d="M170.708 80.185C170.708 80.2302 170.407 80.2829 169.955 80.185C169.637 80.1051 169.344 79.9497 169.099 79.7322C168.853 79.5146 168.664 79.2412 168.547 78.9351C168.423 78.576 168.439 78.1833 168.592 77.8357C168.717 77.5632 168.915 77.3311 169.165 77.1655C169.586 76.8944 169.918 76.917 169.918 76.9622C169.918 77.0074 169.654 77.1053 169.338 77.3914C169.135 77.5588 168.988 77.7836 168.915 78.0362C168.843 78.2889 168.848 78.5576 168.931 78.8071C169.033 79.0604 169.186 79.2901 169.38 79.4819C169.574 79.6736 169.806 79.8233 170.061 79.9215C170.43 80.0721 170.708 80.1248 170.708 80.185Z" fill="#EB996E"/>
<path d="M169.827 81.5093C169.644 81.5457 169.481 81.6491 169.369 81.7992C169.258 81.9494 169.206 82.1356 169.225 82.3216C169.243 82.5076 169.33 82.6802 169.468 82.8058C169.607 82.9313 169.787 83.0008 169.974 83.0008C170.161 83.0008 170.341 82.9313 170.48 82.8058C170.618 82.6802 170.705 82.5076 170.724 82.3216C170.742 82.1356 170.69 81.9494 170.579 81.7992C170.468 81.6491 170.304 81.5457 170.121 81.5093" fill="#257CFF"/>
<path d="M189.33 130.688V119.627C189.33 119.627 172.907 123.03 172.606 130.553L189.33 130.688Z" fill="#FFBE9D"/>
<path d="M187.621 95.6961C187.897 99.103 189.429 102.286 191.92 104.626C194.411 106.967 197.682 108.298 201.1 108.362C203.524 108.399 206.077 107.827 208.291 108.814C210.219 109.679 211.461 111.539 212.975 113.008C214.781 114.711 217.01 115.899 219.431 116.447C221.852 116.995 224.376 116.884 226.74 116.125C228.735 115.455 231.89 114.024 232.259 111.961C232.545 110.387 230.618 108.821 229.488 107.699C228.295 106.63 226.927 105.774 225.444 105.169C213.743 99.672 201.19 95.6811 188.284 94.9958" fill="#263238"/>
</g>
<defs>
<filter id="filter0_d_50_504" x="40.4249" y="20.804" width="301.974" height="284.763" filterUnits="userSpaceOnUse" color-interpolation-filters="sRGB">
<feFlood flood-opacity="0" result="BackgroundImageFix"/>
<feColorMatrix in="SourceAlpha" type="matrix" values="0 0 0 0 0 0 0 0 0 0 0 0 0 0 0 0 0 0 127 0" result="hardAlpha"/>
<feOffset dy="3.57734"/>
<feGaussianBlur stdDeviation="17.8867"/>
<feComposite in2="hardAlpha" operator="out"/>
<feColorMatrix type="matrix" values="0 0 0 0 0.331875 0 0 0 0 0.459415 0 0 0 0 0.651458 0 0 0 0.4 0"/>
<feBlend mode="normal" in2="BackgroundImageFix" result="effect1_dropShadow_50_504"/>
<feBlend mode="normal" in="SourceGraphic" in2="effect1_dropShadow_50_504" result="shape"/>
</filter>
</defs>
</svg>
