<svg width="379" height="320" viewBox="0 0 379 320" fill="none" xmlns="http://www.w3.org/2000/svg">
<g clip-path="url(#clip0_50_569)">
<rect width="379" height="320" fill="white"/>
<g filter="url(#filter0_d_50_569)">
<path d="M328.569 84.0988H249.998V215.371H328.569V84.0988Z" fill="#F5F5F5"/>
<path d="M270.84 161.4L271.683 163.104L273.568 163.385L272.204 164.709L272.525 166.587L270.84 165.698L269.156 166.587L269.483 164.709L268.12 163.385L269.998 163.104L270.84 161.4Z" fill="#257CFF"/>
<path d="M280.199 161.4L281.041 163.104L282.926 163.385L281.562 164.709L281.883 166.587L280.199 165.698L278.514 166.587L278.835 164.709L277.471 163.385L279.357 163.104L280.199 161.4Z" fill="#257CFF"/>
<path d="M289.551 161.4L290.393 163.104L292.278 163.385L290.914 164.709L291.235 166.587L289.551 165.698L287.873 166.587L288.194 164.709L286.83 163.385L288.708 163.104L289.551 161.4Z" fill="#257CFF"/>
<path d="M298.909 161.4L299.751 163.104L301.636 163.385L300.273 164.709L300.593 166.587L298.909 165.698L297.224 166.587L297.545 164.709L296.182 163.385L298.067 163.104L298.909 161.4Z" fill="#257CFF"/>
<path d="M308.261 161.4L309.103 163.104L310.988 163.385L309.624 164.709L309.945 166.587L308.261 165.698L306.583 166.587L306.904 164.709L305.54 163.385L307.425 163.104L308.261 161.4Z" fill="#257CFF"/>
<path d="M286.075 176.787C286.075 176.888 280.112 176.961 272.752 176.961C265.392 176.961 259.43 176.888 259.43 176.787C259.43 176.687 265.392 176.614 272.752 176.614C280.112 176.614 286.075 176.694 286.075 176.787Z" fill="#257CFF"/>
<path d="M319.558 182.61C319.558 182.703 306.255 182.784 289.845 182.784C273.434 182.784 260.132 182.703 260.132 182.61C260.132 182.516 273.434 182.436 289.845 182.436C306.255 182.436 319.558 182.476 319.558 182.61Z" fill="#263238"/>
<path d="M319.558 187.543C319.558 187.637 306.255 187.717 289.845 187.717C273.434 187.717 260.132 187.637 260.132 187.543C260.132 187.45 273.434 187.37 289.845 187.37C306.255 187.37 319.558 187.45 319.558 187.543Z" fill="#263238"/>
<path d="M319.558 192.517C319.558 192.611 306.255 192.691 289.845 192.691C273.434 192.691 260.132 192.611 260.132 192.517C260.132 192.424 273.434 192.344 289.845 192.344C306.255 192.344 319.558 192.417 319.558 192.517Z" fill="#263238"/>
<path d="M319.558 197.483C319.558 197.584 306.255 197.657 289.845 197.657C273.434 197.657 260.132 197.584 260.132 197.483C260.132 197.383 273.434 197.309 289.845 197.309C306.255 197.309 319.558 197.39 319.558 197.483Z" fill="#263238"/>
<path d="M319.558 202.456C319.558 202.55 306.255 202.63 289.845 202.63C273.434 202.63 260.132 202.55 260.132 202.456C260.132 202.363 273.434 202.283 289.845 202.283C306.255 202.283 319.558 202.356 319.558 202.456Z" fill="#263238"/>
<path d="M322.847 90.7634H255.165V155.738H322.847V90.7634Z" fill="#E0E0E0"/>
<path d="M312.793 144.415L317.191 155.745H306.536L304.136 149.575L312.793 144.415Z" fill="#FFBE9D"/>
<path d="M272.224 155.745H301.081C301.529 151.48 301.81 147.449 301.81 147.449L303.294 151.46L315.413 145.397C315.413 145.397 311.008 133.652 307.318 129.675C302.639 124.641 294.277 125.142 294.277 125.142L283.394 125.323C280.609 125.652 277.898 126.443 275.372 127.662L275.105 127.743V127.796C272.752 129.802 265.68 139.28 265.68 139.28L268.287 141.814L273.634 146.794C273.628 146.81 273.624 146.827 273.624 146.844C273.624 146.861 273.628 146.878 273.634 146.894C273.675 147.436 272.224 155.745 272.224 155.745Z" fill="#257CFF"/>
<path d="M294.584 124.755C294.584 124.755 294.618 124.822 294.644 124.949C294.684 125.138 294.708 125.331 294.718 125.524C294.752 126.24 294.652 126.957 294.424 127.636C294.079 128.654 293.467 129.562 292.652 130.263C291.628 131.106 290.353 131.584 289.028 131.621C287.703 131.659 286.402 131.254 285.333 130.47C284.483 129.812 283.823 128.94 283.421 127.944C283.155 127.278 283.017 126.568 283.013 125.851C283.008 125.657 283.022 125.462 283.053 125.27C283.053 125.143 283.087 125.076 283.1 125.076C283.109 126.027 283.294 126.968 283.648 127.85C284.064 128.783 284.71 129.595 285.526 130.21C286.545 130.935 287.772 131.308 289.022 131.273C290.271 131.238 291.475 130.797 292.452 130.016C293.233 129.359 293.831 128.512 294.19 127.556C294.497 126.656 294.631 125.705 294.584 124.755Z" fill="#263238"/>
<path d="M304.892 127.335C304.892 127.368 304.598 127.335 304.123 127.535C303.452 127.789 302.867 128.23 302.439 128.805C301.824 129.676 301.449 130.692 301.349 131.753C301.189 132.95 301.155 134.3 301.102 135.704C301.028 138.525 301.135 141.052 301.269 142.923C301.329 143.786 301.389 144.514 301.429 145.103C301.474 145.37 301.485 145.641 301.463 145.911C301.382 145.654 301.326 145.39 301.295 145.123C301.222 144.608 301.115 143.866 301.021 142.943C300.779 140.536 300.69 138.116 300.754 135.697C300.777 134.356 300.871 133.018 301.035 131.686C301.153 130.576 301.574 129.519 302.251 128.632C302.718 128.037 303.358 127.602 304.083 127.388C304.276 127.33 304.476 127.298 304.678 127.295C304.818 127.315 304.892 127.321 304.892 127.335Z" fill="#263238"/>
<path d="M279.022 126.118C278.98 126.395 278.913 126.668 278.822 126.934C278.641 127.522 278.421 128.27 278.153 129.133C277.598 130.984 276.856 133.551 276.108 136.412C275.359 139.273 274.771 141.874 274.356 143.765C274.156 144.654 273.989 145.403 273.855 146.005C273.811 146.284 273.737 146.557 273.634 146.82C273.638 146.538 273.668 146.256 273.721 145.978C273.802 145.443 273.935 144.641 274.109 143.719C274.47 141.807 275.032 139.186 275.774 136.325C276.516 133.464 277.304 130.898 277.919 129.059C278.227 128.137 278.487 127.401 278.681 126.893C278.768 126.624 278.882 126.364 279.022 126.118Z" fill="#263238"/>
<path opacity="0.2" d="M300.908 136.487L304.918 150.698L303.321 151.5L301.837 147.49C301.837 147.49 300.366 139.027 300.908 136.487Z" fill="black"/>
<g opacity="0.2">
<path opacity="0.2" d="M279.49 126.132C277.171 127.308 282.866 130.356 285.466 130.33L283.701 125.276C283.701 125.276 280.266 125.737 279.49 126.132Z" fill="black"/>
</g>
<path d="M289.283 131.299C288.478 131.354 287.67 131.239 286.911 130.961C286.153 130.683 285.462 130.249 284.883 129.687C284.303 129.124 283.849 128.446 283.548 127.697C283.248 126.947 283.109 126.143 283.14 125.336C283.207 123.484 283.267 121.994 283.267 121.994C283.267 121.994 278.675 121.593 278.314 117.054C277.953 112.515 278.033 102.027 278.033 102.027C280.542 100.743 283.347 100.153 286.161 100.316C288.974 100.479 291.693 101.391 294.036 102.956L294.744 103.424L294.658 125.603C294.644 127.055 294.083 128.448 293.086 129.504C292.09 130.56 290.732 131.201 289.283 131.299Z" fill="#FFBE9D"/>
<path d="M280.499 110.022C280.595 109.929 280.661 109.81 280.689 109.68C280.716 109.55 280.705 109.414 280.655 109.291C280.605 109.167 280.519 109.061 280.409 108.987C280.298 108.913 280.168 108.873 280.035 108.873C279.902 108.873 279.772 108.913 279.661 108.987C279.551 109.061 279.465 109.167 279.415 109.291C279.365 109.414 279.353 109.55 279.381 109.68C279.409 109.81 279.475 109.929 279.57 110.022C279.695 110.142 279.862 110.21 280.035 110.21C280.208 110.21 280.375 110.142 280.499 110.022Z" fill="#263238"/>
<path d="M278.487 108.671C278.561 108.745 278.982 108.377 279.61 108.33C280.239 108.284 280.713 108.578 280.774 108.491C280.834 108.404 280.727 108.317 280.52 108.177C280.237 108.004 279.907 107.925 279.577 107.949C279.248 107.976 278.937 108.107 278.688 108.324C278.507 108.491 278.447 108.638 278.487 108.671Z" fill="#263238"/>
<path d="M286.208 109.025C286.099 109.101 286.016 109.208 285.968 109.332C285.92 109.456 285.91 109.591 285.939 109.721C285.968 109.85 286.035 109.968 286.132 110.059C286.228 110.151 286.35 110.211 286.481 110.233C286.612 110.255 286.747 110.237 286.867 110.182C286.988 110.127 287.09 110.037 287.16 109.924C287.23 109.811 287.264 109.68 287.259 109.547C287.254 109.415 287.209 109.286 287.131 109.179C287.028 109.038 286.873 108.943 286.701 108.914C286.528 108.885 286.352 108.925 286.208 109.025Z" fill="#263238"/>
<path d="M285.105 108.692C285.185 108.765 285.607 108.391 286.235 108.344C286.863 108.298 287.331 108.592 287.398 108.505C287.465 108.418 287.351 108.331 287.137 108.197C286.86 108.019 286.53 107.939 286.202 107.97C285.873 107.991 285.56 108.121 285.312 108.338C285.125 108.511 285.072 108.659 285.105 108.692Z" fill="#263238"/>
<path d="M283.113 114.2C282.78 114.096 282.432 114.048 282.084 114.059C281.917 114.059 281.79 114.019 281.77 113.932C281.754 113.769 281.784 113.605 281.857 113.458L282.264 112.121C282.66 111.013 282.944 109.869 283.113 108.705C282.602 109.763 282.203 110.872 281.923 112.014C281.79 112.468 281.663 112.903 281.542 113.351C281.455 113.563 281.438 113.797 281.496 114.019C281.523 114.081 281.564 114.136 281.617 114.178C281.669 114.221 281.73 114.252 281.796 114.267C281.889 114.282 281.984 114.282 282.077 114.267C282.424 114.305 282.774 114.282 283.113 114.2Z" fill="#263238"/>
<path d="M283.26 121.907C285.361 121.805 287.383 121.079 289.069 119.822C289.069 119.822 287.886 123.164 283.327 123.084L283.26 121.907Z" fill="#EB996E"/>
<path d="M294.544 108.237C294.631 108.204 298.261 107.809 297.686 111.319C297.191 114.347 293.929 113.424 293.936 113.324C293.942 113.224 294.544 108.237 294.544 108.237Z" fill="#FFBE9D"/>
<path d="M295.206 111.987C295.206 111.987 295.253 112.027 295.339 112.074C295.461 112.137 295.602 112.152 295.734 112.114C295.932 112 296.098 111.836 296.215 111.64C296.332 111.443 296.396 111.22 296.402 110.991C296.433 110.734 296.403 110.473 296.315 110.229C296.293 110.132 296.248 110.043 296.184 109.967C296.12 109.892 296.039 109.832 295.948 109.794C295.888 109.776 295.823 109.778 295.765 109.801C295.706 109.824 295.658 109.867 295.627 109.921C295.58 110.002 295.627 110.062 295.58 110.062C295.533 110.062 295.52 110.008 295.58 109.888C295.604 109.815 295.651 109.752 295.714 109.708C295.801 109.652 295.907 109.633 296.008 109.654C296.13 109.687 296.242 109.751 296.333 109.84C296.423 109.929 296.488 110.04 296.523 110.162C296.629 110.432 296.67 110.723 296.643 111.011C296.637 111.28 296.552 111.541 296.399 111.763C296.246 111.984 296.031 112.155 295.781 112.254C295.698 112.272 295.612 112.272 295.53 112.252C295.448 112.232 295.371 112.194 295.306 112.141C295.206 112.061 295.192 111.994 295.206 111.987Z" fill="#EB996E"/>
<path d="M293.782 111.392C293.08 111.813 292.124 111.285 291.776 110.549C291.493 109.778 291.372 108.957 291.422 108.136C291.382 107.019 291.188 105.912 290.847 104.847C290.804 104.458 290.661 104.086 290.434 103.767C290.206 103.447 289.901 103.191 289.547 103.023C289.193 102.854 288.802 102.778 288.411 102.803C288.02 102.828 287.641 102.951 287.311 103.163C286.577 103.53 285.772 103.731 284.951 103.751C283.875 103.658 282.986 102.809 281.91 102.662C280.834 102.515 279.965 103.003 278.995 103.277C278.032 103.596 276.988 103.573 276.041 103.21C275.574 103.021 275.175 102.696 274.895 102.278C274.615 101.86 274.467 101.367 274.47 100.863C274.489 100.616 274.559 100.375 274.676 100.156C274.793 99.9371 274.955 99.7451 275.151 99.5922C275.346 99.4393 275.572 99.329 275.813 99.2682C276.053 99.2074 276.304 99.1975 276.549 99.2391C276.376 99.1216 276.231 98.9682 276.123 98.7893C276.015 98.6105 275.947 98.4105 275.924 98.2029C275.9 97.9954 275.922 97.7852 275.987 97.5868C276.052 97.3883 276.159 97.2063 276.302 97.0532C276.614 96.7614 277.001 96.5623 277.421 96.4785C277.84 96.3947 278.274 96.4293 278.675 96.5786C279.469 96.8852 280.189 97.3568 280.787 97.9623C280.869 97.591 281.073 97.2577 281.366 97.0154C281.659 96.7732 282.024 96.6359 282.405 96.6254C283.178 96.6288 283.929 96.8846 284.544 97.354C285.212 97.7818 285.754 98.3032 286.429 98.691C287.766 99.4329 289.357 99.5132 290.861 99.7872C292.365 100.061 293.976 100.67 294.704 102.02C295.373 103.203 294.918 104.627 294.865 105.977C294.811 107.327 294.805 107.695 294.738 109.012C294.724 108.965 294.811 110.797 293.782 111.392Z" fill="#263238"/>
<path d="M282.545 116.038C282.545 116.078 282.712 116.152 283.02 116.145C283.421 116.132 283.809 115.997 284.131 115.759C284.454 115.52 284.695 115.188 284.825 114.808C284.918 114.514 284.891 114.327 284.825 114.32C284.758 114.313 284.577 114.988 283.915 115.51C283.489 115.757 283.027 115.935 282.545 116.038Z" fill="white"/>
<path d="M277.324 100.169C277.219 100.242 277.138 100.344 277.089 100.463C277.041 100.581 277.027 100.711 277.05 100.837C277.079 101.122 277.213 101.386 277.425 101.579C277.572 101.697 277.744 101.78 277.928 101.824C278.112 101.868 278.303 101.871 278.488 101.833C278.931 101.748 279.353 101.578 279.731 101.332C280.143 101.047 280.593 100.822 281.068 100.663C281.61 100.549 282.175 100.634 282.659 100.904C283.173 101.158 283.655 101.526 284.189 101.853C284.693 102.213 285.296 102.407 285.914 102.408C286.487 102.333 287.023 102.081 287.445 101.686C287.822 101.353 288.26 101.097 288.735 100.931C289.156 100.829 289.598 100.854 290.005 101.004C290.607 101.221 291.103 101.661 291.389 102.234C291.477 102.45 291.541 102.674 291.583 102.903C291.583 102.672 291.533 102.444 291.436 102.234C291.3 101.937 291.106 101.669 290.867 101.446C290.627 101.224 290.345 101.051 290.039 100.937C289.613 100.772 289.146 100.739 288.702 100.844C288.207 101.004 287.752 101.266 287.365 101.612C286.951 101.976 286.44 102.208 285.894 102.281C285.301 102.276 284.724 102.087 284.243 101.739C283.722 101.419 283.234 101.071 282.699 100.79C282.19 100.51 281.596 100.422 281.028 100.543C280.554 100.704 280.104 100.928 279.691 101.211C279.326 101.454 278.917 101.625 278.488 101.713C278.315 101.753 278.135 101.754 277.961 101.715C277.788 101.677 277.625 101.601 277.485 101.492C277.286 101.32 277.154 101.083 277.111 100.824C277.09 100.705 277.099 100.584 277.136 100.47C277.173 100.355 277.238 100.252 277.324 100.169Z" fill="#455A64"/>
<path d="M279.336 97.7761C279.303 97.7268 279.257 97.6875 279.203 97.6625C279.125 97.6246 279.039 97.605 278.952 97.605C278.865 97.605 278.78 97.6246 278.701 97.6625C278.573 97.7159 278.466 97.8106 278.397 97.9316C278.328 98.0526 278.301 98.1931 278.32 98.331C278.346 98.5137 278.422 98.6857 278.54 98.8274C278.658 98.9692 278.814 99.0751 278.989 99.1331C279.409 99.2559 279.859 99.2347 280.266 99.073C280.713 98.8931 281.176 98.7543 281.649 98.6585C281.909 98.6396 282.17 98.6791 282.413 98.7739C282.656 98.8687 282.875 99.0166 283.053 99.2067C283.439 99.6409 283.89 100.013 284.39 100.31C284.671 100.408 284.969 100.451 285.266 100.433C285.563 100.416 285.854 100.34 286.121 100.209C286.604 99.9846 287.114 99.8229 287.639 99.7281C288.388 99.6262 289.151 99.7529 289.827 100.092C290.503 100.43 291.062 100.965 291.429 101.626C291.643 102.008 291.71 102.241 291.723 102.235C291.668 102.016 291.585 101.804 291.476 101.606C291.189 101.053 290.768 100.58 290.252 100.229C289.48 99.7075 288.543 99.4863 287.619 99.6077C287.086 99.7026 286.567 99.8643 286.075 100.089C285.823 100.214 285.549 100.287 285.269 100.304C284.989 100.322 284.708 100.282 284.443 100.189C283.947 99.8984 283.497 99.5357 283.107 99.1131C282.917 98.9103 282.683 98.7533 282.424 98.6537C282.165 98.5541 281.886 98.5146 281.609 98.5382C281.128 98.6349 280.657 98.7805 280.205 98.9727C279.83 99.1246 279.415 99.1527 279.022 99.0529C278.861 99.0032 278.717 98.9092 278.607 98.7814C278.498 98.6537 278.426 98.4976 278.401 98.331C278.378 98.2058 278.399 98.0767 278.46 97.965C278.521 97.8533 278.618 97.7655 278.735 97.716C278.808 97.6815 278.888 97.6635 278.969 97.6635C279.05 97.6635 279.13 97.6815 279.203 97.716C279.296 97.716 279.33 97.7828 279.336 97.7761Z" fill="#455A64"/>
<path d="M292.759 101.332C292.846 101.365 293.093 100.817 293.682 100.456C294.27 100.095 294.858 100.102 294.865 100.008C294.872 99.9147 294.724 99.9013 294.464 99.8947C294.125 99.9028 293.795 100.002 293.508 100.182C293.221 100.362 292.988 100.616 292.833 100.917C292.726 101.158 292.719 101.318 292.759 101.332Z" fill="#263238"/>
<path d="M293.294 97.9692C293.2 97.9692 293.334 98.6778 293.22 99.5134C293.107 100.349 292.826 100.977 292.906 101.024C293.256 100.605 293.479 100.095 293.547 99.5534C293.616 99.012 293.528 98.4622 293.294 97.9692Z" fill="#263238"/>
<path d="M294.357 110.155C294.481 109.966 294.562 109.752 294.596 109.528C294.629 109.304 294.614 109.076 294.551 108.858C294.414 108.39 294.164 107.963 293.822 107.615C293.646 107.408 293.527 107.16 293.474 106.893C293.451 106.599 293.488 106.304 293.581 106.024C293.766 105.454 293.8 104.847 293.682 104.259C293.575 103.773 293.286 103.347 292.873 103.07C292.595 102.888 292.268 102.796 291.937 102.809C291.816 102.814 291.698 102.843 291.589 102.896C291.589 102.896 291.716 102.896 291.937 102.862C292.253 102.867 292.561 102.967 292.819 103.15C293.205 103.418 293.471 103.825 293.561 104.286C293.671 104.854 293.634 105.441 293.454 105.991C293.356 106.288 293.319 106.602 293.347 106.913C293.405 107.2 293.536 107.467 293.728 107.689C294.064 108.021 294.314 108.429 294.457 108.878C294.527 109.189 294.527 109.511 294.457 109.821C294.435 109.935 294.401 110.047 294.357 110.155Z" fill="#455A64"/>
<path d="M291.055 142.503C291.063 142.647 291.063 142.792 291.055 142.937C291.055 143.251 291.055 143.606 291.088 144.087C291.088 145.076 291.148 146.467 291.161 148.144L291.121 148.037L293.18 149.956H293.006L296.549 148.519L296.449 148.652C296.463 148.54 296.483 148.429 296.509 148.318C296.897 146.213 297.258 144.227 297.579 142.503L297.732 142.683C295.761 142.683 294.103 142.636 292.92 142.61L291.536 142.569C291.374 142.56 291.213 142.538 291.055 142.503C291.205 142.48 291.357 142.469 291.509 142.469L292.846 142.429C294.016 142.429 295.714 142.362 297.753 142.349H297.933V142.529C297.626 144.261 297.265 146.246 296.904 148.352L296.843 148.686V148.779L296.757 148.82L293.207 150.23L293.107 150.27L293.033 150.197L291.028 148.251L290.981 148.205V148.144C290.981 146.406 291.028 144.976 291.055 144C291.055 143.552 291.055 143.184 291.095 142.877C291.066 142.754 291.052 142.629 291.055 142.503Z" fill="#263238"/>
<path d="M297.345 144.247C296.31 144.476 295.248 144.564 294.19 144.508C293.13 144.567 292.067 144.486 291.028 144.267C292.077 144.14 293.135 144.104 294.19 144.16C295.242 144.1 296.297 144.129 297.345 144.247Z" fill="#263238"/>
<path d="M267.171 140.757C267.311 140.898 256.475 155.744 256.475 155.744H267.097L273.615 146.814L267.171 140.757Z" fill="#FFBE9D"/>
<path d="M245.653 59.6865H133.659V246.796H245.653V59.6865Z" fill="#F5F5F5"/>
<path d="M163.372 169.869L164.568 172.295L167.256 172.69L165.31 174.581L165.772 177.255L163.372 175.992L160.965 177.255L161.427 174.581L159.488 172.69L162.169 172.295L163.372 169.869Z" fill="#257CFF"/>
<path d="M176.701 169.869L177.904 172.295L180.585 172.69L178.646 174.581L179.101 177.255L176.701 175.992L174.301 177.255L174.762 174.581L172.817 172.69L175.504 172.295L176.701 169.869Z" fill="#257CFF"/>
<path d="M190.037 169.869L191.24 172.295L193.92 172.69L191.982 174.581L192.436 177.255L190.037 175.992L187.637 177.255L188.098 174.581L186.153 172.69L188.84 172.295L190.037 169.869Z" fill="#257CFF"/>
<path d="M203.373 169.869L204.576 172.295L207.256 172.69L205.318 174.581L205.772 177.255L203.373 175.992L200.973 177.255L201.434 174.581L199.489 172.69L202.169 172.295L203.373 169.869Z" fill="#257CFF"/>
<path d="M216.708 169.869L217.905 172.295L220.592 172.69L218.647 174.581L219.108 177.255L216.708 175.992L214.309 177.255L214.763 174.581L212.825 172.69L215.505 172.295L216.708 169.869Z" fill="#257CFF"/>
<path d="M185.083 191.802C185.083 191.895 176.581 191.976 166.092 191.976C155.604 191.976 147.101 191.895 147.101 191.802C147.101 191.708 155.604 191.628 166.092 191.628C176.581 191.628 185.083 191.701 185.083 191.802Z" fill="#257CFF"/>
<path d="M232.805 200.044C232.805 200.144 213.841 200.218 190.458 200.218C167.075 200.218 148.104 200.144 148.104 200.044C148.104 199.944 167.062 199.87 190.458 199.87C213.854 199.87 232.805 199.95 232.805 200.044Z" fill="#263238"/>
<path d="M232.805 207.13C232.805 207.223 213.841 207.304 190.458 207.304C167.075 207.304 148.104 207.223 148.104 207.13C148.104 207.036 167.062 206.956 190.458 206.956C213.854 206.956 232.805 207.036 232.805 207.13Z" fill="#263238"/>
<path d="M232.805 214.215C232.805 214.308 213.841 214.389 190.458 214.389C167.075 214.389 148.104 214.308 148.104 214.215C148.104 214.121 167.062 214.041 190.458 214.041C213.854 214.041 232.805 214.114 232.805 214.215Z" fill="#263238"/>
<path d="M232.805 221.301C232.805 221.394 213.841 221.474 190.458 221.474C167.075 221.474 148.104 221.394 148.104 221.301C148.104 221.207 167.062 221.127 190.458 221.127C213.854 221.127 232.805 221.2 232.805 221.301Z" fill="#263238"/>
<path d="M232.805 228.38C232.805 228.48 213.841 228.554 190.458 228.554C167.075 228.554 148.104 228.48 148.104 228.38C148.104 228.28 167.062 228.206 190.458 228.206C213.854 228.206 232.805 228.286 232.805 228.38Z" fill="#263238"/>
<path d="M237.498 69.1858H141.025V161.801H237.498V69.1858Z" fill="#E0E0E0"/>
<path d="M183.733 84.5329C184.743 81.1438 187.844 78.6104 191.28 77.7881C194.716 76.9659 198.981 75.8429 202.129 77.4472C204.094 78.4499 205.98 79.9072 206.755 81.9727C207.671 84.426 206.26 88.9983 205.558 91.5184C204.857 94.0385 204.328 96.9195 205.712 99.1388C207.096 101.358 209.817 102.134 211.528 104.019C212.664 105.374 213.228 107.12 213.099 108.884C212.971 110.649 212.16 112.294 210.839 113.471C213.881 113.29 216.448 116.392 216.341 119.433C216.234 122.475 214.008 125.149 211.294 126.526C208.58 127.903 205.445 128.19 202.403 128.197C198.627 128.202 194.861 127.81 191.166 127.027C188.125 126.359 184.95 125.363 182.971 122.963C181.146 120.757 180.645 117.749 180.638 114.888C180.638 104.774 185.932 94.747 183.626 84.8939" fill="#263238"/>
<path d="M186.2 82.2065C184.608 81.1173 182.736 80.5102 180.807 80.4582C178.879 80.4062 176.977 80.9115 175.329 81.9134C173.681 82.9153 172.356 84.3714 171.515 86.107C170.673 87.8426 170.35 89.7841 170.584 91.6987C170.832 93.7041 171.667 95.7095 171.159 97.6146C170.203 101.244 165.09 102.655 164.421 106.345C164.154 107.802 164.669 109.266 165.056 110.69C165.444 112.114 165.725 113.725 164.963 115.008C164.415 115.957 163.425 116.552 162.65 117.321C160.163 119.808 160.21 124.173 162.296 127.014C164.381 129.854 168.071 131.211 171.587 131.098C175.103 130.984 178.472 129.56 181.474 127.722" fill="#263238"/>
<path d="M178.813 86.2716L178.86 88.6713L179.341 124.681C179.395 128.866 183.038 132.148 187.51 132.034C192.035 131.934 195.705 128.438 195.719 124.213C195.719 119.782 195.826 115.116 195.826 115.116C195.826 115.116 201.541 114.166 202.724 106.713C203.312 103.01 203.125 96.9335 202.811 91.9669C202.747 90.9046 202.469 89.8663 201.993 88.9148C201.516 87.9632 200.852 87.1182 200.039 86.4308C199.227 85.7435 198.284 85.228 197.266 84.9157C196.249 84.6034 195.179 84.5007 194.121 84.6138L178.813 86.2716Z" fill="#B78876"/>
<path d="M199.943 96.2183C199.945 96.4673 199.85 96.7072 199.678 96.887C199.505 97.0667 199.27 97.1722 199.021 97.1809C198.899 97.1909 198.777 97.1763 198.661 97.1381C198.545 97.0998 198.438 97.0386 198.347 96.9581C198.255 96.8777 198.18 96.7796 198.127 96.6697C198.074 96.5598 198.044 96.4404 198.038 96.3186C198.035 96.0702 198.128 95.8303 198.3 95.6503C198.471 95.4704 198.706 95.3647 198.954 95.356C199.076 95.346 199.199 95.3605 199.315 95.3987C199.431 95.4369 199.538 95.498 199.631 95.5783C199.723 95.6587 199.798 95.7568 199.852 95.8667C199.905 95.9766 199.937 96.0961 199.943 96.2183Z" fill="#263238"/>
<path d="M201.481 95.1488C201.36 95.2691 200.638 94.7343 199.609 94.7343C198.58 94.7343 197.824 95.2557 197.717 95.1287C197.61 95.0017 197.777 94.848 198.112 94.6073C198.557 94.3026 199.083 94.1395 199.622 94.1394C200.158 94.1388 200.679 94.3072 201.113 94.6207C201.441 94.8613 201.548 95.0886 201.481 95.1488Z" fill="#263238"/>
<path d="M190.037 96.2183C190.039 96.4673 189.943 96.7072 189.771 96.8869C189.599 97.0667 189.363 97.1722 189.114 97.1809C188.993 97.189 188.871 97.1732 188.756 97.1342C188.641 97.0953 188.535 97.034 188.444 96.9538C188.352 96.8737 188.278 96.7764 188.224 96.6673C188.171 96.5583 188.139 96.4398 188.132 96.3186C188.128 96.0691 188.223 95.8282 188.395 95.648C188.568 95.4679 188.805 95.363 189.054 95.356C189.176 95.346 189.298 95.3605 189.414 95.3988C189.53 95.4371 189.637 95.4982 189.728 95.5787C189.82 95.6592 189.895 95.7573 189.948 95.8671C190.001 95.977 190.031 96.0964 190.037 96.2183Z" fill="#263238"/>
<path d="M191.387 95.3357C191.267 95.4627 190.538 94.9279 189.515 94.9279C188.493 94.9279 187.731 95.4493 187.617 95.3223C187.503 95.1953 187.684 95.0416 188.011 94.8009C188.458 94.4949 188.987 94.3317 189.529 94.333C190.064 94.3324 190.586 94.5008 191.019 94.8143C191.334 95.0416 191.454 95.2822 191.387 95.3357Z" fill="#263238"/>
<path d="M195.117 102.963C195.659 102.793 196.221 102.692 196.788 102.662C197.049 102.662 197.296 102.582 197.343 102.401C197.365 102.131 197.304 101.861 197.169 101.626L196.387 99.6204C195.311 96.7727 194.529 94.4331 194.649 94.3863C194.769 94.3395 195.725 96.619 196.808 99.4666C197.069 100.169 197.316 100.837 197.55 101.472C197.718 101.788 197.765 102.153 197.684 102.501C197.646 102.594 197.588 102.677 197.514 102.744C197.44 102.811 197.352 102.861 197.256 102.889C197.11 102.927 196.959 102.947 196.808 102.949C196.247 103.026 195.679 103.03 195.117 102.963Z" fill="#263238"/>
<path d="M195.826 115.136C192.316 115.185 188.861 114.259 185.845 112.462C185.845 112.462 188.265 117.582 195.725 116.887L195.826 115.136Z" fill="#AA6550"/>
<path d="M194.683 105.443C194.484 105.2 194.227 105.012 193.936 104.895C193.645 104.778 193.329 104.737 193.018 104.774C192.792 104.794 192.571 104.86 192.371 104.968C192.171 105.076 191.996 105.224 191.855 105.402C191.716 105.572 191.633 105.781 191.617 106C191.602 106.219 191.654 106.438 191.768 106.626C191.933 106.807 192.147 106.937 192.385 106.997C192.623 107.058 192.873 107.047 193.105 106.967C193.598 106.797 194.052 106.531 194.442 106.185C194.555 106.097 194.654 105.994 194.736 105.877C194.774 105.821 194.794 105.754 194.794 105.687C194.794 105.619 194.774 105.552 194.736 105.496" fill="#AA6550"/>
<path d="M192.122 103.678C192.289 103.678 192.289 104.781 193.245 105.577C194.201 106.372 195.391 106.245 195.398 106.399C195.404 106.553 195.137 106.619 194.636 106.633C193.982 106.639 193.346 106.417 192.838 106.004C192.353 105.606 192.04 105.036 191.962 104.414C191.888 103.946 192.015 103.672 192.122 103.678Z" fill="#263238"/>
<path d="M184.876 82.7815C184.876 82.6879 184.997 82.6411 185.057 82.6679C185.117 82.6946 185.144 82.7882 185.103 82.8818C185.091 82.9197 185.065 82.9516 185.031 82.9714C184.996 82.9911 184.955 82.9973 184.916 82.9887C184.884 82.9658 184.863 82.9316 184.855 82.8931C184.848 82.8546 184.855 82.8146 184.876 82.7815Z" fill="#263238"/>
<path d="M178.419 121.526C179.512 121.113 180.503 120.47 181.324 119.639C182.146 118.809 182.778 117.81 183.178 116.713C183.963 114.498 184.019 112.09 183.339 109.841C183.045 108.805 182.63 107.669 183.085 106.693C183.509 106.034 184.061 105.468 184.709 105.028C185.985 103.796 186.741 102.121 186.821 100.349C186.89 98.5827 186.568 96.823 185.879 95.1952C185.525 94.2927 185.097 93.3034 185.424 92.3943C185.724 91.7743 186.169 91.2356 186.721 90.8234C187.781 89.8287 188.657 88.6541 189.308 87.3541C189.763 86.4383 190.104 85.3487 189.662 84.4062C189.121 83.2832 187.717 82.9356 186.48 82.842C183.526 82.6147 180.264 83.2698 178.385 85.5559C176.708 87.6014 176.514 90.4558 176.38 93.1096C176.006 101.452 175.631 109.881 177.049 118.11" fill="#263238"/>
<path d="M205.639 85.4431C205.227 85.6919 204.801 85.9151 204.362 86.1116C203.976 86.3907 203.616 86.7039 203.286 87.0474C203.092 87.2346 202.885 87.4418 202.697 87.6557L202.564 87.8161L202.35 88.03L201.835 88.518C201.338 88.9805 200.804 89.4009 200.237 89.7747C199.399 90.3586 198.461 90.7845 197.47 91.0314C195.564 91.4571 193.569 91.2213 191.815 90.363C190.605 89.7808 189.544 88.9303 188.713 87.8763C187.443 86.1851 187.249 84.8147 187.831 84.0728C188.412 83.3308 189.89 83.4043 191.534 83.8388C192.335 84.0474 193.147 84.2081 193.967 84.3201C194.612 84.4123 195.267 84.3942 195.906 84.2666C196.218 84.1961 196.521 84.0884 196.808 83.9458C197.229 83.7586 197.751 83.4845 198.352 83.1971C198.653 83.0567 198.967 82.9163 199.308 82.7826C199.475 82.7158 199.656 82.6556 199.83 82.5955C200.003 82.5353 200.224 82.4618 200.418 82.415C201.146 82.226 201.901 82.1649 202.651 82.2345C203.245 82.2571 203.827 82.4116 204.354 82.6867C204.881 82.9619 205.34 83.3509 205.699 83.8254C205.886 84.0567 205.983 84.3481 205.972 84.6456C205.961 84.943 205.843 85.2264 205.639 85.4431Z" fill="#263238"/>
<path d="M167.977 126.66C167.94 126.626 167.904 126.591 167.871 126.553C167.77 126.443 167.676 126.327 167.59 126.205C167.251 125.743 166.996 125.225 166.834 124.675C166.585 123.805 166.539 122.89 166.701 122.001C166.938 120.801 167.574 119.718 168.506 118.926C169.502 118.017 170.805 117.335 172.002 116.386C172.624 115.905 173.158 115.319 173.579 114.654C174.015 113.957 174.193 113.129 174.081 112.315C173.853 110.63 172.463 109.153 172.343 107.134C172.294 106.117 172.539 105.107 173.049 104.225C173.558 103.343 174.311 102.627 175.217 102.161C176.117 101.773 176.971 101.287 177.764 100.71C178.108 100.405 178.379 100.026 178.557 99.6009C178.734 99.176 178.812 98.7165 178.787 98.2569C178.741 97.3476 178.514 96.4565 178.118 95.6366C177.73 94.8277 177.262 94.059 176.861 93.2769C176.448 92.5133 176.163 91.6867 176.019 90.8303C175.91 90.0047 176.014 89.165 176.32 88.3904C176.888 87.0258 177.879 85.8799 179.147 85.1217C180.189 84.5096 181.34 84.1077 182.537 83.9385C183.422 83.8076 184.316 83.7495 185.21 83.7647C185.952 83.7647 186.547 83.8182 186.908 83.8516L187.35 83.8984C187.45 83.8984 187.497 83.8984 187.497 83.8984C187.301 83.9116 187.104 83.9116 186.908 83.8984C186.521 83.8984 185.946 83.8984 185.21 83.8984C184.315 83.9026 183.42 83.9786 182.537 84.1257C181.376 84.3099 180.261 84.7161 179.254 85.3222C178.048 86.0662 177.111 87.1764 176.581 88.4907C176.3 89.218 176.208 90.0044 176.313 90.7768C176.459 91.5992 176.739 92.392 177.142 93.1232C177.536 93.8919 178.011 94.6539 178.412 95.4895C178.842 96.3475 179.09 97.2851 179.141 98.2436C179.172 98.7521 179.086 99.261 178.89 99.7314C178.695 100.202 178.394 100.621 178.011 100.958C177.201 101.559 176.324 102.064 175.397 102.462C174.549 102.902 173.846 103.578 173.372 104.408C172.898 105.237 172.673 106.186 172.724 107.141C172.81 108.999 174.181 110.483 174.435 112.288C174.556 113.176 174.36 114.078 173.88 114.835C173.437 115.526 172.876 116.135 172.222 116.633C170.979 117.602 169.682 118.257 168.713 119.126C167.806 119.873 167.179 120.905 166.935 122.054C166.756 122.924 166.781 123.823 167.008 124.681C167.216 125.391 167.544 126.06 167.977 126.66Z" fill="#455A64"/>
<path d="M209.556 125.223C209.716 125.14 209.858 125.025 209.973 124.886C210.088 124.747 210.173 124.587 210.224 124.414C210.329 124.012 210.299 123.586 210.137 123.204C209.889 122.711 209.507 122.299 209.034 122.014C208.52 121.66 207.885 121.379 207.25 120.944C206.892 120.73 206.587 120.438 206.356 120.092C206.125 119.745 205.974 119.351 205.913 118.939C205.893 118.015 206.193 117.113 206.762 116.385C207.296 115.617 207.992 114.962 208.526 114.186C209.074 113.46 209.314 112.548 209.195 111.646C209.04 110.808 208.689 110.018 208.172 109.34C207.209 108.003 206.013 107.027 205.258 105.998C204.596 105.216 204.156 104.272 203.981 103.264C203.942 102.991 203.942 102.714 203.981 102.441C203.981 102.254 204.034 102.154 204.048 102.161C204.041 102.523 204.061 102.885 204.108 103.244C204.327 104.209 204.787 105.104 205.445 105.844C206.207 106.84 207.41 107.782 208.426 109.186C208.98 109.903 209.356 110.742 209.522 111.633C209.596 112.117 209.568 112.61 209.442 113.083C209.299 113.564 209.072 114.017 208.774 114.42C208.212 115.242 207.51 115.897 206.996 116.619C206.471 117.284 206.188 118.106 206.193 118.952C206.246 119.324 206.381 119.679 206.588 119.993C206.795 120.306 207.069 120.569 207.39 120.764C207.985 121.185 208.62 121.486 209.141 121.86C209.646 122.185 210.045 122.65 210.291 123.197C210.462 123.624 210.473 124.099 210.324 124.534C210.242 124.809 210.064 125.046 209.823 125.202C209.737 125.231 209.645 125.238 209.556 125.223Z" fill="#455A64"/>
<path d="M206.16 82.3938C206.16 82.3938 206.16 82.474 206.16 82.6278C206.159 82.8525 206.134 83.0765 206.087 83.2962C205.922 84.1139 205.519 84.8649 204.93 85.4554C204.492 85.8988 203.96 86.2388 203.374 86.4505C202.788 86.6621 202.161 86.7401 201.541 86.6787C200.8 86.624 200.086 86.3775 199.469 85.9634C198.847 85.4946 198.29 84.9462 197.811 84.3324C197.346 83.7478 196.804 83.2284 196.2 82.7882C195.63 82.3907 195.004 82.0819 194.342 81.8724C193.213 81.521 192.01 81.4771 190.859 81.7454C190.079 81.9313 189.336 82.2453 188.66 82.6746C188.178 82.9821 187.938 83.1893 187.924 83.1692C188.11 82.9292 188.336 82.7233 188.593 82.5609C189.257 82.074 190.008 81.7179 190.805 81.5114C191.999 81.1929 193.258 81.2114 194.442 81.5649C195.139 81.7771 195.8 82.095 196.401 82.5075C197.033 82.96 197.6 83.4976 198.085 84.1051C198.544 84.6959 199.077 85.226 199.669 85.6826C200.239 86.0604 200.894 86.2901 201.574 86.3511C202.154 86.4135 202.74 86.349 203.291 86.162C203.843 85.9749 204.348 85.67 204.77 85.2682C205.341 84.7193 205.755 84.0266 205.966 83.2628C206.107 82.7147 206.107 82.3938 206.16 82.3938Z" fill="#455A64"/>
<path d="M191.648 91.3046C191.548 91.5854 190.518 91.4517 189.315 91.5988C188.112 91.7458 187.136 92.0734 186.975 91.826C186.902 91.7057 187.069 91.4383 187.463 91.1576C187.988 90.8257 188.582 90.6177 189.199 90.5494C189.816 90.481 190.441 90.5542 191.026 90.7632C191.454 90.957 191.695 91.1776 191.648 91.3046Z" fill="#263238"/>
<path d="M201.113 92.1669C200.933 92.4008 200.224 92.1669 199.375 92.1669C198.526 92.1669 197.798 92.3273 197.63 92.08C197.564 91.9596 197.677 91.7257 197.991 91.5051C198.412 91.2324 198.908 91.0991 199.409 91.1241C199.907 91.1355 200.389 91.2987 200.792 91.592C201.093 91.8126 201.193 92.0532 201.113 92.1669Z" fill="#263238"/>
<path d="M172.002 162.102C172.363 162.724 169.722 153.827 169.722 153.827L167.509 161.955L151.099 162.075C151.099 162.075 160.37 131.767 164.775 127.536C170.524 122.014 181.3 121.714 181.3 121.714L187.751 127.215L197.938 121.981L198.312 122.021C201.652 122.432 204.838 123.663 207.587 125.603C210.336 127.544 212.563 130.135 214.068 133.144L225.118 161.775H210.532L207.417 153.325L208.459 161.775" fill="#257CFF"/>
<path d="M176.079 122.369L190.866 156.006L198.339 122.021C198.339 122.021 196.267 121.901 193.305 121.787C191.668 121.727 189.756 128.204 187.777 128.171C186.507 128.171 185.217 121.6 183.94 121.607C182.329 121.607 180.758 121.607 179.328 121.714C178.085 121.78 176.995 122.282 176.079 122.369Z" fill="#FAFAFA"/>
<path d="M178.86 122.682V119.594C178.86 119.594 187.67 119.714 187.824 126.766C187.824 126.766 189.074 119.814 196.187 119.594L196.641 121.96L194.636 130.068L189.502 133.484H182.583L179.722 129.721L178.86 122.682Z" fill="#FAFAFA"/>
<path d="M190.739 156.901C190.752 156.773 190.781 156.647 190.826 156.527C190.938 156.172 191.081 155.827 191.253 155.497C191.538 154.98 191.889 154.501 192.296 154.073C192.764 153.565 193.326 153.031 193.894 152.395C195.308 150.974 196.543 149.385 197.57 147.663C198.129 146.633 198.451 145.491 198.513 144.32C198.603 143.068 198.24 141.825 197.49 140.818L197.256 140.517H197.644C197.793 140.533 197.943 140.533 198.092 140.517C198.708 140.39 199.257 140.043 199.636 139.541C200.014 139.049 200.256 138.465 200.338 137.85C200.429 136.648 200.337 135.44 200.064 134.267C199.683 131.967 199.335 129.895 199.048 128.137C198.76 126.379 198.553 125.029 198.379 124.006C198.319 123.545 198.265 123.177 198.219 122.876C198.196 122.746 198.184 122.614 198.185 122.482C198.235 122.607 198.271 122.737 198.292 122.87C198.346 123.157 198.426 123.538 198.513 123.979C198.707 125.002 198.967 126.392 199.282 128.097L200.371 134.207C200.665 135.415 200.764 136.663 200.665 137.903C200.581 138.579 200.315 139.218 199.897 139.755C199.467 140.328 198.841 140.721 198.138 140.858C197.963 140.877 197.786 140.877 197.61 140.858L197.757 140.577C198.56 141.648 198.947 142.973 198.847 144.307C198.78 145.529 198.438 146.72 197.844 147.79C196.793 149.528 195.524 151.125 194.068 152.543C193.479 153.171 192.904 153.699 192.43 154.187C192.021 154.588 191.662 155.037 191.36 155.524C190.899 156.386 190.785 156.914 190.739 156.901Z" fill="#263238"/>
<path d="M190.739 156.613C190.634 156.523 190.542 156.42 190.465 156.306L189.709 155.404C189.041 154.621 188.085 153.512 186.862 152.162C185.638 150.811 184.188 149.2 182.697 147.275C181.892 146.285 181.199 145.209 180.631 144.066C180.011 142.792 179.922 141.323 180.384 139.982C180.458 139.802 180.545 139.628 180.645 139.461L180.732 139.715C179.447 139.25 178.304 138.46 177.416 137.422C176.597 136.474 175.954 135.388 175.518 134.213C174.816 132.23 174.536 130.121 174.696 128.023C174.784 126.625 174.951 125.232 175.197 123.852C175.284 123.398 175.351 123.03 175.411 122.736C175.425 122.603 175.456 122.473 175.504 122.348C175.519 122.481 175.519 122.616 175.504 122.749C175.464 123.043 175.417 123.418 175.357 123.872C175.237 124.855 175.03 126.272 174.97 128.037C174.842 130.096 175.138 132.159 175.839 134.1C176.271 135.235 176.9 136.285 177.697 137.201C178.545 138.187 179.631 138.939 180.852 139.387L181.046 139.454L180.939 139.641C180.853 139.793 180.775 139.949 180.705 140.109C180.28 141.364 180.366 142.735 180.946 143.926C181.494 145.05 182.167 146.108 182.951 147.081C184.395 149 185.845 150.617 187.042 151.994C188.239 153.371 189.188 154.508 189.809 155.337C190.124 155.744 190.358 156.059 190.511 156.286C190.599 156.386 190.675 156.496 190.739 156.613Z" fill="#263238"/>
<path d="M190.578 162.028C190.428 161.031 190.394 160.019 190.478 159.014C190.452 158.007 190.537 157 190.732 156.012C190.908 158.017 190.857 160.035 190.578 162.028Z" fill="#263238"/>
<path d="M169.294 155.832C169.366 155.441 169.462 155.054 169.582 154.675C169.776 153.933 170.056 152.857 170.324 151.514C171.019 148.016 171.289 144.447 171.126 140.885C171.068 138.929 170.803 136.984 170.337 135.083C169.96 133.534 169.25 132.086 168.258 130.838C167.588 130 166.762 129.301 165.825 128.779C165.156 128.418 164.735 128.305 164.749 128.271C164.851 128.283 164.952 128.305 165.05 128.338C165.337 128.42 165.616 128.528 165.885 128.659C166.872 129.14 167.746 129.823 168.452 130.664C169.491 131.926 170.242 133.4 170.651 134.982C171.138 136.905 171.413 138.876 171.473 140.858C171.642 144.448 171.337 148.044 170.564 151.554C170.264 152.891 169.949 153.967 169.715 154.702C169.595 155.063 169.488 155.371 169.421 155.538C169.354 155.705 169.308 155.872 169.294 155.832Z" fill="#263238"/>
<path d="M207.544 150.384C207.5 150.013 207.484 149.64 207.497 149.267C207.497 148.545 207.497 147.509 207.43 146.226C207.315 142.886 207.023 139.554 206.554 136.246C205.904 131.854 204.964 127.511 203.74 123.244L203.693 123.07L203.827 123.177C204.067 123.345 204.291 123.535 204.496 123.745C204.239 123.609 203.995 123.451 203.767 123.271L203.86 123.211C205.268 127.438 206.286 131.786 206.902 136.199C207.38 139.521 207.641 142.87 207.684 146.226C207.684 147.516 207.684 148.559 207.637 149.274C207.638 149.646 207.607 150.017 207.544 150.384Z" fill="#263238"/>
<path d="M186.186 122.769C186.186 122.802 186.019 122.769 185.792 122.949C185.495 123.204 185.265 123.527 185.123 123.892C184.487 125.106 184.09 126.432 183.954 127.796L183.907 128.23L183.639 127.876L183.158 127.208C182.042 125.757 180.946 124.534 180.137 123.625C179.671 123.172 179.239 122.685 178.847 122.167C179.382 122.542 179.876 122.975 180.317 123.457C181.434 124.565 182.475 125.746 183.432 126.994L183.92 127.662L183.606 127.742C183.762 126.338 184.218 124.984 184.943 123.772C185.13 123.383 185.421 123.054 185.785 122.822C186.006 122.695 186.193 122.756 186.186 122.769Z" fill="#263238"/>
<path d="M196.527 122.107C196.183 122.688 195.787 123.236 195.344 123.745C194.582 124.734 193.506 126.085 192.303 127.562L191.668 128.337L191.374 128.698V128.231C191.38 127.463 191.324 126.696 191.206 125.938C191.107 125.339 190.894 124.765 190.578 124.246C190.271 123.785 189.881 123.384 189.428 123.063C189.583 123.09 189.729 123.151 189.856 123.244C190.225 123.466 190.542 123.764 190.785 124.119C191.148 124.651 191.399 125.252 191.521 125.884C191.664 126.656 191.735 127.439 191.735 128.224L191.427 128.124L192.062 127.341C193.265 125.864 194.368 124.541 195.184 123.591C195.588 123.059 196.038 122.562 196.527 122.107Z" fill="#263238"/>
<path d="M190.444 155.203C190.363 154.836 190.31 154.463 190.284 154.087C190.197 153.305 190.09 152.282 189.957 151.039C189.696 148.459 189.368 144.896 189.021 140.959C188.673 137.021 188.352 133.458 188.178 130.871C188.092 129.628 188.025 128.599 187.964 127.817C187.932 127.441 187.932 127.063 187.964 126.687C188.046 127.055 188.102 127.428 188.132 127.803C188.212 128.585 188.319 129.608 188.452 130.851C188.713 133.432 189.047 136.995 189.395 140.932C189.743 144.869 190.063 148.432 190.231 151.012C190.317 152.262 190.391 153.292 190.444 154.074C190.477 154.45 190.477 154.828 190.444 155.203Z" fill="#263238"/>
<path d="M190.465 132.829C190.465 132.796 190.712 132.629 191.073 132.869C191.176 132.941 191.262 133.035 191.322 133.145C191.383 133.256 191.416 133.379 191.42 133.504C191.405 133.663 191.344 133.813 191.245 133.937C191.145 134.061 191.011 134.154 190.86 134.203C190.709 134.252 190.546 134.255 190.393 134.213C190.239 134.171 190.102 134.085 189.997 133.966C189.925 133.862 189.88 133.744 189.863 133.619C189.847 133.495 189.861 133.369 189.903 133.25C190.057 132.843 190.378 132.816 190.371 132.856C190.364 132.896 190.19 133.01 190.144 133.311C190.128 133.39 190.129 133.471 190.148 133.55C190.166 133.628 190.201 133.701 190.251 133.765C190.314 133.831 190.395 133.877 190.484 133.897C190.573 133.917 190.666 133.911 190.752 133.879C190.841 133.855 190.922 133.806 190.984 133.737C191.045 133.668 191.086 133.583 191.1 133.491C191.101 133.411 191.086 133.332 191.054 133.258C191.023 133.184 190.977 133.118 190.919 133.063C190.699 132.843 190.471 132.883 190.465 132.829Z" fill="#263238"/>
<path d="M191.748 141.166C191.748 141.125 192.042 141.018 192.343 141.339C192.432 141.432 192.497 141.545 192.532 141.669C192.567 141.792 192.571 141.922 192.543 142.048C192.496 142.206 192.399 142.345 192.267 142.444C192.134 142.542 191.973 142.596 191.808 142.596C191.644 142.611 191.48 142.573 191.34 142.486C191.2 142.399 191.092 142.269 191.033 142.115C190.993 141.992 190.985 141.861 191.008 141.734C191.031 141.606 191.086 141.487 191.166 141.386C191.441 141.045 191.768 141.125 191.741 141.166C191.715 141.206 191.514 141.246 191.374 141.526C191.333 141.598 191.308 141.677 191.301 141.759C191.294 141.841 191.305 141.924 191.334 142.001C191.376 142.085 191.442 142.154 191.525 142.198C191.608 142.242 191.702 142.26 191.795 142.248C191.889 142.251 191.982 142.225 192.06 142.174C192.139 142.122 192.201 142.048 192.236 141.961C192.255 141.882 192.258 141.799 192.245 141.719C192.231 141.638 192.201 141.561 192.156 141.493C191.982 141.199 191.748 141.166 191.748 141.166Z" fill="#263238"/>
<g opacity="0.3">
<path opacity="0.3" d="M175.21 122.77C173.96 127.215 172.777 132.248 175.103 136.239C175.772 137.442 176.788 138.465 177.443 139.695C178.573 141.801 178.646 144.301 179.348 146.58C180.758 151.199 185.799 155.691 190.578 156.393C188.112 153.392 184.295 149.481 182.022 146.079C181.299 145.192 180.767 144.166 180.458 143.064C180.177 141.827 179.97 140.517 180.792 139.548C177.597 139.053 175.778 135.751 175.204 132.569C174.672 129.37 174.807 126.095 175.598 122.95" fill="black"/>
</g>
<g opacity="0.3">
<path opacity="0.3" d="M207.677 146.413C206.882 151.186 207.417 157.443 210.351 161.293C211.427 156.052 210.893 149.2 207.677 144.902" fill="black"/>
</g>
<path d="M129.561 87.8888H50.9898V219.161H129.561V87.8888Z" fill="#F5F5F5"/>
<path d="M71.8325 165.19L72.6747 166.894L74.5598 167.168L73.1961 168.492L73.517 170.37L71.8325 169.488L70.1479 170.37L70.4755 168.492L69.1118 167.168L70.9902 166.894L71.8325 165.19Z" fill="#257CFF"/>
<path d="M81.191 165.19L82.0332 166.894L83.9183 167.168L82.5546 168.492L82.8755 170.37L81.191 169.488L79.5065 170.37L79.8273 168.492L78.4637 167.168L80.3487 166.894L81.191 165.19Z" fill="#257CFF"/>
<path d="M90.5427 165.19L91.385 166.894L93.2701 167.168L91.9064 168.492L92.2273 170.37L90.5427 169.488L88.8649 170.37L89.1858 168.492L87.8221 167.168L89.7005 166.894L90.5427 165.19Z" fill="#257CFF"/>
<path d="M99.9012 165.19L100.744 166.894L102.629 167.168L101.265 168.492L101.586 170.37L99.9012 169.488L98.2167 170.37L98.5376 168.492L97.1739 167.168L99.059 166.894L99.9012 165.19Z" fill="#257CFF"/>
<path d="M109.253 165.19L110.095 166.894L111.98 167.168L110.617 168.492L110.938 170.37L109.253 169.488L107.568 170.37L107.896 168.492L106.532 167.168L108.417 166.894L109.253 165.19Z" fill="#257CFF"/>
<path d="M87.0667 180.604C87.0667 180.698 81.1041 180.778 73.7443 180.778C66.3845 180.778 60.4352 180.671 60.4352 180.604C60.4352 180.537 66.4046 180.43 73.7577 180.43C81.1107 180.43 87.0667 180.477 87.0667 180.604Z" fill="#257CFF"/>
<path d="M120.55 186.36C120.55 186.454 107.248 186.534 90.8369 186.534C74.4262 186.534 61.1238 186.454 61.1238 186.36C61.1238 186.267 74.4262 186.186 90.8369 186.186C107.248 186.186 120.55 186.267 120.55 186.36Z" fill="#263238"/>
<path d="M120.55 191.334C120.55 191.427 107.248 191.507 90.8369 191.507C74.4262 191.507 61.1238 191.427 61.1238 191.334C61.1238 191.24 74.4262 191.153 90.8369 191.153C107.248 191.153 120.55 191.233 120.55 191.334Z" fill="#263238"/>
<path d="M120.55 196.3C120.55 196.394 107.248 196.474 90.8369 196.474C74.4262 196.474 61.1238 196.394 61.1238 196.3C61.1238 196.207 74.4262 196.126 90.8369 196.126C107.248 196.126 120.55 196.207 120.55 196.3Z" fill="#263238"/>
<path d="M120.55 201.273C120.55 201.367 107.248 201.447 90.8369 201.447C74.4262 201.447 61.1238 201.367 61.1238 201.273C61.1238 201.18 74.4262 201.099 90.8369 201.099C107.248 201.099 120.55 201.173 120.55 201.273Z" fill="#263238"/>
<path d="M120.55 206.24C120.55 206.34 107.248 206.414 90.8369 206.414C74.4261 206.414 61.1037 206.34 61.1037 206.24C61.1037 206.14 74.4061 206.066 90.8168 206.066C107.228 206.066 120.55 206.147 120.55 206.24Z" fill="#263238"/>
<path d="M123.719 94.5536H56.0367V159.528H123.719V94.5536Z" fill="#E0E0E0"/>
<path d="M94.0321 126.754C94.0321 128.445 94.1859 129.428 94.1993 131.132C94.1741 131.342 94.1938 131.555 94.2572 131.757C94.3206 131.958 94.4262 132.144 94.5669 132.302C94.7143 132.402 94.8867 132.46 95.065 132.468C95.2432 132.477 95.4202 132.435 95.5763 132.349C95.8856 132.17 96.1542 131.929 96.3651 131.64C98.2406 129.33 99.371 126.505 99.6071 123.538C99.6327 123.414 99.6335 123.285 99.6094 123.16C99.5853 123.035 99.5368 122.916 99.4667 122.81C99.1993 122.502 98.7047 122.616 98.337 122.81C96.507 123.631 94.9954 125.028 94.0321 126.787" fill="#263238"/>
<path d="M82.6683 106.539L82.7017 108.224L83.0427 133.492C83.0751 134.208 83.2495 134.912 83.5559 135.561C83.8622 136.21 84.2944 136.791 84.8273 137.272C85.3602 137.753 85.9833 138.123 86.6603 138.361C87.3373 138.599 88.0549 138.7 88.7714 138.659C91.9466 138.592 94.5201 136.139 94.5335 133.171C94.5335 130.062 94.607 126.787 94.607 126.787C94.607 126.787 98.6178 126.118 99.4467 120.898C99.8545 118.297 99.7275 114.033 99.5069 110.55C99.4605 109.806 99.2641 109.08 98.9296 108.414C98.5951 107.749 98.1293 107.158 97.5604 106.677C96.9914 106.196 96.3311 105.835 95.619 105.616C94.907 105.397 94.158 105.325 93.4172 105.403L82.6683 106.539Z" fill="#FFBE9D"/>
<path d="M97.4948 113.518C97.4948 113.695 97.4243 113.865 97.299 113.991C97.1736 114.116 97.0036 114.187 96.8263 114.187C96.66 114.187 96.4994 114.126 96.3758 114.015C96.2522 113.904 96.1745 113.75 96.1578 113.585C96.1578 113.408 96.2283 113.238 96.3536 113.112C96.479 112.987 96.649 112.917 96.8263 112.917C96.9926 112.916 97.1532 112.977 97.2768 113.088C97.4004 113.199 97.4781 113.353 97.4948 113.518Z" fill="#263238"/>
<path d="M98.5844 112.763C98.4975 112.856 97.9894 112.475 97.2474 112.482C96.5055 112.489 95.9974 112.843 95.9105 112.756C95.8236 112.669 95.9506 112.555 96.1846 112.388C96.4971 112.173 96.868 112.059 97.2474 112.061C97.6218 112.058 97.9873 112.175 98.2902 112.395C98.5376 112.569 98.6245 112.729 98.5844 112.763Z" fill="#263238"/>
<path d="M90.5161 113.518C90.5161 113.695 90.4456 113.865 90.3203 113.991C90.1949 114.116 90.0249 114.187 89.8476 114.187C89.6813 114.187 89.5207 114.126 89.3971 114.015C89.2735 113.904 89.1958 113.75 89.1791 113.585C89.1791 113.408 89.2496 113.238 89.3749 113.112C89.5003 112.987 89.6703 112.917 89.8476 112.917C90.0139 112.916 90.1745 112.977 90.2981 113.088C90.4217 113.199 90.4994 113.353 90.5161 113.518Z" fill="#263238"/>
<path d="M91.492 112.903C91.4051 112.99 90.897 112.609 90.1551 112.616C89.4131 112.622 88.905 112.977 88.8181 112.89C88.7312 112.803 88.8582 112.689 89.0922 112.522C89.4047 112.307 89.7756 112.193 90.1551 112.194C90.5302 112.194 90.8957 112.313 91.1979 112.535C91.4519 112.703 91.5321 112.863 91.492 112.903Z" fill="#263238"/>
<path d="M94.1057 118.251C94.4876 118.132 94.8828 118.06 95.2822 118.037C95.4627 118.037 95.6365 117.984 95.6699 117.857C95.6838 117.668 95.642 117.48 95.5496 117.315C95.3758 116.867 95.1953 116.399 95.0015 115.911C94.4975 114.722 94.0885 113.495 93.7782 112.241C94.3802 113.386 94.8877 114.577 95.2956 115.804L95.817 117.215C95.9305 117.437 95.9636 117.693 95.9106 117.937C95.8862 118.003 95.846 118.061 95.7936 118.108C95.7411 118.155 95.678 118.188 95.6097 118.204C95.5077 118.234 95.4019 118.25 95.2956 118.251C94.9006 118.302 94.5007 118.302 94.1057 118.251Z" fill="#263238"/>
<path d="M94.6071 126.786C92.1465 126.824 89.7237 126.179 87.6083 124.921C87.6083 124.921 89.3062 128.511 94.5336 128.023L94.6071 126.786Z" fill="#EB996E"/>
<path d="M93.8048 119.989C93.6647 119.818 93.4846 119.685 93.2805 119.601C93.0763 119.517 92.8546 119.485 92.635 119.508C92.4765 119.523 92.3226 119.57 92.1825 119.646C92.0425 119.721 91.919 119.824 91.8195 119.949C91.7212 120.067 91.6625 120.213 91.6517 120.367C91.641 120.52 91.6786 120.673 91.7594 120.804C91.8751 120.935 92.0275 121.028 92.1968 121.071C92.3662 121.114 92.5445 121.105 92.7086 121.045C93.0489 120.924 93.3623 120.738 93.631 120.497C93.7099 120.436 93.7797 120.364 93.8383 120.283C93.8647 120.243 93.8788 120.197 93.8788 120.149C93.8788 120.102 93.8647 120.055 93.8383 120.016" fill="#EB996E"/>
<path d="M91.9866 118.752C92.1003 118.752 92.1069 119.527 92.7754 120.089C93.4439 120.65 94.2794 120.557 94.2861 120.67C94.2928 120.784 94.099 120.818 93.7447 120.831C93.2867 120.837 92.8413 120.681 92.488 120.39C92.1441 120.113 91.9232 119.712 91.873 119.273C91.8529 118.939 91.9331 118.745 91.9866 118.752Z" fill="#263238"/>
<path d="M90.5161 106.105C91.0699 106.267 91.5453 106.626 91.853 107.114C92.1522 107.595 92.4874 108.053 92.8557 108.484C93.3094 108.932 93.8932 109.225 94.5236 109.321C95.154 109.417 95.7986 109.312 96.3651 109.019C96.7863 109.427 97.3411 109.861 97.9026 109.687C98.0617 109.624 98.2018 109.52 98.3094 109.387C98.4171 109.253 98.4888 109.094 98.5176 108.925C98.5697 108.584 98.5184 108.235 98.3705 107.923C97.8224 106.646 96.4119 105.964 95.0282 105.697C93.3635 105.376 91.6431 105.51 90.0482 106.084" fill="#263238"/>
<path d="M77.8955 159.742C78.1428 160.176 76.2912 153.933 76.2912 153.933L74.7403 159.635L63.2294 159.722C63.2294 159.722 69.7336 138.458 72.8219 135.49C76.8326 131.613 84.413 131.406 84.413 131.406L96.091 131.593H96.3517C98.6969 131.883 100.934 132.749 102.863 134.114C104.792 135.478 106.354 137.299 107.408 139.414L115.156 159.501H104.921L102.742 153.572L103.471 159.501" fill="#263238"/>
<path d="M101.365 130.905C101.011 130.062 99.7274 130.096 99.1659 129.381C98.6044 128.665 99.0924 127.482 99.5536 126.593C101.766 122.328 101.559 117.235 101.138 112.462C100.964 110.41 100.757 108.317 99.8678 106.446C98.0964 102.742 93.8116 99.8145 88.504 100.055C84.1656 100.222 80.8634 104.133 78.5171 107.789C76.1708 111.446 74.9208 117.148 75.6896 121.446C76.0773 123.585 78.3634 125.236 77.9623 127.368C77.6949 128.705 76.2912 130.323 76.5652 131.667C76.9396 133.498 79.6 134.133 81.1576 135.176C82.7075 136.318 84.1588 137.588 85.4959 138.973C86.843 140.357 88.4671 141.441 90.262 142.155C92.0869 142.77 94.2728 142.656 95.7434 141.433C98.1699 139.428 97.936 135.464 100.142 133.231C100.784 132.569 101.733 131.807 101.365 130.905ZM97.9426 107.789C98.8317 109.126 98.9052 110.857 99.1125 112.468C99.5443 115.161 99.5759 117.902 99.206 120.604C98.8258 123.32 97.5812 125.842 95.6565 127.796C94.6864 128.758 93.4959 129.468 92.1886 129.864C90.8814 130.26 89.4971 130.33 88.1564 130.069C85.1817 129.401 84.2258 126.727 83.3835 123.819C82.5413 120.911 84.4197 118.204 85.2552 115.269C85.9237 113.003 86.1443 109.808 87.6082 107.963C89.0721 106.118 91.4987 105.991 92.2139 106.024C92.2139 106.018 96.1579 105.102 97.9426 107.789Z" fill="#257CFF"/>
<g opacity="0.3">
<path opacity="0.3" d="M76.8326 129.52C78.5974 130.476 79.9811 131.994 81.4183 133.398C82.8555 134.801 84.4531 136.165 86.3983 136.666C88.3435 137.168 90.7099 136.573 91.6792 134.815C88.8959 135.219 86.0578 134.667 83.6291 133.249C81.2005 131.831 79.3251 129.63 78.3099 127.007" fill="black"/>
</g>
<g opacity="0.3">
<path opacity="0.3" d="M98.8785 128.27C98.6944 128.965 98.3667 129.614 97.9165 130.175C97.4663 130.736 96.9037 131.196 96.2648 131.526C95.9617 131.649 95.678 131.816 95.4225 132.02C95.296 132.125 95.2037 132.265 95.1572 132.422C95.1107 132.579 95.1124 132.747 95.1618 132.903C95.2562 133.061 95.402 133.182 95.5748 133.245C95.7476 133.308 95.937 133.31 96.111 133.25C96.4541 133.116 96.7608 132.903 97.0068 132.629C97.9694 131.7 98.9721 130.69 99.2461 129.38" fill="black"/>
</g>
<path d="M343.538 159.903C344.788 154.641 341.536 149.362 336.275 148.111C331.013 146.86 325.733 150.112 324.482 155.374C323.232 160.636 326.484 165.915 331.746 167.166C337.007 168.417 342.287 165.165 343.538 159.903Z" fill="#E0E0E0"/>
<path d="M332.499 161.8C332.913 161.331 333.372 160.903 333.87 160.523C334.752 159.775 335.982 158.752 337.359 157.636V157.903L337.292 157.843C335.955 156.666 334.725 155.59 333.856 154.795C333.37 154.391 332.922 153.944 332.519 153.458C333.055 153.796 333.561 154.181 334.03 154.607C334.939 155.356 336.176 156.406 337.533 157.582L337.6 157.636L337.76 157.776L337.593 157.903C336.223 159.019 334.966 160.015 334.05 160.717C333.565 161.121 333.046 161.484 332.499 161.8Z" fill="#263238"/>
<path d="M55.2507 160.268C56.4947 155.022 53.2502 149.76 48.004 148.516C42.7577 147.272 37.4963 150.517 36.2524 155.763C35.0084 161.009 38.2529 166.271 43.4992 167.515C48.7454 168.759 54.0068 165.514 55.2507 160.268Z" fill="#E0E0E0"/>
<path d="M47.7345 153.458C47.3134 153.92 46.8526 154.345 46.3575 154.728C45.4751 155.483 44.2518 156.506 42.8748 157.622V157.355L42.9483 157.415C44.2853 158.591 45.5152 159.668 46.3775 160.463C46.8643 160.866 47.3119 161.313 47.7145 161.8C47.1746 161.461 46.6667 161.074 46.1971 160.644C45.2879 159.902 44.0513 158.852 42.701 157.676L42.6275 157.615L42.4737 157.482L42.6341 157.348C44.0112 156.238 45.2679 155.242 46.1837 154.541C46.6639 154.13 47.1833 153.767 47.7345 153.458Z" fill="#263238"/>
<path d="M153.051 61.7857C139.927 68.758 129.166 79.4649 122.128 92.5527C115.089 105.64 112.089 120.521 113.508 135.314C114.926 150.106 120.698 164.146 130.095 175.658C139.492 187.171 152.091 195.638 166.3 199.99C177.852 203.524 190.088 204.218 201.966 202.012C213.844 199.807 225.015 194.768 234.529 187.323L297.853 266.536L307.539 258.815L243.681 178.934C251.25 170.704 256.879 160.882 260.152 150.19C260.948 147.593 261.604 144.956 262.117 142.289C264.784 128.368 263.46 113.976 258.297 100.776C253.134 87.5751 244.342 76.1039 232.938 67.6864C221.534 59.2689 207.982 54.2483 193.846 53.2042C179.711 52.1601 165.568 55.1351 153.051 61.7857ZM206.668 68.1561C220.55 72.405 232.529 81.3358 240.564 93.4268C248.599 105.518 252.193 120.021 250.734 134.465C249.274 148.909 242.852 162.4 232.561 172.639C222.269 182.878 208.746 189.232 194.295 190.619C179.844 192.005 165.359 188.338 153.309 180.242C141.259 172.145 132.389 160.121 128.21 146.218C124.031 132.315 124.803 117.394 130.393 103.996C135.983 90.5975 146.045 79.5522 158.866 72.7418C166.135 68.8548 174.103 66.4482 182.308 65.661C190.513 64.8739 198.793 65.722 206.668 68.1561Z" fill="#455A64"/>
</g>
</g>
<defs>
<filter id="filter0_d_50_569" x="0.213428" y="20.804" width="379.365" height="285.082" filterUnits="userSpaceOnUse" color-interpolation-filters="sRGB">
<feFlood flood-opacity="0" result="BackgroundImageFix"/>
<feColorMatrix in="SourceAlpha" type="matrix" values="0 0 0 0 0 0 0 0 0 0 0 0 0 0 0 0 0 0 127 0" result="hardAlpha"/>
<feOffset dy="3.57734"/>
<feGaussianBlur stdDeviation="17.8867"/>
<feComposite in2="hardAlpha" operator="out"/>
<feColorMatrix type="matrix" values="0 0 0 0 0.331875 0 0 0 0 0.459415 0 0 0 0 0.651458 0 0 0 0.4 0"/>
<feBlend mode="normal" in2="BackgroundImageFix" result="effect1_dropShadow_50_569"/>
<feBlend mode="normal" in="SourceGraphic" in2="effect1_dropShadow_50_569" result="shape"/>
</filter>
<clipPath id="clip0_50_569">
<rect width="379" height="320" fill="white"/>
</clipPath>
</defs>
</svg>
