<svg width="20" height="20" viewBox="0 0 20 20" fill="none" xmlns="http://www.w3.org/2000/svg">
<g clip-path="url(#clip0_50_405)">
<path d="M19.5281 7.35395L13.05 6.75313L10.4767 0.777788C10.2966 0.35939 9.70334 0.35939 9.52318 0.777788L6.94994 6.75317L0.47187 7.35395C0.018277 7.39602 -0.165043 7.9602 0.177183 8.26082L5.06491 12.5546L3.63452 18.9013C3.53436 19.3457 4.01429 19.6944 4.40596 19.4618L9.99998 16.1402L15.594 19.4618C15.9857 19.6944 16.4656 19.3457 16.3655 18.9013L14.935 12.5546L19.8228 8.26082C20.165 7.9602 19.9817 7.39602 19.5281 7.35395Z" fill="#FFDC64"/>
<path d="M10.4767 0.777788C10.2966 0.35939 9.70334 0.35939 9.52318 0.777788L6.94994 6.75317L0.47187 7.35395C0.018277 7.39602 -0.165043 7.9602 0.177183 8.26082L5.06491 12.5546L3.63452 18.9013C3.53436 19.3457 4.01429 19.6944 4.40596 19.4618L5.65452 18.7204C5.82733 11.6071 9.1324 6.59789 11.7491 3.73231L10.4767 0.777788Z" fill="#FFC850"/>
</g>
<defs>
<clipPath id="clip0_50_405">
<rect width="20" height="20" fill="white"/>
</clipPath>
</defs>
</svg>
